<?xml version="1.0" encoding="UTF-8"?>
<svg id="Layer_1" xmlns="http://www.w3.org/2000/svg" version="1.1" viewBox="0 0 1920 1080">
  <!-- Generator: Adobe Illustrator 29.1.0, SVG Export Plug-In . SVG Version: 2.1.0 Build 142)  -->
  <defs>
    <style>
      .st0 {
        fill: #5d4429;
      }

      .st1 {
        fill: #151009;
      }

      .st2 {
        fill: #fcfcfc;
      }

      .st3 {
        fill: #030302;
      }

      .st4 {
        fill: #9e9edf;
      }

      .st5 {
        fill: #f6f6f6;
      }

      .st6 {
        fill: #fff;
      }

      .st7 {
        fill: #3615ff;
      }

      .st8 {
        fill: #251c10;
      }

      .st9 {
        fill: #e1e1e1;
      }

      .st10 {
        fill: #312014;
      }

      .st11 {
        fill: #060606;
      }

      .st12 {
        fill: #ad804b;
      }

      .st13 {
        fill: #0c0a08;
      }

      .st14 {
        fill: #f9f9f9;
      }

      .st15 {
        fill: #130e08;
      }

      .st16 {
        fill: #363636;
      }

      .st17 {
        stroke: #000;
        stroke-width: 6px;
      }

      .st17, .st18 {
        fill: none;
        stroke-miterlimit: 10;
      }

      .st19 {
        fill: #f6f6fb;
      }

      .st20 {
        fill: #dfdfe9;
      }

      .st21 {
        fill: #595959;
      }

      .st22 {
        fill: #030201;
      }

      .st23 {
        fill: #fcfcfd;
      }

      .st24 {
        fill: #fefdfd;
      }

      .st25 {
        fill: #dfdfdf;
      }

      .st26 {
        fill: #484848;
      }

      .st27 {
        fill: #0000fe;
      }

      .st28 {
        fill: #412f2c;
      }

      .st18 {
        stroke: #0a0908;
      }

      .st29 {
        fill: #fefefe;
      }

      .st30 {
        fill: #e7e7e7;
      }

      .st31 {
        fill: #fafafa;
      }

      .st32 {
        fill: #d2d2d2;
      }

      .st33 {
        fill: #f8f8f8;
      }

      .st34 {
        fill: #f8f8fb;
      }

      .st35 {
        fill: #1b1918;
      }

      .st36 {
        fill: #fdfdfd;
      }
    </style>
  </defs>
  <path class="st18" d="M-471.1,945.1"/>
  <g>
    <path class="st27" d="M836.1,1365.9c0-1.1-5.1-5.8-3.9-9.5l-7.3-182,135,19.7c-5.4,67.5-6.7,135.5-11.1,203-6.3,12.4-13.3,24.4-21.1,36.2l-12.7,2.9c-6.1-.9-12.5-2.8-18.8-3.9l-4.4-3.2c17.5-55,3.7-62.8-48.5-57.9l-7.3-5.3Z"/>
    <path class="st23" d="M851.3,1409c-20-3.6-39.9-7.9-59.7-12.1-1.5-18,.6-36.4-.4-54.3,14.3-8.6,59.1-3.2,67.9,9.5,9.6,17.8-3.7,39-7.8,57Z"/>
    <path class="st34" d="M1168.3,1309c-1.7,24.5,3.4,49.9-4.1,73.8-8.6,1.3-17.3.2-25.9.4-7.9-40.1-29.2-76.7,30.1-74.2Z"/>
    <path class="st19" d="M1123.2,1383.3c-15,0-30.1,0-45.1,0-.7-15.5,1-31.5,0-46.9,23.2,6.2,25,36.2,45.1,46.9Z"/>
    <path class="st20" d="M903.9,1373.8c-.9,14.3.7,28.7-4,42.7-3.1,2.8-23.4-2.6-29.8-3.6,13.2-10.9,15.9-34.5,33.8-39.1Z"/>
    <path class="st11" d="M809.6,1389c-2.1-11.6,1.5-8.1,2.6-16,2.5-17.2-1.7-29.9,15.8-41.6,18.4-12.3,83.4-13.3,88.5,16.1l-9.5,41.5c24.7-3,22.3-42.5,52-41,11.2,0,14.3,7.6,17,17.1,12.1,43.2,14.6,86.1-22,117.1-31,26.3-53.5,16.1-88.3,22.8-16.2,3.1-34.7,14.5-51.6,15.9-40.2,3.2-76-22.1-81-63.3-2.3-19.2,4.8-30.2,3.1-47.7,20.8-10.6,37.7-28.8,63.2-24.2.2,6.1-9.6,4.8-13.4,6.7,1.9,4.3-1.4,6.6-10.1,6.8,1.9,6.9-3.1,10.7-15.2,11.3l1.8,2.3c8.2,4.7,5.6,8.6-3.4,6.8-.3,5.5-8.6,8.1-13.4,6.8-1.3,2-1.3,4.3,0,6.8.6-3.1,1.8-2.9,3.4,0,4.5-2.8,6.3-1.2,3.4,3.4-6.1,81.2,63.2,70,117.4,48.6,37.5.1,65.8-1.5,89.6-34.5l8-.5c.9-4.1-.2-8.6-3.4-13.6-1-2.4-2.2-5.3-.9-7.3,2.6-4.1-2.8-58.5-6.3-64.3-.5-.8-6,1.7-6.6,3.3-20.8,48.2-81,61.5-51.4-10.9,7.2-25.1-73.6-22.1-69,4.8,1.7,12-.6,21-6.9,26.8-4.1,9.1-9.2,9.1-13.4,0Z"/>
    <path class="st26" d="M823,1389c2-11.9,48.9,11.1,50.5,13.5,11.9,17.9-17.3,23.2-31.2,16.1-1.4,11.7-10.2,11.7-19.8,11.1,6.8,10.1,8.6,15.3-5.3,18.6-3,.7-56.2-20.9-57.5-23.7-.7-1.4-.7-3.2-.5-5l3.4-6.8,4.6-4.1c15.7,1.1,18.6-2.1,8.9-9.4,3-1.7,5.7-4.5,10.1-6.8l26.9,6.7c-1.5-3.4-2.7-6.4-3.4-10.1,4.3.5,9.4-.7,13.4,0Z"/>
    <path class="st24" d="M823,1389c.6-15.8-3.6-35.3,8.7-47.1,12.2-9.3,62.5-11.4,72.2,1.1,10.4,13.3-18.7,55.1-1.8,59.4,9.8-2.2,21.3-7.8,28.4-14.9,12.8-12.9,9.3-32.8,33.3-28.8l8.5,71c-2,3.4-5.3,4.9-8.4,6.8l-1.6,4.3c-51,13.8-100.8,29-149.4,45.5-8.8-28-34.2-52.6-64.1-53.2-1.1.2-2.3-.2-3.4,0-1.9-3.4-1.9-5.7,0-6.8,3.9-5.7,5.4-7.5,13.4-6.8l63.8,23.7-13.4-20.3h26.9c0,0-6.7-13.6-6.7-13.6l36.8,6.7,3.6-10.1c-16.1-2.3-31.5-14.2-47.1-17Z"/>
    <path class="st36" d="M752.5,1436.4c24.4-7.2,51.6,24.2,60.4,47.1,12.8-.9,26.2-5.2,40.2-12.7l78-19.2c27.5-12.7,39.7-13.3,36.4-1.7-8.6,14.3-31.3,34.3-47.7,38.3-15.9,4-29.2.8-44.4,2.7-34.9,4.3-65.6,30.9-104.1,9.3-17.7-9.9-37.4-46.9-18.9-63.9Z"/>
    <path class="st16" d="M964.2,1436.4c9.1,5.1,8.3,5.3,3.4,13.6,1.3-10.6-3.1-6.5-9.4-4.5-34.9,10.9-63.9,17.1-98.1,26.5-19.3,5.3-32.5,14.8-50.4,22.1-1.5-30.9-28.8-52.6-57.1-57.6-.7-.1-2.1-2.7-3.4-3.4.9-.2,2.8-3.3,5.4-3.4,27.4-.5,52,31.5,63.4,53.8,41.1-28,104.8-22.2,146.2-47.1Z"/>
    <path class="st30" d="M776,1399.1c11.8-1.5,16.3,7.8,20.2,16.9-11.2-1.8-22.4-2.4-33.6-3.4-2.2-.2-4.5.3-6.7,0l1.6-3.4c5.5-4.6,12.4-6.7,18.5-10.1Z"/>
    <path class="st16" d="M745.7,1433l-3.3-5.1c.3-1.3,3-1.1,3.3-1.7v6.8Z"/>
    <path class="st9" d="M826.4,1419.4c-2.2,2-34.1-4.7-30.2-16.9,2.2-2,34.1,4.7,30.2,16.9Z"/>
    <path class="st25" d="M809.6,1436.4l-36.9-16.9c14-1.2,34.4-2.4,36.9,16.9Z"/>
    <path class="st32" d="M849.9,1402.5c.2,6.7-13.8,2.9-17,1.9-6.7-2-14-4.8-16.6-12.1l33.6,10.2Z"/>
    <path class="st27" d="M1144,1370.8c0-1.1,5.1-5.8,3.9-9.5l7.3-182-135,19.7c5.4,67.5,6.7,135.5,11.1,203,6.3,12.4,13.3,24.4,21.1,36.2l12.7,2.9c6.1-.9,12.5-2.8,18.8-3.9l4.4-3.2c-17.5-55-3.7-62.8,48.5-57.9l7.3-5.3Z"/>
    <path class="st23" d="M1128.7,1414c20-3.6,39.9-7.9,59.7-12.1,1.5-18-.6-36.4.4-54.3-14.3-8.6-59.1-3.2-67.9,9.5-9.6,17.8,3.7,39,7.8,57Z"/>
    <path class="st20" d="M1076.1,1378.8c.9,14.3-.7,28.7,4,42.7,3.1,2.8,23.4-2.6,29.8-3.6-13.2-10.9-15.9-34.5-33.8-39.1Z"/>
    <path class="st11" d="M1170.5,1393.9c2.1-11.6-1.5-8.1-2.6-16-2.5-17.2,1.7-29.9-15.8-41.6-18.4-12.3-83.4-13.3-88.5,16.1l9.5,41.5c-24.7-3-22.3-42.5-52-41-11.2,0-14.3,7.6-17,17.1-12.1,43.2-14.6,86.1,22,117.1,31,26.3,53.5,16.1,88.3,22.8,16.2,3.1,34.7,14.5,51.6,15.9,40.2,3.2,76-22.1,81-63.3,2.3-19.2-4.8-30.2-3.1-47.7-20.8-10.6-37.7-28.8-63.2-24.2-.2,6.1,9.6,4.8,13.4,6.7-1.9,4.3,1.4,6.6,10.1,6.8-1.9,6.9,3.1,10.7,15.2,11.3l-1.8,2.3c-8.2,4.7-5.6,8.6,3.4,6.8.3,5.5,8.6,8.1,13.4,6.8,1.3,2,1.3,4.3,0,6.8-.6-3.1-1.8-2.9-3.4,0-4.5-2.8-6.3-1.2-3.4,3.4,6.1,81.2-63.2,70-117.4,48.6-37.5.1-65.8-1.5-89.6-34.5l-8-.5c-.9-4.1.2-8.6,3.4-13.6,1-2.4,2.2-5.3.9-7.3-2.6-4.1,2.8-58.5,6.3-64.3.5-.8,6,1.7,6.6,3.3,20.8,48.2,81,61.5,51.4-10.9-7.2-25.1,73.6-22.1,69,4.8-1.7,12,.6,21,6.9,26.8,4.1,9.1,9.2,9.1,13.4,0Z"/>
    <path class="st26" d="M1157,1393.9c-2-11.9-48.9,11.1-50.5,13.5-11.9,17.9,17.3,23.2,31.2,16.1,1.4,11.7,10.2,11.7,19.8,11.1-6.8,10.1-8.6,15.3,5.3,18.6,3,.7,56.2-20.9,57.5-23.7.7-1.4.7-3.2.5-5l-3.4-6.8-4.6-4.1c-15.7,1.1-18.6-2.1-8.9-9.4-3-1.7-5.7-4.5-10.1-6.8l-26.9,6.7c1.5-3.4,2.7-6.4,3.4-10.1-4.3.5-9.4-.7-13.4,0Z"/>
    <path class="st24" d="M1157,1393.9c-.6-15.8,3.6-35.3-8.7-47.1-12.2-9.3-62.5-11.4-72.2,1.1-10.4,13.3,18.7,55.1,1.8,59.4-9.8-2.2-21.3-7.8-28.4-14.9-12.8-12.9-9.3-32.8-33.3-28.8l-8.5,71c2,3.4,5.3,4.9,8.4,6.8l1.6,4.3c51,13.8,100.8,29,149.4,45.5,8.8-28,34.2-52.6,64.1-53.2,1.1.2,2.3-.2,3.4,0,1.9-3.4,1.9-5.7,0-6.8-3.9-5.7-5.4-7.5-13.4-6.8l-63.8,23.7,13.4-20.3h-26.9c0,0,6.7-13.6,6.7-13.6l-36.8,6.7-3.6-10.1c16.1-2.3,31.5-14.2,47.1-17Z"/>
    <path class="st36" d="M1227.6,1441.4c-24.4-7.2-51.6,24.2-60.4,47.1-12.8-.9-26.2-5.2-40.2-12.7l-78-19.2c-27.5-12.7-39.7-13.3-36.4-1.7,8.6,14.3,31.3,34.3,47.7,38.3,15.9,4,29.2.8,44.4,2.7,34.9,4.3,65.6,30.9,104.1,9.3,17.7-9.9,37.4-46.9,18.9-63.9Z"/>
    <path class="st16" d="M1015.9,1441.4c-9.1,5.1-8.3,5.3-3.4,13.6-1.3-10.6,3.1-6.5,9.4-4.5,34.9,10.9,63.9,17.1,98.1,26.5,19.3,5.3,32.5,14.8,50.4,22.1,1.5-30.9,28.8-52.6,57.1-57.6.7-.1,2.1-2.7,3.4-3.4-.9-.2-2.8-3.3-5.4-3.4-27.4-.5-52,31.5-63.4,53.8-41.1-28-104.8-22.2-146.2-47.1Z"/>
    <path class="st30" d="M1204.1,1404.1c-11.8-1.5-16.3,7.8-20.2,16.9,11.2-1.8,22.4-2.4,33.6-3.4,2.2-.2,4.5.3,6.7,0l-1.6-3.4c-5.5-4.6-12.4-6.7-18.5-10.1Z"/>
    <path class="st16" d="M1234.3,1438l3.3-5.1c-.3-1.3-3-1.1-3.3-1.7v6.8Z"/>
    <path class="st9" d="M1153.7,1424.4c2.2,2,34.1-4.7,30.2-16.9-2.2-2-34.1,4.7-30.2,16.9Z"/>
    <path class="st25" d="M1170.5,1441.4l36.9-16.9c-14-1.2-34.4-2.4-36.9,16.9Z"/>
    <path class="st32" d="M1130.2,1407.5c-.2,6.7,13.8,2.9,17,1.9,6.7-2,14-4.8,16.6-12.1l-33.6,10.2Z"/>
    <g>
      <path d="M858.8,1107.2c4-.6,7.9-1.2,11.9-1.8,2.4-.4,5.8-.7,9.3-1.4-2.2-1.3-4.5-2.5-6.8-3.4-2.9,4.6-8.5,7.1-13.7,4.1-.2.8-.5,1.7-.7,2.5Z"/>
      <path d="M845.8,1073.2c2.9-10.8,3.7-22,7.1-32.6,0-.2.2-.4.2-.6-3-1.1-6-2.3-8.9-3.6,0,0-.2,0-.2,0,.4,12.3,1.1,24.5,1.8,36.9Z"/>
      <path d="M892.3,1084.1c.7-8.9,2.2-17.8,3.3-26.6-5.6,4.2-11.6,7.5-17.8,9.7-2.6.9-5.3.5-7.7-.8-.6,3-1.2,6-1.8,9,4.2.4,8.4,1.7,11.7,3,4,1.6,8.2,3.5,12.2,5.7Z"/>
      <path d="M945.6,1021.5c-1.9,22.8-8.5,44.7-10.6,67.5-1.8,19-7.3,34.5-16.1,51.2-5.7,10.7-13.8,20.2-26.6,17.3-6.7-1.5-12.8-5.5-18.5-9.3-2.5-1.6-4.7-3.2-6.8-4.5-8.1,1.2-16.3,2-24.2,2.5-9.5.6-12.4-9-9.6-16.3-3.7-1.3-7-3.5-9.6-6.9-2.7-.8-5.1-2.5-6.5-5.2-9.5-18.2-12.6-39.1-14.1-59.5-.2-2.5.3-4.6,1.2-6.3-6.4-20.5-10.4-51.5,19-48.7,12.1,1.2,25.1,6.3,37.2,4.4,10.4-1.6,20.2-6.5,30.6-8.4,9.1-1.6,17.7-1.3,26.9,0,6.1.9,9.2,8.8,7.8,14.3,0,.2-.1.5-.2.7,6.3-7.3,21.1-5.2,20.1,6.9Z"/>
      <g>
        <path class="st7" d="M897.6,569.8c46,6.9,95.2,9.6,140-4.7.7-.2,1.5.2,2.2,0l6.7-2.3c4.9-1.4,9.7-2.9,14.4-4.6,10.4,19.7,54.9,73.7,54.9,73.7-14.2,8.7-29.8,16.2-46.8,22.6-2.7,2.5-3.9,5.5-2.4,9l27.1,24.4-94.9,119.1-1,3.2c2.3-10.7,3.3-25.9,1.6-32.1-.4-1.4-2.8-1.8-4.5-2.1l-8.1-19.8s-80.2-179.9-88.3-184.2l-1-2.3Z"/>
        <path d="M1060,551.1c.6-.4,7.8-1.4,10.4-2.1l5.8,3.1c-4.9,2.2-10,4.2-15.2,6-2.3-4.4-3-7.1-1-7Z"/>
        <path d="M933.2,5.4c71.6-2.5,209-2.6,243.7,77.8,30.4,70.5,11.9,117.5,8.5,186.8-1.9,39.3,14,64.6,11.4,105.1-5.3,82.2-51.3,146.3-120.7,177l-5.8-3.1c-2.6.7-9.8,1.7-10.4,2.1-2,0-1.3,2.6,1,7-4.7,1.7-9.5,3.2-14.4,4.6l-6.7,2.3c-.7.2-1.5-.2-2.2,0-44.7,14.4-94,11.6-140,4.7l1,2.3c8.1,4.4,88.3,184.2,88.3,184.2l8.1,19.8c1.7.2,4.1.6,4.5,2.1,1.7,6.2.7,21.4-1.6,32.1l1-3.2,94.9-119.1-27.1-24.4c-1.5-3.5-.3-6.5,2.4-9,17-6.4,32.6-13.9,46.8-22.6,0,0-44.5-54.1-54.9-73.7,5.2-1.8,10.2-3.8,15.2-6l119,64.1c10.8,9.2,5.1,75.6,3.5,92-5.9,62.4-24.9,127.7-28.9,189.2-5.1,79.2,12.1,166.2,4.2,244.5-3.9,38-23.9,35.3-49.8,53.3v1.1c-35.3,7.8-68.8,16.6-104,24.2l-.6,2.2-18,1.3-11.1-26.9-13.4,22.2-26.9,1.1v1.5c0,0-.4,0-.4,0-38.2-5.9-76.6-5.1-114.7-18.1l-4,.7c-15.4-4.9-38-11.2-41.7-30.1-9.5-81.7-11.4-165-20.7-246.6-6.2-54.4-18.2-108.4-22.4-163.3-2.2-28.5-8.5-114.1,10.1-134.1l104.2-68.8c-34.1-13.3-64.6-26.3-94-49.2-5.5-4.3-20.8-21.4-24.9-23.2-4.5-2-14.3,5.2-26.8,0-30.5-12.5-55.3-71.3-50.6-103.8,1.4-9.7,9.8-22.5,10.2-26.8.9-9.6-6-38.1-6.7-52.4l-2.2-16.3C651,79.7,744.1,12.1,933.2,5.4Z"/>
      </g>
      <path class="st4" d="M1046.5,562.8c-1.5.4-3.4,1.5-6.7,2.3l6.7-2.3Z"/>
      <path class="st4" d="M1055.5,565.1l-6.7,2.3c.7-.2,3.7-1.6,6.7-2.3Z"/>
      <path class="st12" d="M755.1,292.3c17-105.9,72.5-109.7,162.8-123.3,62.6-9.4,196.9-26.4,250.3,7.1,8.3,5.2,20.7,15.9,21.7,26.6,1.3,14.9-7.9,43.1-9,60.3-2.5,38.2,8.5,51.6,11.3,81.7,10.9,117.5-82.3,205-189.4,213.3-91.8,7.1-194.6-15.9-260.3-86-31.3,26.1-66.9-38.1-70-64.6-2.9-24-1.9-41.6,24.4-45.2l-15.4-2.5c-1.5-1.3-1.8-13-2.5-16.1l1.7-4.8,64.9-4.2c2.5-5.8,3.3-12.7,2.6-20.8l4.7-2.9c-6.3-3.2-4.8-17.6,2.2-18.7Z"/>
      <path class="st29" d="M880.7,565.1l-56,66.4,65,23.4-40.1,34.7,138.8,156.6c-.8,67.6,1.1,135.3.1,202.9-.5,36.3,1.7,92.2-2.3,125.9-1.2,10.2-12,25.4-15,36.2-25.1-1.7-50.8-1.7-75.8-4.8-19.2-2.4-78-12-90.7-24.6-4.9-4.8-5.6-9.7-6.6-16.5-10.3-72-10.3-150.7-18.2-223.6-8.8-81.4-30.7-172.4-27-254.3.5-11.4,3.5-42.8,10.7-50.1,28.6-22.3,70.2-40.6,96.8-64.2,3.6-3.2,7.5-4.9,4.7-10.3l15.7,2.3Z"/>
      <path class="st29" d="M1082.4,569.8l107.1,57.6c8.8,80.8-16.5,162.5-26.1,242.3-10.6,88.4,8.2,174.5,1.9,260.8-1.7,22.7-3.4,32.2-23.1,43.6-37.8,21.8-92.4,28.2-133.7,41.6-3.3-13.2-12.3-22.2-13.6-36-3.9-41,2.1-85.1,2.4-125.9.6-74.6-1.4-149.1,2.6-223.5l111.4-140.8c2.3-8.8-23.4-19.7-26.7-28.7l56-24.6-58.3-66.4Z"/>
      <g>
        <path class="st6" d="M996.5,776.4l65.3-213.2c9.2,8.6,54,52,74,71.3l-58.4,24.6,32,28.6-115,157.1,2.1-68.4Z"/>
        <path d="M1062.5,565.9c10.8,10.2,45.2,43.5,70.6,68.1l-54.1,22.8-4.4,1.8,3.5,3.2,29.2,26.1-111.4,152.1,1.9-63.4,64.6-210.7M1061,560.5l-66.1,215.6-2.2,73.5,118.7-162.1-31.3-27.9,58.3-24.6s-76.9-74.5-77.4-74.5h0Z"/>
      </g>
      <path class="st29" d="M891.8,574.4l95.4,205.1,1,56.1c-4.5-2.9-15.5-21.5-19.1-25.6-19.6-22.5-37.9-46-57.2-68.8-7.4-8.7-42.9-47.4-46.7-54.3-.3-.6,42.3-37.9,42.2-37.8l-62.7-24.6c7.1-7.3,38.6-51.7,47-50.1Z"/>
      <path class="st0" d="M752.9,310.9c-.7,5.2.5,41.9-3.7,44.4l-70.2,4.6c-2.1-8.9-3-30.7-4.5-39.6-2-6.6-1.2-10.4,2.3-11.5l53,.2c9.2-2.1,16.9-1.4,23.2,2Z"/>
      <path class="st10" d="M755.1,292.3c-.9,5.5-1.4,12.6-2.2,18.7-23.2,5.7-49.2.4-73,2.3-6.9.6-5.8-1.2-5.5,7-1.1-6.7-7.5-22.2-3.5-28.1l84.2.2Z"/>
      <path class="st27" d="M1080.2,565.1c-1.1,1.1-3.6,2.5-1.1,2.3s1.6-2.9,1.1-2.3Z"/>
      <path class="st13" d="M826.8,359.9l-11.2,5.8c20-29.4,48.6-41.4,82.4-32.1,31.4,8.6,43.9,15.7,33,52-10.1,33.9-56,39.1-83.4,26.1-22.2-10.6-21.8-29.1-20.9-51.7Z"/>
      <path class="st22" d="M880.2,246.2c8.6-1.1,22.6,2,28.6,8.7s4.7,3.2,1.1,5.9c-20.9-2.6-45.8,19.1-62.2,21.7-4,.6-4.9.3-7.3-3.1,7.6-15.8,22.2-31,39.9-33.2Z"/>
      <path class="st3" d="M1142.9,238.6c-8.7,1.7-16.1-5.6-23.7-6.8-14.7-2.4-29.3,3.1-42.4,2.3-3.4-.2-6.5,1.7-5.7-3.6,1.6-10.4,27.8-18.1,36.9-17.6s34.8,11.7,34.8,25.7Z"/>
      <path class="st8" d="M1042.1,488.2c-18,17.6-49.6,18.8-67.2,0,20.7,7.7,45.4,1.9,67.2,0Z"/>
      <path class="st1" d="M703.6,387.9c-.7,4.7-7.4,1.4-10.1,6.9-4.9,9.9,3.3,30.3,11.2,37.3l5.5-12.9,6.7,2.4c-7.9,6.9-6.4,12.8-4.4,22.1-16.8-1.2-27.3-32.9-24.6-47.7l2-5,13.7-3.2Z"/>
      <path class="st15" d="M1026.4,394.9c-7.9.2-6.6-10.6-14.7-11.7-7-1-15.2,4.5-20.1,9.4-3.3-3.1,2.8-10.3,5.7-12.7,13.9-11.7,30.9-3.6,29,15.1Z"/>
      <path class="st2" d="M891.9,1110.7c-3.1.8-3.6,2-9,2.3l9-2.3Z"/>
      <path class="st2" d="M898.6,1108.4c-.7,2.6-2.9,1.8-4.5,2.3.7-2.4,2.7-2,4.5-2.3Z"/>
      <path class="st2" d="M831.3,1108.4c-2.3-.8-3-1.6-4.5-2.3l4.5,2.3Z"/>
      <path class="st2" d="M905.3,1106.1c-1.6.9-2.2,1.7-4.5,2.3l4.5-2.3Z"/>
      <path class="st2" d="M838.1,1110.7c-1.9-.3-3.9,0-4.5-2.3,1.8.4,3.8,0,4.5,2.3Z"/>
      <path class="st21" d="M1012.2,1083.1c17.2-5.4,21.2,22.5,5.8,24.9-14.8,2.3-18.3-20.9-5.8-24.9Z"/>
      <path class="st14" d="M1113.8,371.5l13.1-13.2c10.8-17.4,7.8-41.3-6.3-55.6,16.5-4.9,33.2,14.9,30.5,31.5-2.4,14.9-21.9,36.7-37.2,37.2Z"/>
      <path class="st33" d="M1111.5,371.6c.5,4-5.1,2.2-7.8,2.3-39.6,1.4-54.1-36-20.2-58.3-3.9,24.5-1.6,54.9,28,56Z"/>
      <path class="st31" d="M869.4,341.3c-.4,3.8-5,3.1-7.8,7-24.1,34,9.9,81.9,35.9,53.7,12.5-13.6,12.5-38.2,1-52.6l31.1,16.7c.2,11.2-3.4,26.4-11.2,34.3-19.6,19.8-77.6,19.5-86.2-12.4-8.7-32.3,7.1-45.4,37.1-46.8Z"/>
      <path class="st28" d="M877.8,344c8.8-1.2,17.2,7,21.3,14.1,5.7,21,1.2,51.2-25.9,45.6-22.1-10.5-19.1-56.4,4.5-59.7Z"/>
      <path class="st5" d="M1014.5,1085.3c11.3-2.9,13.2,18.4,1.8,18.5-9,0-10.9-16.1-1.8-18.5Z"/>
    </g>
    <path class="st13" d="M1156.4,321.6l11.2,5.8c-20-29.4-48.6-41.4-82.4-32.1-40,10.9-35.3,44.4-33,52,10.1,33.9,56,39.1,83.4,26.1,22.2-10.6,21.8-29.1,20.9-51.7Z"/>
    <path class="st31" d="M1113.8,303c.4,3.8,5,3.1,7.8,7,24.1,34-9.9,81.9-35.9,53.7-12.5-13.6-12.5-38.2-1-52.6l-31.1,16.7c-.2,11.2,3.4,26.4,11.2,34.3,19.6,19.8,77.6,19.5,86.2-12.4,8.7-32.3-7.1-45.4-37.1-46.8Z"/>
    <path class="st28" d="M1105.5,305.8c-8.8-1.2-17.2,7-21.3,14.1-5.7,21-1.2,51.2,25.9,45.6,22.1-10.5,19.1-56.4-4.5-59.7Z"/>
    <ellipse cx="880.7" cy="372.7" rx="13.5" ry="22.2"/>
    <ellipse cx="1102.6" cy="337.7" rx="13.5" ry="22.2"/>
    <g>
      <path class="st6" d="M1019.6,1012.3c-5.9,0-10.7-5-10.7-11.2s4.8-11.2,10.7-11.2,10.7,5,10.7,11.2-4.8,11.2-10.7,11.2Z"/>
      <path d="M1019.6,990.5c5.6,0,10.2,4.8,10.2,10.7s-4.6,10.7-10.2,10.7-10.2-4.8-10.2-10.7,4.6-10.7,10.2-10.7M1019.6,989.5c-6.2,0-11.2,5.2-11.2,11.7s5,11.7,11.2,11.7,11.2-5.2,11.2-11.7-5-11.7-11.2-11.7h0Z"/>
    </g>
    <g>
      <path class="st6" d="M1017.3,919.1c-5.9,0-10.7-5-10.7-11.2s4.8-11.2,10.7-11.2,10.7,5,10.7,11.2-4.8,11.2-10.7,11.2Z"/>
      <path d="M1017.3,897.3c5.6,0,10.2,4.8,10.2,10.7s-4.6,10.7-10.2,10.7-10.2-4.8-10.2-10.7,4.6-10.7,10.2-10.7M1017.3,896.3c-6.2,0-11.2,5.2-11.2,11.7s5,11.7,11.2,11.7,11.2-5.2,11.2-11.7-5-11.7-11.2-11.7h0Z"/>
    </g>
    <polygon points="848.6 582.5 876 560.5 860.5 561.6 848.6 582.5"/>
    <path class="st17" d="M916.5,616.3s44.8,17.9,130-8.5"/>
    <g>
      <path class="st6" d="M725.5,987.5c-14.3,0-26.5-4.7-34.3-13.1-7.8-8.4-11.2-20.2-10.1-35.1l5.6-234.2c0-42.4,37.7-76.8,84-76.9h.1c5.4,1.3,9.2,5.5,9.1,10.4l-2.7,313.3c0,21.3-26.7,35.7-51.7,35.7Z"/>
      <path d="M770.4,630.2c4.4,1.1,7.5,4.5,7.5,8.3l-2.7,313.3c0,8.9-5.4,17.4-15.2,23.8-9.6,6.3-22.1,9.8-34.5,9.8s-25.4-4.4-32.9-12.5c-7.4-8-10.6-19.3-9.6-33.6h0c0-.1,0-.2,0-.2l5.6-234.1h0c0-41.2,36.6-74.7,81.8-75M770.9,626.2h0c-47.6,0-86.2,35.3-86.2,78.9l-5.6,234.1c-2.7,36.1,21.2,50.4,46.4,50.4s53.7-15.4,53.7-37.7l2.7-313.3c0-5.8-4.4-10.9-10.7-12.3-.1,0-.2,0-.3,0h0Z"/>
    </g>
    <path class="st35" d="M749.3,1070.2c7.5.1,11.9-5.5,17.2-9.9,15.6,9.4,37.1,2.2,32.9-19.4-.8-3.8-4.5-9.8-4.3-11.8.3-3.1,5.8-7,5-15.1-1.3-11.7-23.1-39.1-32.8-45.5-19.6-13.1-60.8-8.1-78.1,7.8-16.4,15.1-20.2,55.3-9.6,74.4,6,10.9,11.9,7.1,19.7,10.4,4.1,1.7,6.5,6.9,11.9,8.5,10.6,3.1,16.3-3.1,25.2-2.8,4.2.1,8.7,3.5,12.9,3.6Z"/>
    <path class="st12" d="M759.8,1036.3c3.4,15.1,14.9,28,30.4,19.4,15.3-8.5-5.6-34.4-2.8-48.4l5.2,17.3c6.7-.2,4.6-10.7,3.4-15.5s-19.9-28.7-25.3-33.2c-21.1-17.4-72.3-10.8-86,14.2-8.8,16.1-15.1,69,12.6,66.5-3.1-10.6-4.2-25.6,3.3-34.3-5.8,19.6,2.8,51,27.4,43.5,8.4-2.6-2.7-11.4-4.9-17.7-3.3-9.4-3.9-24,2.3-32.1-7.6,23.8,13.8,64.4,38.5,42.9l-7.5-22.1.4-29.6c1.7,9.2,1,20.3,3,29.2Z"/>
    <g>
      <path class="st6" d="M1212.4,968.4c-25,0-51.7-14.3-51.7-35.7l-2.7-313.3c0-4.8,3.7-9.1,9.2-10.3h.1c46.3,0,84,34.5,84,76.8l5.6,234.2c1.1,14.9-2.3,26.7-10.1,35.1-7.8,8.5-20,13.1-34.3,13.1h0Z"/>
      <path d="M1167.5,611.1c45.1.2,81.8,33.7,81.8,74.9h0s0,0,0,0l5.6,234.1h0c0,.1,0,.2,0,.2,1.1,14.3-2.1,25.6-9.6,33.6-7.5,8-19.1,12.5-32.9,12.5s-24.9-3.6-34.5-9.8c-9.8-6.4-15.2-14.9-15.2-23.8l-2.7-313.3c0-3.9,3-7.3,7.5-8.3M1167.1,607.1h0c-.1,0-.2,0-.3,0-6.4,1.5-10.8,6.5-10.7,12.3l2.7,313.3c0,22.2,27.5,37.7,53.7,37.7s49.1-14.2,46.4-50.4l-5.6-234.1c0-43.6-38.6-78.9-86.2-78.9h0Z"/>
    </g>
    <g>
      <path class="st6" d="M858.4,1119.8c-12.2,0-24-2.7-35.3-8.1.3-3.7.1-11.4,0-20.4-.3-16.2-.8-40.5,1.8-43l68.9-1-2.2,65.6c-10.8,4.6-22,6.9-33.2,6.9Z"/>
      <path d="M893.3,1047.8l-2.2,64.8c-10.7,4.5-21.7,6.7-32.7,6.7s-23.7-2.7-34.8-7.9c.3-3.8,0-11.4,0-20.1-.2-9.1-.4-19.5-.2-27.8.3-11.3,1.3-14.1,1.8-14.8l68.2-1M894.3,1046.7l-69.6,1c-4.5,3.3-1.1,54-2.1,64.3,11.5,5.5,23.7,8.3,35.8,8.3s22.7-2.4,33.7-7.1l2.2-66.5h0Z"/>
    </g>
    <g>
      <path class="st6" d="M1109.5,1119.8c-12.2,0-24-2.7-35.3-8.1.3-3.7.1-11.4,0-20.4-.3-16.2-.8-40.5,1.8-43l68.9-1-2.2,65.6c-10.8,4.6-22,6.9-33.2,6.9Z"/>
      <path d="M1144.3,1047.8l-2.2,64.8c-10.7,4.5-21.7,6.7-32.7,6.7s-23.7-2.7-34.8-7.9c.3-3.8,0-11.4,0-20.1-.2-9.1-.4-19.5-.2-27.8.3-11.3,1.3-14.1,1.8-14.8l68.2-1M1145.4,1046.7l-69.6,1c-4.5,3.3-1.1,54-2.1,64.3,11.5,5.5,23.7,8.3,35.8,8.3s22.7-2.4,33.7-7.1l2.2-66.5h0Z"/>
    </g>
    <path class="st35" d="M1195.2,1044c-7.5.1-11.9-5.5-17.2-9.9-15.6,9.4-37.1,2.2-32.9-19.4.8-3.8,4.5-9.8,4.3-11.8-.3-3.1-5.8-7-5-15.1,1.3-11.7,23.1-39.1,32.8-45.5,19.6-13.1,60.8-8.1,78.1,7.8,16.4,15.1,20.2,55.3,9.6,74.4s-11.9,7.1-19.7,10.4c-4.1,1.7-6.5,6.9-11.9,8.5-10.6,3.1-16.3-3.1-25.2-2.8-4.2.1-8.7,3.5-12.9,3.6Z"/>
    <path class="st12" d="M1184.7,1010.1c-3.4,15.1-14.9,28-30.4,19.4-15.3-8.5,5.6-34.4,2.8-48.4l-5.2,17.3c-6.7-.2-4.6-10.7-3.4-15.5s19.9-28.7,25.3-33.2c21.1-17.4,72.3-10.8,86,14.2,8.8,16.1,15.1,69-12.6,66.5,3.1-10.6,4.2-25.6-3.3-34.3,5.8,19.6-2.8,51-27.4,43.5-8.4-2.6,2.7-11.4,4.9-17.7,3.3-9.4,3.9-24-2.3-32.1,7.6,23.8-13.8,64.4-38.5,42.9l7.5-22.1-.4-29.6c-1.7,9.2-1,20.3-3,29.2Z"/>
  </g>
</svg>