<?xml version="1.0" encoding="UTF-8"?>
<svg id="Layer_1" xmlns="http://www.w3.org/2000/svg" version="1.1" viewBox="0 0 1920 1080">
  <!-- Generator: Adobe Illustrator 29.1.0, SVG Export Plug-In . SVG Version: 2.1.0 Build 142)  -->
  <defs>
    <style>
      .st0 {
        fill: #0a0908;
      }

      .st1, .st2 {
        fill: #fcfcfc;
      }

      .st3 {
        fill: #f6f6f6;
      }

      .st2 {
        stroke: #0a0908;
      }

      .st2, .st4, .st5 {
        stroke-miterlimit: 10;
      }

      .st2, .st5 {
        stroke-width: 8px;
      }

      .st6 {
        fill: #272727;
      }

      .st7 {
        fill: #f867c3;
      }

      .st4 {
        fill: none;
        stroke-width: 16px;
      }

      .st4, .st5 {
        stroke: #000;
      }

      .st8 {
        fill: #0c0d0a;
      }

      .st9 {
        fill: #0b0d09;
      }

      .st10 {
        fill: #cab459;
      }

      .st11 {
        fill: #171210;
      }

      .st12 {
        fill: #feaab4;
      }

      .st13 {
        fill: #fbfbfb;
      }

      .st14 {
        fill: #0a0806;
      }

      .st15 {
        fill: #fb68c5;
      }

      .st16 {
        fill: #00f400;
      }

      .st17 {
        fill: #d1ba5c;
      }

      .st18 {
        fill: #f6bba7;
      }

      .st19 {
        fill: #c5b057;
      }

      .st5 {
        fill: #fff;
      }

      .st20 {
        fill: #828282;
      }

      .st21 {
        fill: #fcbfaa;
      }

      .st22 {
        fill: #000700;
      }

      .st23 {
        fill: #fafafa;
      }

      .st24 {
        fill: #f6f5f5;
      }

      .st25 {
        fill: #161616;
      }
    </style>
  </defs>
  <g>
    <path class="st1" d="M874.16,1059.94l.95-421.73,43.24-28.85,5.42-.41c-5.74,6.37-45.06,42.53-43.76,48.39,6.65,4.5,55.01,15.17,56.95,18.94.89,1.74.38,4.07-.83,5.54l-32.67,26.78c30.58,34.74,61.14,69.57,92.83,103.3,2.43,2.59,5.33,7.59,7.71,9.76,3.24,2.94,8.36,3.99,10.04,9.38.92,62.66-1.56,125.17-2.72,187.68-.21,11.15.24,22.33.04,33.47h12.66c1.76-76.49,1.42-153.13,3.34-229.68l91.49-115.28c.56-1.03.72-2.13.56-3.28-.55-3.97-18.29-14.16-21.42-18.47.57-.81,1.37-1.2,2.21-1.66,11.31-6.17,28.72-9.73,39.32-16.08,2.99-1.79,4.23-3.32,2.72-6.95l-43.29-46.51,66.09,26.14-18.41,419.51h-272.45ZM1049.94,887.16c9.65-9.49-4.51-26.65-13.69-16.06-9.1,10.5,4.62,24.99,13.69,16.06ZM1037.33,942.91c-9.68,2.87-7.89,23.46,5.4,20.91,12.11-2.32,9.73-25.39-5.4-20.91ZM1073.63,974.68c-2.25,1.54-1.77,1.69-2,4.3-1.47,16.35,1.24,34.85.02,51.44l1.98,12.07c.02-21.3,0-42.64,0-63.94,1.66,1.35,3.31.02,3.89,0,20.03-.82,40.28.61,60.33,0v60.55c-19.35,11.53-43.26,9.82-64.22,4.37-2.33,2.13,7.51,5,8.75,5.33,15.67,4.23,32.98,2.95,48.19-2.41,3.83-1.35,10.72-3.01,11.23-7.23,1.09-9.05-.29-21.51-.1-31.1.05-2.29,1-4.41,1.05-6.7.08-3.57.42-24.52-.46-25.78-.76-1-1.86-.83-2.93-.95-17.61-2.11-43.17.25-61.83.05-.76,0-.89-2.06-3.89,0ZM946.16,975.65c-18-.18-44.87-2.08-61.83-.05-1.07.13-2.17-.05-2.93.95-.88,1.26-.54,22.2-.46,25.78.05,2.29,1.01,4.41,1.05,6.7.2,9.59-1.19,22.05-.1,31.1.51,4.21,7.4,5.87,11.23,7.23,18.84,6.65,38.01,6.36,56.84-.13.44-.86-.08-2.02.1-2.79,2.31-.54,5.33-.14,5.84-3.39l1.02-62.05-.96-2.92c-1.9-.87-3.95-.26-5.9-.42-2.36-.2-2.53.01-3.89,0ZM1037.34,1026.24c-9.5,2.18-9.01,19.36,1.83,21.08,14.2,2.25,14.69-24.88-1.83-21.08Z"/>
    <path class="st0" d="M717.04,411.76c3.15,7.55,12.04,21.87,13.62,28.1.9,3.55.04,6.73.58,10.08,3.87,23.89,25.1,44.26,43.77,58.15,3.89,2.9,7.6,6.39,12.42,7.49.87,5.12-1.52,9.88-1.85,14.86-1.35,20.38,2.07,53.32,19.98,66.4,1.85,1.35,14.11,7.73,14.11,3.39v-20.35c0-3.46,4.97-16.63,6.64-20.51,1.24-2.88,3.22-7.1,4.79-9.74.46-.77-.18-1.59,1.7-1.27,1.31.23,18.44,12.63,22.21,14.73,9.59,5.34,21.22,10.34,31.55,14.12,21.84,7.99,44.7,12.55,67.34,17.72l-.1,8.05-2.05,1.41c-5.56-.81-14.8-.06-20.26.03-20.41.32-40.52,15.86-57.34,25.53-7.9,4.54-38.45,22.01-44.75,26.19,7.5,68.48,35.02,403.8,35.02,403.8h9.73s-33.73-399.13-33.73-399.13l84.92-51.46-1.58-.41c-5.74,6.37-45.06,42.53-43.76,48.39,6.65,4.5,55.01,15.17,56.95,18.94.89,1.74.38,4.07-.83,5.54l-32.67,26.78c30.58,34.74,61.14,69.57,92.83,103.3,2.43,2.59,5.33,7.59,7.71,9.76,3.24,2.94,8.36,3.99,10.04,9.38.92,62.66-1.56,125.17-2.72,187.68-.21,11.15.24,22.33.04,33.47h12.66c1.76-76.49,1.42-153.13,3.34-229.68l91.49-115.28c.56-1.03.72-2.13.56-3.28-.55-3.97-18.29-14.16-21.42-18.47.57-.81,1.37-1.2,2.21-1.66,11.31-6.17,28.72-9.73,39.32-16.08,2.99-1.79,4.23-3.32,2.72-6.95l-43.29-46.51,66.09,30.14-18.41,415.51h9.73s8.68-269.4,8.68-269.4l8.53-150.86c-24.32-7.69-56.48-27.25-80.19-34.88-6.3-2.03-13.21-.88-19.73-2.16v-2.9c73.88-4.96,138.56-50.49,159.84-122.31,7.04-23.76,6.98-45.23,4.8-69.79,58.65-77.9,43.96-192.16-1.97-272.63C1153.48-10.1,965.69-3.3,837.26,75.19c-118.34,72.32-175.64,203.6-120.22,336.56ZM1024,782.37c1.65-17.94,23.22-64.15,30.89-83.57,1.45-3.67,1.99-7.67,3.38-11.16,9.27-23.26,20.66-45.94,28.98-69.49l41.83,43.1-45.27,19.86.81,6.52c3.05,2.44,23.41,16.62,22.97,19.03l-83.6,104.29v-28.58ZM1018.66,764.44l-55.95-121.1c23.36,5.18,45.63,4.66,69.1.5,12.87-2.28,25.14-6.67,37.92-9.22l-51.08,129.81ZM1012.57,775.83c1.76,1.71,3.8-.33,4.53,4.65.93,6.4.93,26.41.14,32.93-.47,3.88-2.22,4.06-5.91,2.88l-93.24-105.82.32-3.19,31.69-27.55.79-5.26-57.26-21.92c9.01-8.69,17.6-18.13,27.21-26.17,2.45-2.06,11.06-9.4,13.36-10,1.18-.31,2.03-.35,2.69.83l75.67,158.64ZM972.88,617.22c23.7.77,50.5.63,73.98-1.99,11.23-1.25,22.34-4.22,33.58-4.83l-7.06,14.83c-29.52,10.27-62.03,18.29-93.52,14.11-4.35-.58-17.06-2.9-20.37-4.91-2.12-1.28-7.1-14.85-7.47-17.77-.2-1.6-.11-1.55,1.44-1.44,6.1.43,13.38,1.8,19.42,1.99ZM1066.09,604.58c-34.4,5.73-69.58,5.83-104.37,3.89l.14-11.01,2.32-1.63,59.29,5.89,44.31-1-1.69,3.86ZM839.26,534.58c.45-3.12,6.8-14.33,8.38-18.89,5.2-15.06,7.45-30.42,2.89-45.98-8.88-30.27-32.9-41.46-14.14-77.61,16.55-31.91,45.83-40.26,65.52-64.59,13.22-16.34,7.78-35.46,4.38-54.27l23.31,36.37c1.67,1.95,4.63,1.88,6.86.94l9.71-59.58c4.45,14.59,7.44,32.29,15.08,45.55,3.61,6.27,4.88,8.41,12.63,8.74,3.64.16,19.79-.94,22.21-2.19,2.21-1.14,2.37-1.73,2.69-4.1,2.26-16.55-1.75-38.19-.09-55.31l1.98-13.03c2.65,14.55,5.7,29.35,10.44,43.39,1.36,4.05,9.33,24.5,11.45,26.38,3.85,3.4,7.34.11,9.04-3.62,5.92-13.01,6.23-31.73,8.01-45.8l9.01,44.79c1.55,3.47,4.44,4.6,7.85,2.75l17.2-109.54c1.49-.13,1.52,2.36,1.85,3.46,6.79,22.32,9.45,46.93,17.33,68.97,3.09,8.65,6.39,19.06,17.31,18.69,8.12-.27,25.81-3.04,33.6-5.34,6.47-1.91,7.73-7.16,9.4-12.92,3.24-11.18,4.39-23.7,7.1-35.08,1.51-.03,1.62,3.35,1.8,4.48,2.8,16.87,2.18,35.18,6.28,51.88,1.15,4.7,1.98,10.12,6.58,12.82,2.43,1.43,26.39,9.23,28.76,9.25.81,0,1.56.05,2.26-.44,1.25-.81,2.04-1.86,2.69-3.19,3.83-7.87,6.56-26.19,9-35.65.41-1.6-.99-2.84,1.96-2.36.24,6.6-.29,13.29-.04,19.9,1.95,49.62,6.98,101.72,6.81,151.14-.27,78.9-58.3,136.04-134.06,150.31-64.18,12.09-182.61-1.42-238.49-37.08-3.15-2.01-15.04-9.79-14.54-13.24ZM833.66,460.34c-.41-1.27-.68-2.91,1.07-2.04,2.6,1.28,8.53,17.61,9.01,21.07,5.11,37.6-25.32,64.03-30.9,99.05-1.41.25-1.26-1.83-1.47-2.87-9.07-44.68,36.53-71.48,22.28-115.21ZM748.65,427.79c10.58-6.46,33.78,7.2,42.64,13.7,1.48,8.11,7.99,18.94,8.02,26.97.01,3.69-6.4,34.3-7.87,35.36-1.18.85-6.42-3.54-7.67-4.46-12.96-9.5-37.21-31.37-39.76-47.61-.78-4.97.03-21.15,4.65-23.97ZM869.91,65.08c130.69-63.6,297.78-55.62,368.02,87.68,36.89,75.27,48.9,176.33-3.27,247.4l-7.01-176.06c-1.38-3.45-7.91-4.41-9.37-1.01l-17.19,71.48c-4.2-1.28-20.49-5.49-22.2-8.42-1.88-3.23-3.35-15.86-3.95-20.29-2.11-15.56-2.21-31.61-5.29-47.05-6.2-30.98-14.42-10.01-18.49,6.16-2.3,9.12-4.68,32.27-8.61,38.9-1.38,2.32-12.68,5.32-13.45,1.13-1.14-6.23.45-16.37.04-23.29-.34-5.64-1.36-12.52-2.13-18.23-2.2-16.33-6.46-32.22-10.57-48.1l-1.94,1.44c5.94,30.1,9.13,60.89,7.36,91.64l-14.5,1.91c-5.38-1.34-21.14-75.42-24.49-86.26-1.21-3.92-5.4-19.12-8.95-20.19-3.94-1.19-5.78,1.15-6.68,4.62-5.31,20.45-6.89,47.68-10.31,69.18-.25,1.59-.36,5.84-1.78,6.45-.35-25.35-1.77-51.98-5.84-77.02-.23-1.44-.05-2.99-1.94-3.39l.95,76.53-5.42-24.14c-9.37-10.04-10.29,8.48-11.1,14.95-2.2,17.54-2.04,35.45-5.86,52.79-2.39-1.99-3.54-6.5-4.61-9.45-7.38-20.16-10.19-41.51-15.31-62.26-1.58-6.42-3.62-17.18-6.29-22.8-1.84-3.88-4.65-4.52-8.34-2.4l-2.89,109.5h-17.03s-25.92-72.57-25.92-72.57c-2.3-1.91-6.03.01-6.95,2.55l-8.01,66.15-25.3-40.19c-7.48-7.69-9.78,4.54-9.75,10.59.12,24.19,15.44,43.1-5.79,64.01-24,23.64-54.32,35.15-66.45,71.41-9.84,29.42,7.06,41.8,9.07,68.05,2.64,34.58-21.53,53.73-27.29,85.78l-1-8.27c7.11-38.9,23.1-56.97,4.9-96.36h-1.95c21.3,48.6-18.76,75.82-6.54,122.28,1.36,5.19,5.92,13.02,6.55,16.74.09.56.25,1.6-.49,1.45-14.04-16.77-15.26-43.35-11.88-64.14,3.29-20.25,16.03-43.92,11.52-64.36-1.52-6.88-4.78-16.61-6.94-23.61-1.35-4.39-2.99-3.97-4.87-7.75-7.07-3.33-13.3-8.75-21.14-11.41-15.04-5.11-35.38-5.5-39.2,13.35-.3.31-1.18-.57-1.44-.97-4.31-6.62-9.98-21.93-12.89-29.79-52.05-140.39,22.05-271.98,150.22-334.35Z"/>
    <path class="st25" d="M1077.52,974.68c18.66.21,44.23-2.16,61.83-.05,1.07.13,2.17-.05,2.93.95.88,1.26.54,22.2.46,25.78-.05,2.29-1.01,4.41-1.05,6.7-.2,9.59,1.19,22.05.1,31.1-.51,4.21-7.4,5.87-11.23,7.23-15.2,5.36-32.52,6.64-48.19,2.41-1.24-.33-11.08-3.2-8.75-5.33,20.96,5.46,44.86,7.17,64.22-4.37v-60.55c-20.04.61-40.3-.82-60.33,0v-3.88Z"/>
    <path class="st25" d="M946.16,975.65v3.88c-20.03-.82-40.28.61-60.33,0v60.55c3.89,3.02,9.6,4.8,14.39,6.02,18.26,4.66,31.94,2.54,49.83-1.66,2.88-12.02,3.67-48.94,2-61.6-.39-2.95-1.9-3.04-2-3.32-.31-.84.22-2.78,0-3.88,1.95.17,4-.45,5.9.42l.96,2.92-1.02,62.05c-.51,3.25-3.53,2.85-5.84,3.39-.18.76.34,1.93-.1,2.79-18.83,6.49-38,6.78-56.84.13-3.83-1.35-10.72-3.01-11.23-7.23-1.09-9.05.29-21.51.1-31.1-.05-2.29-1-4.41-1.05-6.7-.08-3.57-.42-24.52.46-25.78.76-1,1.86-.83,2.93-.95,16.96-2.04,43.83-.13,61.83.05Z"/>
    <path class="st6" d="M1049.94,887.16c-9.08,8.93-22.8-5.56-13.69-16.06,9.19-10.59,23.34,6.56,13.69,16.06ZM1043.15,871.27c-8.72.24-8.15,15.23-.2,15.33,9.43.11,7.67-15.53.2-15.33Z"/>
    <path class="st6" d="M1037.33,942.91c15.13-4.49,17.51,18.58,5.4,20.91-13.29,2.55-15.08-18.04-5.4-20.91ZM1039.31,945.79c-7.59,1.59-5.26,15.38,1.55,15.08,9.7-.42,7.92-17.07-1.55-15.08Z"/>
    <path class="st6" d="M1037.34,1026.24c16.52-3.8,16.03,23.33,1.83,21.08-10.84-1.72-11.33-18.9-1.83-21.08ZM1039.32,1029.08c-9.57,1.87-5.7,19.02,3.51,14.26,7.12-3.68,3.13-15.56-3.51-14.26Z"/>
    <path class="st6" d="M1073.63,978.56c0,21.3,0,42.64,0,63.94l-1.98-12.07c1.22-16.6-1.48-35.09-.02-51.44.23-2.62-.24-2.76,2-4.3v3.88Z"/>
    <path class="st20" d="M1077.52,974.68v3.88c-.58.02-2.23,1.35-3.89,0v-3.88c3-2.06,3.14,0,3.89,0Z"/>
    <path class="st20" d="M950.05,975.65c.22,1.09-.31,3.04,0,3.88-1.66,1.35-3.31.02-3.89,0v-3.88c1.36.01,1.54-.2,3.89,0Z"/>
    <path class="st17" d="M794.37,428.26c-7.07-3.33-13.3-8.75-21.14-11.41-15.04-5.11-35.38-5.5-39.2,13.35-.3.31-1.18-.57-1.44-.97-4.31-6.62-9.98-21.93-12.89-29.79-52.05-140.39,22.05-271.98,150.22-334.35,130.69-63.6,297.78-55.62,368.02,87.68,36.89,75.27,48.9,176.33-3.27,247.4l-7.01-176.06c-1.38-3.45-7.91-4.41-9.37-1.01l-17.19,71.48c-4.2-1.28-20.49-5.49-22.2-8.42-1.88-3.23-3.35-15.86-3.95-20.29-2.11-15.56-2.21-31.61-5.29-47.05-6.2-30.98-14.42-10.01-18.49,6.16-2.3,9.12-4.68,32.27-8.61,38.9-1.38,2.32-12.68,5.32-13.45,1.13-1.14-6.23.45-16.37.04-23.29-.34-5.64-1.36-12.52-2.13-18.23-2.2-16.33-6.46-32.22-10.57-48.1l-1.94,1.44c5.94,30.1,9.13,60.89,7.36,91.64l-14.5,1.91c-5.38-1.34-21.14-75.42-24.49-86.26-1.21-3.92-5.4-19.12-8.95-20.19-3.94-1.19-5.78,1.15-6.68,4.62-5.31,20.45-6.89,47.68-10.31,69.18-.25,1.59-.36,5.84-1.78,6.45-.35-25.35-1.77-51.98-5.84-77.02-.23-1.44-.05-2.99-1.94-3.39l.95,76.53-5.42-24.14c-9.37-10.04-10.29,8.48-11.1,14.95-2.2,17.54-2.04,35.45-5.86,52.79-2.39-1.99-3.54-6.5-4.61-9.45-7.38-20.16-10.19-41.51-15.31-62.26-1.58-6.42-3.62-17.18-6.29-22.8-1.84-3.88-4.65-4.52-8.34-2.4l-2.89,109.5h-17.03s-25.92-72.57-25.92-72.57c-2.3-1.91-6.03.01-6.95,2.55l-8.01,66.15-25.3-40.19c-7.48-7.69-9.78,4.54-9.75,10.59.12,24.19,15.44,43.1-5.79,64.01-24,23.64-54.32,35.15-66.45,71.41-9.84,29.42,7.06,41.8,9.07,68.05,2.64,34.58-21.53,53.73-27.29,85.78l-1-8.27c7.11-38.9,23.1-56.97,4.9-96.36-2.01-4.35-7.08-17.56-11.43-19.18-1.11-.41-2.73,0-3.17-.2ZM765.18,325.56c-.8,3.98-2.1,8.09-2.93,12.1l2.44.5c.8-.15,2.09-10.85,2.44-12.6,2.43-12.36,11.15-32.93,17.65-45.88,2.39-4.76,16.45-29.18,19.82-30.65,1.2-.52,1.8.2,1.43,1.43-.97,3.27-4.77,9.24-6.28,13.13-1.25,3.21-8.1,17.78-3.79,19.23,1.75.59,4.25.32,5.13-1.43,3.92-11.16,7.66-22.41,12.28-33.31,2.07-4.89,6.32-10.89,7.78-15.51,3.01-9.57-9.25.88-11.68,2.91-25.83,21.64-37.92,58.21-44.3,90.08Z"/>
    <path class="st21" d="M1160.24,226.74c1.51-.03,1.62,3.35,1.8,4.48,2.8,16.87,2.18,35.18,6.28,51.88,1.15,4.7,1.98,10.12,6.58,12.82,2.43,1.43,26.39,9.23,28.76,9.25.81,0,1.56.05,2.26-.44,1.25-.81,2.04-1.86,2.69-3.19,3.83-7.87,6.56-26.19,9-35.65.41-1.6-.99-2.84,1.96-2.36.24,6.6-.29,13.29-.04,19.9,1.95,49.62,6.98,101.72,6.81,151.14-.27,78.9-58.3,136.04-134.06,150.31-64.18,12.09-182.61-1.42-238.49-37.08-3.15-2.01-15.04-9.79-14.54-13.24.45-3.12,6.8-14.33,8.38-18.89,5.2-15.06,7.45-30.42,2.89-45.98-8.88-30.27-32.9-41.46-14.14-77.61,16.55-31.91,45.83-40.26,65.52-64.59,13.22-16.34,7.78-35.46,4.38-54.27l23.31,36.37c1.67,1.95,4.63,1.88,6.86.94l9.71-59.58c4.45,14.59,7.44,32.29,15.08,45.55,3.61,6.27,4.88,8.41,12.63,8.74,3.64.16,19.79-.94,22.21-2.19,2.21-1.14,2.37-1.73,2.69-4.1,2.26-16.55-1.75-38.19-.09-55.31l1.98-13.03c2.65,14.55,5.7,29.35,10.44,43.39,1.36,4.05,9.33,24.5,11.45,26.38,3.85,3.4,7.34.11,9.04-3.62,5.92-13.01,6.24-31.73,8.01-45.8l9.01,44.79c1.55,3.47,4.44,4.6,7.85,2.75l17.2-109.54c1.49-.13,1.52,2.36,1.85,3.46,6.79,22.32,9.45,46.93,17.33,68.97,3.09,8.65,6.39,19.06,17.31,18.69,8.12-.27,25.81-3.04,33.6-5.34,6.47-1.91,7.73-7.16,9.4-12.92,3.24-11.18,4.39-23.7,7.1-35.08ZM1135.68,295.79c-3.85.43-15.77,2.78-16.92,6.49-.36,1.15,2.05,11.08,2.74,12.9.83,2.17,2.18,4.3,4.38,5.32l27.98-1.77c7.03-1.26,47.35,5.22,31.68-10.15-12.23-12.01-33.46-14.64-49.86-12.79ZM957.67,319.01c-13,.22-30.5,8.66-39.25,18.17-4.34,4.72-9.23,11.41-.04,13.63,15.33-2.84,32.44-2.26,47.62-5.01,10.72-1.94,18.29-7.56,10.75-18.24-4.49-6.36-11.41-8.68-19.08-8.55ZM1155.36,433.1c15.55-.85,23.45-4.87,35.03-14.53,5.68-4.74,5.53-4.1,9.73-10.66.29-.45,1.45-.93,2.14-2.19,4.25-7.87,5.74-15.41,2.74-23.97l2.9.97c3.6-4.58-15.96-20.11-19.72-22.5-18.18-11.55-39.28-10.11-57.79.06-11.71,6.43-16.66,12.49-20.27,25.35-9.39,33.45,14.28,49.16,45.25,47.47ZM884.85,395.32c-.16,11.57-1.92,23.85,3.72,34.56,12.55,23.83,57.78,27.14,79.66,16.97,16.86-7.84,24.77-29.61,24.71-47.17-.04-9.92-4.06-12.66-12.08-17.12-30.01-16.69-64.9-19.71-92.57,3.1-1.55,1.27-13.92,12.9-12.19,14.5,4.19.81,4.98-4.69,8.75-4.83ZM1076.47,444.66c4.15-18.66-11.05-27.87-27.46-18.15-2.78,1.65-16.16,12.41-13.33,15.3,4,.41,5.8-4.11,8.81-6.23,11.08-7.79,31.37-9.52,29.13,9.15l2.84-.07ZM1159.99,442.07c-23.61,2.99-51.17,29.02-32.82,52.53,23.39,29.99,91.1,11.49,84.4-27.84-3.69-21.64-33.48-26.98-51.58-24.69ZM902.16,458.56c-19.52,2.34-42.01,19.17-35.84,40.95,10.63,37.5,84.56,34.08,89.31-4.17,3.45-27.76-30.73-39.51-53.48-36.78ZM1068.76,518.36c-14.76,3.14-33,6.92-47.36.17-2.01-.95-14.26-10.54-14.9-9.86,4.99,23.94,39.73,24.74,57.08,14.69.7-.41,6.71-3.67,5.19-5Z"/>
    <path class="st13" d="M1012.57,775.83c1.76,1.71,3.8-.33,4.53,4.65.93,6.4.93,26.41.14,32.93-.47,3.88-2.22,4.06-5.91,2.88l-93.24-105.82.32-3.19,31.69-27.55.79-5.26-57.26-21.92c9.01-8.69,17.6-18.13,27.21-26.17,2.45-2.06,11.06-9.4,13.36-10,1.18-.31,2.03-.35,2.69.83l75.67,158.64Z"/>
    <path class="st23" d="M1024,782.37c1.65-17.94,23.22-64.15,30.89-83.57,1.45-3.67,1.99-7.67,3.38-11.16,9.27-23.26,20.66-45.94,28.98-69.49l41.83,43.1s-21.05,42.99-21.49,45.41l-83.6,104.29v-28.58Z"/>
    <path class="st15" d="M1069.73,634.63l-51.08,129.81-55.95-121.1c23.36,5.18,45.63,4.66,69.1.5,12.87-2.28,25.14-6.67,37.92-9.22Z"/>
    <path class="st7" d="M1080.43,610.4l-7.06,14.83c-29.52,10.27-62.03,18.29-93.52,14.11-4.35-.58-17.06-2.9-20.37-4.91-2.12-1.28-7.1-14.85-7.47-17.77-.2-1.6-.11-1.55,1.44-1.44,6.1.43,13.38,1.8,19.42,1.99,23.7.77,50.5.63,73.98-1.99,11.23-1.25,22.34-4.22,33.58-4.83Z"/>
    <path class="st10" d="M812.84,578.42c-1.41.25-1.26-1.83-1.47-2.87-9.07-44.68,36.53-71.48,22.28-115.21-.41-1.27-.68-2.91,1.07-2.04,2.6,1.28,8.53,17.61,9,21.07,5.11,37.6-25.32,64.03-30.9,99.05Z"/>
    <path class="st18" d="M1067.78,600.72l-1.69,3.86c-34.4,5.73-69.58,5.83-104.37,3.89l.14-11.01,2.32-1.63,59.29,5.89,44.31-1Z"/>
    <path class="st19" d="M799.23,436.01c2.36-.52,2.01,1.2,2.74,2.55,1.44,2.66,3.98,6.65,5.04,9.08,21.3,48.6-18.76,75.82-6.54,122.28,1.36,5.19,5.92,13.02,6.55,16.74.09.56.25,1.6-.49,1.45-14.04-16.77-15.26-43.35-11.88-64.14,3.29-20.25,16.03-43.92,11.52-64.36-1.52-6.88-4.78-16.61-6.94-23.61Z"/>
    <path class="st6" d="M808.96,447.63h-1.95c-1.06-2.43-3.6-6.41-5.04-9.08-.73-1.35-.38-3.07-2.74-2.55-1.35-4.39-2.99-3.97-4.87-7.75.43.2,2.05-.21,3.17.2,4.35,1.62,9.42,14.83,11.43,19.18Z"/>
    <path class="st13" d="M946.16,979.53c.58.02,2.23,1.35,3.89,0,.1.28,1.61.36,2,3.32,1.67,12.66.87,49.58-2,61.6-17.9,4.2-31.57,6.32-49.83,1.66-4.78-1.22-10.49-3-14.39-6.02v-60.55c20.05.61,40.3-.82,60.33,0Z"/>
    <path class="st24" d="M1043.15,871.27c7.47-.21,9.23,15.44-.2,15.33-7.95-.09-8.52-15.09.2-15.33Z"/>
    <path class="st24" d="M1039.31,945.79c9.47-1.99,11.24,14.66,1.55,15.08-6.8.3-9.13-13.49-1.55-15.08Z"/>
    <path class="st24" d="M1039.32,1029.08c6.64-1.3,10.63,10.58,3.51,14.26-9.21,4.76-13.08-12.39-3.51-14.26Z"/>
    <path class="st8" d="M765.18,325.56c6.38-31.87,18.47-68.43,44.3-90.08,2.42-2.03,14.69-12.47,11.68-2.91-1.45,4.62-5.71,10.62-7.78,15.51-4.62,10.9-8.36,22.15-12.28,33.31-.89,1.75-3.38,2.01-5.13,1.43-4.31-1.45,2.54-16.02,3.79-19.23,1.51-3.89,5.31-9.86,6.28-13.13.36-1.23-.23-1.95-1.43-1.43-3.37,1.47-17.43,25.88-19.82,30.65-6.5,12.95-15.22,33.52-17.65,45.88h-1.95ZM806.53,247.08v.97c.63-.32.63-.65,0-.97Z"/>
    <path class="st6" d="M767.12,325.56c-.34,1.75-1.64,12.45-2.44,12.6l-2.44-.5c.83-4.01,2.14-8.11,2.93-12.1h1.95Z"/>
    <path class="st12" d="M1159.99,442.07c18.1-2.29,47.89,3.05,51.58,24.69,6.7,39.33-61.01,57.83-84.4,27.84-18.34-23.51,9.21-49.54,32.82-52.53Z"/>
    <path class="st12" d="M902.16,458.56c22.75-2.72,56.92,9.02,53.48,36.78-4.75,38.25-78.68,41.67-89.31,4.17-6.18-21.78,16.32-38.62,35.84-40.95Z"/>
    <path class="st8" d="M884.85,395.32c-3.77.14-4.56,5.64-8.75,4.83-1.73-1.6,10.64-13.22,12.19-14.5,27.67-22.81,62.56-19.78,92.57-3.1,8.02,4.46,12.04,7.19,12.08,17.12.06,17.56-7.84,39.34-24.71,47.17-21.89,10.17-67.11,6.87-79.66-16.97-5.64-10.71-3.88-22.99-3.72-34.56ZM957.84,387.57c4.65,9.57,6.91,17.62,5.71,28.45-2.41,21.88-26.96,40.63-44.16,19.99-10.91-13.09-9.63-36.38,1.5-48.91l9.22-8.24c-13.29,1.65-36.14,5.6-38.36,21.86-3.95,28.9,9.85,44.38,38.47,46.78,31.83,2.67,53.04-7.76,54.75-41.87-2.33-2.7-25.5-19.74-27.14-18.07ZM935.2,382.96c-21.23,3.57-26.4,45.89-5.91,55.79,17.19,8.31,30.58-13.22,30.57-28.42-.01-13.71-8.8-30.04-24.66-27.37Z"/>
    <path class="st9" d="M1155.36,433.1c-30.97,1.68-54.64-14.02-45.25-47.47,3.61-12.86,8.56-18.92,20.27-25.35,18.51-10.17,39.61-11.61,57.79-.06,3.76,2.39,23.32,17.92,19.72,22.5l-2.9-.97c3,8.56,1.52,16.09-2.74,23.97-.68,1.26-1.85,1.74-2.14,2.19l-.97-.97c12.15-20.44-6.11-41.63-26.27-45.53,14.25,14.06,16.36,37.01,6.03,53.95-13.26,21.74-37.07,13.11-42.55-9.36-3.39-13.92.44-24.43,6.35-36.84-12.67,4.06-25.45,12.51-27.14,26.74-3.02,25.47,16.94,36.32,39.79,35.26v1.94ZM1160.96,365.49c-20.71,3.06-26.11,42.37-9.42,53.49,14.55,9.69,25.92-9.72,27.17-22.23,1.06-10.57-3.15-33.42-17.75-31.27Z"/>
    <path class="st14" d="M1135.68,295.79c16.4-1.84,37.63.79,49.86,12.79,15.66,15.37-24.65,8.89-31.68,10.15l-27.98,1.77c-2.19-1.02-3.55-3.15-4.38-5.32-.69-1.82-3.1-11.75-2.74-12.9,1.14-3.72,13.07-6.06,16.92-6.49ZM1168.01,309.08c-.3-1.79-2.01-1.62-3.28-2.06-10.63-3.65-25.35-4.05-35.64.62l.94,2.92,37.97-1.49Z"/>
    <path class="st14" d="M957.67,319.01c7.67-.13,14.59,2.19,19.08,8.55,7.54,10.68-.03,16.3-10.75,18.24-15.19,2.75-32.29,2.17-47.62,5.01-9.18-2.22-4.3-8.91.04-13.63,8.75-9.51,26.25-17.95,39.25-18.17ZM971.46,335.24c.73-3.15-3.21-5.65-5.81-6.32-11.63-3-27.8,2.7-36.03,11.16l41.84-4.84Z"/>
    <path class="st8" d="M1068.76,518.36c1.53,1.33-4.48,4.59-5.19,5-17.35,10.05-52.09,9.25-57.08-14.69.64-.68,12.89,8.91,14.9,9.86,14.37,6.75,32.6,2.97,47.36-.17Z"/>
    <path class="st11" d="M1076.47,444.66l-2.84.07c2.24-18.67-18.05-16.94-29.13-9.15-3.01,2.12-4.81,6.64-8.81,6.23-2.84-2.9,10.55-13.66,13.33-15.3,16.4-9.72,31.6-.51,27.46,18.15Z"/>
    <path class="st20" d="M1189.42,418.57h.97c-11.58,9.66-19.48,13.69-35.03,14.53v-1.94c13.86-.64,22.7-5.51,34.06-12.59Z"/>
    <path class="st6" d="M1200.12,407.91c-4.2,6.56-4.05,5.92-9.73,10.66h-.97c-.02-1.9,1.32-2.69,2.41-3.89,1.6-1.75,6.4-6.19,7.32-7.73l.97.97Z"/>
    <path class="st11" d="M767.12,436.98c-.23,4.17-7.63,3.43-9.24,6.77-4.8,9.92,13.01,29.31,21.42,33.9-1.06-4.42-.47-12.2,2.32-15.85.93-1.22,3.69-.82,4.55.33s-2.23,9.13-1.48,13.08c.56,2.99,9.14,9.81,4.21,11.12-3.55.94-15.8-6.52-18.86-9.12-11.77-9.99-31.16-39.32-2.91-40.21Z"/>
    <path class="st17" d="M806.53,247.08c.63.32.63.65,0,.97v-.97Z"/>
    <path class="st3" d="M957.84,387.57c1.64-1.68,24.81,15.37,27.14,18.07-1.71,34.12-22.92,44.54-54.75,41.87-28.63-2.4-42.43-17.88-38.47-46.78,2.22-16.26,25.07-20.22,38.36-21.86l-9.22,8.24c-11.14,12.53-12.42,35.81-1.5,48.91,17.2,20.64,41.75,1.88,44.16-19.99,1.19-10.84-1.06-18.89-5.71-28.45Z"/>
    <path class="st16" d="M935.2,382.96c15.86-2.67,24.65,13.66,24.66,27.37.01,15.2-13.38,36.73-30.57,28.42-20.49-9.91-15.32-52.22,5.91-55.79ZM934.23,394.59c-11.55,2.94-13.52,30,.18,33.26,20.34,4.83,22.92-39.14-.18-33.26Z"/>
    <path class="st24" d="M1199.15,406.94c-.92,1.54-5.72,5.98-7.32,7.73-1.1,1.2-2.44,1.99-2.41,3.89-11.35,7.08-20.19,11.95-34.06,12.59-22.85,1.06-42.81-9.79-39.79-35.26,1.69-14.24,14.47-22.69,27.14-26.74-5.92,12.41-9.74,22.92-6.35,36.84,5.47,22.47,29.28,31.1,42.55,9.36,10.34-16.94,8.22-39.89-6.03-53.95,20.16,3.89,38.43,25.09,26.27,45.53Z"/>
    <path class="st16" d="M1160.96,365.49c14.6-2.16,18.8,20.7,17.75,31.27-1.25,12.5-12.62,31.92-27.17,22.23-16.69-11.12-11.29-50.43,9.42-53.49ZM1155.69,383.05c-8.45,8.47-6.99,29.92,7.73,26.6,16.68-3.77,7.84-42.19-7.73-26.6Z"/>
    <path class="st19" d="M1168.01,309.08l-37.97,1.49-.94-2.92c10.29-4.67,25-4.28,35.64-.62,1.27.44,2.97.27,3.28,2.06Z"/>
    <path class="st19" d="M971.46,335.24l-41.84,4.84c8.23-8.46,24.4-14.16,36.03-11.16,2.61.67,6.54,3.17,5.81,6.32Z"/>
    <path class="st18" d="M791.43,503.83c-1.18.85-6.42-3.54-7.67-4.46-12.96-9.5-37.21-31.37-39.76-47.61-.78-4.97.03-21.15,4.65-23.97,10.58-6.46,33.78,7.2,42.64,13.7,1.48,8.11,7.99,18.94,8.02,26.97.01,3.69-6.4,34.3-7.87,35.36ZM767.12,436.98c-28.24.89-8.86,30.22,2.91,40.21,3.07,2.6,15.31,10.07,18.86,9.12,4.94-1.31-3.64-8.12-4.21-11.12-.74-3.95,2.35-11.91,1.48-13.08s-3.62-1.55-4.55-.33c-2.79,3.65-3.39,11.44-2.32,15.85-8.41-4.59-26.22-23.97-21.42-33.9,1.62-3.34,9.01-2.6,9.24-6.77Z"/>
    <path class="st22" d="M934.23,394.59c23.1-5.89,20.53,38.08.18,33.26-13.71-3.25-11.74-30.31-.18-33.26Z"/>
    <path class="st22" d="M1155.69,383.05c15.57-15.59,24.41,22.83,7.73,26.6-14.72,3.32-16.19-18.13-7.73-26.6Z"/>
  </g>
  <path class="st2" d="M874.16,854.63l-55.9-68.25c-8.29-8.53,45.83-54.3,64.24-89.3,14.34-27.26-21.17-65.04-52.33-38.13-31.16,26.91-100.28,129.81-100.28,129.81,4.6,21.45,89.13,123.62,95.89,122.55l7.66-21.45c13.02-34.47,41.02-28.39,40.71-35.23Z"/>
  <path class="st4" d="M1238.26,407.65s138.54-284.73-121.84-364.05c-287.02-87.43-402.29,143.89-408.31,196.8-8.06,70.85-19.79,178.87,32.82,200.62"/>
  <path class="st17" d="M734.03,430.19l7.3-11.63c-18.22-7.84-11.54-16.47-14.18-56.81-2.48-37.78,2.39-82.31,5.94-114.82,1.54-14.15,11.45-41.92,30.08-72.08,15.92-25.76,43.96-62.38,87.14-90.51,71.1-46.32,157.1-53.97,255.6-22.73,62.23,19.74,104.72,54.68,126.28,103.85,45.69,104.2,2.84,226.66,2.21,228.01l4.32,2.85c.68-1.46,9.58-18.82,19.93-67.65,9.63-45.43,15.71-111.87-9.97-170.44-23.73-54.13-69.94-92.41-137.33-113.78-55.32-17.54-107.83-23.33-156.07-17.18-41.55,5.29-80.17,19.42-114.8,41.98-80.71,52.58-123.42,140.4-127.29,175.73-7.91,72.37-12.16,144.11,20.84,185.21Z"/>
  <path class="st5" d="M1204.39,811.47c32.03,1.38,52.43-34.02,35.56-61.29-2.17-3.51-4.17-6.49-5.96-8.58l-81.95-126.58c-11.4-14.76-23.81-17.11-39.83-11.52s-23.92,14.15-32.25,26.83c-8.62,13.11,2.56,31.17,15.33,45.15,0,0,60.06,114.65,87.9,130.81,5.67,3.29,13.05,4.82,21.2,5.17Z"/>
  <path d="M1151.67,437.52c-12.43-.81-34.06-3.4-42.07-28.67l3.94-3.71c12.32,19.72,27.78,24.69,38.58,25.39,16.84,1.08,31.73-7.18,38.43-15.33,10.67-12.98,9.48-36.53,9.46-36.9l6.99-.41c.06,1.08,1.41,26.61-11.04,41.76-7.56,9.2-22.85,17.99-40.76,17.99-1.17,0-2.35-.04-3.53-.11ZM1200.02,378.3h0s3.49-.21,3.49-.21l-3.49.21h0Z"/>
  <g>
    <path d="M1078.07,542.32c10.06-2.78,64.65,44.42,60.59,70.51v.1c-.12.68-.36,2.06-.81,3.93-1.41,5.84-4.88,16.53-12.82,26.16-12.76,15.48-32.09,21.94-56.09,18.81,0,0-5.17.85-24.25-4.68-19.08-5.53-23.91-13.48-25.52-16.92-2.65-5.7-.49-10.99,2.07-14.25-1.37-.98-2.66-2.05-3.85-3.21-2.62-2.61-4.79-5.68-5.54-9.02-.86-3.3-.16-6.88,2.33-9.52,1.18-1.35,2.87-2.36,4.64-3.12-.32-.33-.64-.67-.95-1.01-1.45-1.84-2.83-3.78-3.49-5.91l-.28-.78-.16-.8c-.09-.53-.23-1.06-.26-1.59l-.02-1.58c-.01-.53.13-1.03.2-1.55.41-2.02,1.24-3.98,2.7-5.58,1.42-1.62,3.26-3,5.47-4.03,1.62-.75-27.07-17.7-25.07-17.95-.62-.72-1.2-1.46-1.72-2.24-.97-1.53-2.12-1.78-2.53-3.48-.14-.42-.16-.85-.23-1.27-.07-.43-.13-.85-.11-1.27l.02-1.27.21-1.23c.06-.42.19-.8.33-1.19.15-.38.26-.78.44-1.15.39-.72,3.11-3.06,4.39-3.58,2.03-.83,4.42-.76,6.59-.93,2.18-.2,4.3-.1,6.32.13,1.64.19,3.22.46,4.77.78,60.1,21.68,59.83,21.59,65.49,23.5,0,0-19.01-20.33-2.87-24.79ZM1119.04,581.73c-13.24-18.52-32.9-36.59-37.81-35.68-11.32,2.09-.43,17.41,3.98,20.69.99.74,1.9,1.43,2.74,2.08l.11.3.32.03c1.06.84,2,1.61,2.82,2.32,5.81,5.03,5.76,6.92,2.97,7.16-5.73-1.46-20.25-6.86-22.98-7.83-3.33-1.2-6.63-2.39-9.91-3.52-3.38-1.17-36.63-14.71-41-16.05-.07-.02-.13-.04-.18-.06-3.23-.89-6.31-2.05-9.26-2.63-4.36-.86-6.9-.84-7.95.18-.39.23-1.55,1.83-1.64,2.06-.09.23-.18.45-.2.69-.27.92-.17,1.89,0,2.86.2.98,1.02.61,1.6,1.6h.01c.04.07.08.14.13.2,1.33,1.91,3.88,3.71,7.2,5.14,4.66,3.48,38.08,22.37,45.5,25.44.18.08.34.14.49.19,6.33,2.36,13.02,4.13,19.78,5.59,3.38.73,6.78,1.52,10.21,2.31,3.43.83,6.89,1.64,10.42,2.74h.02c-3.46.51-7.01.65-10.58.54-.89-.02-1.78-.07-2.68-.11l-2.69-.22c-1.79-.15-3.59-.42-5.39-.68-7.16-1.21-14.31-2.9-21.32-5.23-6.65-2.25-13.28-5.01-19.18-9.01-1.11-.24-2.22-.31-3.31-.22-1.46.11-2.88.52-4.13,1.18-2.49,1.32-4.21,3.51-4.55,5.89-.02.3-.12.59-.09.9.02.31.03.61.04.91.02.3.13.61.18.92l.09.46.19.46c.3,1.08,1.03,2.15,1.81,3.2.11.15.22.3.33.45,2.06,2.37,5.08,4.51,8.47,6.38,3.42,1.88,7.29,3.4,11.22,4.83l3.02.98,1.51.49,1.54.43c2.06.58,4.12,1.19,6.23,1.67l3.15.76c1.06.25,2.12.47,3.19.7l6.39,1.54c1.07.27,2.15.54,3.22.84.54.15,1.08.3,1.62.46l1.62.44c2.16.61,4.34,1.28,6.53,2.15h.01s-.03,0-.04.01c-4.38.65-8.84.73-13.32.46-2.25-.09-4.5-.38-6.76-.68-1.12-.18-2.25-.3-3.37-.52l-3.37-.65c-4.51-.84-9.01-2-13.49-3.33-1.12-.34-2.23-.75-3.34-1.12l-1.67-.58c-.56-.2-1.1-.44-1.65-.66-1.1-.45-2.21-.88-3.29-1.36l-3.22-1.57c-1.6-.84-3.18-1.76-4.7-2.76-1.44.58-2.6,1.36-3.31,2.34-1.13,1.41-1.35,3.24-.83,5.15l.09.36.15.36c.1.24.18.48.29.72.29.48.48.97.85,1.44l.47.72.09.1.49.6c.35.48.84.92,1.27,1.38,1.81,1.82,4.16,3.46,6.75,4.89,2.61,1.42,5.5,2.63,8.51,3.64,1.49.54,3.06.95,4.61,1.4l2.38.58,1.19.29,1.21.24,2.43.48c.81.12,1.63.27,2.45.41,1.64.34,3.29.56,4.96.93,1.67.35,3.36.65,5.09,1.1,1.73.4,3.48.83,5.3,1.47-1.59.6-3.24,1.02-4.93,1.34-1.7.26-3.43.49-5.2.56-1.77.06-3.55.09-5.35-.07-.9-.08-1.8-.14-2.7-.23l-2.72-.37-1.36-.19-1.36-.25c-.91-.17-1.82-.32-2.73-.51-1.82-.43-3.64-.82-5.45-1.38-3.36-.98-6.7-2.21-9.88-3.78-1.56,2.1-3.16,5.58-1.38,9.41.35.75.85,1.54,1.53,2.36,3.85,4.62,13.77,10.22,37.88,14.37,23.21,4,41.13-1.44,53.27-16.18,9.99-12.12,12.46-26.49,12.7-28.09l.02-.09c1.8-11.57-3.65-21.46-12.37-29.69Z"/>
    <path class="st21" d="M1081.23,546.05c4.91-.91,24.57,17.16,37.81,35.68-6.26-5.92-14.22-10.97-22.38-15.18-.7-.36-1.92-1.78-3.36-3.63-.98-1.27-2.07-2.73-3.15-4.19-2.67-3.59-5.34-7.17-6.52-7.71l-.79,3.15,5.11,14.65c-.83-.66-1.75-1.35-2.74-2.08-4.41-3.28-15.3-18.6-3.98-20.69Z"/>
    <path class="st21" d="M1082.84,554.18l.79-3.15c1.18.54,3.85,4.12,6.52,7.71,1.08,1.46,2.17,2.92,3.15,4.19l-.44.71c-2.98-3.77-7.46-8.93-10.02-9.45Z"/>
    <path class="st21" d="M1082.84,554.18c2.56.52,7.04,5.68,10.02,9.45,1.77,2.24,3.01,3.98,3.01,3.98l-.06.04c-1.02.61-2.11,1.07-3.3,1.3-1.23.23-2.48.3-3.73.24-.13,0-.27-.02-.39-.04-.14-.11-.28-.22-.42-.33l-5.11-14.65Z"/>
    <path class="st21" d="M1082.85,618.67h-.01c-2.19-.87-4.37-1.54-6.53-2.15l-1.62-.44c-.54-.16-1.08-.31-1.62-.46-1.07-.3-2.15-.57-3.22-.84l-6.39-1.54c-1.06-.23-2.13-.45-3.19-.7l-3.15-.76c-2.11-.47-4.17-1.09-6.23-1.67l-1.54-.43-1.51-.49-3.02-.98c-3.93-1.43-7.8-2.95-11.22-4.83-3.39-1.87-6.41-4.01-8.47-6.38-.11-.15-.22-.3-.33-.45,1.08-4.22,6.63-6.05,13.95-3.23,15.4,5.94,50.17,10.37,57.67,4.25,0,0,0,0,0,0h-.03c-3.53-1.11-6.99-1.92-10.42-2.74-3.43-.79-6.83-1.58-10.21-2.31-6.76-1.46-13.45-3.23-19.78-5.59-.15-.05-.31-.12-.49-.19-7.39-3.12-39.88-23.01-45.5-25.44-2.28-1.72-5.81-3.24-7.2-5.14-.04-.06-.09-.12-.13-.18.24-5.11,5.08-3.52,13.71-.77,12.64,4.04,69.78,30.02,79.54,23.8.59.03.81-.31.93-.77.71-.58,2.84-2.41,1.28-2.29-1.21.1-1.06,1.41-1.28,2.29-.13.11-.22.18-.22.18-.2.22-.43.42-.71.6-.04,0-.08,0-.12-.01-.4-.05-.95-.17-1.62-.34,2.78-.24,2.83-2.13-2.97-7.16l.11-.07c.82-.35,1.59-.75,2.26-1.21,1.05-.73,1.79-1.65,2.3-2.57l-.07.04.06-.04s-1.24-1.75-3.01-3.98l.44-.71c1.44,1.85,2.66,3.27,3.36,3.63,27.61,18.6,26.22,53.84,9.58,71.79-17.64,19.03-59.73,12-78.7,3.07-.69-.82-1.18-1.62-1.53-2.36-1.78-3.83-.19-7.31,1.38-9.41,3.18,1.57,6.53,2.8,9.88,3.78,1.81.55,3.63.95,5.45,1.38.91.19,1.82.34,2.73.51l1.36.25,1.36.19,2.72.37c.91.09,1.8.16,2.7.23,1.8.15,3.58.12,5.35.07,1.76-.07,3.49-.3,5.2-.56,1.69-.32,3.34-.74,4.93-1.34-1.82-.64-3.58-1.07-5.3-1.47-1.73-.45-3.42-.76-5.09-1.1-1.67-.37-3.33-.59-4.96-.93-.82-.14-1.63-.29-2.45-.41l-2.43-.48-1.21-.24-1.19-.29-2.38-.58c-1.55-.45-3.12-.86-4.61-1.4-3.01-1.01-5.9-2.22-8.51-3.64-2.6-1.43-4.95-3.07-6.75-4.89-.43-.46-.92-.9-1.27-1.38l-.49-.6c.03-.18.06-.36.09-.56,1.58-10.81,26.6,7.92,60.3,2.13.02,0,.03,0,.04,0Z"/>
    <path class="st21" d="M1095.8,567.66l.07-.04c-.52.93-1.26,1.85-2.3,2.57-.67.46-1.44.86-2.26,1.21l-.11.07c-.82-.71-1.76-1.48-2.82-2.32.13.02.26.03.39.04,1.26.06,2.51,0,3.73-.24,1.2-.23,2.28-.69,3.3-1.3Z"/>
    <path class="st21" d="M1010.84,548.54c2.95.58,6.03,1.74,9.26,2.63-3.23-.89-6.46-1.64-9.42-1.94-2.99-.33-9.8,4.14-9.64,5.11-.17-.97-.26-1.94,0-2.86.02-.24.11-.47.2-.69.09-.23,1.26-1.83,1.64-2.06,1.05-1.03,3.59-1.04,7.95-.18Z"/>
    <path class="st21" d="M1010.67,549.23c2.97.31,6.19,1.06,9.42,1.94.06.02.12.03.18.06,4.35,1.41,37.12,16.95,40.5,18.11,3.28,1.13,13.12,4.93,9.91,3.52-7.29-3.2,16.55,6.38,23.48,5.77.67.17,1.22.29,1.62.34.04,0,.08,0,.12.01-9.75,6.21-66.89-19.77-79.54-23.8-8.63-2.75-13.47-4.34-13.71.77h-.01c-.58-1.01-1.4-.63-1.6-1.61-.17-.97,6.64-5.44,9.64-5.11Z"/>
    <path class="st21" d="M1088.05,569.12l-.11-.3c.15.11.29.22.42.33l-.32-.03Z"/>
    <path class="st21" d="M1020.28,551.23c4.36,1.35,37.61,14.89,41,16.05,3.28,1.13,6.58,2.32,9.91,3.52,2.73.97,17.26,6.38,22.98,7.83-6.92.61-30.77-8.98-23.48-5.77,3.21,1.41-6.63-2.39-9.91-3.52-3.38-1.17-36.15-16.7-40.5-18.11Z"/>
    <path class="st21" d="M1098.11,575.93c1.57-.13-.57,1.7-1.28,2.29.22-.87.07-2.19,1.28-2.29Z"/>
    <path class="st21" d="M1096.66,566.55c8.16,4.21,16.11,9.26,22.38,15.18,7.91,11.05,13.53,22.26,12.37,29.69l-.02.09c-.25,1.6-2.71,15.97-12.7,28.09-12.14,14.73-30.07,20.18-53.27,16.18-24.11-4.16-34.02-9.76-37.88-14.37,18.97,8.94,61.07,15.97,78.7-3.07,16.64-17.96,18.03-53.19-9.58-71.79Z"/>
    <path class="st21" d="M1096.61,578.39s.09-.07.22-.18c-.12.46-.34.8-.93.77.27-.17.51-.37.71-.6Z"/>
    <path class="st21" d="M1119.04,581.73c8.72,8.23,14.17,18.12,12.37,29.69,1.16-7.43-4.46-18.64-12.37-29.69Z"/>
    <path class="st21" d="M1002.78,556.14c1.39,1.9,4.92,3.42,7.2,5.14-3.32-1.43-5.88-3.23-7.2-5.14Z"/>
    <path class="st21" d="M1009.98,561.28c5.62,2.42,38.11,22.31,45.5,25.44-7.43-3.07-40.84-21.95-45.5-25.44Z"/>
    <path class="st21" d="M1096.4,597.55h.03s0,0,0,0h-.02Z"/>
    <path class="st21" d="M1031.27,582.62c1.09-.09,2.2-.02,3.31.22,5.89,4,12.53,6.76,19.18,9.01,7.01,2.33,14.17,4.01,21.32,5.23,1.8.26,3.59.53,5.39.68l2.69.22c.9.04,1.79.09,2.68.11,3.57.12,7.12-.03,10.58-.53-7.49,6.12-42.27,1.69-57.67-4.25-7.31-2.82-12.86-.99-13.95,3.23-.78-1.06-1.51-2.12-1.81-3.2l-.19-.46-.09-.46c-.05-.31-.16-.62-.18-.92,0-.3-.02-.61-.04-.91-.03-.31.07-.6.09-.9.34-2.38,2.07-4.57,4.55-5.89,1.24-.66,2.67-1.06,4.13-1.18Z"/>
    <path class="st21" d="M1024.63,605.9c1.52,1.01,3.1,1.93,4.7,2.76l3.22,1.57c1.09.48,2.2.91,3.29,1.36.55.22,1.09.46,1.65.66l1.67.58c1.11.37,2.23.78,3.34,1.12,4.48,1.33,8.98,2.49,13.49,3.33l3.37.65c1.12.22,2.25.35,3.37.52,2.26.3,4.51.59,6.76.68,4.48.27,8.94.19,13.32-.46-33.7,5.79-58.72-12.94-60.3-2.13-.03.19-.06.37-.09.56l-.09-.1-.47-.72c-.37-.47-.56-.96-.85-1.44-.11-.24-.19-.49-.29-.72l-.15-.36-.09-.36c-.52-1.91-.3-3.74.83-5.15.71-.98,1.87-1.75,3.31-2.34Z"/>
  </g>
  <path class="st21" d="M919.2,909.19c1.28-1.7,2.31-3.65,2.85-5.85.25-1.01.39-2.06.4-3.13,1.43-6.14,1.16-10.85,3.72-14.99.07.33.13.67.17,1.02.25,2.07.12,4.35-.21,6.6-.69,4.51-2.16,9-4.23,13.05-1.05,2.01-2.26,3.92-3.66,5.56-.24.28-.49.56-.75.82.64-1.06,1.21-2.09,1.71-3.08Z"/>
  <path class="st21" d="M838.7,886.76s0,0,0,0c0,0,0,0,0,0,0,0,0,0,0,0,25.19-18.54,33.64-27.32,65.19-25.13.32.08.63.16.95.23.74.18,1.5.35,2.19.56,1.42.41,2.81.89,4.15,1.47,2.55,1.11,4.93,2.57,6.94,4.38,4.7,9.83,1.17,23.79-29.05,16.98-.06-.01-.11-.03-.17-.04,5.38,3.45,11.39,6,17.89,6.89,1.28.16,2.59.25,3.91.25,6.78,8.92-3.8,19.16-25.75,11.81-1.61-.67-3.25-1.31-4.94-1.87-.03-.01-.06-.02-.09-.04h.02s-.02,0-.02,0c1.84,2.08,3.83,3.93,5.91,5.67,2.09,1.72,4.27,3.33,6.61,4.75,1.94,1.17,3.98,2.21,6.23,3.01,3.98,4.64,3.28,11.07-4.42,12.81-9.9,2.25-27.79-10.1-28.67-10.71-.01,0-.03-.02-.04-.03.7,1.2,1.41,2.4,2.2,3.53l1.19,1.7,1.26,1.64c1.71,2.18,3.57,4.24,5.63,6.13,2.07,1.88,4.34,3.61,6.92,4.94.07.04.14.07.21.1-2.21,6.38-14.39,6.32-24.6-.39-22.85-15.04-25.65-29.74-20.92-45.41-.12.12-1.11,1.07-2.35,3.16-.06.06-.12.12-.18.19,1.14-2.23,2.45-4.52,3.88-6.84-.03.08-.06.16-.08.25v.02Z"/>
  <path class="st21" d="M858.37,935.4c10.2,6.72,22.38,6.77,24.6.39.8.42,1.64.79,2.5,1.11-.02,1.3-.17,2.56-.49,3.69-.49,1.7-1.39,3.05-2.68,4.01-1.29.96-2.99,1.53-4.82,1.76-1.83.24-3.78.17-5.73-.1-3.91-.56-7.82-1.84-11.56-3.53-3.74-1.7-7.33-3.82-10.68-6.27-3.35-2.46-6.45-5.27-9.13-8.42-2.67-3.15-4.92-6.68-6.28-10.49-.68-1.9-1.14-3.87-1.3-5.85-.08-.99-.09-1.99-.03-2.97.02-.5.12-.98.12-1.49,0-.5.04-1.03.09-1.56.18-2.13.54-4.31.89-6.5.43-2.16.82-4.35,1.65-6.47-.15.14-.28.28-.42.43,1.24-2.09,2.23-3.04,2.35-3.16-4.73,15.67-1.93,30.37,20.92,45.41Z"/>
  <path class="st21" d="M894.27,928.49c7.7-1.74,8.4-8.18,4.42-12.81.48.17.96.33,1.46.48.15.04.3.08.45.11.61.59,1.26,1.15,1.95,1.68.07.1.16.19.22.29.51.78.83,1.64.97,2.57.25,1.87-.26,4.03-1.37,5.88-1.08,1.88-2.7,3.46-4.58,4.49-1.87,1.06-4.02,1.56-6.22,1.47-4.56-.06-9-2.48-13.26-5.33-2.14-1.44-4.23-3.04-6.35-4.65-2.11-1.6-4.18-3.3-6.38-4.89.89.61,18.78,12.96,28.67,10.71Z"/>
  <path class="st21" d="M910.73,892.35c.48,0,.96-.02,1.44-.04.84.44,1.63.93,2.34,1.48.88.7,1.6,1.51,2.13,2.37.52.87.82,1.81.91,2.79.1.98,0,2-.32,3.01-.63,2.02-1.9,3.97-3.58,5.49-1.67,1.52-3.68,2.68-5.82,3.33-.53.17-1.08.3-1.63.4-.27.06-.56.09-.82.13-.25.03-.5.05-.75.07-1.02.04-2.11-.09-3.23-.36-2.25-.51-4.56-1.53-6.89-2.57-3.11-1.41-6.26-2.93-9.54-4.3,21.95,7.35,32.53-2.89,25.75-11.81Z"/>
  <path class="st21" d="M880.04,902.28s-.05-.02-.07-.03h-.02s.06.01.09.03Z"/>
  <path class="st21" d="M918.14,868.28c.1.09.21.18.31.27,2.06,1.94,3.7,4.33,4.42,6.91.76,2.56.5,5.25-.82,7.4-1.32,2.15-3.64,3.75-6.32,4.6-2.68.89-5.65,1.11-8.63,1.03-5.94-.2-11.95-1.65-18.01-3.22,30.22,6.82,33.75-7.15,29.05-16.98Z"/>
  <polygon class="st21" points="838.72 886.74 838.71 886.76 838.7 886.76 838.72 886.74"/>
  <path class="st21" d="M838.72,886.75c2.05-2.56,11.64-12.99,12.79-14.02,4.59-4.14,9.86-7.36,15.46-9.56,5.61-2.22,11.58-3.32,17.6-3.56,3.01-.11,6.04-.02,9.05.28,3.01.32,6.02.78,9,1.44.43.08.85.19,1.28.29-31.55-2.19-39.99,6.59-65.19,25.13Z"/>
  <path class="st21" d="M922.3,898.2c-.28-1.74-.99-3.41-1.98-4.77-.62-.87-1.36-1.6-2.14-2.24,1.22-.42,2.42-.98,3.56-1.71,1.56-.98,3-2.33,4.09-3.99.1-.15.2-.31.29-.47.02.07.03.13.04.2-2.55,4.13-2.29,8.85-3.72,14.99,0-.67-.04-1.34-.15-2.01Z"/>
  <path class="st21" d="M913.53,915.21c-1.16.52-2.34.73-3.52.63,2.62-.89,5.08-2.35,7.12-4.32.74-.71,1.43-1.49,2.06-2.33-.5.99-1.07,2.02-1.71,3.08-1.21,1.27-2.55,2.31-3.96,2.94Z"/>
  <path d="M875.85,951.91c9.29-1.96,1.51-.09,2.27-.2,2.4-.35,4.93-1.15,7.12-2.82,1.09-.84,2.07-1.88,2.83-3.07.77-1.18,1.31-2.48,1.67-3.79.35-1.3.53-2.6.58-3.87.3.04.6.08.9.11,3.07.25,6.29-.35,9.13-1.83,2.83-1.5,5.25-3.82,6.9-6.69.81-1.45,1.44-3.03,1.79-4.72.29-1.35.36-2.78.21-4.21.63.07,1.28.11,1.92.07,1.47-.08,2.91-.46,4.21-1.04,2.62-1.17,4.7-3.04,6.43-5.04,1.72-2.02,3.12-4.23,4.32-6.53,2.35-4.6,3.97-9.52,4.76-14.68.37-2.59.55-5.25.22-8.03-.17-1.39-.5-2.83-1.14-4.28-.34-.72-.75-1.44-1.32-2.11-.2-.23-.42-.45-.65-.67.04-1.53-.15-3.05-.54-4.48-.09-.31-.19-.62-.3-.92,0,0,1.17-15.18-27.55-17.51-28.73-2.33-3.66-.57-5.51-.77-3.21-.34-6.46-.42-9.7-.3-3.24.14-6.5.48-9.7,1.2-3.2.7-6.35,1.69-9.39,2.97-3.04,1.28-5.95,2.9-8.69,4.77-2.73,1.89-5.28,4.03-7.61,6.41-1.15,1.2-2.27,2.44-3.27,3.76-.51.66-1.01,1.32-1.48,2.01-.49.67-.93,1.38-1.36,2.09-1.69,2.75-12.68,22.48-13.69,25.55-.03.08,3.99-.45,4.07-.45.28.03,12.37-24.39,12.37-24.39.27-.28,1.89-1.99,2.44-2.54,1.11-1.1,2.24-2.17,3.39-3.2,4.59-4.14,9.86-7.36,15.46-9.56,5.61-2.22,11.58-3.32,17.6-3.56,3.01-.11,6.04-.02,9.05.28,3.01.32,6.02.78,9,1.44.43.08.85.19,1.28.29.32.08.63.16.95.23.74.18,1.5.35,2.19.56,1.42.41,2.81.89,4.15,1.47,2.55,1.11,4.93,2.57,6.94,4.38.1.09.21.18.31.27,2.06,1.94,3.7,4.33,4.42,6.91.76,2.56.5,5.25-.82,7.4-1.32,2.15-3.64,3.75-6.32,4.6-2.68.89-5.65,1.11-8.63,1.03-5.94-.2-11.95-1.65-18.01-3.22-.06-.01-.11-.03-.17-.04,5.38,3.45,11.39,6,17.89,6.89,1.28.16,2.59.25,3.91.25.48,0,.96-.02,1.44-.04.84.44,1.63.93,2.34,1.48.88.7,1.6,1.51,2.13,2.37.52.87.82,1.81.91,2.79.1.98,0,2-.32,3.01-.63,2.02-1.9,3.97-3.58,5.49-1.67,1.52-3.68,2.68-5.82,3.33-.53.17-1.08.3-1.63.4-.27.06-.56.09-.82.13-.25.03-.5.05-.75.07-1.02.04-2.11-.09-3.23-.36-2.25-.51-4.56-1.53-6.89-2.57-3.11-1.41-6.26-2.93-9.54-4.3-1.61-.67-3.25-1.31-4.94-1.87-.02,0-.05-.02-.07-.03,0,0-.02,0-.02,0,1.84,2.08,3.83,3.93,5.91,5.67,2.09,1.72,4.27,3.33,6.61,4.75,1.94,1.17,3.98,2.21,6.23,3.01.48.17.96.33,1.46.48.15.04.3.08.45.11.61.59,1.26,1.15,1.95,1.68.07.1.16.19.22.29.51.78.83,1.64.97,2.57.25,1.87-.26,4.03-1.37,5.88-1.08,1.88-2.7,3.46-4.58,4.49-1.87,1.06-4.02,1.56-6.22,1.47-4.56-.06-9-2.48-13.26-5.33-2.14-1.44-4.23-3.04-6.35-4.65-2.11-1.6-4.18-3.3-6.38-4.89-.01,0-.03-.02-.04-.03.7,1.2,1.41,2.4,2.2,3.53l1.19,1.7,1.26,1.64c1.71,2.18,3.57,4.24,5.63,6.13,2.07,1.88,4.34,3.61,6.92,4.94.07.04.14.07.21.1.8.42,1.64.79,2.5,1.11-.02,1.3-.17,2.56-.49,3.69-.49,1.7-1.39,3.05-2.68,4.01-1.29.96-2.99,1.53-4.82,1.76-1.83.24-3.78.17-5.73-.1-3.91-.56-7.82-1.84-11.56-3.53-3.74-1.7-7.33-3.82-10.68-6.27-3.35-2.46-6.45-5.27-9.13-8.42-2.67-3.15-4.92-6.68-6.28-10.49-.68-1.9-1.14-3.87-1.3-5.85-.08-.99-.09-1.99-.03-2.97.02-.5.12-.98.12-1.49,0-.5.04-1.03.09-1.56.18-2.13.54-4.31.89-6.5.43-2.16.82-4.35,1.65-6.47-.15.14-.28.28-.42.43-.06.06-.12.12-.18.19-.56.63-1.06,1.34-1.54,2.05-.65.95-1.18,1.97-1.72,2.98-1.08,2.04-1.95,4.16-2.7,6.41-.19.56-.37,1.13-.53,1.74-.1.3-.14.61-.17.92-.04.31-.07.62-.1.93-.11,1.24-.12,2.49-.05,3.73.15,2.48.66,4.91,1.44,7.21,1.56,4.6,4.1,8.65,7.03,12.22,2.94,3.57,6.32,6.66,9.93,9.36.87.65,1.76,1.28,2.66,1.88,0,0,17.39,11.11,26.69,9.15ZM918.24,911.45c-.24.28-.49.56-.75.82-1.21,1.27-2.55,2.31-3.96,2.94-1.16.52-2.34.73-3.52.63,2.62-.89,5.08-2.35,7.12-4.32.74-.71,1.43-1.49,2.06-2.33,1.28-1.7,2.31-3.65,2.85-5.85.25-1.01.39-2.06.4-3.13,0-.67-.04-1.34-.15-2.01-.28-1.74-.99-3.41-1.98-4.77-.62-.87-1.36-1.6-2.14-2.24,1.22-.42,2.42-.98,3.56-1.71,1.56-.98,3-2.33,4.09-3.99.1-.15.2-.31.29-.47.02.07.03.13.04.2.07.33.13.67.17,1.02.25,2.07.12,4.35-.21,6.6-.69,4.51-2.16,9-4.23,13.05-1.05,2.01-2.26,3.92-3.66,5.56Z"/>
</svg>