<?xml version="1.0" standalone="no"?>
<!DOCTYPE svg PUBLIC "-//W3C//DTD SVG 20010904//EN"
 "http://www.w3.org/TR/2001/REC-SVG-20010904/DTD/svg10.dtd">
<svg version="1.0" xmlns="http://www.w3.org/2000/svg"
 width="1920.000000pt" height="1080.000000pt" viewBox="0 0 1920.000000 1080.000000"
 preserveAspectRatio="xMidYMid meet">
<metadata>
Created by potrace 1.16, written by Peter Selinger 2001-2019
</metadata>
<g transform="translate(0.000000,1080.000000) scale(0.100000,-0.100000)"
fill="#000000" stroke="none">
<path d="M10025 10731 c-3 -2 -35 -5 -72 -7 -69 -4 -148 -12 -148 -14 0 -2 -7
-3 -100 -14 -28 -3 -66 -10 -84 -16 -19 -5 -37 -8 -41 -5 -3 2 -26 -2 -51 -9
-24 -7 -50 -11 -56 -9 -7 3 -13 1 -13 -4 0 -8 -8 -10 -65 -14 -14 -1 -25 -6
-25 -11 0 -5 -4 -7 -9 -4 -5 3 -28 -1 -51 -9 -23 -8 -47 -12 -53 -8 -6 4 -7 1
-2 -7 6 -10 4 -12 -7 -7 -9 3 -21 0 -27 -6 -6 -6 -11 -8 -11 -5 0 4 -17 0 -37
-9 -21 -8 -39 -15 -40 -14 -2 0 -4 1 -5 0 -2 0 -10 -2 -18 -4 -8 -2 -53 -18
-100 -35 -47 -17 -92 -33 -101 -35 -9 -2 -35 -13 -57 -24 -22 -11 -42 -17 -46
-14 -3 4 -6 0 -6 -7 0 -7 -3 -11 -6 -7 -4 3 -28 -5 -54 -18 -26 -13 -50 -21
-54 -18 -3 4 -6 1 -6 -6 0 -7 -4 -9 -10 -6 -5 3 -10 2 -10 -3 0 -8 -67 -40
-80 -38 -3 1 -12 -5 -20 -12 -24 -20 -110 -60 -104 -48 3 6 -1 3 -9 -6 -8 -10
-18 -18 -22 -18 -4 0 -19 -9 -35 -20 -15 -11 -30 -17 -34 -13 -3 3 -6 1 -6 -4
0 -6 -20 -21 -45 -33 -25 -12 -47 -26 -51 -31 -3 -5 -9 -7 -14 -4 -4 3 -10 -2
-14 -10 -3 -8 -10 -15 -16 -15 -5 0 -32 -16 -59 -35 -26 -19 -53 -35 -59 -35
-6 0 -15 -6 -19 -13 -4 -8 -21 -22 -38 -33 -16 -10 -32 -21 -35 -24 -3 -3 -36
-30 -75 -60 -87 -67 -221 -186 -253 -222 -13 -16 -30 -28 -38 -28 -8 0 -14 -6
-14 -13 0 -8 -19 -32 -42 -54 -208 -195 -467 -597 -588 -910 -14 -35 -28 -63
-33 -63 -4 0 -5 -5 -2 -10 4 -6 2 -16 -3 -23 -5 -7 -13 -28 -17 -47 -4 -19
-11 -39 -15 -45 -5 -5 -9 -13 -9 -18 -4 -42 -15 -87 -21 -87 -4 0 -8 -10 -8
-22 0 -13 -6 -43 -12 -68 -6 -25 -14 -63 -16 -85 -3 -22 -9 -49 -14 -60 -25
-60 -41 -476 -24 -650 4 -44 8 -92 8 -107 1 -16 4 -28 8 -28 4 0 7 -10 7 -22
-1 -31 7 -90 15 -109 4 -9 8 -33 9 -53 1 -20 5 -36 9 -36 4 0 7 -8 6 -17 0
-22 55 -215 88 -306 44 -125 111 -281 155 -362 31 -58 43 -94 46 -130 4 -74 9
-107 22 -140 6 -16 17 -43 23 -60 7 -16 22 -47 35 -67 13 -21 21 -38 19 -38
-5 0 36 -50 96 -115 27 -29 48 -57 48 -63 0 -7 6 -12 13 -12 8 0 30 -17 49
-37 20 -21 51 -49 69 -63 19 -14 44 -35 57 -47 13 -13 25 -23 28 -23 5 0 25
-15 57 -45 12 -11 33 -20 47 -20 23 0 25 -3 21 -35 -1 -19 -8 -44 -14 -55 -12
-23 -16 -305 -4 -305 4 0 7 -14 7 -31 0 -40 34 -174 60 -234 11 -25 34 -67 52
-93 18 -26 32 -51 30 -55 -1 -5 2 -6 7 -3 5 4 16 -2 23 -13 8 -11 26 -25 41
-32 15 -7 27 -16 27 -21 0 -5 5 -6 10 -3 6 3 10 2 10 -3 0 -12 68 -14 75 -2 3
5 8 69 10 142 3 79 9 134 15 136 5 2 8 7 5 11 -11 18 81 231 106 247 7 4 20
-2 31 -16 10 -12 18 -19 18 -14 0 4 10 -2 23 -13 12 -11 58 -41 102 -68 44
-27 83 -53 86 -58 3 -5 9 -9 12 -8 14 1 82 -32 89 -42 4 -6 10 -8 14 -5 3 4
23 -2 42 -13 20 -10 42 -19 49 -19 7 0 13 -4 13 -10 0 -5 3 -9 8 -9 4 1 10 0
15 -1 4 -1 10 -3 15 -5 51 -14 62 -19 62 -27 0 -6 7 -8 15 -5 8 4 17 2 20 -3
4 -6 15 -10 25 -10 10 0 31 -5 47 -12 29 -12 33 -13 91 -24 17 -3 32 -11 32
-16 0 -5 8 -8 18 -7 17 2 63 -7 92 -19 8 -3 22 -6 31 -7 9 -1 29 -6 45 -10 16
-4 38 -9 49 -11 11 -2 44 -7 73 -12 30 -5 57 -14 61 -20 3 -6 19 -15 34 -21
23 -9 27 -16 27 -52 0 -31 -3 -40 -14 -36 -8 3 -59 11 -114 17 -87 10 -110 10
-178 -6 -52 -11 -96 -29 -129 -51 -27 -18 -58 -33 -68 -33 -16 0 -262 -156
-416 -263 -24 -17 -51 -30 -60 -30 -16 0 -98 -79 -141 -136 -14 -18 -34 -45
-45 -59 -11 -15 -33 -45 -48 -68 -15 -22 -36 -50 -47 -62 -11 -12 -20 -26 -20
-32 0 -6 -22 -33 -49 -60 -27 -27 -59 -64 -72 -82 -13 -18 -32 -42 -43 -53
-12 -11 -34 -38 -51 -59 -16 -22 -55 -66 -86 -98 l-57 -59 -28 38 c-29 39
-163 182 -221 236 -18 17 -33 34 -33 39 0 4 -16 23 -35 42 -19 20 -35 40 -35
45 0 5 -3 11 -8 13 -4 2 -23 23 -41 48 -36 48 -97 108 -128 126 -20 13 -22 41
-9 141 l8 61 -66 7 c-36 4 -66 11 -66 17 0 8 85 3 118 -7 6 -3 12 2 12 9 0 10
-21 16 -70 21 -38 4 -70 11 -70 16 0 10 15 10 86 0 l52 -7 1 52 0 52 -74 7
c-67 7 -74 9 -80 32 -3 14 -4 27 -2 30 3 2 33 -1 68 -7 83 -13 89 -13 89 4 0
9 -17 16 -47 20 -106 14 -123 18 -123 28 0 5 8 7 18 4 42 -12 152 -18 152 -8
0 6 -6 13 -12 15 -10 4 -10 6 0 6 7 1 12 15 12 35 0 35 0 35 -57 41 -32 4 -75
10 -97 14 l-38 6 18 23 c18 22 22 23 84 13 36 -6 71 -11 78 -11 8 0 12 23 12
80 l0 79 42 41 c23 22 45 40 49 40 4 0 14 15 23 34 17 36 19 96 3 96 -6 0 -17
8 -26 18 -19 20 -59 42 -86 46 -11 2 -18 10 -16 17 2 8 6 94 9 192 4 159 3
177 -12 177 -13 0 -16 -14 -16 -87 -1 -89 -23 -290 -34 -300 -9 -9 -7 21 9
137 17 121 19 250 5 250 -5 0 -11 -37 -13 -82 l-3 -83 -2 83 c-3 109 -22 108
-22 -1 0 -99 -26 -307 -40 -321 -14 -14 -13 16 5 144 8 58 14 141 13 185 -1
57 -3 64 -5 25 -5 -112 -36 -355 -45 -365 -7 -6 -8 1 -4 20 16 81 36 277 35
335 -2 60 -2 58 -9 -30 -11 -136 -39 -333 -48 -342 -4 -4 0 52 10 125 9 72 17
173 16 222 -1 50 -3 68 -5 40 -1 -27 -12 -131 -24 -229 -22 -179 -22 -180 -55
-215 l-34 -34 -101 12 c-84 10 -103 10 -110 -1 -5 -8 -9 7 -9 38 l0 51 -37 6
c-21 3 -84 11 -140 18 -90 11 -103 15 -109 33 -3 12 -13 29 -22 38 -13 16 -13
18 2 24 15 6 265 -20 309 -33 12 -3 17 1 17 16 0 12 -1 21 -2 21 -315 43 -348
45 -349 30 0 -13 -1 -13 -6 0 -4 8 -13 21 -21 29 -11 11 -13 28 -8 70 4 31 10
82 13 114 l6 57 -45 0 -46 0 -7 -56 c-8 -67 -20 -63 -16 6 2 48 1 50 -23 50
-14 0 -26 -6 -26 -12 0 -9 -4 -8 -11 2 -8 12 -10 9 -6 -12 3 -18 0 -25 -8 -21
-7 2 -11 14 -8 26 3 16 2 18 -5 8 -8 -11 -10 -11 -14 0 -4 11 -9 12 -26 2 -14
-8 -22 -9 -24 -2 -2 7 -19 3 -42 -11 -25 -14 -52 -20 -75 -18 -33 3 -36 1 -39
-27 -2 -16 -8 -34 -13 -40 -6 -6 -7 11 -3 48 l7 57 -52 0 -51 0 -6 -40 c-8
-52 -28 -53 -21 -2 4 31 1 39 -12 39 -21 0 -31 -15 -31 -48 0 -15 -7 -29 -14
-32 -9 -4 -13 -1 -11 6 2 7 6 27 9 45 l6 32 -115 0 -115 0 0 -55 c0 -37 4 -55
13 -56 6 0 47 -6 89 -12 61 -10 76 -15 69 -26 -7 -11 -23 -11 -87 -3 -43 6
-80 9 -83 7 -2 -2 -1 -11 2 -18 4 -10 31 -17 86 -22 45 -4 84 -12 88 -17 6
-11 -119 -4 -159 8 -10 3 -18 1 -18 -4 0 -5 30 -13 68 -17 96 -10 108 -14 121
-41 22 -50 21 -50 -146 -27 l-43 5 0 -100 0 -100 35 -6 c26 -5 36 -13 41 -31
3 -14 9 -25 13 -25 5 0 4 -21 0 -48 -4 -26 -8 -53 -8 -59 -1 -9 -8 -10 -27 -3
-55 21 -56 19 -53 -97 2 -97 22 -193 39 -193 3 0 -5 -80 -17 -177 -13 -98 -22
-207 -21 -243 l3 -65 230 -28 c127 -16 231 -30 231 -30 1 -1 5 -12 8 -24 9
-30 2 -30 -238 2 -247 33 -236 33 -236 -10 0 -19 3 -35 8 -35 4 0 113 -14 242
-30 277 -35 260 -34 260 -13 0 11 7 4 18 -16 18 -33 17 -41 -70 -725 -73 -582
-87 -712 -86 -821 l1 -130 8 140 c6 132 173 1472 183 1483 20 19 8 -102 -68
-702 -66 -515 -86 -704 -86 -796 l0 -120 45 0 45 0 0 95 c0 60 30 335 80 733
81 643 90 706 97 686 2 -6 -33 -296 -77 -645 -59 -472 -80 -665 -80 -752 0
-97 3 -117 15 -117 12 0 15 19 16 108 0 121 23 320 30 262 2 -19 1 -51 -3 -70
-8 -45 -10 -83 -9 -202 l1 -98 561 0 560 0 -1 98 c-1 53 -1 105 -1 116 1 13
13 3 43 -35 24 -30 48 -60 55 -67 7 -7 13 -18 13 -24 0 -5 7 -8 15 -4 9 3 20
-3 27 -14 7 -11 20 -20 28 -20 8 0 28 -7 44 -15 37 -19 165 -27 226 -14 96 21
136 33 156 46 12 8 31 16 43 18 27 5 155 67 159 77 2 5 8 8 14 8 17 0 69 48
106 98 29 39 188 207 293 311 14 14 28 33 32 41 3 8 6 -648 6 -1457 l1 -1473
48 0 47 0 2 1913 c2 1051 5 2032 9 2179 l7 267 96 62 c162 105 305 201 327
221 20 18 74 26 74 11 0 -5 -75 -80 -168 -169 -152 -147 -294 -315 -279 -330
6 -6 338 -109 467 -145 165 -46 163 -59 -31 -219 -83 -69 -162 -134 -175 -145
l-25 -20 478 -533 c263 -294 500 -559 527 -590 27 -31 54 -59 60 -61 6 -2 26
-17 44 -34 l32 -31 0 -340 c0 -188 -4 -541 -9 -786 -6 -245 -13 -608 -16 -807
l-6 -363 65 0 c56 0 66 3 66 18 1 9 3 199 6 422 2 223 9 749 14 1169 l10 763
462 582 c253 319 468 589 476 599 26 30 4 61 -112 151 -90 70 -105 87 -90 93
111 41 439 186 446 195 4 7 8 20 8 28 0 8 -102 123 -225 255 -124 132 -221
241 -215 243 5 2 125 -56 265 -130 l256 -133 -5 -110 c-3 -60 -9 -821 -15
-1690 -5 -869 -13 -1795 -17 -2057 l-7 -478 50 0 51 0 7 407 c4 225 10 864 14
1421 l6 1014 43 -61 c23 -33 42 -63 42 -66 0 -3 19 -33 43 -66 23 -33 47 -69
53 -80 6 -10 22 -29 35 -41 29 -27 154 -202 194 -271 15 -26 48 -63 74 -82 25
-19 51 -38 56 -43 6 -5 42 -27 80 -50 39 -23 77 -47 85 -52 18 -12 69 -32 93
-37 10 -2 28 -8 40 -15 32 -17 172 -27 217 -15 59 15 77 22 89 35 10 10 16 11
19 3 2 -6 30 17 63 51 33 35 108 114 167 177 59 62 148 155 197 207 142 147
214 224 210 224 -3 0 21 27 53 60 74 77 134 144 135 150 1 3 11 15 24 28 13
13 23 26 23 30 0 4 11 20 25 35 14 15 22 27 18 27 -4 0 -3 4 3 8 16 11 74 111
74 127 0 8 5 15 10 15 6 0 9 3 8 8 0 4 2 15 5 25 4 9 9 24 12 33 3 8 13 14 22
13 10 0 20 0 23 1 3 1 28 4 55 6 53 4 98 10 103 14 1 1 7 4 12 5 6 1 12 4 15
5 3 1 8 3 13 4 74 18 234 160 263 234 5 12 14 22 20 22 7 0 10 2 7 5 -7 7 92
203 118 235 11 12 25 28 31 34 7 6 26 23 43 38 16 15 50 37 74 49 25 11 50 27
57 35 6 8 16 14 23 14 6 0 38 19 72 41 69 47 120 118 116 160 -2 15 1 30 7 34
18 11 14 297 -4 321 -8 10 -15 26 -15 35 -1 51 -146 70 -199 26 -8 -7 -17 -11
-20 -11 -12 3 -56 -18 -74 -33 -9 -9 -19 -14 -22 -11 -3 3 14 18 37 34 49 34
138 119 138 133 0 5 4 11 8 13 19 8 62 114 62 154 0 36 -5 46 -29 63 -16 12
-43 23 -61 25 -17 2 -34 6 -37 10 -3 3 -11 2 -17 -3 -6 -6 -23 -11 -36 -13
-14 -2 -31 -7 -37 -11 -7 -5 -13 -5 -13 -2 0 4 -12 -3 -26 -14 -15 -12 -31
-21 -37 -21 -6 0 -26 -12 -45 -27 l-35 -26 23 31 c12 17 28 52 35 79 12 46 11
49 -12 71 -28 26 -80 29 -123 7 -17 -9 -32 -15 -36 -14 -14 3 -166 -136 -157
-144 3 -3 -4 -12 -16 -19 -12 -7 -21 -16 -21 -20 0 -7 -21 -36 -47 -63 -7 -8
-13 -18 -13 -24 0 -20 -57 -65 -233 -186 -96 -66 -172 -124 -169 -130 3 -5 -2
-4 -11 4 -9 7 -17 21 -17 30 0 9 -9 24 -20 34 -11 9 -20 24 -20 34 0 9 -7 24
-16 34 -8 9 -16 23 -18 31 -1 12 -28 52 -75 113 -16 20 -16 20 6 1 22 -18 23
-17 315 184 161 112 295 205 297 207 3 1 -5 13 -16 26 -11 12 -23 29 -27 37
-8 21 -91 133 -98 134 -12 2 -686 -469 -681 -477 2 -4 1 -6 -4 -5 -33 9 -84
-18 -147 -77 -37 -36 -72 -65 -77 -65 -5 0 -9 -67 -9 -150 0 -82 2 -150 5
-150 3 0 51 31 106 70 55 39 106 70 113 70 8 0 33 -28 57 -62 23 -35 48 -69
55 -76 7 -7 10 -20 7 -29 -5 -12 -3 -14 8 -8 11 7 12 6 2 -6 -7 -9 -14 -31
-16 -49 -3 -21 -14 -42 -31 -57 -24 -21 -25 -23 -7 -23 18 0 19 -3 9 -33 -6
-17 -14 -36 -18 -42 -6 -8 -22 -82 -21 -100 0 -2 -5 -19 -10 -37 -5 -18 -10
-58 -10 -90 0 -56 -15 -78 -41 -61 -7 3 -8 1 -4 -5 4 -8 0 -12 -11 -12 -11 0
-40 -13 -66 -30 -26 -16 -47 -27 -47 -24 0 12 -75 -50 -143 -118 -38 -37 -73
-68 -78 -68 -6 0 -8 -4 -4 -9 3 -6 -3 -15 -14 -21 -20 -10 -45 -31 -101 -84
-14 -12 -33 -26 -42 -29 -10 -4 -18 -10 -18 -15 0 -5 -17 -21 -37 -34 -21 -14
-62 -48 -91 -77 -60 -59 -66 -58 -104 10 -12 22 -25 39 -29 39 -9 0 -51 70
-53 89 -2 7 -13 25 -27 39 -13 13 -37 48 -54 77 -16 29 -43 69 -58 88 -16 20
-30 43 -31 51 -1 8 -10 24 -20 35 -10 10 -18 25 -20 33 -2 12 -12 31 -44 83
-7 11 -17 31 -24 45 -7 14 -26 45 -43 70 -17 25 -37 57 -44 71 -7 15 -26 37
-42 48 -16 12 -29 26 -29 32 0 6 -12 24 -27 39 -63 64 -103 109 -103 114 0 3
-20 25 -45 49 -25 25 -45 43 -45 40 0 -3 -15 8 -32 23 -30 25 -92 56 -283 143
-38 18 -97 45 -130 61 -33 15 -80 37 -105 48 -25 11 -83 38 -130 60 -60 29
-104 42 -150 47 -161 15 -170 16 -170 30 0 9 10 14 28 13 26 0 107 9 107 13 0
1 9 3 20 4 65 10 91 14 95 16 3 1 8 1 12 0 4 0 25 6 46 13 22 8 42 13 45 10 2
-2 34 7 70 21 37 14 67 23 67 20 0 -3 14 2 30 10 17 9 35 13 40 10 6 -3 10 -1
10 5 0 6 5 8 10 5 6 -3 10 -1 10 6 0 7 3 10 6 6 4 -3 24 3 46 14 21 11 43 17
48 14 5 -3 12 1 17 9 8 14 81 50 96 48 4 -1 7 1 7 6 0 4 15 14 33 21 17 8 38
21 45 28 8 7 18 11 22 8 5 -3 14 4 20 15 6 11 16 20 23 20 7 1 27 14 46 30 19
16 38 27 42 24 4 -2 20 11 36 30 15 18 38 37 51 40 12 4 22 13 22 20 0 7 24
36 53 63 101 96 195 218 272 353 27 47 51 87 54 90 4 3 7 10 8 15 1 6 20 53
41 105 21 52 43 104 47 115 10 24 9 21 19 65 5 19 12 40 16 45 4 6 7 17 7 25
1 8 9 51 19 95 16 67 18 115 17 290 -2 116 -5 220 -8 233 -4 17 12 49 65 128
71 106 148 257 190 374 13 36 26 67 29 70 3 3 7 14 8 26 1 11 8 34 14 50 7 16
11 36 10 46 -1 9 3 19 9 23 5 3 10 22 10 41 0 19 4 34 8 34 5 0 9 21 10 47 0
26 5 49 11 51 6 2 11 30 11 65 0 34 5 107 11 162 15 139 13 273 -6 460 -3 28
-7 68 -10 90 -2 22 -5 40 -6 40 -1 0 -3 9 -4 20 -4 28 -36 196 -42 220 -3 11
-6 32 -7 47 0 14 -4 24 -7 22 -3 -2 -11 20 -18 49 -14 64 -59 212 -76 252 -7
17 -18 48 -25 70 -43 134 -185 420 -286 578 -24 37 -44 72 -44 77 0 6 -4 10
-9 10 -5 0 -31 33 -57 73 -27 39 -78 102 -114 139 -36 36 -69 71 -75 77 -25
28 -141 131 -147 131 -5 0 -8 7 -8 16 0 8 -4 12 -10 9 -5 -3 -10 -1 -10 4 0 6
-7 11 -15 11 -8 0 -15 4 -15 8 0 4 -13 16 -30 25 -16 10 -35 23 -42 30 -7 7
-33 25 -58 42 -25 16 -48 34 -52 40 -5 7 -8 7 -8 0 0 -6 -3 -5 -8 1 -4 6 -32
24 -62 39 -30 15 -57 31 -60 34 -3 4 -20 13 -37 20 -18 8 -33 17 -33 22 0 5
-3 8 -7 7 -5 0 -25 6 -45 15 -21 10 -42 17 -48 17 -5 0 -10 5 -10 11 0 6 -7 9
-15 5 -8 -3 -15 -1 -15 3 0 5 -22 14 -50 21 -27 7 -50 16 -50 20 0 5 -18 11
-40 15 -22 4 -42 11 -46 16 -3 5 -10 7 -15 3 -5 -3 -15 -1 -22 4 -7 5 -31 13
-54 17 -24 4 -45 11 -49 16 -3 5 -20 9 -39 9 -19 0 -37 5 -40 11 -4 6 -13 8
-20 5 -8 -3 -29 -1 -47 5 -18 5 -58 12 -88 15 -30 3 -59 9 -65 13 -5 5 -59 12
-120 17 -114 8 -474 12 -480 5z m455 -82 c860 -79 1524 -528 1891 -1277 121
-249 220 -534 273 -794 77 -373 78 -775 4 -1093 -48 -207 -147 -443 -254 -605
l-49 -75 -7 100 c-10 130 -59 1351 -63 1563 -2 108 -7 168 -15 178 -26 30 -90
6 -90 -33 0 -9 -39 -173 -86 -365 -83 -334 -87 -348 -108 -342 -12 3 -62 20
-112 37 l-89 32 -13 50 c-7 28 -26 169 -43 315 -46 412 -65 492 -121 498 -18
2 -31 -4 -42 -20 -27 -37 -64 -169 -105 -373 -21 -104 -43 -202 -49 -216 -9
-21 -21 -28 -68 -37 -31 -7 -59 -10 -61 -9 -2 2 -6 62 -9 133 -6 155 -27 336
-55 482 -27 144 -89 385 -101 397 -12 12 -9 -15 21 -185 36 -207 52 -381 58
-617 6 -228 5 -233 -14 -233 -11 0 -47 -3 -80 -6 l-59 -6 -26 58 c-33 73 -65
182 -113 389 -94 401 -144 576 -180 632 -21 32 -65 28 -81 -7 -7 -14 -35 -182
-64 -375 -70 -475 -65 -459 -73 -255 -9 233 -51 635 -67 653 -4 5 -6 -171 -4
-390 l3 -398 -28 133 c-27 131 -37 152 -72 152 -45 0 -52 -30 -94 -455 -17
-179 -34 -280 -45 -268 -23 23 -95 280 -154 545 -67 299 -99 422 -118 446 -16
18 -66 15 -77 -5 -5 -10 -11 -262 -13 -568 l-5 -550 -90 -3 -89 -3 -31 63
c-30 62 -61 154 -142 428 -75 255 -95 289 -147 255 -13 -8 -24 -20 -24 -25 0
-15 -80 -664 -83 -674 -2 -5 -61 88 -133 207 -139 233 -155 250 -197 208 -19
-19 -22 -32 -21 -114 1 -50 11 -145 23 -210 30 -162 29 -262 -3 -333 -32 -70
-85 -122 -281 -274 -180 -141 -255 -213 -345 -331 -175 -233 -217 -449 -128
-659 42 -97 78 -267 78 -364 0 -130 -25 -216 -113 -392 -92 -184 -124 -258
-153 -354 l-23 -75 0 54 c-1 62 38 245 75 353 95 278 88 453 -26 683 -68 137
-106 196 -123 189 -8 -3 -47 16 -87 41 -138 90 -274 127 -389 107 -76 -14
-127 -50 -156 -114 l-22 -48 -46 98 c-123 261 -208 551 -248 842 -20 139 -17
528 4 658 79 488 254 888 559 1276 107 134 365 389 508 500 397 308 873 540
1379 672 213 55 369 81 651 107 85 9 375 6 480 -4z m305 -2010 c62 -260 116
-443 151 -510 7 -15 28 -39 45 -54 31 -26 35 -26 116 -20 46 4 143 19 216 34
177 35 168 22 234 345 27 130 39 172 44 155 4 -13 15 -96 23 -184 34 -338 61
-471 104 -507 9 -8 82 -36 161 -62 116 -39 149 -46 167 -37 26 12 45 67 95
281 18 74 35 138 38 142 4 4 19 -306 34 -690 16 -383 32 -728 38 -767 5 -38
10 -164 11 -280 2 -171 -1 -225 -16 -290 -32 -144 -76 -268 -146 -410 -254
-517 -741 -832 -1406 -910 -258 -30 -708 -15 -1059 36 -445 64 -771 156 -1050
294 -144 71 -305 178 -305 201 0 6 20 56 44 110 64 145 87 232 93 359 7 149
-6 197 -123 435 -109 223 -126 286 -107 393 16 93 47 164 112 263 88 132 170
215 358 362 288 224 342 296 351 466 3 66 -2 122 -17 205 -11 63 -19 116 -17
118 2 2 39 -54 82 -124 152 -250 162 -263 195 -263 21 0 32 6 39 23 5 12 23
141 40 287 40 348 40 347 69 240 43 -159 111 -355 141 -407 46 -80 66 -87 221
-75 74 5 135 15 144 22 13 11 15 66 15 381 0 203 3 369 8 369 4 0 18 -51 31
-112 49 -232 142 -511 196 -592 27 -40 68 -47 89 -14 24 37 63 203 80 343 9
72 16 137 16 145 0 36 11 -13 50 -220 43 -229 56 -270 89 -270 41 0 48 26 101
395 28 198 64 446 81 552 16 106 29 196 30 200 2 18 31 -90 94 -358z m-3219
-2130 c27 -11 77 -35 110 -55 32 -20 70 -43 84 -52 36 -21 106 -232 103 -311
-2 -86 -64 -351 -82 -351 -4 0 -54 37 -111 83 -253 200 -370 367 -370 527 0
60 21 130 48 162 27 32 127 31 218 -3z m405 -260 c38 -105 53 -225 40 -321 -6
-42 -35 -152 -65 -245 -116 -363 -123 -513 -31 -726 39 -91 16 -84 -29 9 -60
123 -87 320 -67 494 6 52 33 176 60 274 59 212 85 353 76 413 -3 23 -22 88
-41 145 -44 132 -45 177 -2 93 17 -33 44 -94 59 -136z m295 -93 c62 -136 76
-228 53 -366 -16 -103 -50 -192 -157 -411 -98 -201 -133 -287 -147 -362 -4
-21 -9 -36 -11 -34 -2 2 -8 39 -14 81 -19 150 12 265 146 546 46 96 90 204 98
240 19 80 20 233 2 318 -7 34 -11 62 -9 62 3 0 20 -33 39 -74z m-2349 -633
c-3 -10 -5 -2 -5 17 0 19 2 27 5 18 2 -10 2 -26 0 -35z m-60 5 c-3 -7 -5 -2
-5 12 0 14 2 19 5 13 2 -7 2 -19 0 -25z m80 10 c-3 -8 -6 -5 -6 6 -1 11 2 17
5 13 3 -3 4 -12 1 -19z m151 -15 c2 -8 -5 -13 -17 -13 -12 0 -21 -4 -21 -10 0
-5 8 -10 19 -10 10 0 21 -9 24 -19 3 -14 1 -18 -10 -14 -8 3 -19 0 -23 -7 -15
-24 -30 1 -28 46 1 42 3 45 26 42 14 -2 27 -9 30 -15z m128 -42 c84 -62 180
-187 255 -334 28 -56 67 -127 85 -158 19 -31 34 -59 34 -63 0 -3 -19 -5 -42
-4 -24 1 -59 -2 -79 -6 l-35 -8 -137 270 c-89 175 -137 281 -137 301 0 38 7
39 56 2z m-236 -68 c94 -45 201 -163 307 -338 50 -82 95 -159 101 -171 9 -18
4 -28 -44 -79 -30 -32 -56 -56 -57 -54 -37 55 -139 184 -202 253 -172 193
-216 253 -240 332 -30 98 12 116 135 57z m1227 -50 c-3 -10 -5 -2 -5 17 0 19
2 27 5 18 2 -10 2 -26 0 -35z m-10 -80 c-3 -10 -5 -2 -5 17 0 19 2 27 5 18 2
-10 2 -26 0 -35z m-1449 -27 c6 -30 -8 -66 -24 -66 -12 0 -15 6 -10 23 3 12 6
33 6 45 0 27 23 25 28 -2z m76 -51 c-3 -19 -10 -35 -14 -35 -4 0 -5 10 -3 23
3 14 -2 29 -11 36 -14 12 -16 10 -16 -12 0 -14 -4 -29 -10 -32 -12 -7 -12 1
-4 43 4 21 11 29 20 25 8 -3 14 0 14 7 0 7 6 6 15 -4 12 -11 14 -25 9 -51z
m-127 18 c-3 -10 -5 -4 -5 12 0 17 2 24 5 18 2 -7 2 -21 0 -30z m1490 -10 c-3
-10 -5 -4 -5 12 0 17 2 24 5 18 2 -7 2 -21 0 -30z m-1335 -25 c-9 -9 -12 -7
-12 12 0 19 3 21 12 12 9 -9 9 -15 0 -24z m42 -34 c9 -24 2 -26 -12 -4 -7 11
-8 20 -3 20 5 0 12 -7 15 -16z m681 -4 c-4 -6 11 -7 41 -3 36 5 45 3 40 -6 -6
-9 1 -11 29 -5 27 5 40 3 46 -7 8 -12 11 -12 19 1 7 11 9 1 8 -35 0 -27 -3
-40 -5 -27 -5 25 -23 30 -23 6 0 -13 -7 -15 -32 -11 -18 3 -59 9 -90 13 -48 5
-58 10 -58 25 0 11 -5 19 -11 19 -5 0 -7 5 -3 11 3 6 0 15 -7 20 -10 6 -4 9
19 9 19 0 31 -4 27 -10z m-725 -36 c128 -67 214 -151 329 -321 38 -57 61 -77
61 -54 0 11 -76 128 -103 158 -11 13 -18 25 -15 28 5 6 99 -106 133 -159 15
-23 17 -33 8 -57 -17 -45 3 -44 32 2 43 68 107 131 153 150 74 32 136 28 223
-13 42 -20 100 -39 130 -43 68 -8 76 -3 208 153 143 169 150 175 219 180 42 3
68 -1 90 -12 55 -28 41 -57 -68 -147 -103 -85 -165 -164 -221 -282 -32 -69
-35 -87 -16 -87 8 0 19 18 26 40 14 47 29 59 35 28 2 -13 11 -63 20 -113 9
-49 17 -135 18 -190 1 -88 -3 -111 -32 -195 -18 -52 -39 -108 -47 -124 -38
-73 -167 -181 -279 -233 -53 -24 -70 -27 -164 -27 -170 1 -270 41 -367 148
-51 56 -83 121 -133 266 -62 182 -104 237 -273 369 -113 87 -141 115 -152 149
-5 19 -1 25 30 38 72 30 189 -19 313 -131 52 -47 82 -54 82 -18 0 22 -44 75
-227 274 -131 143 -180 215 -169 245 10 27 83 17 156 -22z m115 -24 c3 -5 2
-10 -4 -10 -5 0 -13 5 -16 10 -3 6 -2 10 4 10 5 0 13 -4 16 -10z m735 -47 c2
-2 -1 -7 -7 -11 -6 -4 -16 -33 -23 -64 -14 -60 -35 -71 -24 -12 6 33 5 34 -25
34 -25 0 -31 4 -31 21 0 12 -8 28 -17 35 -16 12 -8 13 52 8 39 -4 72 -9 75
-11z m222 1 c53 -6 57 -8 47 -26 -9 -17 -17 -18 -67 -13 -31 4 -64 9 -73 11
-14 4 -18 -7 -24 -58 -10 -89 -27 -121 -20 -38 3 36 9 82 12 103 6 37 7 38 37
33 17 -3 57 -8 88 -12z m-195 -26 c-3 -7 -5 -2 -5 12 0 14 2 19 5 13 2 -7 2
-19 0 -25z m20 -30 c-2 -13 -4 -5 -4 17 -1 22 1 32 4 23 2 -10 2 -28 0 -40z
m-1050 -10 c-2 -13 -4 -5 -4 17 -1 22 1 32 4 23 2 -10 2 -28 0 -40z m1080 30
c-3 -8 -6 -5 -6 6 -1 11 2 17 5 13 3 -3 4 -12 1 -19z m-1060 -40 c-3 -7 -5 -2
-5 12 0 14 2 19 5 13 2 -7 2 -19 0 -25z m1212 16 c2 -2 -2 -15 -9 -29 -8 -14
-16 -21 -19 -17 -10 14 -62 21 -66 8 -2 -6 -6 -28 -10 -50 -10 -61 -18 -33
-10 38 l6 65 52 -6 c29 -3 54 -7 56 -9z m-212 -46 c-3 -7 -5 -2 -5 12 0 14 2
19 5 13 2 -7 2 -19 0 -25z m20 -25 c-3 -10 -5 -2 -5 17 0 19 2 27 5 18 2 -10
2 -26 0 -35z m-1035 -35 c-3 -38 -8 -48 -22 -48 -16 0 -18 6 -14 38 11 76 14
84 27 70 8 -8 11 -31 9 -60z m1065 50 c-3 -8 -6 -5 -6 6 -1 11 2 17 5 13 3 -3
4 -12 1 -19z m-977 -30 c0 -30 -25 -15 -26 15 -1 22 2 25 12 16 8 -6 14 -20
14 -31z m-153 0 c-3 -7 -5 -2 -5 12 0 14 2 19 5 13 2 -7 2 -19 0 -25z m8723
12 c0 -17 -276 -440 -338 -519 -18 -22 -20 -22 -48 -8 -16 8 -47 16 -69 18
-58 4 -59 7 -23 47 18 21 69 89 112 152 118 171 284 328 349 330 10 0 17 -7
17 -20z m-7493 -23 c-6 -20 -27 -19 -27 2 0 14 5 19 15 14 9 -3 14 -10 12 -16z
m-1117 -23 c0 -19 -4 -33 -8 -30 -8 5 -4 66 4 66 2 0 4 -16 4 -36z m53 -19
c-7 -21 -13 -19 -13 6 0 11 4 18 10 14 5 -3 7 -12 3 -20z m-176 -22 c-3 -10
-5 -4 -5 12 0 17 2 24 5 18 2 -7 2 -21 0 -30z m210 -5 c-3 -8 -6 -5 -6 6 -1
11 2 17 5 13 3 -3 4 -12 1 -19z m8826 3 c16 -16 -9 -88 -48 -141 -40 -53 -108
-120 -267 -259 -65 -56 -140 -127 -167 -157 l-50 -55 -16 31 c-8 16 -29 45
-45 64 l-30 33 26 39 c35 52 177 229 223 278 66 70 195 154 271 176 33 9 89 5
103 -9z m-5018 -41 c33 -5 170 -19 305 -31 198 -17 286 -20 462 -15 208 5 216
5 211 -13 -5 -20 -30 -25 -239 -52 -107 -13 -605 -23 -737 -14 l-107 7 0 57
c0 32 3 61 7 64 9 9 27 9 98 -3z m3630 -10 c3 -6 -1 -7 -9 -4 -18 7 -21 14 -7
14 6 0 13 -4 16 -10z m90 -36 c13 -8 26 -23 30 -32 5 -15 4 -15 -12 1 -10 10
-27 24 -38 32 -27 20 -10 19 20 -1z m-77 -43 c45 -23 66 -50 164 -206 102
-161 112 -170 192 -168 36 1 87 11 121 24 147 55 267 0 345 -158 34 -68 57
-84 46 -32 -8 42 0 53 96 139 l83 75 -78 -90 c-42 -49 -77 -93 -77 -97 0 -5 7
-8 15 -8 8 0 15 4 15 9 0 5 48 58 108 118 90 93 122 118 202 161 146 79 250
94 250 36 0 -31 -76 -108 -283 -287 -159 -138 -188 -170 -168 -190 9 -9 17 -8
35 3 176 110 222 130 303 130 24 0 57 -7 73 -15 24 -13 28 -19 21 -38 -11 -29
-80 -82 -198 -148 -146 -81 -203 -144 -286 -309 -84 -167 -118 -214 -197 -273
-90 -68 -172 -91 -306 -85 -97 4 -110 8 -182 44 -100 51 -220 166 -258 248
-14 31 -35 105 -47 163 -19 97 -19 114 -8 197 8 50 23 120 36 156 12 36 28 87
35 113 11 41 15 46 23 31 6 -10 13 -32 16 -48 4 -16 13 -32 20 -34 21 -7 9 64
-25 139 -48 108 -95 181 -164 254 -76 80 -93 106 -84 130 15 37 104 46 162 16z
m-180 -116 c9 -11 4 -9 -10 5 -15 14 -30 39 -33 55 -6 29 -6 29 10 -5 9 -19
23 -44 33 -55z m-2358 55 c0 -6 -13 -39 -29 -75 l-29 -64 -125 -40 c-272 -87
-467 -116 -715 -108 -168 5 -309 30 -339 60 -7 7 -26 50 -43 95 l-30 83 152
-8 c367 -19 781 -1 1028 46 117 23 130 24 130 11z m-1126 -770 c188 -393 361
-758 386 -810 24 -52 56 -108 72 -123 l28 -28 -2 -192 -3 -192 -26 -3 c-21 -2
-31 4 -47 30 -11 18 -227 265 -481 548 -253 283 -461 522 -461 530 0 8 37 47
83 85 188 160 257 226 257 248 0 20 -28 33 -252 117 -139 51 -273 102 -296
113 l-44 19 29 30 c108 114 298 287 363 330 14 10 31 16 39 15 7 -1 167 -324
355 -717z m1427 484 c112 -119 204 -220 204 -226 0 -6 -102 -53 -228 -106
-297 -124 -293 -113 -97 -263 60 -46 108 -90 107 -97 -3 -19 -848 -1082 -860
-1082 -9 0 -4 215 7 335 2 17 78 223 170 459 91 235 166 432 166 437 0 20 313
759 321 759 3 0 98 -97 210 -216z m-2216 197 c-6 -5 -50 -34 -100 -66 -52 -33
-75 -44 -55 -26 47 40 190 125 155 92z m4320 -11 c10 -11 16 -20 13 -20 -3 0
-13 9 -23 20 -10 11 -16 20 -13 20 3 0 13 -9 23 -20z m-7385 -2 c0 -7 -9 -73
-19 -145 -10 -73 -14 -133 -9 -133 4 0 8 5 8 12 0 7 5 5 13 -4 8 -11 44 -20
117 -28 124 -14 137 -17 143 -33 3 -9 -7 -14 -34 -16 -21 -1 -39 2 -39 8 0 5
-18 7 -40 4 -25 -4 -40 -2 -40 5 0 7 -13 9 -35 5 -22 -4 -35 -2 -35 6 0 7 -15
9 -45 4 -39 -5 -45 -3 -45 13 0 23 29 261 36 292 5 23 24 31 24 10z m17 -70
c-2 -13 -4 -3 -4 22 0 25 2 35 4 23 2 -13 2 -33 0 -45z m52 -35 c-4 -27 -10
-70 -14 -96 -4 -27 -9 -47 -12 -44 -8 8 19 197 27 192 4 -2 4 -26 -1 -52z
m1331 53 c0 -2 -7 -6 -15 -10 -8 -3 -15 -1 -15 4 0 6 7 10 15 10 8 0 15 -2 15
-4z m68 -13 c-10 -2 -26 -2 -35 0 -10 3 -2 5 17 5 19 0 27 -2 18 -5z m7587
-154 l1 -154 -3 140 c-2 79 -8 144 -14 150 -7 7 -9 -33 -7 -131 l3 -140 -25
13 c-14 7 -42 16 -63 19 -20 4 -40 11 -43 15 -3 5 -10 7 -15 4 -11 -7 -46 -16
-74 -19 -11 -1 -27 -5 -35 -10 -8 -4 5 9 30 31 25 21 56 50 70 65 13 16 28 28
32 28 9 0 48 37 48 45 0 3 13 19 30 36 16 17 32 40 36 51 3 10 11 17 17 15 9
-2 12 -50 12 -158z m-8943 134 c11 -10 18 -30 18 -52 0 -78 -26 -111 -33 -43
-3 34 -4 33 -5 -10 -2 -36 -6 -48 -18 -48 -10 0 -14 6 -10 18 2 9 8 47 12 85
3 37 9 67 12 67 3 0 14 -7 24 -17z m-105 -60 c-3 -10 -5 -2 -5 17 0 19 2 27 5
18 2 -10 2 -26 0 -35z m8028 27 c-3 -5 -12 -10 -18 -10 -7 0 -6 4 3 10 19 12
23 12 15 0z m-3158 -32 c-93 -218 -179 -433 -332 -831 -104 -268 -192 -484
-196 -480 -4 5 -52 109 -107 233 -98 222 -210 464 -375 815 -47 99 -84 181
-83 183 2 1 34 -5 72 -13 110 -25 366 -30 514 -11 125 17 313 59 425 95 72 23
89 25 82 9z m-4710 -20 c-3 -8 -6 -5 -6 6 -1 11 2 17 5 13 3 -3 4 -12 1 -19z
m-170 -55 c-3 -10 -5 -2 -5 17 0 19 2 27 5 18 2 -10 2 -26 0 -35z m213 12 c0
-8 -4 -15 -10 -15 -5 0 -7 7 -4 15 4 8 8 15 10 15 2 0 4 -7 4 -15z m2561 -648
l-4 -632 -232 -250 -232 -250 -114 -57 c-85 -43 -139 -62 -215 -78 -93 -20
-105 -20 -170 -6 -116 24 -131 36 -264 217 -66 90 -155 211 -197 269 -281 383
-365 506 -432 631 -42 79 -91 215 -79 223 2 1 32 8 68 14 186 36 380 200 426
361 9 31 20 60 24 64 4 5 25 0 47 -11 68 -35 149 -108 224 -204 40 -51 121
-145 181 -208 115 -124 190 -223 193 -255 1 -18 47 -53 70 -54 6 0 17 13 25
29 8 16 79 112 157 212 78 101 192 253 253 338 123 170 247 307 265 289 7 -7
9 -214 6 -642z m3089 618 c27 -20 83 -73 126 -118 146 -155 217 -254 331 -462
60 -110 160 -286 221 -391 62 -104 112 -198 112 -207 0 -10 8 -17 20 -17 11 0
20 4 20 9 0 5 10 11 22 13 13 2 24 11 27 23 5 30 92 118 226 229 66 54 161
138 210 186 50 49 115 104 145 122 53 34 139 72 146 66 1 -2 9 -36 18 -75 22
-107 60 -174 147 -262 81 -81 174 -137 276 -166 21 -6 21 -7 7 -48 -53 -150
-160 -278 -727 -874 -226 -238 -251 -261 -298 -276 -142 -46 -320 3 -504 139
-73 55 -90 76 -337 422 l-260 364 3 476 c2 263 4 568 4 680 0 111 4 202 9 202
4 0 30 -16 56 -35z m-4419 15 c16 0 29 -5 29 -11 0 -6 -9 -9 -19 -6 -16 4 -22
-3 -29 -32 l-10 -36 -1 33 c-1 21 -6 32 -16 32 -8 0 -15 7 -15 16 0 11 5 14
16 10 9 -3 29 -6 45 -6z m-44 -62 c-3 -7 -5 -2 -5 12 0 14 2 19 5 13 2 -7 2
-19 0 -25z m-860 -475 c-3 -10 -5 -4 -5 12 0 17 2 24 5 18 2 -7 2 -21 0 -30z
m-16 -388 c-27 -209 -48 -381 -47 -381 0 -1 132 -18 291 -38 160 -20 300 -39
313 -41 17 -4 22 -1 23 17 l2 23 4 -22 c8 -44 22 -22 29 47 6 60 9 69 21 58
11 -9 14 -28 11 -72 l-3 -61 45 -5 c44 -5 45 -6 45 -40 0 -19 -4 -62 -8 -95
-4 -35 -3 -54 2 -45 5 8 12 45 16 83 4 40 11 65 16 61 9 -5 4 -94 -7 -136 -3
-10 -1 -18 5 -18 6 0 12 17 12 38 2 43 16 104 19 82 3 -22 0 -83 -6 -102 -3
-10 -1 -18 5 -18 6 0 11 12 11 28 0 15 5 34 11 42 7 11 8 1 3 -32 -6 -48 -6
-48 23 -48 17 0 40 -8 52 -19 20 -17 21 -23 12 -87 -6 -37 -8 -71 -5 -75 2 -4
-10 -4 -28 1 -18 4 -242 34 -498 66 -256 32 -466 58 -468 60 -3 2 2 47 73 624
59 476 67 536 72 505 1 -11 -19 -191 -46 -400z m86 373 c-3 -8 -6 -5 -6 6 -1
11 2 17 5 13 3 -3 4 -12 1 -19z m20 -10 c-3 -8 -6 -5 -6 6 -1 11 2 17 5 13 3
-3 4 -12 1 -19z m32 0 c1 13 5 21 10 18 4 -3 4 -31 0 -63 -20 -137 -25 -121
37 -129 30 -3 69 -7 87 -9 25 -2 33 -7 35 -25 3 -19 0 -22 -20 -17 -12 3 -54
9 -93 12 -38 4 -76 12 -82 17 -10 8 -13 5 -13 -11 0 -13 7 -21 18 -22 9 0 58
-6 107 -13 50 -8 95 -10 100 -5 7 5 11 0 12 -13 1 -12 7 -25 14 -29 7 -4 13
-18 14 -31 1 -12 8 -23 16 -23 9 0 13 -10 12 -30 -2 -25 -1 -27 6 -10 7 15 10
16 10 4 1 -9 9 -23 20 -33 19 -18 18 -66 -3 -66 -6 0 -96 11 -200 25 -104 14
-191 25 -193 25 -9 0 -1 69 9 72 6 2 14 26 18 54 3 27 10 48 16 47 7 -1 16 39
23 100 7 56 15 120 18 142 6 36 7 38 14 15 7 -25 7 -25 8 -2z m58 -25 c-3 -10
-5 -4 -5 12 0 17 2 24 5 18 2 -7 2 -21 0 -30z m-190 -25 c-2 -13 -4 -5 -4 17
-1 22 1 32 4 23 2 -10 2 -28 0 -40z m90 -20 c-2 -13 -4 -5 -4 17 -1 22 1 32 4
23 2 -10 2 -28 0 -40z m153 42 c0 -5 -2 -10 -4 -10 -3 0 -8 5 -11 10 -3 6 -1
10 4 10 6 0 11 -4 11 -10z m-173 -42 c-3 -7 -5 -2 -5 12 0 14 2 19 5 13 2 -7
2 -19 0 -25z m90 -5 c-3 -10 -5 -4 -5 12 0 17 2 24 5 18 2 -7 2 -21 0 -30z
m32 0 c2 35 71 17 71 -19 0 -25 -8 -28 -59 -18 -27 6 -31 10 -30 38 1 30 1 30
9 6 5 -17 8 -19 9 -7z m-202 -55 c-2 -13 -4 -5 -4 17 -1 22 1 32 4 23 2 -10 2
-28 0 -40z m90 -20 c-2 -13 -4 -5 -4 17 -1 22 1 32 4 23 2 -10 2 -28 0 -40z
m-20 0 c-3 -7 -5 -2 -5 12 0 14 2 19 5 13 2 -7 2 -19 0 -25z m211 6 c7 -2 11
-8 7 -14 -3 -6 -31 -7 -68 -3 -70 7 -72 7 -62 23 6 10 85 6 123 -6z m-291 -66
c-2 -13 -4 -5 -4 17 -1 22 1 32 4 23 2 -10 2 -28 0 -40z m90 -15 c-3 -10 -5
-2 -5 17 0 19 2 27 5 18 2 -10 2 -26 0 -35z m-20 -5 c-3 -7 -5 -2 -5 12 0 14
2 19 5 13 2 -7 2 -19 0 -25z m-80 -60 c-2 -13 -4 -5 -4 17 -1 22 1 32 4 23 2
-10 2 -28 0 -40z m70 -15 c-3 -10 -5 -4 -5 12 0 17 2 24 5 18 2 -7 2 -21 0
-30z m-80 -65 c-2 -13 -4 -5 -4 17 -1 22 1 32 4 23 2 -10 2 -28 0 -40z m-10
-80 c-2 -13 -4 -5 -4 17 -1 22 1 32 4 23 2 -10 2 -28 0 -40z m500 -20 c-3 -8
-6 -5 -6 6 -1 11 2 17 5 13 3 -3 4 -12 1 -19z m-512 -83 c-4 -36 -10 -64 -12
-61 -3 2 -2 34 2 71 4 36 10 64 12 61 3 -2 2 -34 -2 -71z m550 -32 c-9 -63
-27 -54 -20 10 4 28 9 59 13 67 9 25 15 -28 7 -77z m28 -5 c-3 -21 -10 -38
-15 -38 -6 0 -8 10 -4 23 3 12 6 33 6 47 0 14 4 20 9 15 4 -6 6 -27 4 -47z
m16 -42 c-9 -8 -10 -5 -5 14 3 14 6 32 7 40 1 8 4 2 6 -14 3 -16 -1 -34 -8
-40z m-612 -48 c-2 -13 -4 -5 -4 17 -1 22 1 32 4 23 2 -10 2 -28 0 -40z m680
-10 c-3 -7 -5 -2 -5 12 0 14 2 19 5 13 2 -7 2 -19 0 -25z m-690 -70 c-2 -13
-4 -5 -4 17 -1 22 1 32 4 23 2 -10 2 -28 0 -40z m680 0 c-2 -13 -4 -5 -4 17
-1 22 1 32 4 23 2 -10 2 -28 0 -40z m-690 -80 c-2 -13 -4 -5 -4 17 -1 22 1 32
4 23 2 -10 2 -28 0 -40z m-10 -80 c-2 -13 -4 -5 -4 17 -1 22 1 32 4 23 2 -10
2 -28 0 -40z m-10 -80 c-2 -13 -4 -5 -4 17 -1 22 1 32 4 23 2 -10 2 -28 0 -40z
m1038 -163 c-3 -31 -9 -54 -12 -52 -2 3 -1 31 2 62 4 31 10 54 12 51 3 -3 2
-30 -2 -61z m29 -23 l-4 -47 14 40 14 40 1 -36 c1 -37 -15 -54 -37 -40 -8 5
-9 25 -5 60 7 63 22 49 17 -17z"/>
<path d="M8020 8541 c-167 -122 -332 -376 -423 -651 -36 -109 -81 -296 -93
-387 -10 -78 10 -66 25 15 30 168 166 507 268 671 56 89 163 234 169 228 2 -1
-17 -43 -41 -92 -49 -101 -105 -247 -105 -275 0 -26 33 -43 52 -27 8 7 34 66
58 132 50 139 132 335 155 367 16 24 20 54 7 62 -4 2 -37 -17 -72 -43z"/>
<path d="M11285 7879 c-62 -14 -123 -39 -128 -52 -8 -21 31 -159 50 -179 17
-17 29 -17 168 -8 83 5 221 10 308 10 144 0 159 2 177 20 28 28 26 35 -23 83
-95 92 -231 138 -406 136 -58 -1 -124 -5 -146 -10z m335 -111 c34 -14 30 -15
-115 -22 -82 -3 -169 -9 -192 -12 -39 -6 -43 -4 -43 15 0 14 8 22 28 27 15 3
32 8 37 10 26 10 253 -4 285 -18z"/>
<path d="M9379 7626 c-114 -32 -251 -120 -308 -198 -36 -48 -38 -68 -13 -92
18 -15 32 -15 218 4 380 39 392 42 437 101 17 24 18 31 7 64 -16 47 -66 104
-107 121 -40 17 -172 17 -234 0z m216 -92 c36 -17 52 -42 32 -49 -6 -2 -91
-14 -187 -25 -96 -11 -185 -22 -198 -24 -66 -10 74 74 165 99 67 18 149 18
188 -1z"/>
<path d="M11440 7285 c-184 -52 -309 -145 -350 -260 -39 -107 -42 -128 -38
-220 3 -72 10 -100 30 -140 68 -131 198 -195 397 -195 176 0 322 60 447 184
101 102 143 205 123 309 -4 23 -6 43 -4 45 1 2 20 -20 41 -49 55 -75 54 -42
-2 42 -88 133 -222 242 -343 279 -74 23 -229 26 -301 5z m358 -105 c72 -34
164 -117 195 -175 33 -63 30 -163 -7 -239 -55 -113 -195 -224 -325 -258 -130
-34 -303 -17 -398 38 -58 33 -118 105 -133 159 -17 61 -9 178 17 237 24 52 93
112 200 172 67 37 88 40 61 9 -53 -61 -93 -205 -84 -301 10 -100 41 -170 100
-228 68 -67 121 -83 199 -60 102 30 181 139 208 287 21 121 -16 267 -91 352
-39 45 -26 47 58 7z m-132 -39 c41 -25 81 -108 92 -189 22 -162 -52 -320 -164
-351 -30 -8 -43 -7 -75 10 -48 24 -92 82 -109 143 -18 67 -9 199 19 261 53
120 157 175 237 126z"/>
<path d="M11526 6979 c-49 -58 -65 -132 -42 -193 18 -47 65 -86 103 -86 31 0
86 42 105 80 20 39 24 124 7 167 -19 50 -48 73 -95 73 -37 0 -47 -5 -78 -41z"/>
<path d="M9142 7120 c-100 -15 -195 -53 -282 -111 -111 -74 -231 -199 -192
-199 4 0 23 13 42 30 19 16 37 29 40 30 3 0 5 -66 5 -148 0 -140 2 -150 28
-204 53 -108 175 -191 330 -222 108 -23 314 -23 392 -2 177 49 282 160 329
347 19 77 24 236 8 266 -27 49 -227 149 -387 194 -80 22 -235 32 -313 19z m73
-98 c-6 -4 -27 -21 -48 -36 -91 -67 -142 -194 -135 -335 6 -100 28 -159 85
-222 99 -109 246 -103 351 16 65 74 86 140 87 265 0 96 -3 110 -30 165 -16 33
-31 64 -33 69 -3 5 22 -5 54 -23 75 -42 234 -161 234 -175 -2 -48 -33 -172
-54 -217 -47 -99 -115 -154 -235 -190 -65 -19 -89 -21 -210 -16 -201 8 -303
45 -393 146 -56 63 -68 103 -68 237 1 156 25 203 135 257 56 28 115 46 190 57
72 11 80 11 70 2z m164 -57 c125 -64 168 -270 90 -423 -119 -233 -369 -160
-387 114 -11 174 93 324 225 324 24 0 57 -7 72 -15z"/>
<path d="M9233 6860 c-96 -64 -103 -256 -12 -323 57 -41 146 -13 183 57 24 48
33 141 17 188 -27 83 -121 122 -188 78z"/>
<path d="M10500 6566 c-20 -7 -56 -26 -81 -43 -46 -32 -119 -106 -119 -121 0
-22 16 -19 47 8 46 41 124 79 187 92 45 9 59 8 90 -7 43 -20 66 -59 66 -110 0
-47 27 -48 36 -1 12 69 -35 153 -103 182 -40 17 -77 17 -123 0z"/>
<path d="M10000 5685 c0 -24 50 -102 83 -131 99 -84 310 -99 466 -32 54 23
148 91 133 96 -6 2 -21 -3 -34 -11 -61 -39 -131 -52 -273 -52 -165 0 -202 11
-301 86 -61 47 -74 55 -74 44z"/>
<path d="M7448 6414 c-32 -17 -58 -62 -58 -98 0 -70 87 -216 177 -296 46 -41
122 -82 178 -96 40 -10 42 19 5 65 -30 36 -32 44 -26 88 12 99 12 98 -10 101
-28 4 -49 -45 -49 -115 0 -47 -2 -50 -19 -41 -40 22 -143 138 -175 197 -34 64
-42 120 -22 145 6 7 29 21 51 31 22 10 40 22 40 27 0 13 -63 8 -92 -8z"/>
<path d="M6384 4472 c3 -6 21 -14 39 -17 102 -22 180 -108 220 -242 21 -71 32
-228 19 -275 -6 -22 -6 -38 -1 -38 17 0 24 56 24 190 0 128 -2 138 -29 198
-33 72 -86 124 -160 158 -62 28 -122 42 -112 26z"/>
<path d="M13896 3924 c-64 -20 -116 -54 -155 -100 -54 -67 -69 -110 -96 -285
-5 -33 6 -139 14 -139 3 0 5 19 3 43 -6 72 34 232 77 311 49 90 108 137 205
165 57 16 64 19 36 20 -19 0 -57 -7 -84 -15z"/>
<path d="M5872 4415 c0 -16 2 -22 5 -12 2 9 2 23 0 30 -3 6 -5 -1 -5 -18z"/>
<path d="M6922 3000 c0 -19 2 -27 5 -17 2 9 2 25 0 35 -3 9 -5 1 -5 -18z"/>
<path d="M6912 2935 c0 -16 2 -22 5 -12 2 9 2 23 0 30 -3 6 -5 -1 -5 -18z"/>
<path d="M6413 3675 c0 -22 2 -30 4 -17 2 12 2 30 0 40 -3 9 -5 -1 -4 -23z"/>
<path d="M6403 3595 c0 -22 2 -30 4 -17 2 12 2 30 0 40 -3 9 -5 -1 -4 -23z"/>
<path d="M13102 7060 l-2 -415 35 -49 c19 -27 35 -43 35 -35 0 8 -12 32 -27
54 l-28 40 -5 410 -5 410 -3 -415z"/>
<path d="M13132 7072 l-2 -402 26 -40 c30 -45 39 -50 29 -19 -5 15 -4 19 4 15
16 -11 13 6 -6 34 -16 22 -19 65 -23 420 l-5 395 -3 -395 c-2 -349 0 -398 14
-418 9 -13 14 -25 11 -28 -2 -3 -12 7 -21 20 -14 22 -16 76 -19 423 l-2 398
-3 -403z"/>
<path d="M13172 7078 l3 -393 22 1 c13 1 20 -3 17 -7 -3 -5 -10 -6 -16 -3 -6
4 -9 1 -7 -5 8 -23 22 -16 35 15 9 21 9 35 2 45 -8 11 -8 9 -3 -6 4 -14 3 -17
-4 -10 -7 7 -12 140 -14 380 l-2 370 0 -381 c0 -247 -4 -381 -10 -381 -7 0 -9
133 -7 384 2 259 -1 383 -8 383 -7 0 -9 -127 -8 -392z"/>
<path d="M13242 7103 c-1 -205 1 -373 6 -373 6 0 6 286 -1 615 -1 72 -4 -38
-5 -242z"/>
<path d="M13265 7110 c0 -201 1 -283 2 -182 2 100 2 264 0 365 -1 100 -2 18
-2 -183z"/>
<path d="M13280 7119 c0 -231 3 -348 10 -344 6 4 10 132 10 351 0 223 -4 344
-10 344 -6 0 -10 -124 -10 -351z"/>
<path d="M13310 7134 c0 -221 3 -333 10 -329 6 4 10 127 10 336 0 213 -4 329
-10 329 -6 0 -10 -119 -10 -336z"/>
<path d="M13350 7154 l0 -316 23 14 c12 8 32 21 45 29 22 14 22 14 22 301 l0
288 -45 0 -45 0 0 -316z"/>
<path d="M13470 7189 c0 -184 3 -278 10 -274 6 4 10 108 10 281 0 176 -4 274
-10 274 -6 0 -10 -100 -10 -281z"/>
<path d="M13514 7200 c0 -151 2 -213 3 -137 2 75 2 199 0 275 -1 75 -3 13 -3
-138z"/>
<path d="M13532 7208 c-1 -148 1 -268 6 -268 4 0 6 80 4 177 -4 329 -8 360
-10 91z"/>
<path d="M13562 7228 c-2 -244 0 -278 20 -278 7 0 6 5 -1 13 -7 9 -12 100 -14
263 l-2 249 -3 -247z"/>
<path d="M13584 7230 c0 -135 2 -190 3 -122 2 67 2 177 0 245 -1 67 -3 12 -3
-123z"/>
<path d="M13614 7240 c0 -129 2 -182 3 -117 2 64 2 170 0 235 -1 64 -3 11 -3
-118z"/>
<path d="M13632 7243 l-2 -232 25 -28 c19 -21 23 -23 18 -8 -5 16 -4 18 8 9 8
-6 24 -11 37 -12 l24 -1 -29 37 -28 37 -5 215 -6 215 -2 -214 c-2 -200 -1
-216 19 -250 l21 -36 -26 30 c-26 30 -26 30 -29 250 l-2 220 -3 -227 c-1 -143
2 -229 8 -233 6 -3 10 -11 10 -18 0 -8 -4 -7 -12 1 -9 9 -15 79 -18 245 l-6
232 -2 -232z"/>
<path d="M15146 7458 c49 -81 159 -227 167 -219 11 11 -140 231 -160 231 -9 0
-11 -5 -7 -12z"/>
<path d="M15257 7370 c38 -54 72 -99 76 -100 5 0 -22 45 -60 100 -37 55 -71
100 -76 100 -4 0 23 -45 60 -100z"/>
<path d="M15275 7459 c6 -11 90 -133 101 -148 2 -1 8 -1 13 0 13 5 -88 150
-108 157 -9 3 -11 0 -6 -9z"/>
<path d="M15321 7449 c5 -10 14 -21 21 -25 7 -5 8 -2 3 7 -5 8 -4 11 1 6 5 -5
9 -16 9 -25 0 -9 5 -16 11 -15 7 1 11 -5 10 -14 -1 -11 8 -17 27 -18 16 -1 26
3 24 9 -2 6 -10 11 -18 11 -8 0 -13 8 -11 18 2 10 -3 16 -10 15 -7 -2 -12 4
-10 14 3 19 -14 32 -45 34 -18 1 -20 -2 -12 -17z"/>
<path d="M15386 7458 c45 -76 104 -145 104 -122 0 13 -91 134 -101 134 -6 0
-7 -6 -3 -12z"/>
<path d="M15775 7379 c-71 -49 -134 -95 -140 -101 -12 -13 244 159 265 178 29
28 2 11 -125 -77z"/>
<path d="M15868 7399 c-56 -39 -127 -87 -155 -106 -49 -33 -72 -62 -39 -50 22
9 280 188 288 201 8 11 10 2 11 -42 0 -12 2 -20 5 -17 3 2 11 -3 19 -13 14
-16 14 -16 9 1 -3 9 -4 17 -2 17 6 0 51 -73 52 -85 1 -5 2 -17 3 -25 1 -13 3
-13 12 0 9 13 10 12 5 -3 -3 -10 -2 -16 3 -13 5 3 8 -2 7 -11 0 -10 5 -18 12
-18 8 0 20 -8 27 -18 8 -11 15 -14 18 -7 3 6 4 5 3 -2 -2 -7 1 -21 6 -32 7
-13 7 -16 -1 -12 -16 10 -13 -10 3 -23 12 -10 17 -8 26 8 8 16 8 21 -1 19 -6
-2 -13 2 -16 9 -3 8 3 11 18 8 12 -2 18 -1 15 3 -4 4 -13 7 -19 7 -7 0 -11 8
-11 17 1 10 -1 17 -5 16 -3 0 -9 1 -13 2 -5 1 -13 3 -20 4 -6 0 -13 7 -16 15
-3 9 0 11 9 6 8 -5 11 -4 6 1 -5 5 -14 9 -19 9 -6 0 -13 5 -15 12 -3 8 4 11
18 8 12 -2 18 -1 15 3 -4 4 -17 7 -28 7 -12 0 -23 5 -25 12 -3 8 3 11 17 8 11
-2 18 0 15 6 -4 5 -10 7 -15 4 -5 -3 -11 -1 -15 5 -4 6 -11 8 -16 4 -6 -3 -9
2 -7 12 2 12 -2 18 -10 16 -7 -1 -12 5 -10 15 2 10 -3 18 -11 18 -8 0 -16 5
-18 12 -3 8 4 11 18 8 12 -2 18 -1 15 3 -4 4 -13 7 -18 7 -6 0 -13 6 -16 14
-3 9 0 11 9 6 8 -5 11 -4 6 1 -5 5 -12 9 -15 9 -4 0 -12 4 -19 8 -6 4 -54 -22
-115 -64z m126 18 c2 -15 -1 -24 -6 -21 -5 3 -7 11 -5 17 2 7 0 21 -6 32 -7
15 -7 17 3 9 6 -6 13 -23 14 -37z"/>
<path d="M16026 7458 c40 -66 179 -258 187 -258 5 0 3 8 -4 17 -10 11 -10 14
-1 9 7 -4 12 -2 12 4 0 6 5 8 12 4 7 -4 2 7 -11 24 -21 30 -41 46 -25 20 4 -7
3 -8 -5 -4 -6 4 -9 11 -6 17 6 8 -70 129 -81 129 -2 0 3 -11 11 -24 14 -22 15
-24 1 -22 -9 1 -19 6 -23 11 -4 4 -2 5 5 1 14 -9 17 10 2 19 -6 4 -8 11 -5 16
4 5 -1 19 -9 31 -9 12 -16 18 -16 12 0 -5 6 -16 13 -24 10 -12 9 -12 -4 -2 -9
6 -19 9 -23 5 -4 -4 -4 0 0 10 5 13 1 17 -16 17 -14 0 -19 -4 -14 -12z m137
-132 c12 -17 14 -26 6 -19 -9 7 -18 10 -21 7 -3 -3 -5 3 -4 13 0 9 -4 18 -11
18 -18 0 -25 12 -7 12 8 0 25 -14 37 -31z m53 -78 c3 -4 -1 -5 -10 -4 -8 1
-18 5 -22 8 -3 4 1 5 10 4 8 -1 18 -5 22 -8z"/>
<path d="M16147 7402 c104 -147 101 -143 107 -126 3 9 2 12 -5 9 -6 -4 -9 1
-7 11 2 12 -2 18 -10 16 -7 -1 -12 5 -10 15 2 11 -2 17 -10 15 -7 -1 -12 5
-10 15 2 10 -3 18 -11 18 -8 0 -16 6 -19 14 -3 9 0 11 9 5 12 -7 12 -5 0 9 -7
9 -18 14 -23 11 -5 -3 -8 2 -6 12 2 12 -2 18 -11 16 -8 -2 -11 3 -8 11 3 8 -3
13 -14 14 -16 1 -10 -11 28 -65z"/>
<path d="M16160 7467 c0 -10 110 -167 116 -167 7 0 -1 13 -54 90 -52 74 -62
87 -62 77z"/>
<path d="M16192 7462 c8 -22 94 -141 101 -142 5 0 -15 34 -44 75 -46 67 -67
91 -57 67z"/>
<path d="M16229 7452 c5 -9 25 -39 44 -65 31 -44 35 -46 48 -30 12 14 12 16 0
8 -11 -6 -13 -4 -8 8 3 9 1 19 -5 23 -7 5 -8 2 -3 -6 5 -9 4 -11 -4 -6 -6 4
-9 12 -6 17 10 15 -31 64 -54 66 -17 1 -19 -2 -12 -15z m46 -18 c9 -15 12 -23
6 -20 -11 7 -35 46 -28 46 3 0 12 -12 22 -26z"/>
<path d="M16290 7467 c0 -11 44 -77 53 -77 4 0 7 3 7 8 -1 10 -59 79 -60 69z"/>
<path d="M16346 7445 c16 -24 34 -34 34 -17 -1 13 -27 42 -39 42 -7 0 -6 -9 5
-25z"/>
<path d="M16385 7460 c3 -5 13 -10 21 -10 8 0 14 5 14 10 0 6 -9 10 -21 10
-11 0 -17 -4 -14 -10z"/>
<path d="M16716 7461 c-6 -10 22 -37 29 -29 8 7 -5 38 -15 38 -5 0 -11 -4 -14
-9z"/>
<path d="M16796 7459 c5 -9 31 -6 40 4 4 4 -4 6 -19 5 -14 -1 -24 -5 -21 -9z"/>
<path d="M16680 7450 c0 -5 5 -10 11 -10 5 0 7 5 4 10 -3 6 -8 10 -11 10 -2 0
-4 -4 -4 -10z"/>
<path d="M16977 7448 c-15 -12 -14 -15 3 -37 l20 -23 0 36 c0 41 0 41 -23 24z"/>
<path d="M16655 7394 l-17 -26 31 18 c33 19 40 34 17 34 -7 0 -21 -12 -31 -26z"/>
<path d="M14603 7339 c-24 -17 -43 -32 -43 -35 0 -3 20 9 45 26 25 17 45 33
45 35 0 7 -2 6 -47 -26z"/>
<path d="M15970 7364 c0 -9 170 -253 180 -259 15 -9 12 8 -6 33 -8 12 -12 26
-9 32 6 10 -24 64 -32 56 -3 -2 3 -17 13 -33 26 -41 4 -17 -40 44 -21 29 -35
57 -31 63 6 10 -24 64 -32 56 -3 -2 3 -16 12 -30 10 -14 15 -26 12 -26 -3 0
-15 16 -27 35 -19 31 -40 46 -40 29z"/>
<path d="M14669 7343 c-13 -16 -12 -17 4 -4 9 7 17 15 17 17 0 8 -8 3 -21 -13z"/>
<path d="M15390 7350 c0 -12 23 -26 40 -26 28 2 16 30 -12 31 -16 1 -28 -1
-28 -5z"/>
<path d="M15973 7318 c4 -10 2 -18 -4 -18 -10 0 -203 -131 -228 -156 -13 -11
-12 -14 1 -19 11 -4 53 19 118 64 55 39 103 71 106 71 3 0 3 -8 -1 -19 -4 -13
12 -45 51 -100 31 -45 58 -80 61 -77 3 3 -20 42 -51 87 -31 45 -55 83 -53 85
4 5 137 -182 137 -192 0 -3 -7 -1 -15 6 -8 7 -15 8 -15 2 0 -5 6 -15 13 -21
11 -8 17 -3 30 25 10 19 12 32 7 29 -7 -4 -10 0 -8 10 2 11 -4 19 -14 20 -16
3 -16 1 -1 -23 l15 -27 -20 24 c-20 25 -19 56 2 44 6 -3 7 -2 3 2 -11 13 -38
15 -31 3 4 -7 2 -8 -4 -4 -15 9 -3 38 12 29 6 -3 7 -2 3 3 -5 5 -14 9 -20 9
-7 0 -12 8 -12 17 0 10 -4 18 -8 18 -4 0 -10 0 -13 0 -4 0 1 -11 10 -25 24
-36 11 -31 -15 7 -13 17 -18 29 -12 25 6 -4 13 0 17 8 6 17 -10 30 -19 15 -9
-15 -25 -2 -19 15 4 8 11 12 18 8 6 -3 7 -2 3 2 -12 14 -38 15 -30 2 4 -7 -1
-6 -10 2 -18 15 -23 26 -7 16 6 -3 10 -1 10 5 0 6 5 8 13 4 7 -5 7 -1 -3 12
-22 29 -24 30 -17 12z"/>
<path d="M14348 7076 c-191 -132 -346 -242 -344 -244 2 -2 159 104 347 234
396 273 353 243 348 248 -2 1 -160 -105 -351 -238z"/>
<path d="M14573 7279 c-24 -17 -43 -32 -43 -35 0 -3 20 9 45 26 25 17 45 33
45 35 0 7 -2 6 -47 -26z"/>
<path d="M16974 7277 c-3 -9 2 -26 11 -39 16 -23 16 -23 11 10 -6 41 -13 51
-22 29z"/>
<path d="M14473 7249 c-24 -17 -43 -32 -43 -35 0 -3 20 9 45 26 25 17 45 33
45 35 0 7 -2 6 -47 -26z"/>
<path d="M14369 7039 c-371 -257 -344 -237 -337 -244 6 -6 672 452 676 466 2
5 2 9 -1 9 -2 0 -154 -104 -338 -231z"/>
<path d="M16932 7206 c-6 -14 -8 -34 -5 -43 6 -15 4 -16 -9 -5 -11 9 -18 10
-23 2 -7 -12 20 -25 34 -15 7 3 8 0 5 -9 -3 -9 -11 -13 -17 -9 -6 4 -7 1 -2
-7 6 -10 11 -9 21 4 8 11 14 13 19 7 3 -6 11 -11 17 -11 6 0 2 10 -9 23 -11
12 -24 29 -28 37 -8 13 -6 13 8 2 9 -8 23 -12 31 -10 13 2 12 8 -7 32 l-23 28
-12 -26z"/>
<path d="M14436 7185 c-27 -18 -54 -39 -60 -46 -6 -6 17 7 52 30 34 23 62 44
62 46 0 7 -1 7 -54 -30z"/>
<path d="M14390 6994 c-179 -124 -326 -229 -328 -235 -2 -5 1 -9 7 -9 16 0
654 444 659 458 2 7 0 12 -5 12 -4 -1 -154 -102 -333 -226z"/>
<path d="M15930 7181 c-142 -99 -161 -114 -152 -123 7 -7 39 11 98 52 66 47
89 59 95 49 24 -44 112 -160 116 -155 5 5 -102 170 -122 186 -6 5 -20 1 -35
-9z"/>
<path d="M14343 7159 c-24 -17 -43 -32 -43 -35 0 -3 20 9 45 26 25 17 45 33
45 35 0 7 -2 6 -47 -26z"/>
<path d="M14421 6943 c-286 -198 -344 -243 -312 -243 11 0 593 399 620 425 7
7 12 18 10 24 -3 7 -146 -86 -318 -206z"/>
<path d="M15950 7133 c0 -30 99 -163 115 -157 8 4 12 11 7 18 -48 75 -107 156
-113 156 -5 0 -9 -8 -9 -17z"/>
<path d="M16867 7133 c-4 -3 -7 -15 -7 -26 0 -25 13 -14 17 13 3 21 1 24 -10
13z"/>
<path d="M14283 7079 c-24 -17 -43 -32 -43 -35 0 -3 20 9 45 26 25 17 45 33
45 35 0 7 -2 6 -47 -26z"/>
<path d="M15102 6932 c-139 -97 -248 -178 -243 -180 11 -4 504 334 509 349 2
5 0 9 -5 8 -4 0 -122 -80 -261 -177z"/>
<path d="M14213 7069 c-24 -17 -43 -32 -43 -35 0 -3 20 9 45 26 25 17 45 33
45 35 0 7 -2 6 -47 -26z"/>
<path d="M15873 7044 c-42 -30 -60 -49 -57 -59 10 -24 31 -17 69 20 32 33 55
39 55 14 0 -6 -6 -7 -12 -3 -9 5 -9 3 1 -9 7 -9 18 -14 23 -11 5 3 8 -2 6 -12
-2 -12 2 -18 11 -16 8 2 11 -3 8 -11 -3 -8 1 -14 9 -14 20 0 18 6 -22 65 -20
29 -35 55 -32 57 3 3 24 -22 47 -55 23 -33 45 -60 47 -60 3 0 2 6 -2 13 -10
15 -75 109 -83 119 -3 4 -34 -13 -68 -38z"/>
<path d="M16799 7073 c-13 -16 -12 -17 4 -4 9 7 17 15 17 17 0 8 -8 3 -21 -13z"/>
<path d="M14455 6879 c-160 -110 -294 -204 -299 -209 -4 -4 -4 -15 0 -22 7
-12 73 29 306 191 164 113 298 211 298 218 0 6 -4 14 -8 17 -4 2 -138 -85
-297 -195z"/>
<path d="M15215 6949 c-285 -200 -301 -210 -336 -212 -25 -2 -100 -49 -284
-176 -137 -96 -252 -175 -254 -178 -3 -2 0 -8 5 -13 7 -7 90 44 250 154 131
91 244 170 251 176 7 5 14 10 17 10 3 0 83 -112 177 -249 l172 -250 44 32 c25
17 47 35 49 39 3 4 -61 103 -143 220 -132 190 -145 213 -129 222 21 13 381
261 411 283 14 11 15 14 3 10 -9 -3 -111 -71 -227 -151 -188 -131 -250 -166
-239 -137 2 6 102 78 223 162 121 83 222 154 225 157 22 23 -58 -28 -245 -158
-121 -84 -231 -155 -245 -158 l-25 -5 25 20 c14 11 106 75 205 143 229 158
260 180 249 179 -5 0 -85 -54 -179 -120z"/>
<path d="M14153 6989 c-24 -17 -43 -32 -43 -35 0 -3 20 9 45 26 25 17 45 33
45 35 0 7 -2 6 -47 -26z"/>
<path d="M14083 6979 c-24 -17 -43 -32 -43 -35 0 -3 20 9 45 26 25 17 45 33
45 35 0 7 -2 6 -47 -26z"/>
<path d="M15897 6989 c-8 -29 11 -56 39 -56 l22 0 -20 33 c-26 44 -34 49 -41
23z m23 -29 c6 -11 8 -20 6 -20 -3 0 -10 9 -16 20 -6 11 -8 20 -6 20 3 0 10
-9 16 -20z"/>
<path d="M13596 6969 c4 -8 30 -6 38 2 3 3 -5 5 -19 5 -13 0 -22 -3 -19 -7z"/>
<path d="M14500 6793 c-146 -101 -271 -188 -279 -192 -12 -7 -11 -13 5 -39
l19 -30 265 184 c169 117 265 191 266 202 0 9 -2 26 -5 38 -5 18 -34 1 -271
-163z"/>
<path d="M15294 6849 c-104 -72 -193 -134 -197 -139 -10 -9 251 -391 271 -398
27 -9 7 26 -117 203 -86 123 -125 185 -116 189 7 2 16 -1 18 -8 3 -7 60 -92
127 -190 105 -152 140 -195 140 -170 0 3 -50 78 -111 166 -61 88 -113 168
-116 177 -9 24 22 -18 131 -176 97 -141 134 -187 119 -147 -6 17 -5 18 12 4
17 -14 17 -14 4 7 -7 12 -16 18 -19 13 -5 -8 -194 254 -207 287 -5 12 95 85
107 78 4 -3 38 -50 76 -105 38 -55 72 -100 77 -100 22 0 0 57 -53 133 -33 47
-60 89 -60 94 0 4 26 25 58 45 31 21 70 48 86 61 l30 24 -30 41 c-16 23 -32
42 -35 42 -3 0 -91 -59 -195 -131z"/>
<path d="M15845 6951 c-4 -7 0 -8 10 -4 10 3 21 0 27 -8 8 -12 9 -11 5 1 -5
18 -33 25 -42 11z"/>
<path d="M14023 6899 c-24 -17 -43 -32 -43 -35 0 -3 20 9 45 26 25 17 45 33
45 35 0 7 -2 6 -47 -26z"/>
<path d="M16982 6909 c-12 -18 -11 -24 1 -36 13 -14 15 -11 14 21 -1 20 -1 36
-2 36 0 0 -6 -10 -13 -21z"/>
<path d="M13970 6899 c-22 -18 -22 -19 -3 -10 12 6 25 16 28 21 9 15 3 12 -25
-11z"/>
<path d="M16930 6863 c0 -5 9 -19 21 -31 25 -28 46 -19 26 11 -15 22 -47 36
-47 20z"/>
<path d="M15545 6836 c-17 -12 -17 -15 -2 -36 17 -25 16 -26 32 25 6 21 -9 27
-30 11z"/>
<path d="M16882 6823 c-6 -2 -9 -10 -5 -16 4 -7 8 -16 8 -22 0 -5 10 -11 22
-11 14 -1 20 3 16 10 -4 6 -8 17 -8 25 0 16 -14 22 -33 14z"/>
<path d="M14560 6634 c-140 -97 -257 -178 -259 -181 -3 -2 0 -8 6 -14 16 -16
524 336 516 356 -3 8 -6 15 -7 15 -1 0 -116 -79 -256 -176z"/>
<path d="M15506 6798 c20 -35 47 -69 51 -65 6 7 -40 77 -50 77 -5 0 -5 -6 -1
-12z"/>
<path d="M15470 6795 c0 -3 16 -29 35 -58 19 -28 35 -46 35 -39 0 8 -14 33
-30 58 -29 41 -40 52 -40 39z"/>
<path d="M15440 6779 c0 -17 84 -132 88 -121 3 10 -75 132 -84 132 -2 0 -4 -5
-4 -11z"/>
<path d="M16835 6779 c-4 -6 -4 -13 -1 -16 3 -4 6 -1 6 5 0 6 8 13 18 15 15 4
15 5 0 6 -9 0 -20 -4 -23 -10z"/>
<path d="M15452 6694 c29 -41 54 -71 56 -66 4 13 -87 142 -99 142 -6 0 14 -34
43 -76z"/>
<path d="M14852 6665 c5 -21 311 -470 328 -480 32 -20 -2 38 -144 242 -169
243 -192 273 -184 238z"/>
<path d="M14620 6479 c-118 -82 -222 -154 -230 -159 -10 -6 -12 -12 -5 -19 7
-7 81 39 228 141 183 126 221 148 232 137 7 -8 77 -106 155 -219 127 -184 159
-223 161 -197 0 10 -314 467 -321 467 -3 -1 -102 -68 -220 -151z"/>
<path d="M14836 6542 c-6 -9 273 -421 287 -422 18 0 -2 34 -129 218 -155 224
-150 217 -158 204z"/>
<path d="M16943 6503 l-51 -35 51 -73 52 -74 3 55 c2 30 2 78 0 108 l-3 53
-52 -34z"/>
<path d="M14640 6397 c-96 -67 -186 -130 -200 -139 -16 -12 -21 -21 -14 -28 6
-6 73 34 198 121 142 98 191 128 197 118 4 -8 63 -95 131 -193 115 -166 148
-206 148 -176 0 11 -192 295 -252 371 -15 20 -25 39 -21 43 3 3 2 6 -3 5 -5 0
-88 -55 -184 -122z"/>
<path d="M15471 6464 c0 -11 3 -14 6 -6 3 7 2 16 -1 19 -3 4 -6 -2 -5 -13z"/>
<path d="M16817 6426 c-16 -13 -10 -24 80 -156 l98 -142 3 46 c3 42 -2 53 -73
156 -42 60 -80 110 -83 110 -4 0 -15 -7 -25 -14z"/>
<path d="M14808 6394 c-8 -17 -75 -70 -174 -138 -144 -99 -160 -113 -148 -127
8 -8 14 -21 14 -27 0 -7 4 -12 9 -12 10 0 231 149 264 178 15 14 17 13 17 -4
0 -19 167 -274 180 -274 3 0 14 6 23 13 16 11 7 27 -88 164 -96 139 -118 184
-97 197 4 2 52 -61 107 -140 55 -80 105 -152 111 -161 7 -10 18 -14 28 -10 17
7 -4 42 -195 315 l-37 53 -14 -27z"/>
<path d="M13117 6365 c-20 -14 -37 -28 -37 -31 0 -2 18 8 40 22 35 23 47 34
37 34 -1 0 -19 -11 -40 -25z"/>
<path d="M16713 6353 c-7 -2 -13 -9 -13 -14 0 -5 63 -100 140 -211 l140 -203
0 -882 c0 -582 3 -883 10 -883 7 0 10 308 10 904 l0 904 -37 53 c-104 153
-234 339 -236 338 -1 0 -8 -3 -14 -6z"/>
<path d="M13081 6266 c-89 -62 -124 -89 -91 -71 19 10 171 115 185 127 27 24
-11 1 -94 -56z"/>
<path d="M16670 6315 c0 -4 63 -98 140 -210 l140 -203 3 -873 2 -874 3 885 2
886 -135 194 c-120 173 -155 218 -155 195z"/>
<path d="M13005 6284 l-30 -26 33 22 c17 12 32 23 32 26 0 7 -4 5 -35 -22z"/>
<path d="M13080 6229 c-80 -57 -126 -94 -90 -73 15 8 181 123 189 130 2 2 0 4
-5 3 -5 0 -47 -27 -94 -60z"/>
<path d="M16660 6286 c0 -4 60 -94 133 -199 l132 -192 5 -870 5 -870 3 870 2
870 -131 190 c-133 194 -149 215 -149 201z"/>
<path d="M16620 6231 l-23 -49 122 -175 121 -175 0 -836 c0 -736 2 -836 15
-836 13 0 15 101 16 848 1 466 3 860 5 877 2 20 0 25 -5 16 -5 -8 -7 -20 -4
-28 10 -25 -3 -13 -35 31 -21 28 -30 51 -26 63 4 13 3 14 -3 5 -14 -18 -95 99
-87 125 4 13 3 15 -4 4 -12 -17 -24 1 -16 26 4 12 3 14 -3 5 -7 -9 -18 -1 -41
32 -18 24 -32 46 -32 49 0 6 48 2 56 -6 4 -3 -3 -4 -15 -2 -14 3 -21 0 -18 -8
2 -7 13 -12 25 -12 11 0 27 -6 34 -14 11 -11 11 -13 -1 -6 -9 5 -12 3 -9 -6 3
-8 10 -14 16 -14 5 0 14 -4 19 -9 5 -5 2 -6 -6 -1 -9 5 -12 3 -9 -6 3 -8 10
-14 16 -14 5 0 14 -4 19 -9 5 -5 2 -6 -6 -1 -9 5 -12 3 -9 -6 3 -8 10 -14 16
-14 5 0 14 -3 18 -7 3 -4 -3 -5 -15 -3 -14 3 -21 0 -18 -8 2 -7 14 -11 26 -11
13 1 29 -10 43 -29 12 -17 16 -27 9 -22 -9 5 -12 3 -9 -6 3 -8 10 -14 16 -14
5 0 14 -4 19 -9 5 -5 2 -6 -6 -1 -9 5 -12 3 -9 -6 3 -8 10 -14 16 -14 5 0 14
-3 18 -7 3 -4 -3 -5 -15 -3 -14 3 -21 0 -18 -8 2 -7 13 -12 25 -12 11 0 26 -5
32 -11 7 -7 10 -275 10 -882 0 -575 3 -872 10 -872 6 0 11 297 12 864 l3 865
-89 128 c-49 70 -110 158 -136 195 l-47 67 -23 -48z m34 11 c3 -5 -1 -9 -9 -9
-8 0 -12 4 -9 9 3 4 7 8 9 8 2 0 6 -4 9 -8z m17 -129 c13 -16 12 -17 -3 -4
-17 13 -22 21 -14 21 2 0 10 -8 17 -17z"/>
<path d="M13088 6183 c-60 -41 -108 -81 -108 -89 0 -10 40 12 113 62 133 91
123 82 111 93 -5 5 -53 -21 -116 -66z"/>
<path d="M13108 6103 l-127 -88 -1 -198 c0 -109 4 -197 8 -195 15 6 421 289
426 297 3 4 -12 32 -33 62 -20 30 -61 89 -90 132 -29 42 -54 77 -55 77 -1 0
-59 -39 -128 -87z"/>
<path d="M16671 6158 c5 -10 11 -18 12 -18 2 0 3 8 3 18 0 10 -6 19 -13 19 -8
0 -9 -6 -2 -19z"/>
<path d="M14775 6158 c-3 -8 -51 -45 -105 -83 l-100 -68 17 -27 16 -28 75 50
75 51 -6 -35 c-4 -30 1 -44 35 -92 22 -31 42 -56 44 -56 2 0 13 5 23 12 17 10
14 17 -40 95 -46 66 -58 89 -53 108 3 14 9 25 13 25 3 -1 33 -41 66 -90 33
-49 63 -90 66 -90 4 0 12 6 18 14 10 11 -3 35 -60 118 -40 56 -73 105 -75 107
-2 2 -6 -3 -9 -11z"/>
<path d="M16583 6164 c4 -7 -2 -23 -13 -37 -11 -14 -20 -29 -20 -35 0 -5 47
-77 105 -160 l105 -151 2 -813 3 -813 5 820 5 820 3 -817 c1 -537 5 -818 12
-818 7 0 10 282 10 826 0 541 -3 823 -10 819 -6 -3 -7 1 -4 9 3 9 11 14 17 13
9 -1 13 -217 17 -837 l5 -835 0 840 c0 740 -2 840 -15 840 -8 0 -14 8 -14 17
1 10 -3 16 -10 15 -6 -1 -10 6 -10 15 1 10 -2 16 -6 13 -5 -3 -12 -1 -15 5 -5
8 -11 8 -20 0 -10 -8 -15 -8 -21 1 -4 7 -3 9 3 6 6 -4 14 0 17 9 3 8 11 12 17
8 7 -4 9 -3 6 4 -8 11 -25 11 -43 -1 -6 -3 -14 -4 -17 -1 -8 9 4 35 13 29 5
-3 12 -1 15 5 4 6 1 9 -6 8 -6 -2 -14 3 -17 11 -3 9 0 11 9 6 8 -5 11 -4 6 1
-5 5 -14 9 -20 9 -7 0 -11 9 -10 18 0 10 -2 16 -5 13 -3 -3 -12 0 -20 7 -11 8
-14 8 -9 0 8 -13 -18 -12 -30 2 -4 4 -3 5 3 2 7 -4 15 0 18 9 3 9 11 12 18 8
8 -4 10 -3 5 2 -5 5 -14 9 -19 9 -6 0 -13 6 -16 14 -3 9 0 11 9 6 8 -5 11 -4
6 1 -5 5 -14 9 -20 9 -7 0 -11 8 -11 17 1 10 -3 16 -10 15 -6 -1 -11 6 -11 15
0 9 -4 20 -9 25 -5 4 -6 3 -3 -3z m30 -73 c22 -32 23 -39 9 -36 -10 1 -16 9
-14 20 2 9 -1 14 -7 11 -5 -4 -12 -2 -16 4 -4 6 -11 7 -17 4 -7 -4 -8 -2 -4 5
4 6 12 8 18 5 7 -5 9 -1 5 9 -10 27 -1 20 26 -22z m77 -113 c14 -23 -4 -32
-21 -11 -12 14 -12 16 0 9 9 -6 12 -4 9 5 -3 8 -10 14 -15 14 -6 0 -15 4 -20
9 -5 5 -3 6 5 2 7 -4 12 -2 12 6 0 13 9 4 30 -34z m91 -130 c13 -23 -5 -32
-22 -11 -12 14 -12 16 0 9 9 -6 12 -4 9 5 -3 8 -14 14 -25 14 -12 0 -25 3 -29
7 -3 4 3 5 16 3 17 -3 21 -1 16 13 -5 13 -2 12 10 -3 8 -11 20 -28 25 -37z"/>
<path d="M16524 6042 c4 -3 14 -7 22 -8 9 -1 13 0 10 4 -4 3 -14 7 -22 8 -9 1
-13 0 -10 -4z"/>
<path d="M16750 6042 c1 -4 11 -20 24 -36 l23 -28 -2 27 c-2 15 -6 29 -10 33
-8 9 -35 11 -35 4z m34 -18 c3 -8 2 -12 -4 -9 -6 3 -10 10 -10 16 0 14 7 11
14 -7z"/>
<path d="M16505 6011 c-3 -12 -10 -21 -15 -21 -5 0 -7 -7 -4 -15 5 -11 2 -14
-12 -9 -16 6 -17 5 -6 -7 15 -17 16 -33 0 -23 -7 4 -2 -7 11 -24 12 -18 27
-29 33 -25 7 4 9 0 5 -10 -3 -9 -1 -19 5 -23 7 -5 8 -2 3 6 -5 9 -4 11 4 6 7
-4 10 -13 8 -19 -6 -18 52 -99 65 -91 7 5 9 1 5 -9 -3 -9 -1 -19 5 -23 7 -5 8
-2 3 7 -6 10 -5 11 4 3 9 -8 11 -208 11 -792 0 -691 2 -782 15 -782 13 0 15
90 15 773 l0 773 -86 123 c-47 67 -84 125 -82 127 3 2 42 -51 89 -119 l84
-122 5 -780 5 -780 3 782 c1 430 5 790 8 800 4 13 3 14 -3 5 -14 -18 -95 99
-87 125 4 13 3 14 -3 5 -7 -9 -21 3 -51 47 -23 32 -42 61 -42 64 0 8 28 2 37
-8 4 -4 2 -5 -6 0 -9 5 -12 3 -9 -6 3 -8 11 -14 19 -14 8 0 13 -8 11 -17 -1
-9 3 -20 9 -24 8 -4 9 -3 5 4 -4 7 -5 12 -2 12 3 0 19 -21 37 -47 18 -25 26
-43 19 -38 -8 5 -11 3 -8 -6 3 -8 11 -14 19 -14 8 0 13 -8 11 -18 -2 -10 3
-16 10 -15 8 2 12 -4 10 -16 -2 -10 1 -15 6 -12 30 18 32 -30 35 -815 l2 -794
3 798 2 797 -92 133 c-111 161 -105 154 -113 128z m-5 -101 c6 -11 8 -20 6
-20 -3 0 -10 9 -16 20 -6 11 -8 20 -6 20 3 0 10 -9 16 -20z m83 -119 c27 -46
14 -38 -18 12 -16 23 -22 37 -14 30 8 -6 22 -25 32 -42z"/>
<path d="M14688 5903 l-38 -25 17 -29 c19 -31 28 -35 39 -18 5 8 13 4 24 -11
10 -13 22 -20 29 -16 9 6 5 17 -14 41 -15 20 -21 36 -15 40 5 3 10 3 10 -2 1
-18 38 -55 49 -49 7 5 1 21 -19 52 -17 24 -34 44 -38 43 -4 0 -24 -12 -44 -26z"/>
<path d="M16428 5924 c-4 -3 34 -63 83 -134 l89 -128 3 -753 2 -754 3 764 2
765 -77 114 c-80 117 -96 136 -105 126z"/>
<path d="M16840 5909 c0 -15 18 -19 23 -6 3 8 -1 14 -9 14 -8 0 -14 -4 -14 -8z"/>
<path d="M16570 5901 c0 -6 4 -13 10 -16 6 -3 7 1 4 9 -7 18 -14 21 -14 7z"/>
<path d="M16359 5864 c-19 -14 -40 -29 -48 -33 -11 -7 6 -37 73 -134 l86 -125
0 -706 0 -706 50 0 50 0 0 746 0 745 -82 119 c-46 66 -86 120 -89 120 -3 0
-21 -12 -40 -26z"/>
<path d="M16260 5801 c0 -7 38 -68 85 -136 l85 -123 3 -693 2 -694 2 705 3
705 -80 114 c-88 127 -100 141 -100 122z"/>
<path d="M16230 5794 c0 -6 38 -65 85 -133 l85 -122 3 -692 2 -692 3 698 2
698 -81 117 c-91 131 -99 141 -99 126z"/>
<path d="M14725 5780 c3 -5 8 -10 11 -10 2 0 4 5 4 10 0 6 -5 10 -11 10 -5 0
-7 -4 -4 -10z"/>
<path d="M16190 5780 c-8 -5 -18 -6 -22 -4 -5 3 -11 -2 -14 -10 -3 -9 -11 -13
-18 -9 -6 3 -7 2 -3 -3 5 -5 14 -9 20 -9 7 0 11 -8 11 -18 -1 -9 2 -15 6 -12
5 3 11 1 15 -4 3 -5 14 -8 25 -6 15 3 30 -11 61 -56 22 -33 39 -63 36 -65 -2
-2 -15 13 -29 34 -19 28 -33 38 -51 38 -15 0 -24 -2 -21 -5 3 -4 11 -6 17 -6
5 0 12 -6 15 -14 3 -9 0 -11 -9 -6 -8 5 -11 4 -6 -1 5 -5 14 -9 20 -9 7 0 11
-8 11 -17 -1 -10 3 -16 10 -15 6 1 10 -6 10 -15 -1 -10 1 -17 5 -16 3 0 8 -1
11 -2 16 -6 41 -7 35 -2 -4 4 -12 7 -17 7 -6 0 -13 5 -15 11 -9 26 31 7 53
-25 l24 -36 2 -675 3 -675 5 690 c3 401 1 694 -4 700 -5 6 -6 4 -1 -5 5 -9 4
-12 -1 -7 -5 5 -9 16 -9 25 0 9 -5 17 -12 17 -6 0 -15 4 -20 9 -5 5 -3 6 5 2
21 -12 14 0 -49 91 -77 111 -80 114 -99 103z m-10 -20 c0 10 7 7 20 -10 24
-30 25 -39 5 -36 -16 2 -44 35 -45 51 0 6 5 3 10 -5 9 -13 10 -13 10 0z m81
-57 c13 -16 12 -17 -3 -4 -10 7 -18 15 -18 17 0 8 8 3 21 -13z m20 -108 l10
-20 -16 20 c-9 11 -21 29 -26 40 l-10 20 16 -20 c9 -11 21 -29 26 -40z"/>
<path d="M16186 5737 c3 -10 9 -15 12 -12 3 3 0 11 -7 18 -10 9 -11 8 -5 -6z"/>
<path d="M16010 5753 c0 -9 10 -30 23 -47 13 -17 63 -88 110 -158 l87 -126 0
-631 c0 -414 3 -631 10 -631 7 0 10 219 10 638 l0 637 -111 159 c-60 87 -108
160 -107 162 2 1 54 -70 116 -159 l112 -162 0 -637 c0 -419 3 -638 10 -638 7
0 10 220 10 641 l0 640 -101 147 c-56 81 -107 153 -113 160 -19 20 -56 24 -56
5z"/>
<path d="M16091 5738 c11 -15 25 -27 31 -25 6 1 13 -4 16 -12 3 -9 0 -11 -9
-6 -8 5 -11 4 -6 -1 5 -5 14 -9 20 -9 5 0 12 -6 15 -14 3 -9 0 -11 -8 -6 -7 5
1 -13 19 -38 17 -26 37 -46 43 -44 6 1 13 -4 16 -12 3 -9 0 -11 -9 -6 -8 5
-11 4 -6 -1 5 -5 14 -9 20 -9 5 0 12 -6 15 -14 3 -9 0 -11 -9 -6 -8 5 -11 4
-6 -1 5 -5 14 -9 20 -9 5 0 12 -6 15 -14 3 -9 0 -11 -8 -6 -7 4 -4 -4 5 -19 9
-14 21 -23 26 -20 5 3 10 -275 12 -653 l2 -658 3 658 2 658 -102 149 c-68 99
-108 148 -119 147 -16 -1 -16 -4 2 -29z m27 -14 c-4 -3 -12 5 -18 18 -12 22
-12 22 6 6 10 -10 15 -20 12 -24z m91 -129 c0 -11 -25 20 -41 50 -5 11 2 7 16
-10 14 -16 25 -34 25 -40z m79 -120 c-3 -3 -9 2 -12 12 -6 14 -5 15 5 6 7 -7
10 -15 7 -18z"/>
<path d="M16725 4960 c0 -443 1 -624 2 -403 2 222 2 584 0 805 -1 222 -2 41
-2 -402z"/>
<path d="M15990 5712 c0 -5 7 -15 15 -22 8 -7 15 -17 15 -23 0 -5 -10 -2 -22
9 -13 12 -18 14 -13 4 11 -20 129 -192 171 -251 l34 -46 3 -614 2 -614 3 621
c2 542 0 623 -13 634 -8 7 -15 17 -15 23 0 6 8 3 18 -6 16 -16 17 -65 22 -645
l5 -627 3 623 2 624 -105 153 c-100 147 -125 178 -125 157z m114 -165 c38 -54
66 -100 64 -103 -5 -4 -148 201 -148 212 0 12 10 -1 84 -109z"/>
<path d="M13283 5487 l-303 -209 0 -150 0 -150 28 19 c16 10 184 126 375 257
l345 239 -51 74 c-29 41 -59 85 -68 99 -9 13 -18 26 -20 28 -2 1 -140 -91
-306 -207z"/>
<path d="M16185 5681 c3 -3 17 -6 31 -7 13 0 22 2 19 5 -3 3 -17 6 -31 7 -13
0 -22 -2 -19 -5z"/>
<path d="M15964 5639 c-4 -8 -14 -24 -22 -37 -11 -17 -12 -22 -2 -20 7 2 15
-3 18 -11 3 -10 0 -11 -9 -5 -11 6 -11 4 1 -12 22 -29 24 -30 17 -11 -4 12 -3
16 4 11 8 -5 8 -1 0 13 -8 15 -7 25 4 39 13 19 13 19 12 0 -1 -11 5 -20 16
-21 23 -4 21 4 -7 39 -18 22 -25 25 -32 15z m2 -31 c-9 -12 -16 -19 -16 -15 0
11 24 47 28 42 2 -2 -3 -14 -12 -27z"/>
<path d="M15978 5573 c6 -11 7 -25 1 -34 -10 -18 11 -54 32 -54 7 0 14 -6 17
-14 3 -9 0 -11 -8 -6 -7 5 1 -13 19 -39 30 -43 58 -56 44 -20 -5 13 -7 13 -14
2 -10 -15 -12 -5 -11 47 1 23 -1 26 -9 15 -9 -12 -10 -12 -5 3 3 10 2 15 -3
12 -5 -3 -16 4 -24 16 -11 15 -16 17 -20 7 -3 -7 -4 1 -3 17 1 24 6 30 24 29
13 -1 21 3 19 10 -2 6 -12 11 -23 11 -10 0 -25 4 -32 9 -11 7 -12 4 -4 -11z
m70 -138 c-3 -3 -9 2 -12 12 -6 14 -5 15 5 6 7 -7 10 -15 7 -18z"/>
<path d="M15913 5564 c3 -4 2 -16 -4 -26 -7 -14 -8 -23 -1 -30 7 -7 10 -6 9 3
-1 8 3 15 8 16 10 1 10 0 0 -32 -6 -18 -5 -18 5 -2 15 23 33 12 21 -12 -6 -11
-6 -22 0 -32 8 -12 9 -12 7 1 -2 9 1 15 7 15 5 0 8 -6 7 -14 -2 -7 1 -10 6 -7
5 3 16 -2 23 -11 12 -14 12 -16 0 -9 -9 6 -12 4 -9 -5 3 -8 10 -14 16 -14 7 0
12 -3 12 -7 0 -29 -2 -31 -15 -14 -8 11 -15 15 -15 9 0 -13 18 -26 38 -29 6
-1 9 3 6 8 -4 7 -2 8 4 4 15 -9 5 -33 -13 -33 -9 0 -43 41 -76 90 -52 75 -63
87 -71 72 -8 -13 -5 -21 8 -34 17 -15 17 -15 3 4 -13 18 -13 19 3 7 9 -8 14
-20 11 -28 -3 -9 0 -14 8 -12 9 2 13 -4 11 -15 -2 -10 3 -16 10 -15 8 2 12 -4
10 -16 -2 -10 1 -15 7 -12 12 8 50 -44 44 -61 -2 -6 1 -15 8 -19 8 -5 9 -3 4
6 -5 8 -4 11 3 6 6 -4 8 -14 5 -23 -4 -10 -2 -14 5 -9 6 3 14 1 18 -5 4 -8 3
-9 -4 -5 -9 5 -12 -132 -12 -553 0 -492 2 -561 15 -561 22 0 23 1116 0 1146
-22 29 -17 42 6 14 17 -21 19 -22 10 -3 -6 12 -7 24 -2 27 13 8 20 -4 14 -22
-4 -8 -2 -13 3 -10 5 4 8 -222 6 -573 -2 -512 -1 -579 13 -579 13 0 15 68 15
578 l0 577 -88 127 c-48 71 -91 128 -96 128 -5 0 -6 -3 -3 -6z"/>
<path d="M16003 5536 c2 -6 13 -11 25 -11 11 0 24 -3 28 -7 3 -4 -3 -5 -15 -3
-14 3 -21 0 -18 -8 2 -7 8 -12 13 -12 21 -1 33 -18 30 -43 -3 -25 0 -28 31
-28 18 0 32 5 30 11 -2 5 -13 10 -24 10 -12 0 -25 3 -29 7 -3 4 3 6 15 3 27
-5 27 -3 -9 47 -21 29 -39 43 -56 44 -14 0 -23 -4 -21 -10z m77 -51 c14 -19
14 -19 -2 -6 -10 7 -18 18 -18 24 0 6 1 8 3 6 1 -2 9 -13 17 -24z"/>
<path d="M16296 5518 c3 -4 9 -6 14 -3 5 3 13 -3 19 -12 8 -15 11 -15 13 -3 2
8 5 -291 8 -665 l5 -680 3 677 c1 533 -1 678 -10 685 -18 10 -58 12 -52 1z"/>
<path d="M15847 5474 c-3 -3 23 -47 59 -98 70 -100 87 -126 80 -126 -2 0 -35
44 -72 98 -36 53 -68 99 -70 101 -2 2 -10 -3 -18 -11 -13 -13 -6 -26 52 -109
l67 -94 5 -540 5 -540 3 540 2 540 -66 94 c-36 51 -63 95 -61 98 3 2 34 -39
71 -91 l66 -96 0 -540 c0 -533 0 -540 20 -540 20 0 20 7 20 549 l0 550 -71
103 c-81 118 -83 120 -92 112z"/>
<path d="M16325 4820 c0 -366 1 -515 2 -332 2 182 2 482 0 665 -1 182 -2 33
-2 -333z"/>
<path d="M15971 5418 c5 -10 11 -18 12 -18 2 0 3 8 3 18 0 10 -6 19 -13 19 -8
0 -9 -6 -2 -19z"/>
<path d="M16092 5401 c1 -9 -1 -22 -3 -30 -2 -7 4 -15 14 -16 15 -3 16 -1 6
11 -6 8 -9 18 -5 21 10 11 35 12 41 3 3 -5 -4 -7 -15 -5 -14 3 -20 0 -17 -8 4
-13 29 -17 37 -6 3 4 4 -267 2 -602 -2 -410 1 -609 8 -609 7 0 10 200 10 608
-1 521 -3 610 -15 627 -19 24 -64 29 -63 6z"/>
<path d="M15804 5395 c3 -8 31 -52 63 -97 l58 -83 5 -530 5 -530 3 534 2 533
-65 94 c-62 88 -85 114 -71 79z"/>
<path d="M15795 5363 c10 -16 39 -57 64 -93 l46 -65 5 -525 5 -525 3 523 2
523 -66 95 c-36 52 -68 94 -71 94 -3 0 3 -12 12 -27z"/>
<path d="M15960 5361 c5 -11 15 -23 21 -27 6 -3 3 5 -6 20 -20 30 -30 35 -15
7z"/>
<path d="M15760 5361 c0 -6 26 -49 58 -94 l57 -82 5 -515 5 -515 3 515 2 516
-61 89 c-72 105 -69 102 -69 86z"/>
<path d="M16127 5353 c-12 -11 -8 -1193 3 -1193 7 0 10 207 10 600 0 330 -1
600 -3 600 -2 0 -7 -3 -10 -7z"/>
<path d="M15736 5328 c4 -7 32 -47 61 -89 l53 -77 0 -501 c0 -327 3 -501 10
-501 7 0 10 172 10 497 l0 497 -62 93 c-35 51 -67 92 -71 93 -5 0 -5 -6 -1
-12z"/>
<path d="M15710 5305 c0 -2 27 -43 60 -90 l60 -85 3 -488 2 -487 3 493 2 493
-57 84 c-50 73 -73 98 -73 80z"/>
<path d="M15690 5284 c0 -6 24 -44 53 -85 l52 -74 5 -485 5 -485 3 486 2 485
-51 75 c-58 84 -69 98 -69 83z"/>
<path d="M15660 5250 c0 -7 23 -44 50 -83 l50 -71 0 -468 c0 -305 3 -468 10
-468 7 0 10 164 10 471 l0 471 -51 74 c-54 77 -69 94 -69 74z"/>
<path d="M15630 5219 c0 -6 23 -43 50 -83 l50 -72 0 -452 c0 -295 3 -452 10
-452 7 0 10 159 10 456 l0 457 -52 78 c-51 75 -68 92 -68 68z"/>
<path d="M15616 5188 c4 -7 27 -41 50 -75 l44 -61 3 -449 2 -448 3 451 2 450
-51 72 c-28 40 -53 72 -55 72 -3 0 -2 -6 2 -12z"/>
<path d="M15580 5164 c0 -3 20 -35 45 -71 l45 -64 0 -434 c0 -283 3 -435 10
-435 7 0 10 153 10 438 l0 437 -45 68 c-39 58 -65 82 -65 61z"/>
<path d="M15560 5139 c0 -5 18 -37 40 -69 l40 -59 0 -425 c0 -277 3 -426 10
-426 7 0 10 151 10 432 l0 433 -42 62 c-41 60 -58 75 -58 52z"/>
<path d="M15536 5108 c4 -7 23 -35 43 -63 l36 -49 5 -421 5 -420 3 423 2 424
-41 59 c-23 32 -46 59 -51 59 -5 0 -6 -6 -2 -12z"/>
<path d="M15510 5092 c0 -4 17 -32 38 -62 l37 -55 5 -410 5 -410 3 415 2 415
-41 58 c-39 55 -49 65 -49 49z"/>
<path d="M15485 5060 c-3 -6 10 -32 29 -59 l36 -49 0 -396 c0 -257 4 -396 10
-396 7 0 10 140 10 401 l0 401 -39 54 c-22 31 -42 50 -46 44z"/>
<path d="M15455 5030 c-3 -5 10 -33 30 -62 l35 -53 0 -377 c0 -245 4 -378 10
-378 6 0 10 135 10 385 l0 385 -36 55 c-40 60 -40 60 -49 45z"/>
<path d="M15425 5000 c-3 -5 8 -31 25 -57 17 -27 23 -39 13 -27 -10 11 -25 31
-34 45 -9 13 -19 22 -23 19 -3 -3 8 -26 24 -50 l30 -45 0 -362 c0 -356 0 -363
20 -363 20 0 20 7 20 377 l0 376 -31 49 c-34 52 -35 53 -44 38z"/>
<path d="M15375 4950 c-4 -6 6 -28 22 -48 l28 -37 5 -355 5 -355 3 360 2 360
-29 43 c-18 27 -31 39 -36 32z"/>
<path d="M15345 4921 c-3 -6 6 -28 20 -48 l25 -38 0 -337 c0 -219 4 -338 10
-338 6 0 10 122 10 348 l-1 347 -28 38 c-16 21 -32 34 -36 28z"/>
<path d="M15317 4894 c-3 -4 5 -21 18 -39 l25 -32 0 -331 c0 -215 4 -332 10
-332 6 0 10 117 10 330 l0 330 -26 40 c-29 44 -28 43 -37 34z"/>
<path d="M15300 4859 c0 -6 9 -23 20 -39 19 -26 20 -47 23 -346 l2 -319 3 324
c2 313 1 325 -19 357 -22 36 -29 41 -29 23z"/>
<path d="M15268 4834 c-4 -4 1 -19 12 -34 19 -26 20 -46 20 -334 0 -197 4
-306 10 -306 6 0 10 111 10 313 0 309 0 312 -23 340 -12 16 -25 25 -29 21z"/>
<path d="M15226 4791 c-17 -18 -17 -21 -2 -43 14 -19 16 -62 16 -305 0 -182 4
-283 10 -283 6 0 10 103 10 288 0 248 -2 291 -16 310 -9 13 -14 25 -11 28 2 3
12 -7 20 -20 14 -21 17 -68 20 -318 l2 -293 3 306 c2 281 1 309 -16 329 l-17
22 -19 -21z"/>
<path d="M15190 4750 c0 -9 4 -20 10 -26 6 -6 11 -123 12 -289 l3 -280 5 283
c5 257 3 284 -12 305 -13 16 -18 18 -18 7z"/>
<path d="M15157 4724 c-4 -4 -1 -14 6 -22 8 -11 14 -91 17 -281 l6 -266 2 271
c1 206 -1 274 -11 288 -7 9 -16 14 -20 10z"/>
<path d="M15133 4680 c4 -14 7 -136 7 -272 0 -159 4 -248 10 -248 6 0 10 93
10 259 0 230 -2 260 -17 272 -15 13 -16 11 -10 -11z"/>
<path d="M15103 4656 c4 -10 7 -125 7 -257 0 -155 4 -239 10 -239 7 0 9 86 8
252 -3 206 -6 252 -17 256 -10 3 -12 0 -8 -12z"/>
<path d="M15080 4400 c0 -153 4 -240 10 -240 6 0 10 87 10 240 0 153 -4 240
-10 240 -6 0 -10 -87 -10 -240z"/>
<path d="M15054 4385 c0 -126 2 -177 3 -112 2 65 2 168 0 230 -1 62 -3 9 -3
-118z"/>
<path d="M15024 4370 c0 -118 2 -167 3 -107 2 59 2 155 0 215 -1 59 -3 10 -3
-108z"/>
<path d="M7158 4553 c6 -2 18 -2 25 0 6 3 1 5 -13 5 -14 0 -19 -2 -12 -5z"/>
<path d="M7238 4543 c6 -2 18 -2 25 0 6 3 1 5 -13 5 -14 0 -19 -2 -12 -5z"/>
<path d="M14987 4543 c-11 -11 -8 -383 3 -383 6 0 10 72 10 195 0 107 -1 195
-3 195 -2 0 -7 -3 -10 -7z"/>
<path d="M14930 4345 c0 -117 4 -185 10 -185 6 0 10 68 10 185 0 117 -4 185
-10 185 -6 0 -10 -68 -10 -185z"/>
<path d="M14855 4500 c-3 -6 -11 -7 -17 -4 -6 4 -6 -1 1 -14 6 -12 12 -86 13
-174 l2 -153 3 145 c4 211 17 226 23 25 l5 -170 5 172 c3 94 3 170 1 167 -2
-2 -10 1 -17 7 -8 7 -14 7 -19 -1z m8 -15 c-3 -9 -8 -14 -10 -11 -3 3 -2 9 2
15 9 16 15 13 8 -4z"/>
<path d="M7271 4184 c0 -11 3 -14 6 -6 3 7 2 16 -1 19 -3 4 -6 -2 -5 -13z"/>
<path d="M6101 3884 c0 -11 3 -14 6 -6 3 7 2 16 -1 19 -3 4 -6 -2 -5 -13z"/>
<path d="M6091 3804 c0 -11 3 -14 6 -6 3 7 2 16 -1 19 -3 4 -6 -2 -5 -13z"/>
<path d="M6081 3724 c0 -11 3 -14 6 -6 3 7 2 16 -1 19 -3 4 -6 -2 -5 -13z"/>
<path d="M6051 3494 c0 -11 3 -14 6 -6 3 7 2 16 -1 19 -3 4 -6 -2 -5 -13z"/>
<path d="M6041 3414 c0 -11 3 -14 6 -6 3 7 2 16 -1 19 -3 4 -6 -2 -5 -13z"/>
<path d="M6031 3334 c0 -11 3 -14 6 -6 3 7 2 16 -1 19 -3 4 -6 -2 -5 -13z"/>
<path d="M6021 3254 c0 -11 3 -14 6 -6 3 7 2 16 -1 19 -3 4 -6 -2 -5 -13z"/>
<path d="M6011 3174 c0 -11 3 -14 6 -6 3 7 2 16 -1 19 -3 4 -6 -2 -5 -13z"/>
<path d="M6001 3094 c0 -11 3 -14 6 -6 3 7 2 16 -1 19 -3 4 -6 -2 -5 -13z"/>
<path d="M5991 3014 c0 -11 3 -14 6 -6 3 7 2 16 -1 19 -3 4 -6 -2 -5 -13z"/>
<path d="M5981 2934 c0 -11 3 -14 6 -6 3 7 2 16 -1 19 -3 4 -6 -2 -5 -13z"/>
<path d="M5971 2854 c0 -11 3 -14 6 -6 3 7 2 16 -1 19 -3 4 -6 -2 -5 -13z"/>
<path d="M5941 2624 c0 -11 3 -14 6 -6 3 7 2 16 -1 19 -3 4 -6 -2 -5 -13z"/>
<path d="M5934 2435 c0 -71 1 -99 3 -62 2 37 2 96 0 130 -2 34 -3 4 -3 -68z"/>
<path d="M10343 1970 c-13 -5 -32 -24 -43 -42 -30 -47 -21 -104 20 -140 41
-38 83 -37 121 1 52 52 33 157 -32 180 -37 13 -37 13 -66 1z m70 -32 c52 -38
31 -140 -30 -146 -66 -7 -99 83 -48 133 27 28 52 32 78 13z"/>
<path d="M8468 925 c-3 -728 -1 -825 12 -825 13 0 15 97 12 825 -1 529 -6 825
-12 825 -6 0 -11 -296 -12 -825z"/>
<path d="M10289 1181 c-89 -90 34 -248 126 -161 46 43 46 117 -1 163 -37 38
-86 37 -125 -2z m111 -23 c28 -31 26 -83 -5 -113 -30 -31 -52 -31 -82 -3 -27
26 -31 82 -7 116 20 29 67 29 94 0z"/>
<path d="M10677 873 c-9 -8 -7 -333 3 -543 5 -128 7 -93 8 198 1 193 1 352 -1
352 -2 0 -7 -3 -10 -7z"/>
<path d="M10710 860 c0 -20 7 -20 320 -20 l319 0 3 -312 c2 -244 0 -314 -10
-324 -19 -20 -165 -63 -251 -75 -88 -13 -198 -7 -300 17 -70 15 -101 13 -71
-6 8 -5 49 -17 90 -27 155 -36 372 -15 515 51 50 23 52 25 58 71 4 26 7 182 7
346 l0 299 -340 0 c-333 0 -340 0 -340 -20z"/>
<path d="M8720 571 c0 -164 3 -320 7 -346 6 -46 8 -48 58 -71 143 -66 360 -87
515 -51 41 10 82 22 90 27 30 19 -1 21 -71 6 -102 -24 -212 -30 -300 -17 -86
12 -232 55 -251 75 -10 10 -12 80 -10 324 l3 312 319 0 c313 0 320 0 320 20 0
20 -7 20 -340 20 l-340 0 0 -299z"/>
<path d="M9420 851 c0 -11 4 -21 10 -23 14 -4 15 -631 1 -636 -13 -4 -15 -32
-3 -32 5 0 17 6 28 14 18 14 19 31 22 355 l3 341 -30 0 c-24 0 -31 -4 -31 -19z"/>
<path d="M10288 321 c-29 -26 -33 -36 -33 -79 0 -56 17 -82 66 -102 81 -34
150 72 104 160 -30 57 -87 66 -137 21z m102 -21 c44 -44 14 -140 -44 -140 -31
0 -66 43 -66 80 0 37 35 80 66 80 13 0 33 -9 44 -20z"/>
</g>
</svg>
