<?xml version="1.0" encoding="UTF-8"?>
<svg id="Layer_1" xmlns="http://www.w3.org/2000/svg" version="1.1" viewBox="0 0 1920 1080">
  <!-- Generator: Adobe Illustrator 29.1.0, SVG Export Plug-In . SVG Version: 2.1.0 Build 142)  -->
  <defs>
    <style>
      .st0 {
        fill: #0a0908;
      }

      .st1, .st2 {
        fill: #fcfcfc;
      }

      .st3 {
        fill: #f6f6f6;
      }

      .st2, .st4, .st5, .st6, .st7, .st8 {
        stroke-miterlimit: 10;
      }

      .st2, .st5, .st6, .st8 {
        stroke-width: 8px;
      }

      .st2, .st7 {
        stroke: #0a0908;
      }

      .st9 {
        fill: #272727;
      }

      .st10 {
        fill: #f867c3;
      }

      .st4 {
        stroke-width: 16px;
      }

      .st4, .st11, .st5, .st12, .st6 {
        stroke: #000;
      }

      .st4, .st13, .st7 {
        fill: none;
      }

      .st14 {
        fill: #0c0d0a;
      }

      .st15 {
        fill: #0b0d09;
      }

      .st11 {
        stroke-miterlimit: 10;
        stroke-width: 3px;
      }

      .st11, .st12, .st16 {
        fill: #fcbfaa;
      }

      .st17 {
        fill: #cab459;
      }

      .st18 {
        fill: #171210;
      }

      .st19 {
        fill: #feaab4;
      }

      .st20 {
        fill: #fbfbfb;
      }

      .st5 {
        display: none;
      }

      .st5, .st6, .st8 {
        fill: #fff;
      }

      .st21 {
        fill: #0a0806;
      }

      .st22 {
        fill: #fb68c5;
      }

      .st12 {
        stroke-miterlimit: 10;
        stroke-width: 3px;
      }

      .st23 {
        fill: #00f400;
      }

      .st24 {
        fill: #d1ba5c;
      }

      .st25 {
        fill: #f6bba7;
      }

      .st26 {
        fill: #c5b057;
      }

      .st27 {
        fill: #828282;
      }

      .st28 {
        fill: #000700;
      }

      .st29 {
        fill: #fafafa;
      }

      .st30 {
        fill: #fbbb98;
      }

      .st8 {
        stroke: #fff;
      }

      .st31 {
        fill: #f6f5f5;
      }

      .st32 {
        fill: #161616;
      }
    </style>
  </defs>
  <path class="st6" d="M913.2,641.6v-6c-21.3,0-33.4,30.3-38.5,44.5-5.9,16.5-28.7,64-13.7,109.9,14.2,43.3,99.8,11.9,60.3,14.8,17.4-3.7,30.4-19.1,30.4-37.6v-87.1c0-21.3-17.2-38.5-38.5-38.5ZM917,757c-.1-1.4-.6-2.4-1.2-3.1-.2,1.3-1,2.6-2.3,3.4-3.4,2.2-7,3.2-10.6,3.3,0,2.9-1.9,4.8-4.2,5.1.3,2.8.3,5.7.5,8.3.2,3.7.5,7.9,2.1,11.3,3.3,1,6,3.2,7.5,6.3.4.1.8.3,1.2.4.8-.4,1.6-.8,2.4-1.4,1.5-1,3.5-.8,5,0,2.1,1.1,4.7,2.5,5.8,4.8,1.4,3.1.2,6.1-3,7.3-5.3,2-10.5,2.6-15.6,1.2-.8,0-1.7-.4-2.4-.8-.6-.2-1.2-.5-1.8-.8-1.4-.7-2.2-1.8-2.4-3-3.2-1.6-6.1-3.8-8.4-6.8-1.5-2-.6-5,1.3-6.5-.4-1.1-.7-2.3-.9-3.6-.9-5.1-.9-10.2-1.3-15.3-.3-3.6-.7-6.6-3.4-7.8-3.2-1.5-3.1-4.8-1.4-7-.8-.2-1.5-.4-2.4-.5-6.3-1-3.6-10.6,2.7-9.6,4,.6,7.7,2.2,10.7,4.5,5.5-2.3,11.3-4.3,17.3-4.3,8.9.1,13.8,6.1,14.6,14.6.6,6.4-9.4,6.4-10,0Z"/>
  <path class="st16" d="M2032.2,502c-11.4,19.8-28.9,31.1-39,25.3-10.1-5.8-9-26.6,2.4-46.4,11.4-19.8,49.7-60.9,68.4-43.2,8.5,8-20.4,44.5-31.8,64.3h0Z"/>
  <g>
    <path class="st1" d="M933.2,1054.7l-18.4-419.5,66.1-26.1-43.3,46.5c-1.5,3.6-.3,5.2,2.7,7,10.6,6.3,28,9.9,39.3,16.1.8.5,1.6.8,2.2,1.7-3.1,4.3-20.9,14.5-21.4,18.5-.2,1.2,0,2.3.6,3.3l91.5,115.3c1.9,76.5,1.6,153.2,3.3,229.7h12.7c-.2-11.1.2-22.3,0-33.5-1.2-62.5-3.6-125-2.7-187.7,1.7-5.4,6.8-6.5,10-9.4,2.4-2.2,5.3-7.2,7.7-9.8,31.7-33.7,62.2-68.6,92.8-103.3l-32.7-26.8c-1.2-1.5-1.7-3.8-.8-5.5,1.9-3.8,50.3-14.4,56.9-18.9,1.3-5.9-38-42-43.8-48.4l5.4.4,43.2,28.8.9,421.7h-272.5ZM1043.6,865.8c-9.2-10.6-23.3,6.6-13.7,16.1,9.1,8.9,22.8-5.6,13.7-16.1ZM1037.1,958.5c13.3,2.5,15.1-18,5.4-20.9-15.1-4.5-17.5,18.6-5.4,20.9ZM1002.3,969.4c-18.7.2-44.2-2.2-61.8,0-1.1.1-2.2,0-2.9,1-.9,1.3-.5,22.2-.5,25.8,0,2.3,1,4.4,1,6.7.2,9.6-1.2,22.1,0,31.1.5,4.2,7.4,5.9,11.2,7.2,15.2,5.4,32.5,6.6,48.2,2.4,1.2-.3,11.1-3.2,8.8-5.3-21,5.5-44.9,7.2-64.2-4.4v-60.5c20,.6,40.3-.8,60.3,0,.6,0,2.2,1.3,3.9,0v63.9l2-12.1c-1.2-16.6,1.5-35.1,0-51.4-.2-2.6.2-2.8-2-4.3-3-2.1-3.1,0-3.9,0h0ZM1129.8,970.4c-1.9.2-4-.5-5.9.4l-1,2.9,1,62.1c.5,3.2,3.5,2.8,5.8,3.4.2.8-.3,1.9,0,2.8,18.8,6.5,38,6.8,56.8.1,3.8-1.3,10.7-3,11.2-7.2,1.1-9.1-.3-21.5,0-31.1,0-2.3,1-4.4,1.1-6.7,0-3.6.4-24.5-.5-25.8-.8-1-1.9-.8-2.9-1-17-2-43.8-.1-61.8,0-1.4,0-1.5-.2-3.9,0h0ZM1040.7,1042.1c10.8-1.7,11.3-18.9,1.8-21.1-16.5-3.8-16,23.3-1.8,21.1Z"/>
    <path class="st0" d="M1242.6,69.9c-128.4-78.5-316.2-85.3-399,59.8-45.9,80.5-60.6,194.7-2,272.6-2.2,24.6-2.2,46,4.8,69.8,21.3,71.8,86,117.3,159.8,122.3v2.9c-6.5,1.3-13.4.1-19.7,2.2-23.7,7.6-55.9,27.2-80.2,34.9l8.5,150.9,8.7,269.4h9.7l-18.4-415.5,66.1-30.1-43.3,46.5c-1.5,3.6-.3,5.2,2.7,7,10.6,6.3,28,9.9,39.3,16.1.8.5,1.6.8,2.2,1.7-3.1,4.3-20.9,14.5-21.4,18.5-.2,1.2,0,2.3.6,3.3l91.5,115.3c1.9,76.5,1.6,153.2,3.3,229.7h12.7c-.2-11.1.2-22.3,0-33.5-1.2-62.5-3.6-125-2.7-187.7,1.7-5.4,6.8-6.5,10-9.4,2.4-2.2,5.3-7.2,7.7-9.8,31.7-33.7,62.2-68.6,92.8-103.3l-32.7-26.8c-1.2-1.5-1.7-3.8-.8-5.5,1.9-3.8,50.3-14.4,56.9-18.9,1.3-5.9-38-42-43.8-48.4l-1.6.4,84.9,51.5-33.7,399.1h9.7s26.5-325.3,34-393.8c-6.3-4.2-35.8-31.7-43.8-36.2-16.8-9.7-36.9-25.2-57.3-25.5-5.5,0-14.7-.8-20.3,0l-2.1-1.4v-8c22.5-5.2,45.4-9.7,67.2-17.7,10.3-3.8,21.9-8.8,31.6-14.1,3.8-2.1,20.9-14.5,22.2-14.7,1.9-.3,1.2.5,1.7,1.3,1.6,2.6,3.6,6.9,4.8,9.7,1.7,3.9,6.6,17,6.6,20.5v20.3c0,4.3,12.2-2,14.1-3.4,17.9-13.1,21.3-46,20-66.4-.3-5-2.7-9.7-1.8-14.9,4.8-1.1,8.5-4.6,12.4-7.5,18.7-13.9,39.9-34.2,43.8-58.1.5-3.4-.3-6.5.6-10.1,1.6-6.2,10.5-20.5,13.6-28.1,55.4-133-1.9-264.2-120.2-336.6h0ZM1055.8,805.7l-83.6-104.3c-.4-2.4,19.9-16.6,23-19l.8-6.5-45.3-19.9,41.8-43.1c8.3,23.5,19.7,46.2,29,69.5,1.4,3.5,1.9,7.5,3.4,11.2,7.7,19.4,29.2,65.6,30.9,83.6v28.6h0ZM1010.1,629.4c12.8,2.5,25.1,6.9,37.9,9.2,23.5,4.2,45.7,4.7,69.1-.5l-55.9,121.1-51.1-129.8h0ZM1142.9,611.9c.7-1.2,1.5-1.1,2.7-.8,2.3.6,10.9,8,13.4,10,9.6,8,18.2,17.5,27.2,26.2l-57.3,21.9.8,5.3,31.7,27.5.3,3.2-93.2,105.8c-3.7,1.2-5.4,1-5.9-2.9-.8-6.5-.8-26.5.1-32.9.7-5,2.8-2.9,4.5-4.7l75.7-158.6h0ZM1126.4,610c1.6-.1,1.7-.2,1.4,1.4-.4,2.9-5.3,16.5-7.5,17.8-3.3,2-16,4.3-20.4,4.9-31.5,4.2-64-3.8-93.5-14.1l-7.1-14.8c11.2.6,22.3,3.6,33.6,4.8,23.5,2.6,50.3,2.8,74,2,6-.2,13.3-1.6,19.4-2h0ZM1012,595.5l44.3,1,59.3-5.9,2.3,1.6v11c-34.6,2-69.8,1.8-104.2-3.9l-1.7-3.9ZM1226,542.6c-55.9,35.7-174.3,49.2-238.5,37.1-75.8-14.3-133.8-71.4-134.1-150.3-.2-49.4,4.9-101.5,6.8-151.1.3-6.6-.3-13.3,0-19.9,3-.5,1.5.8,2,2.4,2.5,9.5,5.2,27.8,9,35.6.7,1.3,1.4,2.4,2.7,3.2.7.5,1.5.4,2.3.4,2.4,0,26.3-7.8,28.8-9.2,4.6-2.7,5.4-8.1,6.6-12.8,4.1-16.7,3.5-35,6.3-51.9.2-1.1.3-4.5,1.8-4.5,2.7,11.4,3.9,23.9,7.1,35.1,1.7,5.8,2.9,11,9.4,12.9,7.8,2.3,25.5,5.1,33.6,5.3,10.9.4,14.2-10,17.3-18.7,7.9-22,10.5-46.6,17.3-69,.3-1.1.4-3.6,1.8-3.5l17.2,109.5c3.4,1.9,6.3.7,7.8-2.8l9-44.8c1.8,14.1,2.1,32.8,8,45.8,1.7,3.7,5.2,7,9,3.6,2.1-1.9,10.1-22.3,11.4-26.4,4.7-14,7.8-28.8,10.4-43.4l2,13c1.7,17.1-2.3,38.8,0,55.3.3,2.4.5,3,2.7,4.1,2.4,1.2,18.6,2.4,22.2,2.2,7.7-.3,9-2.5,12.6-8.7,7.6-13.3,10.6-31,15.1-45.6l9.7,59.6c2.2.9,5.2,1,6.9-.9l23.3-36.4c-3.4,18.8-8.8,37.9,4.4,54.3,19.7,24.3,49,32.7,65.5,64.6,18.8,36.1-5.3,47.3-14.1,77.6-4.6,15.6-2.3,30.9,2.9,46,1.6,4.6,7.9,15.8,8.4,18.9.5,3.5-11.4,11.2-14.5,13.2h0ZM1268.4,570.3c-.2,1,0,3.1-1.5,2.9-5.6-35-36-61.5-30.9-99,.5-3.5,6.4-19.8,9-21.1,1.8-.9,1.5.8,1.1,2-14.2,43.7,31.4,70.5,22.3,115.2h0ZM1335.8,446.5c-2.6,16.2-26.8,38.1-39.8,47.6-1.2.9-6.5,5.3-7.7,4.5-1.5-1.1-7.9-31.7-7.9-35.4,0-8,6.5-18.9,8-27,8.8-6.5,32.1-20.2,42.6-13.7,4.6,2.8,5.4,19,4.7,24h0ZM1360.1,394.2c-2.9,7.9-8.6,23.2-12.9,29.8-.3.4-1.2,1.3-1.4,1-3.8-18.9-24.2-18.5-39.2-13.4-7.8,2.7-14.1,8.1-21.1,11.4-1.9,3.8-3.5,3.4-4.9,7.8-2.2,7-5.4,16.7-6.9,23.6-4.5,20.4,8.2,44.1,11.5,64.4,3.4,20.8,2.2,47.4-11.9,64.1-.8.1-.6-.9-.5-1.5.6-3.7,5.2-11.5,6.6-16.7,12.2-46.5-27.8-73.7-6.5-122.3h-1.9c-18.2,39.4-2.2,57.5,4.9,96.4l-1,8.3c-5.8-32-29.9-51.2-27.3-85.8,2-26.2,18.9-38.6,9.1-68.1-12.1-36.3-42.4-47.8-66.4-71.4-21.2-20.9-5.9-39.8-5.8-64,0-6.1-2.3-18.3-9.8-10.6l-25.3,40.2-8-66.1c-.9-2.5-4.7-4.4-6.9-2.6l-25.9,72.6h-17l-2.9-109.5c-3.7-2.1-6.5-1.5-8.3,2.4-2.7,5.6-4.7,16.4-6.3,22.8-5.1,20.8-7.9,42.1-15.3,62.3-1.1,2.9-2.2,7.5-4.6,9.5-3.8-17.3-3.7-35.2-5.9-52.8-.8-6.5-1.7-25-11.1-14.9l-5.4,24.1.9-76.5c-1.9.4-1.7,1.9-1.9,3.4-4.1,25-5.5,51.7-5.8,77-1.4-.6-1.5-4.9-1.8-6.4-3.4-21.5-5-48.7-10.3-69.2-.9-3.5-2.7-5.8-6.7-4.6-3.5,1.1-7.7,16.3-9,20.2-3.3,10.8-19.1,84.9-24.5,86.3l-14.5-1.9c-1.8-30.7,1.4-61.5,7.4-91.6l-1.9-1.4c-4.1,15.9-8.4,31.8-10.6,48.1-.8,5.7-1.8,12.6-2.1,18.2-.4,6.9,1.2,17.1,0,23.3-.8,4.2-12.1,1.2-13.5-1.1-3.9-6.6-6.3-29.8-8.6-38.9-4.1-16.2-12.3-37.1-18.5-6.2-3.1,15.4-3.2,31.5-5.3,47-.6,4.4-2.1,17.1-4,20.3-1.7,2.9-18,7.1-22.2,8.4l-17.2-71.5c-1.5-3.4-8-2.4-9.4,1l-7,176.1c-52.2-71.1-40.2-172.1-3.3-247.4C912.1,4.2,1079.2-3.8,1209.9,59.8c128.2,62.4,202.3,194,150.2,334.4Z"/>
    <path class="st32" d="M1002.3,969.4c-18.7.2-44.2-2.2-61.8,0-1.1.1-2.2,0-2.9,1-.9,1.3-.5,22.2-.5,25.8,0,2.3,1,4.4,1,6.7.2,9.6-1.2,22.1,0,31.1.5,4.2,7.4,5.9,11.2,7.2,15.2,5.4,32.5,6.6,48.2,2.4,1.2-.3,11.1-3.2,8.8-5.3-21,5.5-44.9,7.2-64.2-4.4v-60.5c20,.6,40.3-.8,60.3,0v-3.9h0Z"/>
    <path class="st32" d="M1133.7,970.4v3.9c20-.8,40.3.6,60.3,0v60.6c-3.9,3-9.6,4.8-14.4,6-18.3,4.7-31.9,2.5-49.8-1.7-2.9-12-3.7-48.9-2-61.6.4-3,1.9-3,2-3.3.3-.8-.2-2.8,0-3.9-1.9.2-4-.5-5.9.4l-1,2.9,1,62c.5,3.2,3.5,2.8,5.8,3.4.2.8-.3,1.9,0,2.8,18.8,6.5,38,6.8,56.8.1,3.8-1.3,10.7-3,11.2-7.2,1.1-9.1-.3-21.5,0-31.1,0-2.3,1-4.4,1.1-6.7,0-3.6.4-24.5-.5-25.8-.8-1-1.9-.8-2.9-1-17-2-43.8-.1-61.8,0h0Z"/>
    <path class="st9" d="M1043.6,865.8c9.1,10.5-4.6,25-13.7,16.1-9.7-9.5,4.5-26.7,13.7-16.1ZM1036.9,881.3c7.9,0,8.5-15.1-.2-15.3-7.5-.2-9.2,15.4.2,15.3Z"/>
    <path class="st9" d="M1037.1,958.5c-12.1-2.3-9.7-25.4,5.4-20.9,9.7,2.9,7.9,23.5-5.4,20.9ZM1039,955.6c6.8.3,9.1-13.5,1.6-15.1-9.5-2-11.2,14.7-1.6,15.1Z"/>
    <path class="st9" d="M1040.7,1042.1c-14.2,2.2-14.7-24.9,1.8-21.1,9.5,2.2,9,19.4-1.8,21.1ZM1037,1038.1c9.2,4.8,13.1-12.4,3.5-14.3-6.6-1.3-10.6,10.6-3.5,14.3Z"/>
    <path class="st9" d="M1006.2,973.3v63.9l2-12.1c-1.2-16.6,1.5-35.1,0-51.4-.2-2.6.2-2.8-2-4.3v3.9h0Z"/>
    <path class="st27" d="M1002.3,969.4v3.9c.6,0,2.2,1.3,3.9,0v-3.9c-3-2.1-3.1,0-3.9,0Z"/>
    <path class="st27" d="M1129.8,970.4c-.2,1.1.3,3,0,3.9,1.7,1.3,3.3,0,3.9,0v-3.9c-1.4,0-1.5-.2-3.9,0Z"/>
    <path class="st24" d="M1282.3,423.2c-4.3,1.6-9.4,14.8-11.4,19.2-18.2,39.4-2.2,57.5,4.9,96.4l-1,8.3c-5.8-32-29.9-51.2-27.3-85.8,2-26.2,18.9-38.6,9.1-68.1-12.1-36.3-42.4-47.8-66.4-71.4-21.2-20.9-5.9-39.8-5.8-64,0-6.1-2.3-18.3-9.8-10.6l-25.3,40.2-8-66.1c-.9-2.5-4.7-4.4-6.9-2.6l-25.9,72.6h-17l-2.9-109.5c-3.7-2.1-6.5-1.5-8.3,2.4-2.7,5.6-4.7,16.4-6.3,22.8-5.1,20.8-7.9,42.1-15.3,62.3-1.1,2.9-2.2,7.5-4.6,9.5-3.8-17.3-3.7-35.2-5.9-52.8-.8-6.5-1.7-25-11.1-14.9l-5.4,24.1.9-76.5c-1.9.4-1.7,1.9-1.9,3.4-4.1,25-5.5,51.7-5.8,77-1.4-.6-1.5-4.9-1.8-6.4-3.4-21.5-5-48.7-10.3-69.2-.9-3.5-2.7-5.8-6.7-4.6-3.5,1.1-7.7,16.3-9,20.2-3.3,10.8-19.1,84.9-24.5,86.3l-14.5-1.9c-1.8-30.7,1.4-61.5,7.4-91.6l-1.9-1.4c-4.1,15.9-8.4,31.8-10.6,48.1-.8,5.7-1.8,12.6-2.1,18.2-.4,6.9,1.2,17.1,0,23.3-.8,4.2-12.1,1.2-13.5-1.1-3.9-6.6-6.3-29.8-8.6-38.9-4.1-16.2-12.3-37.1-18.5-6.2-3.1,15.4-3.2,31.5-5.3,47-.6,4.4-2.1,17.1-4,20.3-1.7,2.9-18,7.1-22.2,8.4l-17.2-71.5c-1.5-3.4-8-2.4-9.4,1l-7,176.1c-52.2-71.1-40.2-172.1-3.3-247.4C912.1,4.2,1079.2-3.8,1209.9,59.8c128.2,62.4,202.3,194,150.2,334.4-2.9,7.9-8.6,23.2-12.9,29.8-.3.4-1.2,1.3-1.4,1-3.8-18.9-24.2-18.5-39.2-13.4-7.8,2.7-14.1,8.1-21.1,11.4-.4.2-2.1-.2-3.2.2h0ZM1270.4,230.2c-2.4-2-14.7-12.5-11.7-2.9,1.4,4.6,5.7,10.6,7.8,15.5,4.6,10.9,8.4,22.1,12.3,33.3.9,1.8,3.4,2,5.1,1.4,4.3-1.5-2.5-16-3.8-19.2-1.5-3.9-5.3-9.9-6.3-13.1-.4-1.2.2-1.9,1.4-1.4,3.4,1.5,17.4,25.9,19.8,30.6,6.5,13,15.2,33.5,17.7,45.9.3,1.8,1.6,12.5,2.4,12.6l2.4-.5c-.8-4-2.1-8.1-2.9-12.1-6.4-31.9-18.5-68.4-44.3-90.1h0Z"/>
    <path class="st16" d="M926.7,256.5c1.7,5.8,2.9,11,9.4,12.9,7.8,2.3,25.5,5.1,33.6,5.3,10.9.4,14.2-10,17.3-18.7,7.9-22,10.5-46.6,17.3-69,.3-1.1.4-3.6,1.8-3.5l17.2,109.5c3.4,1.9,6.3.7,7.8-2.8l9-44.8c1.8,14.1,2.1,32.8,8,45.8,1.7,3.7,5.2,7,9,3.6,2.1-1.9,10.1-22.3,11.4-26.4,4.7-14,7.8-28.8,10.4-43.4l2,13c1.7,17.1-2.3,38.8,0,55.3.3,2.4.5,3,2.7,4.1,2.4,1.2,18.6,2.4,22.2,2.2,7.7-.3,9-2.5,12.6-8.7,7.6-13.3,10.6-31,15.1-45.6l9.7,59.6c2.2.9,5.2,1,6.9-.9l23.3-36.4c-3.4,18.8-8.8,37.9,4.4,54.3,19.7,24.3,49,32.7,65.5,64.6,18.8,36.1-5.3,47.3-14.1,77.6-4.6,15.6-2.3,30.9,2.9,46,1.6,4.6,7.9,15.8,8.4,18.9.5,3.5-11.4,11.2-14.5,13.2-55.9,35.7-174.3,49.2-238.5,37.1-75.8-14.3-133.8-71.4-134.1-150.3-.2-49.4,4.9-101.5,6.8-151.1.3-6.6-.3-13.3,0-19.9,3-.5,1.5.8,2,2.4,2.5,9.5,5.2,27.8,9,35.6.7,1.3,1.4,2.4,2.7,3.2.7.5,1.5.4,2.3.4,2.4,0,26.3-7.8,28.8-9.2,4.6-2.7,5.4-8.1,6.6-12.8,4.1-16.7,3.5-35,6.3-51.9.2-1.1.3-4.5,1.8-4.5,2.7,11.4,3.9,23.9,7.1,35.1h0ZM894.3,303.3c-15.7,15.4,24.7,8.9,31.7,10.1l28,1.8c2.2-1,3.5-3.1,4.4-5.3.7-1.8,3.1-11.8,2.7-12.9-1.1-3.7-13.1-6.1-16.9-6.5-16.4-1.8-37.6.8-49.9,12.8ZM1103.1,322.3c-7.5,10.7,0,16.3,10.8,18.2,15.2,2.8,32.3,2.2,47.6,5,9.2-2.2,4.3-8.9,0-13.6-8.8-9.5-26.2-18-39.2-18.2-7.7-.1-14.6,2.2-19.1,8.5h0ZM969.7,380.4c-3.6-12.9-8.6-18.9-20.3-25.4-18.5-10.2-39.6-11.6-57.8,0-3.8,2.4-23.3,17.9-19.7,22.5l2.9-1c-3,8.6-1.5,16.1,2.7,24,.7,1.3,1.8,1.7,2.1,2.2,4.2,6.6,4,5.9,9.7,10.7,11.6,9.7,19.5,13.7,35,14.5,31,1.7,54.6-14,45.2-47.5h0ZM1203.7,394.9c1.7-1.6-10.6-13.2-12.2-14.5-27.7-22.8-62.6-19.8-92.6-3.1-8,4.5-12,7.2-12.1,17.1,0,17.6,7.8,39.3,24.7,47.2,21.9,10.2,67.1,6.9,79.7-17,5.6-10.7,3.9-23,3.7-34.6,3.8.1,4.6,5.6,8.8,4.8h0ZM1006.2,439.5c-2.2-18.7,18-16.9,29.1-9.1,3,2.1,4.8,6.6,8.8,6.2,2.8-2.9-10.6-13.7-13.3-15.3-16.4-9.7-31.6-.5-27.5,18.1h2.8c0,0,0,0,0,0ZM868.3,461.5c-6.7,39.3,61,57.8,84.4,27.8,18.3-23.5-9.2-49.5-32.8-52.5-18.1-2.3-47.9,3-51.6,24.7ZM1124.2,490.1c4.8,38.2,78.7,41.7,89.3,4.2,6.2-21.8-16.3-38.6-35.8-41-22.8-2.7-56.9,9-53.5,36.8h0ZM1016.3,518.1c17.3,10,52.1,9.2,57.1-14.7-.6-.7-12.9,8.9-14.9,9.9-14.4,6.8-32.6,3-47.4-.2-1.5,1.3,4.5,4.6,5.2,5h0Z"/>
    <path class="st20" d="M1067.3,770.6c-1.8,1.7-3.8-.3-4.5,4.7-.9,6.4-.9,26.4-.1,32.9.5,3.9,2.2,4.1,5.9,2.9l93.2-105.8-.3-3.2-31.7-27.5-.8-5.3,57.3-21.9c-9-8.7-17.6-18.1-27.2-26.2-2.4-2.1-11.1-9.4-13.4-10-1.2-.3-2-.3-2.7.8l-75.7,158.6h0Z"/>
    <path class="st29" d="M1055.8,777.1c-1.7-17.9-23.2-64.2-30.9-83.6-1.5-3.7-2-7.7-3.4-11.2-9.3-23.3-20.7-45.9-29-69.5l-41.8,43.1,45.3,19.9s-24.2,23.1-23.8,25.5l83.6,104.3v-28.6h0Z"/>
    <path class="st22" d="M1010.1,629.4l51.1,129.8,55.9-121.1c-23.4,5.2-45.6,4.7-69.1.5-12.9-2.3-25.1-6.7-37.9-9.2h0Z"/>
    <path class="st10" d="M999.4,605.1l7.1,14.8c29.5,10.3,62,18.3,93.5,14.1,4.3-.6,17.1-2.9,20.4-4.9,2.1-1.3,7.1-14.8,7.5-17.8.2-1.6.1-1.5-1.4-1.4-6.1.4-13.4,1.8-19.4,2-23.7.8-50.5.6-74-2-11.2-1.2-22.3-4.2-33.6-4.8h0Z"/>
    <path class="st17" d="M1267,573.2c1.4.2,1.3-1.8,1.5-2.9,9.1-44.7-36.5-71.5-22.3-115.2.4-1.3.7-2.9-1.1-2-2.6,1.3-8.5,17.6-9,21.1-5.1,37.6,25.3,64,30.9,99h0Z"/>
    <path class="st25" d="M1012,595.5l1.7,3.9c34.4,5.7,69.6,5.8,104.4,3.9v-11c-.1,0-2.5-1.6-2.5-1.6l-59.3,5.9-44.3-1Z"/>
    <path class="st26" d="M1280.6,430.7c-2.4-.5-2,1.2-2.7,2.5-1.4,2.7-4,6.6-5,9.1-21.3,48.6,18.8,75.8,6.5,122.3-1.4,5.2-5.9,13-6.6,16.7,0,.6-.2,1.6.5,1.5,14-16.8,15.3-43.3,11.9-64.1-3.3-20.2-16-43.9-11.5-64.4,1.5-6.9,4.8-16.6,6.9-23.6h0Z"/>
    <path class="st9" d="M1270.9,442.4h1.9c1.1-2.4,3.6-6.4,5-9.1.7-1.4.4-3.1,2.7-2.5,1.3-4.4,3-4,4.9-7.8-.4.2-2.1-.2-3.2.2-4.3,1.6-9.4,14.8-11.4,19.2h0Z"/>
    <path class="st20" d="M1133.7,974.3c-.6,0-2.2,1.3-3.9,0,0,.3-1.6.4-2,3.3-1.7,12.7-.9,49.6,2,61.6,17.9,4.2,31.6,6.3,49.8,1.7,4.8-1.2,10.5-3,14.4-6v-60.5c-20.1.6-40.3-.8-60.3,0h0Z"/>
    <path class="st31" d="M1036.7,866c-7.5-.2-9.2,15.4.2,15.3,7.9,0,8.5-15.1-.2-15.3Z"/>
    <path class="st31" d="M1040.5,940.5c-9.5-2-11.2,14.7-1.6,15.1,6.8.3,9.1-13.5,1.6-15.1Z"/>
    <path class="st31" d="M1040.5,1023.8c-6.6-1.3-10.6,10.6-3.5,14.3,9.2,4.8,13.1-12.4,3.5-14.3h0Z"/>
    <path class="st14" d="M1312.7,320.3c-2.4-12.4-11.2-32.9-17.7-45.9-2.4-4.8-16.4-29.2-19.8-30.6-1.2-.5-1.8.2-1.4,1.4,1,3.3,4.8,9.2,6.3,13.1,1.2,3.2,8.1,17.8,3.8,19.2-1.8.6-4.2.3-5.1-1.4-3.9-11.2-7.7-22.4-12.3-33.3-2.1-4.9-6.3-10.9-7.8-15.5-3-9.6,9.2.9,11.7,2.9,25.8,21.6,37.9,58.2,44.3,90.1h-2ZM1273.3,242.8v-1c-.6.3-.6.6,0,1Z"/>
    <path class="st9" d="M1312.7,320.3c.3,1.8,1.6,12.5,2.4,12.6l2.4-.5c-.8-4-2.1-8.1-2.9-12.1h-1.9,0Z"/>
    <path class="st19" d="M919.8,436.8c-18.1-2.3-47.9,3-51.6,24.7-6.7,39.3,61,57.8,84.4,27.8,18.3-23.5-9.2-49.5-32.8-52.5Z"/>
    <path class="st19" d="M1177.7,453.3c-22.8-2.7-56.9,9-53.5,36.8,4.8,38.2,78.7,41.7,89.3,4.2,6.2-21.8-16.3-38.6-35.8-41h0Z"/>
    <path class="st14" d="M1191.3,424.6c-12.6,23.8-57.8,27.1-79.7,17-16.9-7.8-24.8-29.6-24.7-47.2,0-9.9,4.1-12.7,12.1-17.1,30-16.7,64.9-19.7,92.6,3.1,1.6,1.3,13.9,12.9,12.2,14.5-4.2.8-5-4.7-8.8-4.8.2,11.6,1.9,23.9-3.7,34.6h0ZM1094.8,400.4c1.7,34.1,22.9,44.5,54.8,41.9,28.6-2.4,42.4-17.9,38.5-46.8-2.2-16.3-25.1-20.2-38.4-21.9l9.2,8.2c11.1,12.5,12.4,35.8,1.5,48.9-17.2,20.6-41.8,1.9-44.2-20-1.2-10.8,1.1-18.9,5.7-28.5-1.6-1.7-24.8,15.4-27.1,18.1h0ZM1120,405.1c0,15.2,13.4,36.7,30.6,28.4,20.5-9.9,15.3-52.2-5.9-55.8-15.9-2.7-24.7,13.7-24.7,27.4h0Z"/>
    <path class="st15" d="M924.5,425.9c22.8,1.1,42.8-9.8,39.8-35.3-1.7-14.2-14.5-22.7-27.1-26.7,5.9,12.4,9.7,22.9,6.3,36.8-5.5,22.5-29.3,31.1-42.5,9.4-10.3-16.9-8.2-39.9,6-54-20.2,3.9-38.4,25.1-26.3,45.5l-1,1c-.3-.5-1.5-.9-2.1-2.2-4.2-7.9-5.7-15.4-2.7-24l-2.9,1c-3.6-4.6,16-20.1,19.7-22.5,18.2-11.5,39.3-10.1,57.8,0,11.7,6.4,16.7,12.5,20.3,25.4,9.4,33.5-14.3,49.2-45.2,47.5v-1.9h0ZM901.1,391.5c1.2,12.5,12.6,31.9,27.2,22.2,16.7-11.1,11.3-50.4-9.4-53.5-14.6-2.2-18.8,20.7-17.8,31.3h0Z"/>
    <path class="st21" d="M961.1,297c.4,1.1-2,11.1-2.7,12.9-.8,2.2-2.2,4.3-4.4,5.3l-28-1.8c-7-1.3-47.3,5.2-31.7-10.1,12.2-12,33.5-14.6,49.9-12.8,3.8.4,15.8,2.8,16.9,6.5ZM949.8,305.3l.9-2.9c-10.3-4.7-25-4.3-35.6-.6-1.3.4-3,.3-3.3,2.1l38,1.5h0Z"/>
    <path class="st21" d="M1161.4,331.9c4.3,4.7,9.2,11.4,0,13.6-15.3-2.8-32.4-2.3-47.6-5-10.7-1.9-18.3-7.6-10.8-18.2,4.5-6.4,11.4-8.7,19.1-8.5,13,.2,30.5,8.7,39.2,18.2h0ZM1150.2,334.8c-8.2-8.5-24.4-14.2-36-11.2-2.6.7-6.5,3.2-5.8,6.3l41.8,4.8h0Z"/>
    <path class="st14" d="M1011.1,513.1c-1.5,1.3,4.5,4.6,5.2,5,17.3,10,52.1,9.2,57.1-14.7-.6-.7-12.9,8.9-14.9,9.9-14.4,6.8-32.6,3-47.4-.2h0Z"/>
    <path class="st18" d="M1003.4,439.4h2.8c-2.2-18.6,18-16.9,29.1-9.1,3,2.1,4.8,6.6,8.8,6.2,2.8-2.9-10.6-13.7-13.3-15.3-16.4-9.7-31.6-.5-27.5,18.1h0Z"/>
    <path class="st27" d="M890.4,413.3h-1c11.6,9.7,19.5,13.7,35,14.5v-1.9c-13.9-.6-22.7-5.5-34.1-12.6Z"/>
    <path class="st9" d="M879.7,402.6c4.2,6.6,4,5.9,9.7,10.7h1c0-1.9-1.3-2.7-2.4-3.9-1.6-1.8-6.4-6.2-7.3-7.7l-1,1h0Z"/>
    <path class="st18" d="M1312.7,431.7c.2,4.2,7.6,3.4,9.2,6.8,4.8,9.9-13,29.3-21.4,33.9,1.1-4.4.5-12.2-2.3-15.9-.9-1.2-3.7-.8-4.6.3s2.2,9.1,1.5,13.1c-.6,3-9.1,9.8-4.2,11.1,3.6.9,15.8-6.5,18.9-9.1,11.8-10,31.2-39.3,2.9-40.2h0Z"/>
    <path class="st24" d="M1273.3,241.8c-.6.3-.6.6,0,1v-1Z"/>
    <path class="st3" d="M1122,382.3c-1.6-1.7-24.8,15.4-27.1,18.1,1.7,34.1,22.9,44.5,54.8,41.9,28.6-2.4,42.4-17.9,38.5-46.8-2.2-16.3-25.1-20.2-38.4-21.9l9.2,8.2c11.1,12.5,12.4,35.8,1.5,48.9-17.2,20.6-41.8,1.9-44.2-20-1.2-10.8,1.1-18.9,5.7-28.5h0Z"/>
    <path class="st23" d="M1150.5,433.5c-17.2,8.3-30.6-13.2-30.6-28.4,0-13.7,8.8-30,24.7-27.4,21.2,3.6,26.4,45.9,5.9,55.8h0ZM1145.4,422.6c13.7-3.2,11.7-30.3.2-33.3-23.1-5.9-20.5,38.1-.2,33.3Z"/>
    <path class="st31" d="M880.7,401.7c.9,1.5,5.7,6,7.3,7.7,1.1,1.2,2.4,2,2.4,3.9,11.3,7.1,20.2,12,34.1,12.6,22.8,1.1,42.8-9.8,39.8-35.3-1.7-14.2-14.5-22.7-27.1-26.7,5.9,12.4,9.7,22.9,6.3,36.8-5.5,22.5-29.3,31.1-42.5,9.4-10.3-16.9-8.2-39.9,6-54-20.2,3.9-38.4,25.1-26.3,45.5h0Z"/>
    <path class="st23" d="M928.3,413.7c-14.5,9.7-25.9-9.7-27.2-22.2-1.1-10.6,3.2-33.4,17.8-31.3,20.7,3.1,26.1,42.4,9.4,53.5h0ZM916.4,404.4c14.7,3.3,16.2-18.1,7.7-26.6-15.6-15.6-24.4,22.8-7.7,26.6Z"/>
    <path class="st26" d="M911.8,303.8l38,1.5.9-2.9c-10.3-4.7-25-4.3-35.6-.6-1.3.4-3,.3-3.3,2.1h0Z"/>
    <path class="st26" d="M1108.4,330l41.8,4.8c-8.2-8.5-24.4-14.2-36-11.2-2.6.7-6.5,3.2-5.8,6.3h0Z"/>
    <path class="st25" d="M1280.5,463.2c0-8,6.5-18.9,8-27,8.8-6.5,32.1-20.2,42.6-13.7,4.6,2.8,5.4,19,4.7,24-2.6,16.2-26.8,38.1-39.8,47.6-1.2.9-6.5,5.3-7.7,4.5-1.5-1.1-7.9-31.7-7.9-35.4h0ZM1322,438.5c4.8,9.9-13,29.3-21.4,33.9,1.1-4.4.5-12.2-2.3-15.9-.9-1.2-3.7-.8-4.6.3s2.2,9.1,1.5,13.1c-.6,3-9.1,9.8-4.2,11.1,3.6.9,15.8-6.5,18.9-9.1,11.8-10,31.2-39.3,2.9-40.2.2,4.2,7.6,3.4,9.2,6.8h0Z"/>
    <path class="st28" d="M1145.6,389.3c-23.1-5.9-20.5,38.1-.2,33.3,13.7-3.2,11.7-30.3.2-33.3Z"/>
    <path class="st28" d="M924.1,377.8c-15.6-15.6-24.4,22.8-7.7,26.6,14.7,3.3,16.2-18.1,7.7-26.6Z"/>
  </g>
  <path class="st5" d="M1218.9,741.3c17,27.2-3.7,62.4-35.7,61.2-4.1-.2-7.7-.4-10.4-1l-150.5-8.7c-18.5-2.6-26.6-12.2-29.7-28.9s.5-27.8,7.4-41.3c7.2-14,28.4-13.2,46.8-9,0,0,129.3-4.4,157.2,11.8,5.7,3.3,10.6,9,15,15.9h0Z"/>
  <path class="st2" d="M977,752.2l173-22.2c8.4-13.5,42.8-5.6,57-60,9.1-39.2,8.4-33.1,8.4-33.1,47.6,13.2,51,72.4,42.2,119.3.2,3.2-8.7,39.8-10.7,42.8-40.4,61.1-264.5,7.8-274.2,9.9l28.5-6.8c17.8-25.3,9.2-34-18.9-45.4-3-1.2-4.8-2.3-5.4-4.6Z"/>
  <path class="st7" d="M-471.1,945.1"/>
  <g>
    <path d="M1946.1,1334.5c-.8,1.7-2.2,3-3.6,4-1.4,1-2.9,1.6-4.3,2-1.5.5-2.9.7-4.3.9-2.9.4-5.7.4-8.5.2-1.4,0-2.8-.2-4.1-.4-.8-.1-1.7-.2-2.5-.4-.7,1.6-1.8,3.1-3.2,4.3-3.4,3-8.8,4.5-13.5,2.8-.3,1.7-1,3.4-2.1,4.9-1.4,2-3.3,3.4-5.2,4.5-1,.5-2,.9-3,1.3h-.4c0,.1-.4.3-.4.3-.3,0-.6.2-.9.2-.6.1-1.2.2-1.7.3-2.2.2-4.3.1-6.3-.1s-4-.7-6-1.1c-3.9-1-7.6-2.4-11.2-4.2-3.6-1.8-7-3.9-10.2-6.4-3.1-2.5-6-5.4-8.4-8.8-2.4-3.3-4.2-7.1-5.3-11.1-1.1-4-1.5-8.2-1.2-12.3.3-4.1,1.3-8.1,2.5-11.8.6-1.9,1.3-3.8,2.1-5.6.8-1.8,1.7-3.7,2.6-5.4,2-3.5,4.4-6.8,7.2-9.8,2.9-2.9,6.2-5.4,9.6-7.4,7-4.1,14.5-6.4,21.6-8.8,7.1-2.4,14-5.1,19.8-9.3,2.9-2.1,5.5-4.5,7.8-7.2.6-.7,1.1-1.4,1.7-2.1l.4-.5.2-.2.2-.2c.1-.2.3-.3.4-.5.6-.6,1.3-1.1,2.1-1.4,1.5-.7,3.2-.7,4.8-.2,1.5.5,2.9,1.6,3.7,2.9.2.4.3.6.4.8.1.2.2.5.3.7.2.5.4,1,.6,1.5.4,1,.7,2,.9,3.1.2,1,.4,2.1.5,3.2,0,1.1.1,2.2,0,3.3-.1,2.2-.7,4.4-1.6,6.5-.9,2-2.2,3.9-3.8,5.5s-3.3,2.8-5.1,3.9-3.7,1.8-5.7,2.5c-1,.3-1.9.6-2.9.9-.9.2-1.7.5-2.5.8-1.6.6-3.2,1.3-4.3,2.2-1.2.9-1.9,1.9-2.1,3-.2,1.1.2,2.4.9,3.8.8,1.3,1.9,2.6,3.2,3.8.7.7,1.5,1.3,2.3,1.9.3-.6.7-1.1,1-1.7l.3-.5c0,0,.1-.2.2-.3l.3-.3c.2-.2.4-.4.7-.7.3-.2.5-.4.8-.5,1.2-.6,2.5-.7,3.5-.6,2.1.2,3.5,1,4.8,1.8,1.3.8,2.5,1.6,3.6,2.5,2.2,1.8,4.2,3.8,6.1,5.8.4.4.8.9,1.2,1.3,3.7-.1,7-.9,9.9-2.3,0-.8,0-1.5.2-2.3.2-1.1.5-2.1.8-3.1.7-2,1.9-3.9,3.2-5.5,1.3-1.7,2.8-3.1,4.4-4.3,1.6-1.2,3.3-2.3,5-3.3,1-.5,1.9-1,3.2-1.3.6-.2,1.3-.3,2.1-.3.4,0,.8,0,1.2.1.4,0,.9.2,1.3.4.4.2.8.4,1.2.7.3.3.7.6.9.9.2.3.5.7.7,1,.2.3.3.7.5,1,.5,1.3.7,2.4.8,3.5.2,2.2,0,4.2-.2,6.2-.2,2-.6,3.9-1,5.8-.8,3.8-1.9,7.4-3,11.1l-.4,1.3-.2.7v.3c-.1,0-.3.4-.3.4-.4,1.1-1,2.1-1.6,3.1-1.3,1.9-3.1,3.5-5.2,4.5-.5.3-1.1.5-1.6.7l-1.3.5-2.6.9c-1,.3-2,.7-3.1,1,.1.3.3.5.4.8.6,1.3,1.1,2.7,1.4,4.4,0,.4.1.9.2,1.4,0,.3,0,.5,0,.8v.5c0,0,0,.2,0,.2v.2c-.2.4-.3.9-.4,1.3-.2.4-.3.9-.5,1.3h0ZM1939.3,1333.9c.8-.6,1.3-1.2,1.7-1.9,0-.2.2-.4.2-.6l.2-.6h0v-.3c0-.2,0-.4,0-.6-.2-.9-.6-2.1-1.1-3.2-.5-1.1-1.1-2.2-1.7-3.3-1.2-2.2-2.6-4.4-4-6.6-2.9-4.3-6.1-8.4-9.6-12.2-1.7-1.9-3.6-3.7-5.4-5.3-.9-.8-1.9-1.5-2.9-2.1-.1,0-.3-.2-.4-.2-.8-.5-1.7-.8-2.2-.8-.3,0-.4,0-.4,0h0s0,0,0,0c0,0,0,0,0,0s0,0,0,0l-.3.4c-.7,1-1.3,2-1.8,3-.9,2.1-1.3,4.2-1,6.4.3,2.2,1.2,4.3,2.6,6.3.7,1,1.4,1.9,2.3,2.9.4.5.8.9,1.3,1.4.4.4.9.9,1.3,1.3,1.8,1.8,3.8,3.4,5.9,5.1,2.1,1.7,4.2,3.3,6.3,5-2.7-.6-5.3-1.5-7.8-2.6-2.1-.9-4.1-2.1-6-3.4-.8.1-1.7.3-2.5.5,3.7,4.8,5.7,9.4,5.8,13.5v.4c.7,0,1.4.1,2.1.2,1.3,0,2.6.1,3.8.2,2.6,0,5.1,0,7.5-.5.7-.1,1.4-.3,2.1-.4,1.6-.4,3.1-1,4.2-1.8h0ZM1951.4,1315.6c1.2-.7,2.2-1.7,3-2.8.4-.6.7-1.2.9-1.9v-.2c0,0,.2-.3.2-.3l.2-.7.4-1.3c1.1-3.5,2-7.1,2.8-10.6.4-1.8.7-3.5.9-5.3s.3-3.5.3-5c0-.7-.2-1.4-.3-1.9,0,0,0-.2-.1-.3,0,0,0,0,0-.2,0,0,0,0,0,0,0,0,0,0,0,0,0,0,0,0,0,0,0,0,0,0,0,0h0c-.2,0-.4,0-.7,0-.6.1-1.3.4-2,.8-3.1,1.6-6,3.6-8.1,6-1.1,1.2-2,2.6-2.6,4-.3.7-.5,1.5-.8,2.2-.2.8-.3,1.6-.4,2.4-.4,3.2.1,6.7,1.1,10.5-1.6-1.2-2.9-2.8-3.8-4.6-.3-.7-.6-1.3-.9-2.1-2.2.9-4.5,1.6-7,1.9,1.8,2.3,3.6,4.7,5.3,7.2,1.2,1.8,2.5,3.8,3.6,5.7,1.2-.5,2.3-1,3.5-1.5l2.6-1.1,1.3-.5c.3-.1.7-.3,1-.5,0,0,0,0,0,0h0ZM1912.4,1341.7c1.6-1.4,2.4-3.1,2.5-5.2,0-.2,0-.4,0-.6-.2-6.6-7.4-15.6-19.6-24.7,0,0,0,0,0,0-7.7-5.7-12.3-7.2-14.9-7.3-1.5,0-2.4.3-2.8.5-1.5.9-2.2,3.4-1.8,7,.9.3,1.8.7,2.6,1.1,3.7,1.8,7,4.4,9.8,7.2,2.9,2.8,5.4,5.9,7.6,9.2,2.2,3.3,4.2,6.8,5.5,10.8.3,1,.6,2.1.8,3.2,3.5,2.4,8.1.9,10.4-1.1h0ZM1892.1,1352.6c1.4-.7,2.6-1.7,3.4-2.8.2-.3.4-.7.6-1,.4-.9.7-1.8.7-2.9,0-1.5-.2-3.1-.7-4.7-1-3.2-2.8-6.4-4.8-9.5-2-3-4.3-5.9-6.8-8.5s-5.4-4.8-8.5-6.3c-1.5-.8-3.1-1.4-4.7-1.6-1.2-.2-2.5-.2-3.5,0-.2,0-.4.1-.6.2-.5.2-.8.6-1,.9-.2.4-.4,1-.4,1.8,0,1.4.3,3.1.8,4.7,1.1,3.2,3.1,6.2,5.5,8.8,1.8,1.9,3.8,3.7,6,5.3h.2s0,0,0,.1c.7.5,1.5,1,2.2,1.5,3.1,2,6.5,3.6,10.1,5.2-3.8-.3-7.7-1.2-11.3-2.7-.4-.2-.7-.3-1.1-.5,0,1.1,0,2.1.3,3.2.2,1.1.6,2.1,1.1,3.1.6,1,1.4,1.8,2.3,2.6-1.1-.4-2.2-1-3.2-1.8-1-.8-1.8-1.9-2.4-3-.7-1.1-1.2-2.3-1.6-3.5-.3-.9-.6-1.9-.9-2.8-1.6-1-3.2-2.2-4.6-3.5-3-2.8-5.5-6.1-7-10.1-.7-2-1.3-4.1-1.2-6.5,0-1.2.2-2.4.9-3.8.4-.8,1-1.5,1.6-2,.5-.4.9-.7,1.4-.9,1.2-.6,2.5-.9,3.7-.9.7,0,1.4,0,2.1,0-.2-5.9,2.1-8.6,4.2-9.9,2.1-1.3,4.8-1.5,7.9-.8,4.2.9,9.2,3.6,15,7.9h.1c4.9,3.7,9,7.4,12.3,10.9.4-.1.8-.2,1.3-.3-.4-.4-.8-.9-1.2-1.3-.4-.6-.9-1.1-1.3-1.7-1.7-2.4-3.1-5.2-3.6-8.3-.4-2.3-.2-4.8.4-7.1-1.3-.8-2.5-1.7-3.7-2.8-1.6-1.4-3-2.9-4.2-4.9-.6-1-1.1-2-1.4-3.2-.3-1.2-.4-2.5-.2-3.8.2-1.3.7-2.6,1.4-3.7.7-1.1,1.6-1.9,2.5-2.6,1.8-1.4,3.8-2.3,5.8-3,1-.3,2-.7,2.9-.9.9-.2,1.7-.5,2.5-.8,3.3-1.2,6.4-2.8,8.7-5.2,1.1-1.2,2-2.5,2.6-3.9.6-1.4,1-3,1.1-4.6,0-.8,0-1.6,0-2.4,0-.8-.2-1.6-.4-2.4-.2-.8-.4-1.6-.7-2.4-.2-.4-.3-.8-.5-1.1,0-.2-.2-.4-.3-.6,0-.2-.2-.4-.2-.4-.2-.2-.4-.4-.7-.5,0,0,0,0-.1,0-.2,0-.5,0-.7,0-.1,0-.2.1-.3.2,0,0,0,0,0,0h0c0,.1-.4.7-.4.7-.6.8-1.2,1.6-1.8,2.4-2.6,3.1-5.6,5.9-8.9,8.2-3.3,2.4-6.8,4.3-10.4,5.9-3.6,1.6-7.3,3-10.9,4.2-7.2,2.5-14.3,4.8-20.6,8.4-3.1,1.8-5.9,3.9-8.4,6.5-2.5,2.5-4.6,5.4-6.3,8.5-.9,1.6-1.7,3.2-2.4,4.8-.1.3-.3.6-.4.9-.1.3-.2.6-.3.9-.4,1.1-.8,2.2-1.2,3.3,0,0,0,0,0,0-1.1,3.5-2,6.9-2.2,10.3-.2,3.5,0,7,.9,10.3.9,3.3,2.4,6.5,4.4,9.4,4,5.7,9.9,10.3,16.3,13.5,3.2,1.6,6.6,2.9,10.1,3.8,1.7.4,3.5.8,5.2,1s3.5.3,5.1.1c.4,0,.8,0,1.1-.2.2,0,.3,0,.5-.1h.2c0,0,.3-.2.3-.2.8-.3,1.6-.6,2.2-1h0Z"/>
    <path class="st16" d="M1941,1331.9c-.3.7-.9,1.4-1.7,1.9-1.1.8-2.6,1.4-4.2,1.8-12.4,1.6-20.7-12.8-14-8.1,7,4.9,12.1.4,12.1.4-14.7-10.5-22.5-24.1-17-31.2.1,0,.3.2.4.2,1,.6,1.9,1.3,2.9,2.1,1.9,1.6,3.7,3.4,5.4,5.3,3.4,3.8,6.7,7.9,9.6,12.2,1.4,2.2,2.8,4.4,4,6.6.6,1.1,1.2,2.2,1.7,3.3.5,1.1.9,2.2,1.1,3.2,0,.2,0,.4,0,.6v.2h0c0,0,0,.1,0,.1l-.2.6c0,.2-.2.4-.2.6h0Z"/>
    <path class="st16" d="M1954.3,1312.8c-.8,1.2-1.8,2.1-3,2.8-11.5,3.6-12.7-8.2-10.5-6.2,1.5,1.4,3.6,2,4.8,2.2.6.1,1.1.2,1.1.2-1.8-11.6,7.8-24.4,12.6-26.8,0,0,0,0,0,0,0,0,0,0,0,0,0,0,0,0,0,0,0,0,0,0,0,0,0,0,0,.1,0,.2,0,0,0,.2.1.3.2.5.3,1.2.3,1.9,0,1.5,0,3.3-.3,5-.2,1.7-.6,3.5-.9,5.3-.8,3.5-1.7,7.1-2.8,10.6l-.4,1.3-.2.7v.3c0,0-.2.2-.2.2-.2.7-.5,1.3-.9,1.9h0Z"/>
    <path class="st30" d="M1951.4,1315.6s0,0,0,0c-.3.2-.6.3-1,.5l-1.3.5-2.6,1.1c-1.2.5-2.3,1-3.5,1.5-1.1-2-2.3-3.9-3.6-5.7-1.7-2.4-3.4-4.8-5.3-7.2,2.5-.4,4.8-1,7-1.9.2.7.5,1.4.9,2.1.9,1.8,2.2,3.4,3.8,4.6v.6c-1.3-.2-3.4-.8-4.9-2.2-2.2-2-1,9.8,10.5,6.2h0Z"/>
    <path class="st16" d="M1935.1,1335.7c-.7.2-1.4.3-2.1.4-2.4.4-4.9.5-7.5.5-1.3,0-2.6,0-3.8-.2-.7,0-1.4-.1-2.1-.2v-.4c-.2-4.1-2.2-8.7-5.8-13.5.8-.2,1.6-.4,2.5-.5,1.9,1.3,3.9,2.5,6,3.4,2.5,1.1,5.1,2,7.8,2.6-2.1-1.8-4.2-3.4-6.3-5-2.1-1.6-4-3.3-5.9-5.1-.5-.4-.9-.9-1.3-1.3-.4-.5-.9-.9-1.3-1.4-.8-.9-1.6-1.9-2.3-2.9-1.4-2-2.3-4.1-2.6-6.3-.3-2.2.1-4.4,1-6.4.5-1,1-2,1.8-3l.3-.4c0,0,0,0,0,0,0,0,0,0,0,0,0,0,0,0,0,0s0,0,0,0c0,0,0,0,.4,0,.5,0,1.3.4,2.2.8-5.5,7.1,2.3,20.6,17,31.2,0,0-5.1,4.5-12.1-.4-6.7-4.7,1.6,9.7,14,8.1h0Z"/>
    <path class="st30" d="M1946.8,1311.8s-.4,0-1.1-.2v-.6c-.9-3.8-1.4-7.3-1-10.5,0-.8.2-1.6.4-2.4.2-.8.4-1.5.8-2.2.6-1.5,1.5-2.8,2.6-4,2.2-2.5,5.1-4.4,8.1-6,.7-.3,1.4-.7,2-.8.3,0,.5,0,.7,0h0c-4.7,2.3-14.3,15.1-12.6,26.8h0Z"/>
    <path class="st16" d="M1914.9,1336.6c0,2.1-.9,3.8-2.5,5.2-2.3,2-6.9,3.5-10.4,1.1-.2-1.1-.4-2.2-.8-3.2-1.3-4.1-3.3-7.5-5.5-10.8-2.2-3.3-4.7-6.4-7.6-9.2-2.9-2.8-6.1-5.3-9.8-7.2-.8-.4-1.7-.8-2.6-1.1-.3-3.5.3-6,1.8-7,.4-.2,1.3-.6,2.8-.5,2.4,7.4,22.4,25.2,24.6,29.6,2.3,4.4,8.5,7.9,10,3.1h0Z"/>
    <path class="st16" d="M1914.9,1336.6c-1.5,4.9-7.7,1.3-10-3.1-2.2-4.4-22.2-22.2-24.6-29.6,2.6.2,7.2,1.6,14.9,7.3,0,0,0,0,0,0,12.2,9.1,19.4,18.1,19.6,24.7v.6h0Z"/>
    <path class="st16" d="M1895.5,1349.8c-.8,1.1-2,2.1-3.4,2.8-.7.4-1.5.7-2.2,1h-.3c0,0-.2.2-.2.2-.2,0-.3,0-.5.1-.3,0-.7.1-1.1.2-1.6.2-3.3,0-5.1-.1s-3.5-.6-5.2-1c-3.5-.9-6.9-2.2-10.1-3.8-6.4-3.2-12.3-7.7-16.3-13.5-2-2.9-3.5-6-4.4-9.4-.9-3.3-1.2-6.8-.9-10.3.2-3.5,1.1-6.9,2.2-10.3-2.8,10.9,1.8,25.1,15.2,7.1.2-.3.4-.4.7-.4-.7.5-1.2,1.2-1.6,2-.7,1.3-.8,2.6-.9,3.8,0,2.4.5,4.5,1.2,6.5,1.5,4,4,7.3,7,10.1,1.4,1.3,3,2.5,4.6,3.5.3.9.6,1.9.9,2.8.4,1.2.9,2.4,1.6,3.5.7,1.1,1.5,2.2,2.4,3,1,.8,2.1,1.4,3.2,1.8-1-.7-1.8-1.6-2.3-2.6-.6-1-.9-2-1.1-3.1-.2-1-.3-2.1-.3-3.2.4.2.7.3,1.1.5,3.6,1.5,7.5,2.4,11.3,2.7v.4c-2.1.7-5.3,1.1-8.6-1,0,0,2.6,12.5,13.9,5.7-.2.3-.4.7-.6,1h0Z"/>
    <path class="st16" d="M1893.4,1343c-12.1-2.7-25.8-19.5-25.5-27.6,1-.3,2.2-.3,3.5,0,1.6.3,3.2.9,4.7,1.6,3.1,1.6,5.9,3.8,8.5,6.3,2.6,2.6,4.8,5.4,6.8,8.5,2,3,3.8,6.2,4.8,9.5.5,1.6.7,3.2.7,4.7,0,1.1-.3,2-.7,2.9-11.3,6.8-13.9-5.7-13.9-5.7,3.3,2,6.6,1.6,8.7,1,1.5-.5,2.5-1.1,2.6-1.2h0Z"/>
    <path class="st30" d="M1911.7,1318c-.4.1-.9.2-1.3.3-3.3-3.6-7.4-7.2-12.3-10.8h-.1c-5.8-4.4-10.8-7-15-7.9,12.7.2,22.3,8.4,18.5,3.2-14.2-19.7-4-25,9.5-32.7,11.5-6.6,11.4-14.1,9.9-19.8,0,0,0,0,.1,0,.3,0,.5.2.7.5,0,0,.2.3.2.4,0,.2.2.4.3.6.2.4.3.8.5,1.1.3.8.6,1.6.7,2.4.2.8.3,1.6.4,2.4,0,.8.1,1.6,0,2.4,0,1.6-.4,3.2-1.1,4.6-.6,1.4-1.5,2.7-2.6,3.9-2.2,2.3-5.3,4-8.7,5.2-.8.3-1.7.6-2.5.8-.9.3-1.9.6-2.9.9-1.9.7-3.9,1.6-5.8,3-.9.7-1.8,1.6-2.5,2.6s-1.2,2.3-1.4,3.7c-.2,1.3,0,2.7.2,3.8.3,1.2.8,2.3,1.4,3.2,1.2,1.9,2.7,3.5,4.2,4.9,1.2,1,2.4,1.9,3.7,2.8-.6,2.3-.8,4.7-.4,7.1.5,3.1,1.9,5.9,3.6,8.3.4.6.9,1.2,1.3,1.7.4.4.8.9,1.2,1.3h0Z"/>
    <path class="st16" d="M1893.4,1343c0,0-1,.7-2.6,1.2v-.4c-3.7-1.5-7-3.2-10.2-5.2-.8-.5-1.5-1-2.2-1.5h0c0-.1-.2-.1-.2-.1-2.2-1.6-4.2-3.3-6-5.3-2.4-2.6-4.4-5.6-5.5-8.8-.6-1.6-.9-3.2-.8-4.7,0-.7.2-1.4.4-1.8.2-.3.5-.6,1-.9.2,0,.4-.2.6-.2-.4,8.1,13.4,24.9,25.5,27.6h0Z"/>
    <path class="st16" d="M1901.5,1302.8c3.8,5.2-5.8-3-18.5-3.2-3.2-.7-5.8-.4-7.9.8-2.1,1.3-4.4,4.1-4.2,9.9-.7,0-1.3,0-2.1,0-1.2,0-2.4.3-3.7.9-.5.2-1,.6-1.4.9-.2,0-.5,0-.7.4-13.4,18-18.1,3.8-15.2-7.1,0,0,0,0,0,0,.3-1.1.7-2.2,1.2-3.3.2-.3.3-.7.5-1,0,0-.1.1-.2.2.1-.3.2-.6.4-.9.7-1.7,1.5-3.3,2.4-4.8,1.7-3.1,3.8-6,6.3-8.5,2.5-2.5,5.3-4.7,8.4-6.5,6.2-3.6,13.3-5.9,20.6-8.4,3.6-1.3,7.3-2.6,10.9-4.2,3.6-1.6,7.1-3.6,10.4-5.9,3.3-2.3,6.3-5.1,8.9-8.2.6-.8,1.3-1.6,1.8-2.4l.4-.6h0c0-.1,0-.2,0-.2,0,0,.2-.2.3-.2.2,0,.4-.1.7,0,1.5,5.7,1.6,13.2-9.9,19.8-13.5,7.7-23.7,13-9.5,32.7h0Z"/>
    <path class="st30" d="M1849.5,1301.1c-.2.3-.3.7-.5,1,.1-.3.2-.6.3-.9,0,0,.1-.1.2-.2Z"/>
  </g>
  <path class="st4" d="M841.6,402.4s-138.5-284.7,121.8-364c287-87.4,402.3,143.9,408.3,196.8,8.1,70.8,19.8,178.9-32.8,200.6"/>
  <path class="st24" d="M1345.8,424.9l-7.3-11.6c18.2-7.8,11.5-16.5,14.2-56.8,2.5-37.8-2.4-82.3-5.9-114.8-1.5-14.1-11.4-41.9-30.1-72.1-15.9-25.8-44-62.4-87.1-90.5-71.1-46.3-157.1-54-255.6-22.7-62.2,19.7-104.7,54.7-126.3,103.9-45.7,104.2-2.8,226.7-2.2,228l-4.3,2.9c-.7-1.5-9.6-18.8-19.9-67.6-9.6-45.4-15.7-111.9,10-170.4,23.7-54.1,69.9-92.4,137.3-113.8,55.3-17.5,107.8-23.3,156.1-17.2,41.6,5.3,80.2,19.4,114.8,42,80.7,52.6,123.4,140.4,127.3,175.7,7.9,72.4,12.2,144.1-20.8,185.2h0Z"/>
  <path d="M924.6,432.4c-17.9,0-33.2-8.8-40.8-18-12.5-15.1-11.1-40.7-11-41.8l7,.4c0,.4-1.2,23.9,9.5,36.9,6.7,8.1,21.6,16.4,38.4,15.3,10.8-.7,26.3-5.7,38.6-25.4l3.9,3.7c-8,25.3-29.6,27.9-42.1,28.7-1.2,0-2.4.1-3.5.1h0ZM879.8,373l-3.5-.2,3.5.2h0Z"/>
  <g>
    <path d="M2259.7,503.9c-10.1-2.8-64.6,44.4-60.6,70.5h0c.1.8.4,2.2.8,4,1.4,5.8,4.9,16.5,12.8,26.2,12.8,15.5,32.1,21.9,56.1,18.8,0,0,5.2.8,24.2-4.7,19.1-5.5,23.9-13.5,25.5-16.9,2.6-5.7.5-11-2.1-14.2,1.4-1,2.7-2,3.9-3.2,2.6-2.6,4.8-5.7,5.5-9,.9-3.3.2-6.9-2.3-9.5-1.2-1.3-2.9-2.4-4.6-3.1.3-.3.6-.7.9-1,1.4-1.8,2.8-3.8,3.5-5.9l.3-.8.2-.8c0-.5.2-1.1.2-1.6v-1.6c0-.5-.1-1-.2-1.5-.4-2-1.2-4-2.7-5.6-1.4-1.6-3.3-3-5.5-4-1.6-.8,27.1-17.7,25.1-18,.6-.7,1.2-1.5,1.7-2.2,1-1.5,2.1-1.8,2.5-3.5.1-.4.2-.8.2-1.3,0-.4.1-.8.1-1.3v-1.3s-.2-1.2-.2-1.2c0-.4-.2-.8-.3-1.2-.1-.4-.2-.8-.4-1.1-.4-.7-3.1-3.1-4.4-3.6-2-.8-4.4-.8-6.6-.9-2.2-.2-4.3-.1-6.3.1-1.6.2-3.2.5-4.8.8-60.1,21.7-59.8,21.6-65.5,23.5,0,0,19-20.3,2.9-24.8h0ZM2218.8,543.3c13.2-18.5,32.9-36.6,37.8-35.7,11.3,2.1.4,17.4-4,20.7-1,.7-1.9,1.4-2.7,2.1v.3c-.1,0-.4,0-.4,0-1.1.8-2,1.6-2.8,2.3-5.8,5-5.8,6.9-3,7.2,5.7-1.5,20.2-6.9,23-7.8,3.3-1.2,6.6-2.4,9.9-3.5,3.4-1.2,36.6-14.7,41-16,0,0,.1,0,.2,0,3.2-.9,6.3-2.1,9.3-2.6,4.4-.9,6.9-.8,7.9.2.4.2,1.6,1.8,1.6,2.1,0,.2.2.5.2.7.3.9.2,1.9,0,2.9-.2,1-1,.6-1.6,1.6h0c0,0,0,.1-.1.2-1.3,1.9-3.9,3.7-7.2,5.1-4.7,3.5-38.1,22.4-45.5,25.4-.2,0-.3.1-.5.2-6.3,2.4-13,4.1-19.8,5.6-3.4.7-6.8,1.5-10.2,2.3-3.4.8-6.9,1.6-10.4,2.7h0c3.5.5,7,.7,10.6.5.9,0,1.8,0,2.7-.1l2.7-.2c1.8-.2,3.6-.4,5.4-.7,7.2-1.2,14.3-2.9,21.3-5.2,6.6-2.2,13.3-5,19.2-9,1.1-.2,2.2-.3,3.3-.2,1.4.1,2.9.5,4.1,1.2,2.5,1.3,4.2,3.5,4.6,5.9,0,.3.1.6,0,.9,0,.3,0,.6,0,.9,0,.3-.1.6-.2.9v.5c0,0-.3.5-.3.5-.3,1.1-1,2.2-1.8,3.2-.1.2-.2.3-.3.5-2.1,2.4-5.1,4.5-8.5,6.4-3.4,1.9-7.3,3.4-11.2,4.8l-3,1-1.5.5-1.5.4c-2.1.6-4.1,1.2-6.2,1.7l-3.1.8c-1.1.2-2.1.5-3.2.7l-6.4,1.5c-1.1.3-2.1.5-3.2.8-.5.2-1.1.3-1.6.5l-1.6.4c-2.2.6-4.3,1.3-6.5,2.1h0c4.4.7,8.8.7,13.3.5,2.2,0,4.5-.4,6.8-.7,1.1-.2,2.2-.3,3.4-.5l3.4-.7c4.5-.8,9-2,13.5-3.3,1.1-.3,2.2-.8,3.3-1.1l1.7-.6c.6-.2,1.1-.4,1.6-.7,1.1-.5,2.2-.9,3.3-1.4l3.2-1.6c1.6-.8,3.2-1.8,4.7-2.8,1.4.6,2.6,1.4,3.3,2.3,1.1,1.4,1.4,3.2.8,5.2v.4c0,0-.2.4-.2.4-.1.2-.2.5-.3.7-.3.5-.5,1-.9,1.4l-.5.7h0c0,0-.5.7-.5.7-.3.5-.8.9-1.3,1.4-1.8,1.8-4.2,3.5-6.8,4.9-2.6,1.4-5.5,2.6-8.5,3.6-1.5.5-3.1,1-4.6,1.4l-2.4.6-1.2.3-1.2.2-2.4.5c-.8.1-1.6.3-2.4.4-1.6.3-3.3.6-5,.9-1.7.3-3.4.7-5.1,1.1-1.7.4-3.5.8-5.3,1.5,1.6.6,3.2,1,4.9,1.3,1.7.3,3.4.5,5.2.6,1.8,0,3.6,0,5.3,0,.9,0,1.8-.1,2.7-.2l2.7-.4,1.4-.2,1.4-.2c.9-.2,1.8-.3,2.7-.5,1.8-.4,3.6-.8,5.4-1.4,3.4-1,6.7-2.2,9.9-3.8,1.6,2.1,3.2,5.6,1.4,9.4-.4.8-.8,1.5-1.5,2.4-3.9,4.6-13.8,10.2-37.9,14.4-23.2,4-41.1-1.5-53.3-16.2-10-12.1-12.5-26.5-12.7-28.1h0c-1.8-11.7,3.6-21.6,12.4-29.8h0Z"/>
    <path class="st16" d="M2256.6,507.6c-4.9-.9-24.6,17.2-37.8,35.7,6.3-5.9,14.2-11,22.4-15.2.7-.4,1.9-1.8,3.4-3.6,1-1.3,2.1-2.7,3.1-4.2,2.7-3.6,5.3-7.2,6.5-7.7l.8,3.2-5.1,14.7c.8-.7,1.8-1.3,2.7-2.1,4.4-3.3,15.3-18.6,4-20.7h0Z"/>
    <path class="st16" d="M2255,515.7l-.8-3.2c-1.2.5-3.9,4.1-6.5,7.7-1.1,1.5-2.2,2.9-3.1,4.2l.4.7c3-3.8,7.5-8.9,10-9.5h0Z"/>
    <path class="st16" d="M2255,515.7c-2.6.5-7,5.7-10,9.5-1.8,2.2-3,4-3,4h0s0,0,0,0c1,.6,2.1,1.1,3.3,1.3,1.2.2,2.5.3,3.7.2.1,0,.3,0,.4,0,.1-.1.3-.2.4-.3l5.1-14.7h0Z"/>
    <path class="st16" d="M2246.5,533c-.8-.3-1.6-.8-2.3-1.2-1.1-.7-1.8-1.7-2.3-2.6,0,0,0,0,0,0h0s1.2-1.8,3-4l-.4-.7c-1.4,1.8-2.7,3.3-3.4,3.6-27.6,18.6-26.2,53.8-9.6,71.8,17.6,19,59.7,12,78.7,3.1.7-.8,1.2-1.6,1.5-2.4,1.8-3.8.2-7.3-1.4-9.4-3.2,1.6-6.5,2.8-9.9,3.8-1.8.5-3.6,1-5.4,1.4-.9.2-1.8.3-2.7.5l-1.4.2-1.4.2-2.7.4c-.9,0-1.8.2-2.7.2-1.8.2-3.6.1-5.3,0-1.8,0-3.5-.3-5.2-.6-1.7-.3-3.4-.7-4.9-1.3,1.8-.6,3.6-1.1,5.3-1.5,1.7-.5,3.4-.8,5.1-1.1,1.7-.4,3.3-.6,5-.9.8-.1,1.6-.3,2.4-.4l2.4-.5,1.2-.2,1.2-.3,2.4-.6c1.6-.5,3.1-.9,4.6-1.4,3-1,5.9-2.2,8.5-3.6,2.6-1.4,4.9-3.1,6.8-4.9.4-.5.9-.9,1.3-1.4l.5-.6c0-.2,0-.4-.1-.6-1.6-10.8-26.6,7.9-60.3,2.1h0,0c2.2-.9,4.4-1.5,6.5-2.2l1.6-.4c.5-.2,1.1-.3,1.6-.5,1.1-.3,2.1-.6,3.2-.8l6.4-1.5c1.1-.2,2.1-.5,3.2-.7l3.1-.8c2.1-.5,4.2-1.1,6.2-1.7l1.5-.4,1.5-.5,3-1c3.9-1.4,7.8-3,11.2-4.8,3.4-1.9,6.4-4,8.5-6.4.1-.2.2-.3.3-.5-1.1-4.2-6.6-6-13.9-3.2-15.4,5.9-50.2,10.4-57.7,4.2h0c3.5-1.1,7-1.9,10.4-2.7,3.4-.8,6.8-1.6,10.2-2.3,6.8-1.5,13.4-3.2,19.8-5.6.1,0,.3-.1.5-.2,7.4-3.1,39.9-23,45.5-25.4,2.3-1.7,5.8-3.2,7.2-5.1,0,0,0-.1.1-.2-.2-5.1-5.1-3.5-13.7-.8-12.6,4-69.8,30-79.5,23.8-.6,0-.8-.3-.9-.8-.7-.6-2.8-2.4-1.3-2.3,1.2,0,1.1,1.4,1.3,2.3.1.1.2.2.2.2.2.2.4.4.7.6h.1c.4,0,.9-.2,1.6-.3-2.8-.2-2.8-2.1,3-7.2h-.1c0,0,0-.1,0-.1Z"/>
    <path class="st16" d="M2242,529.2s0,0,0,0c.5.9,1.3,1.8,2.3,2.6.7.5,1.4.9,2.3,1.2h.1c.8-.6,1.8-1.4,2.8-2.2-.1,0-.3,0-.4,0-1.3,0-2.5,0-3.7-.2-1.2-.2-2.3-.7-3.3-1.3h0s0,0,0,0Z"/>
    <path class="st16" d="M2327,510.1c-2.9.6-6,1.8-9.3,2.6,3.2-.9,6.5-1.6,9.4-2,3-.3,9.8,4.1,9.6,5.1.2-1,.3-1.9,0-2.9,0-.2-.1-.5-.2-.7,0-.2-1.3-1.8-1.6-2.1-1.1-1-3.6-1-7.9-.2h0Z"/>
    <path class="st16" d="M2327.1,510.8c-3,.3-6.2,1.1-9.4,1.9,0,0-.1,0-.2,0-4.4,1.4-37.1,17-40.5,18.1-3.3,1.1-13.1,4.9-9.9,3.5,7.3-3.2-16.6,6.4-23.5,5.8-.7.2-1.2.3-1.6.3h-.1c9.8,6.2,66.9-19.8,79.5-23.8,8.6-2.8,13.5-4.3,13.7.8h0c.6-1,1.4-.6,1.6-1.6.2-1-6.6-5.4-9.6-5.1h0Z"/>
    <path class="st16" d="M2249.8,530.7v-.3c0,.1-.2.2-.3.3h.3s0,0,0,0Z"/>
    <path class="st16" d="M2317.5,512.8c-4.4,1.3-37.6,14.9-41,16-3.3,1.1-6.6,2.3-9.9,3.5-2.7,1-17.3,6.4-23,7.8,6.9.6,30.8-9,23.5-5.8-3.2,1.4,6.6-2.4,9.9-3.5,3.4-1.2,36.1-16.7,40.5-18.1Z"/>
    <path class="st16" d="M2239.7,537.5c-1.6-.1.6,1.7,1.3,2.3-.2-.9,0-2.2-1.3-2.3Z"/>
    <path class="st16" d="M2241.1,528.1c-8.2,4.2-16.1,9.3-22.4,15.2-7.9,11-13.5,22.3-12.4,29.7h0c.3,1.7,2.7,16.1,12.7,28.2,12.1,14.7,30.1,20.2,53.3,16.2,24.1-4.2,34-9.8,37.9-14.4-19,8.9-61.1,16-78.7-3.1-16.6-18-18-53.2,9.6-71.8h0Z"/>
    <path class="st16" d="M2241.2,539.9s0,0-.2-.2c.1.5.3.8.9.8-.3-.2-.5-.4-.7-.6h0Z"/>
    <path class="st16" d="M2218.8,543.3c-8.7,8.2-14.2,18.1-12.4,29.7-1.2-7.4,4.5-18.6,12.4-29.7Z"/>
    <path class="st16" d="M2335,517.7c-1.4,1.9-4.9,3.4-7.2,5.1,3.3-1.4,5.9-3.2,7.2-5.1Z"/>
    <path class="st16" d="M2327.8,522.8c-5.6,2.4-38.1,22.3-45.5,25.4,7.4-3.1,40.9-22,45.5-25.4Z"/>
    <path class="st16" d="M2241.4,559.1h0,0Z"/>
    <path class="st16" d="M2306.5,544.2c-1.1,0-2.2,0-3.3.2-5.9,4-12.5,6.8-19.2,9-7,2.3-14.2,4-21.3,5.2-1.8.3-3.6.5-5.4.7l-2.7.2c-.9,0-1.8,0-2.7.1-3.6.1-7.1,0-10.6-.5,7.5,6.1,42.3,1.7,57.7-4.2,7.3-2.8,12.9-1,13.9,3.2.8-1.1,1.5-2.1,1.8-3.2l.2-.5v-.5c.1-.3.2-.6.3-.9,0-.3,0-.6,0-.9,0-.3,0-.6,0-.9-.3-2.4-2.1-4.6-4.6-5.9-1.2-.7-2.7-1.1-4.1-1.2h0Z"/>
    <path class="st16" d="M2255,580.2h0,0Z"/>
    <path class="st16" d="M2268.3,580.7c-4.5.3-8.9.2-13.3-.5,33.7,5.8,58.7-12.9,60.3-2.1,0,.2,0,.4.1.6h0c0,0,.5-.8.5-.8.4-.5.6-1,.9-1.4.1-.2.2-.5.3-.7v-.4c.1,0,.2-.4.2-.4.5-1.9.3-3.7-.8-5.2-.7-1-1.9-1.8-3.3-2.3-1.5,1-3.1,1.9-4.7,2.8l-3.2,1.6c-1.1.5-2.2.9-3.3,1.4-.6.2-1.1.5-1.6.7l-1.7.6c-1.1.4-2.2.8-3.3,1.1-4.5,1.3-9,2.5-13.5,3.3l-3.4.7c-1.1.2-2.2.3-3.4.5-2.2.3-4.5.6-6.8.7h0Z"/>
  </g>
  <g>
    <path class="st16" d="M2038,808.5c-1.3-1.7-2.3-3.7-2.8-5.8-.2-1-.4-2.1-.4-3.1-1.4-6.1-1.2-10.8-3.7-15,0,.3-.1.7-.2,1-.2,2.1-.1,4.3.2,6.6.7,4.5,2.2,9,4.2,13,1.1,2,2.3,3.9,3.7,5.6.2.3.5.6.8.8-.6-1.1-1.2-2.1-1.7-3.1Z"/>
    <path class="st16" d="M2118.5,786h0c-25.2-18.5-33.6-27.3-65.2-25.1-.3,0-.6.2-.9.2-.7.2-1.5.3-2.2.6-1.4.4-2.8.9-4.2,1.5-2.6,1.1-4.9,2.6-6.9,4.4-4.7,9.8-1.2,23.8,29,17,0,0,.1,0,.2,0-5.4,3.5-11.4,6-17.9,6.9-1.3.2-2.6.2-3.9.2-6.8,8.9,3.8,19.2,25.7,11.8,1.6-.7,3.2-1.3,4.9-1.9,0,0,0,0,0,0h0,0c-1.8,2.1-3.8,3.9-5.9,5.7-2.1,1.7-4.3,3.3-6.6,4.8-1.9,1.2-4,2.2-6.2,3-4,4.6-3.3,11.1,4.4,12.8,9.9,2.2,27.8-10.1,28.7-10.7,0,0,0,0,0,0-.7,1.2-1.4,2.4-2.2,3.5l-1.2,1.7-1.3,1.6c-1.7,2.2-3.6,4.2-5.6,6.1-2.1,1.9-4.3,3.6-6.9,4.9,0,0-.1,0-.2,0,2.2,6.4,14.4,6.3,24.6-.4,22.9-15,25.6-29.7,20.9-45.4.1.1,1.1,1.1,2.4,3.2,0,0,.1.1.2.2-1.1-2.2-2.4-4.5-3.9-6.8,0,0,0,.2,0,.2h0s0,0,0,0Z"/>
    <path class="st16" d="M2098.9,834.7c-10.2,6.7-22.4,6.8-24.6.4-.8.4-1.6.8-2.5,1.1,0,1.3.2,2.6.5,3.7.5,1.7,1.4,3,2.7,4s3,1.5,4.8,1.8c1.8.2,3.8.2,5.7,0,3.9-.6,7.8-1.8,11.6-3.5,3.7-1.7,7.3-3.8,10.7-6.3,3.4-2.5,6.4-5.3,9.1-8.4,2.7-3.2,4.9-6.7,6.3-10.5.7-1.9,1.1-3.9,1.3-5.8s0-2,0-3c0-.5-.1-1-.1-1.5s0-1,0-1.6c-.2-2.1-.5-4.3-.9-6.5-.4-2.2-.8-4.3-1.6-6.5.1.1.3.3.4.4-1.2-2.1-2.2-3-2.4-3.2,4.7,15.7,1.9,30.4-20.9,45.4h0Z"/>
    <path class="st16" d="M2062.9,827.8c-7.7-1.7-8.4-8.2-4.4-12.8-.5.2-1,.3-1.5.5-.1,0-.3,0-.4.1-.6.6-1.3,1.2-1.9,1.7,0,0-.2.2-.2.3-.5.8-.8,1.6-1,2.6-.2,1.9.3,4,1.4,5.9,1.1,1.9,2.7,3.5,4.6,4.5,1.9,1.1,4,1.6,6.2,1.5,4.6,0,9-2.5,13.3-5.3,2.1-1.4,4.2-3,6.4-4.7,2.1-1.6,4.2-3.3,6.4-4.9-.9.6-18.8,13-28.7,10.7h0Z"/>
    <path class="st16" d="M2046.5,791.6c-.5,0-1,0-1.4,0-.8.4-1.6.9-2.3,1.5-.9.7-1.6,1.5-2.1,2.4-.5.9-.8,1.8-.9,2.8,0,1,0,2,.3,3,.6,2,1.9,4,3.6,5.5,1.7,1.5,3.7,2.7,5.8,3.3.5.2,1.1.3,1.6.4.3,0,.6,0,.8.1.2,0,.5,0,.8,0,1,0,2.1,0,3.2-.4,2.2-.5,4.6-1.5,6.9-2.6,3.1-1.4,6.3-2.9,9.5-4.3-21.9,7.3-32.5-2.9-25.8-11.8h0Z"/>
    <path class="st16" d="M2077.2,801.5s0,0,0,0h0s0,0,0,0Z"/>
    <path class="st16" d="M2039.1,767.5c0,0-.2.2-.3.3-2.1,1.9-3.7,4.3-4.4,6.9-.8,2.6-.5,5.2.8,7.4s3.6,3.8,6.3,4.6c2.7.9,5.7,1.1,8.6,1,5.9-.2,11.9-1.7,18-3.2-30.2,6.8-33.8-7.2-29.1-17h0Z"/>
    <polygon class="st16" points="2118.5 786 2118.5 786 2118.5 786 2118.5 786"/>
    <path class="st16" d="M2118.5,786c-2.1-2.6-11.6-13-12.8-14-4.6-4.1-9.9-7.4-15.5-9.6-5.6-2.2-11.6-3.3-17.6-3.6-3-.1-6,0-9.1.3-3,.3-6,.8-9,1.4-.4,0-.9.2-1.3.3,31.6-2.2,40,6.6,65.2,25.1h0Z"/>
    <path class="st16" d="M2034.9,797.5c.3-1.7,1-3.4,2-4.8.6-.9,1.4-1.6,2.1-2.2-1.2-.4-2.4-1-3.6-1.7-1.6-1-3-2.3-4.1-4,0-.2-.2-.3-.3-.5,0,0,0,.1,0,.2,2.6,4.1,2.3,8.8,3.7,15,0-.7,0-1.3.2-2h0Z"/>
    <path class="st16" d="M2043.7,814.5c1.2.5,2.3.7,3.5.6-2.6-.9-5.1-2.3-7.1-4.3-.7-.7-1.4-1.5-2.1-2.3.5,1,1.1,2,1.7,3.1,1.2,1.3,2.6,2.3,4,2.9h0Z"/>
    <path d="M2108.1,842c.9-.6,1.8-1.2,2.7-1.9,3.6-2.7,7-5.8,9.9-9.4,2.9-3.6,5.5-7.6,7-12.2.8-2.3,1.3-4.7,1.4-7.2,0-1.2,0-2.5,0-3.7s0-.6-.1-.9c0-.3,0-.6-.2-.9-.2-.6-.3-1.2-.5-1.7-.8-2.2-1.6-4.4-2.7-6.4-.5-1-1.1-2-1.7-3-.5-.7-1-1.4-1.5-2,0,0-.1-.1-.2-.2-.1-.2-.3-.3-.4-.4.8,2.1,1.2,4.3,1.6,6.5.4,2.2.7,4.4.9,6.5,0,.5,0,1.1,0,1.6,0,.5.1,1,.1,1.5,0,1,0,2,0,3-.2,2-.6,4-1.3,5.8-1.4,3.8-3.6,7.3-6.3,10.5-2.7,3.2-5.8,6-9.1,8.4-3.4,2.5-6.9,4.6-10.7,6.3-3.7,1.7-7.6,3-11.6,3.5-1.9.3-3.9.3-5.7,0-1.8-.2-3.5-.8-4.8-1.8-1.3-1-2.2-2.3-2.7-4-.3-1.1-.5-2.4-.5-3.7.9-.3,1.7-.7,2.5-1.1,0,0,.1,0,.2,0,2.6-1.3,4.9-3.1,6.9-4.9,2.1-1.9,3.9-4,5.6-6.1l1.3-1.6,1.2-1.7c.8-1.1,1.5-2.3,2.2-3.5,0,0,0,0,0,0-2.2,1.6-4.3,3.3-6.4,4.9-2.1,1.6-4.2,3.2-6.4,4.7-4.3,2.8-8.7,5.3-13.3,5.3-2.2,0-4.4-.4-6.2-1.5-1.9-1-3.5-2.6-4.6-4.5-1.1-1.8-1.6-4-1.4-5.9.1-.9.5-1.8,1-2.6,0,0,.1-.2.2-.3.7-.5,1.3-1.1,1.9-1.7.1,0,.3,0,.4-.1.5-.2,1-.3,1.5-.5,2.2-.8,4.3-1.8,6.2-3,2.3-1.4,4.5-3,6.6-4.8,2.1-1.7,4.1-3.6,5.9-5.7h0s8.7-1.4,8.6-1.3c-1.7.6-12.1,2.6-13.7,3.2-3.3,1.4-6.4,2.9-9.5,4.3-2.3,1-4.6,2.1-6.9,2.6-1.1.3-2.2.4-3.2.4-.2,0-.5,0-.8,0-.3,0-.6,0-.8-.1-.6,0-1.1-.2-1.6-.4-2.2-.7-4.2-1.8-5.8-3.3-1.7-1.5-2.9-3.5-3.6-5.5-.3-1-.4-2-.3-3,0-1,.4-1.9.9-2.8.5-.9,1.2-1.7,2.1-2.4.7-.5,1.5-1,2.3-1.5.5,0,1,0,1.4,0,1.3,0,2.6,0,3.9-.2,6.5-.9,12.5-3.4,17.9-6.9,0,0-.1,0-.2,0-6.1,1.6-12.1,3-18,3.2-3,0-5.9-.1-8.6-1-2.7-.8-5-2.4-6.3-4.6-1.3-2.2-1.6-4.8-.8-7.4.7-2.6,2.4-5,4.4-6.9,0,0,.2-.2.3-.3,2-1.8,4.4-3.3,6.9-4.4,1.3-.6,2.7-1.1,4.1-1.5.7-.2,1.4-.4,2.2-.6.3,0,.6-.2.9-.2.4-.1.9-.2,1.3-.3,3-.7,6-1.1,9-1.4,3-.3,6-.4,9.1-.3,6,.2,12,1.3,17.6,3.6,5.6,2.2,10.9,5.4,15.5,9.6,1.1,1,2.3,2.1,3.4,3.2.6.5,2.2,2.3,2.4,2.5,0,0,12.1,24.4,12.4,24.4,0,0,4.1.5,4.1.5-1-3.1-12-22.8-13.7-25.5-.4-.7-.9-1.4-1.4-2.1-.5-.7-1-1.3-1.5-2-1-1.3-2.1-2.6-3.3-3.8-2.3-2.4-4.9-4.5-7.6-6.4-2.7-1.9-5.6-3.5-8.7-4.8s-6.2-2.3-9.4-3c-3.2-.7-6.4-1.1-9.7-1.2-3.2-.1-6.5,0-9.7.3-1.9.2,23.2-1.6-5.5.8s-27.6,17.5-27.6,17.5c0,.3-.2.6-.3.9-.4,1.4-.6,2.9-.5,4.5-.2.2-.4.4-.7.7-.6.7-1,1.4-1.3,2.1-.6,1.4-1,2.9-1.1,4.3-.3,2.8-.2,5.4.2,8,.8,5.2,2.4,10.1,4.8,14.7,1.2,2.3,2.6,4.5,4.3,6.5,1.7,2,3.8,3.9,6.4,5,1.3.6,2.7,1,4.2,1,.6,0,1.3,0,1.9,0-.2,1.4,0,2.9.2,4.2.4,1.7,1,3.3,1.8,4.7,1.6,2.9,4.1,5.2,6.9,6.7,2.8,1.5,6.1,2.1,9.1,1.8.3,0,.6,0,.9-.1,0,1.3.2,2.6.6,3.9.4,1.3.9,2.6,1.7,3.8.8,1.2,1.7,2.2,2.8,3.1,2.2,1.7,4.7,2.5,7.1,2.8.8.1-7-1.8,2.3.2s26.7-9.2,26.7-9.2h0ZM2035.3,805.2c-2.1-4-3.5-8.5-4.2-13-.3-2.2-.5-4.5-.2-6.6,0-.3,0-.7.2-1,0,0,0-.1,0-.2,0,.2.2.3.3.5,1.1,1.7,2.5,3,4.1,4,1.1.7,2.3,1.3,3.6,1.7-.8.6-1.5,1.4-2.1,2.2-1,1.4-1.7,3-2,4.8-.1.7-.2,1.3-.2,2,0,1.1.2,2.1.4,3.1.5,2.2,1.6,4.2,2.8,5.8.6.8,1.3,1.6,2.1,2.3,2.1,2,4.5,3.4,7.1,4.3-1.2,0-2.4-.1-3.5-.6-1.4-.6-2.8-1.7-4-2.9-.2-.3-.5-.5-.8-.8-1.4-1.6-2.6-3.5-3.7-5.6h0Z"/>
  </g>
  <g>
    <path d="M2296.3,26.6v.2c-.2,1.6-1.3,2.8-2.7,3.4,0,0,1-1.8,2.7-3.6h0Z"/>
    <path class="st16" d="M2304.5,39.6c.6-4.9-2.6-11.4-6.5-8.2,1.2-1.7,2.8-2.6,5-2.9,3-.3,7.7,1,9.2,4.9-.5,1-.9,2-1.2,3-1.2,4.1-1.5,8.1-1.5,12,0,4,.3,7.9,1.1,11.8s2.1,7.8,4.1,11.5c.5.8,1,1.6,1.6,2.4-1.7,3.1-3.7,4.8-5.4,4.7-.5,0-1.4-.2-2.6-1.1,2.1-7.5-4.3-33.4-3.7-38.3h0Z"/>
    <path class="st16" d="M2297.9,31.4c3.9-3.2,7.1,3.3,6.5,8.2-.6,4.9,5.8,30.8,3.7,38.3-2.1-1.6-5.1-5.4-8.2-14.4h0c-5-14.5-5.8-26-2.3-31.6,0-.2.2-.3.3-.5h0Z"/>
    <path class="st16" d="M2329.1,36.8c-.9-2.5-3.3-4.6-8.7-5,.3-.2.7-.3,1.1-.5,1.3-.5,2.8-.6,4.4-.4.8,0,1.6.2,2.4.5h0c.5,1.5,1.1,2.9,1.7,4.3-.3.3-.6.6-.9,1h0Z"/>
    <path class="st16" d="M2315.5,59.5c-.7-3.5-.9-7.2-.9-10.8,0-3.6.4-7.3,1.4-10.5.5-1.6,1.2-3.1,2.1-4.2.7-.8,1.4-1.5,2.2-2,5.4.3,7.8,2.5,8.7,5-.7,1.1-1,2.5-.6,3.9.2.7.4,1.4.7,2-.2,1-.5,1.6-.5,1.6-2.7-6-9.2-6.2-9.4-6.2,8.5,9,10.4,30.7,5.5,37.2-.9-.3-2-1-2.9-1.9-1.1-1.1-2.1-2.5-3-4-1.7-3-2.8-6.5-3.4-10h0Z"/>
    <path class="st16" d="M2327.3,49c-1.5-3.4.2-4.6,2.4-1.3.2.3.4.7.6,1,2.1,3.2-2.3,2-2,2.8-.3-.8-.6-1.7-1-2.5h0Z"/>
    <path class="st16" d="M2329.7,47.7c-1.7-2.5,1.4.9,1.5,1.5,0,.2-.2,0-.9-.5-.2-.3-.4-.7-.6-1h0Z"/>
    <path d="M2330,69.8c.8-3.3.9-6.8.4-10.4-.4-2.6-1.1-5.2-2-7.7h-.2c0,0,0-.2,0-.2h0c-.3-.8,4.1.5,2-2.8.7.5.9.6.9.5h.5c.2,1.2.4,2.5.9,3.5,0,0,0,.2.1.3,0,0,0,.1,0,.2.8,1.8,1.4,3.6,1.8,5.5.3,1.4.6,2.8.7,4.2h0c0,.1,0,.3,0,.4-.3,2.6-.3,5.4-.6,8-.5,1.9-1.3,3.9-2.6,5.7-.7,1-1.6,1.9-2.9,2.6-.8.4-1.7.7-2.5.8-.6,0-1.2,0-1.7,0-.4,0-.8-.2-1.2-.3-.2-2.2,3.4-3.3-1.7-.7-1.6.8-3.9,1.9-7.4,3.5-1.4.7-2.8.9-3.9.8-2.4-.1-4.8-1.4-7-3.8-2.3-2.5-4.5-6.2-6.5-11h0c-.5-2-1.3-3.8-2-5.6-1.3-3-2.7-6-3.1-9.4-.6-5-.8-5.5-1.2-14.8.4-2.7.4-2.6.7-4.2.6-1.7,1.3-3.3,2.1-4.8,1.4-.6,2.5-1.8,2.8-3.4v-.2c.2-.3.6-.6.9-1,1.5-.9,3.2-1.5,5-1.7,4.5-.5,9.8,1.2,12.7,5.3,1.2-1.2,2.8-2.3,4.5-2.9,2.3-.9,4.7-1,6.9-.8.2,0,.3,0,.5,0l.3.7c-.1,0-.2,0-.2.1.3,1.7.8,3.4,1.4,5h0c-.8-.2-1.6-.4-2.4-.5-1.6-.2-3.1,0-4.4.4-.4.1-.7.3-1.1.5-.8.5-1.6,1.1-2.2,2-.9,1.2-1.6,2.6-2.1,4.2-1,3.2-1.3,6.9-1.4,10.5,0,3.7.2,7.3.9,10.8s1.8,7,3.4,10c.8,1.5,1.8,2.9,3,4,.9.9,1.9,1.6,2.9,1.9.2,0,.4.1.7.2.5,0,1,0,1.3-.2.4-.2.9-.7,1.3-1.2.9-1.2,1.5-2.7,1.9-4.3h0ZM2302.9,28.5c-2.1.2-3.7,1.2-5,2.9-.1.2-.2.3-.3.5-3.5,5.6-2.7,17,2.3,31.5h0c3.1,9.1,6.1,13,8.2,14.6,1.2.9,2.1,1.1,2.6,1.1,1.8,0,3.7-1.6,5.4-4.7-.6-.8-1.1-1.6-1.6-2.4-2.1-3.6-3.3-7.5-4.1-11.5-.8-3.9-1.1-7.9-1.1-11.8,0-4,.3-8,1.5-12,.3-1,.7-2,1.2-3-1.6-4-6.2-5.3-9.2-4.9h0Z"/>
    <path class="st16" d="M2334.5,58.7c-.4-1.9-1.1-3.8-1.8-5.5,0,0,0-.1,0-.2.9,1.7,2.4,2.3,3.9,2.2-.6,2.7-1.2,5.4-1.5,7.8-.1-1.4-.3-2.9-.7-4.2h0Z"/>
    <path d="M1363.7,651.5c.3.7.6,1.3.8,2-.2.2-.4.3-.7.5,0-.8-.2-1.7-.2-2.5Z"/>
    <path class="st16" d="M2328.3,51.5h0c0,.1.2.2.2.2.9,2.5,1.6,5.1,2,7.7.5,3.5.5,7.1-.4,10.4-.4,1.6-1.1,3.2-1.9,4.3-.4.6-.9,1-1.3,1.2-.3.2-.8.2-1.3.2-.2,0-.4,0-.7-.2,4.9-6.5,3-28.1-5.5-37.2.2,0,6.7.2,9.4,6.2,0,0,.3-.6.5-1.6.6,1.3,1.2,2.5,2,3.6.2.9.3,1.8.5,2.7h-.5c-.1-.5-3.2-3.9-1.5-1.4-2.2-3.3-3.8-2.1-2.4,1.3.4.8.7,1.7,1,2.5h0Z"/>
  </g>
  <g>
    <path class="st16" d="M2341.7,69.6c-.5-10.6-4.6-28.1-4.1-32,.6-4.9-2.6-11.4-6.5-8.2,1.2-1.7,2.8-2.6,4.9-2.9,3-.3,7.7,1,9.2,4.9-.5,1-.9,2-1.2,3-1.2,4.1-1.5,8.1-1.5,12,0,4,.3,7.9,1.1,11.8.7,3.6,1.8,7.1,3.6,10.5-1.8.2-3.6.4-5.6.7h0Z"/>
    <path class="st16" d="M2330.8,29.9c0-.2.2-.3.3-.5,3.9-3.2,7.1,3.3,6.5,8.2-.5,3.9,3.6,21.4,4.1,32-1.6.2-3.2.4-4.8.6-1.2-2.2-2.5-5-3.8-8.7h0c-5-14.5-5.8-26-2.3-31.6h0Z"/>
    <path d="M2323.9,39.5c-.1-4.1.7-7.7,2.2-11,1.1-3.1,2.2-3.2,4.3-4.8,1.5-1,3.2-1.6,5.1-1.8,4.5-.5,9.8,1.2,12.7,5.3,1.2-1.2,2.8-2.3,4.5-2.9,2.3-.9,4.7-1,6.9-.8,1.1.1,2.2.3,3.2.6h.4c0,0,.4.2.4.2.3,0,.6.2.9.3.6.2,1.1.5,1.6.7,2,1.1,3.6,2.3,5.2,3.7.9.8,1.8,1.7,2.7,2.5-2.4-.3-4.9-.7-6.2.8-.1.2-.3.4-.4.6-1.2-1.1-2.6-2-3.9-2.8-.3-.2-.7-.3-1-.5-.2,0-.3-.1-.5-.2h-.2c0,0-.3-.2-.3-.2-.8-.2-1.6-.4-2.4-.5-1.6-.2-3.1,0-4.4.4-.4.1-.7.3-1.1.5h0c-.8.5-1.6,1.1-2.2,2-.9,1.2-1.6,2.6-2.1,4.2-.4,1.2-.7,2.5-.9,3.8-.2,1.5-.4,3.1-.5,4.7h0c0,.5,0,.9,0,1.4,0,.2,0,.5,0,.7,0,2.3,0,4.6.3,6.8,0,.5,0,.9.2,1.3.1.9.3,1.8.4,2.7,0,.5.2.9.3,1.4.6,2.6,1.4,5.2,2.6,7.5.2.4.4.7.6,1.1.2.3.3.6.5.9-1.6.2-3.4.4-5.4.6-1.7-3.3-2.8-6.9-3.6-10.5-.8-3.9-1.1-7.9-1.1-11.8,0-4,.3-8,1.5-12,.3-1,.7-2,1.2-3-1.6-4-6.2-5.3-9.2-4.9-2.1.2-3.7,1.2-4.9,2.9-.1.2-.2.3-.3.5-3.5,5.6-2.7,17,2.3,31.5h0c1.3,3.9,2.6,6.7,3.8,8.9-1.5.2-3.1.4-4.5.6-.5-.7-.9-1.4-1.4-2-.8-1.8-1.6-3.7-2.3-5.8h0c0-.1-1.2,0-1.2,0,.1.7.3,1.4.5,2.1-2.1-2.2-3.8-3.2-4.5-2.1,0,0-.2,0-.2.2h-.5c1.7-7.2,1.4-14.2,1.2-21.5,0-.8,0-1.6,0-2.3h0Z"/>
    <path d="M2353.5,29.9c.2,0,.3,0,.5,0-.2,0-.3,0-.5,0Z"/>
    <path d="M2354.6,30c.1,0,.3,0,.4,0-.1,0-.3,0-.4,0Z"/>
    <path d="M2355,30.1c.2,0,.3,0,.4,0-.2,0-.3,0-.4,0Z"/>
    <path class="st16" d="M2354.6,30c-.2,0-.4,0-.6,0-.2,0-.3,0-.5,0,.3-.2.7-.3,1.1-.5,1.3-.5,2.8-.6,4.4-.4.8,0,1.6.2,2.4.5h.3c0,0,.2.2.2.2.2,0,.3.1.5.2.3.1.7.3,1,.5,1.3.7,2.6,1.7,3.9,2.8-.5.9-1,2.4-1.5,4.2-.1,0-.2,0-.2.2,0,0,0,.2,0,.3,0-.1-.2-.3-.3-.4,0,.3.2.5.2.8-.5,2-1,4.5-1.5,7-.5.5-1.1.7-1.2.5-2.2-3.3-4.8-6.2-7.8-8.6l.2-.4c.5.2,1.1.4,1.7.7.2,0,.4.2.6.3.5.3,1.1.6,1.6,1,.1,0,.2.2.3.3.3.3.7.6,1,1,.1.1.2.3.3.4.4.6.8,1.2,1.2,2h0s0,0,0,0c0,0,0,0,0-.2.1-.3.3-.9.5-1.6,0-.2,0-.3.1-.5,0,0,0-.2,0-.3.2-1,.2-2.2,0-3.4-.3-2-1.3-3.9-3.8-5.2-.9-.5-2-.8-3.4-1-.2,0-.3,0-.4,0h0c-.1,0-.3,0-.4,0h0Z"/>
    <path class="st16" d="M2349.2,36.1c.5-1.6,1.2-3.1,2.1-4.2.7-.8,1.4-1.5,2.2-2h0c.2,0,.3,0,.5,0,.2,0,.4,0,.6,0,.1,0,.3,0,.4,0h0c.2,0,.3,0,.4,0,1.3.2,2.4.6,3.4,1,2.5,1.2,3.5,3.2,3.8,5.2.2,1.2.1,2.4,0,3.4,0,0,0,.2,0,.3,0,.2,0,.3-.1.5-.2.7-.4,1.3-.5,1.6,0,0,0,.1,0,.2,0,0,0,0,0,0h0c-.3-.8-.8-1.4-1.2-2-.1-.2-.2-.3-.3-.4-.3-.4-.6-.7-1-1,0,0-.2-.2-.3-.3-.5-.4-1-.8-1.6-1-.2-.1-.4-.2-.6-.3-.6-.3-1.2-.5-1.7-.7-1.4-.4-2.6-.5-2.7-.5h0c.1.2.3.3.4.5.3.3.6.7.8,1,4.8,6.3,7.1,16.8,6.9,25.1-.8,3.1-1.5,5.2-2.2,5.1-.6,0-2.8.1-5.8.4h0c-.2-.3-.3-.6-.5-.9-.2-.3-.4-.7-.6-1.1-1.2-2.3-2-4.9-2.6-7.5-.1-.5-.2-.9-.3-1.4-.2-.9-.3-1.8-.4-2.7,0-.5-.1-.9-.2-1.3-.2-2.3-.3-4.5-.3-6.8,0-.2,0-.5,0-.7,0-.5,0-.9,0-1.4h0c0-1.6.2-3.2.5-4.7.2-1.3.5-2.6.9-3.8h0Z"/>
    <path class="st16" d="M2352.4,36.3h0c.1.2.3.3.4.5-.1-.2-.3-.3-.4-.5Z"/>
    <path class="st16" d="M2352.4,36.3h0,0Z"/>
    <path class="st16" d="M2352.4,36.2c.2,0,1.3,0,2.7.5l-.2.4c2.1,3.2,3.9,6.5,5.4,9.9.4.8.7,1.7,1,2.5,0,0,0,0,0,.1h.2c.4,1.2.7,2.2,1,3.3-.7,3.7-1.3,7.1-2,9.8.2-8.3-2.1-18.8-6.9-25.1-.3-.3-.6-.7-.8-1-.1-.2-.3-.3-.4-.5h0,0Z"/>
    <path d="M2358.8,31.2c2.5,1.2,3.5,3.2,3.8,5.2-.3-2-1.3-3.9-3.8-5.2Z"/>
    <path class="st16" d="M2347.8,44.6c0-1.6.2-3.2.5-4.7-.2,1.5-.4,3.1-.5,4.7Z"/>
    <path class="st16" d="M2357.4,37.7c-.2-.1-.4-.2-.6-.3.2,0,.4.2.6.3Z"/>
    <path class="st16" d="M2359.3,39c0,0-.2-.2-.3-.3,0,0,.2.2.3.3Z"/>
    <path d="M2365.6,37.5c0-.1,0-.2.2-.2,0,.2,0,.4-.2.6,0,0,0,0,0,0,0-.1,0-.2,0-.3Z"/>
    <path d="M2365.3,37.4c0,.1.2.3.3.4,0,0,0,.2,0,.3,0,0,0,0,0,.1,0-.3-.2-.5-.2-.8h0Z"/>
    <path d="M2365.6,37.8s0,0,0,0c0,0,0,.1,0,.2,0,0,0-.2,0-.3h0Z"/>
    <path class="st16" d="M2365.5,38.2s0,0,0-.1v.2s0,0,0,0h0Z"/>
    <path d="M2362.5,39.7c.2-1,.2-2.2,0-3.4.2,1.2.1,2.4,0,3.4Z"/>
    <path d="M2360.6,40.4c-.1-.2-.2-.3-.3-.4.1.1.2.3.3.4Z"/>
    <path class="st16" d="M2347.8,46c0-.5,0-.9,0-1.4,0,.5,0,.9,0,1.4Z"/>
    <path d="M2362.4,40.5c0-.2,0-.3.1-.5,0,.2,0,.3-.1.5Z"/>
    <path class="st16" d="M2364,45.2c.5-2.5,1-5,1.5-7,0,0,0,0,0,0,0,1.6-.2,4.6-.5,5.6,0,0,0,0,0,0-.2.4-.6.9-1,1.2h0Z"/>
    <path d="M2365.8,40.8c0,1.1-.3,2.1-.8,3.1.3-1,.5-4,.5-5.6.2.8.3,1.7.2,2.5Z"/>
    <path d="M2361.9,42.3s0,0,0-.2c0,0,0,.1,0,.2Z"/>
    <path d="M2361.8,42.4h0Z"/>
    <path d="M2353.7,37.8c4.8,6.3,7.1,16.8,6.9,25.1h0c.2-8.3-2.1-18.8-6.9-25h0Z"/>
    <path d="M2361.2,72.2c.9-1.2,1.5-2.7,1.9-4.3.8-3.3.9-6.8.4-10.4-.2-1.5-.5-3-.9-4.5.4-2.2.8-4.5,1.3-6.8.4-.7.8-1.4,1.2-2.2,0,0,0,0,0,0,.4-1,.7-2,.8-3.1,0-.8,0-1.7-.2-2.5v-.2c0,0,0-.2,0-.2.6.8,1,1.8,1.3,2.8.3,1.2.4,2.5.3,3.8,0,1.3-.3,2.6-.7,3.8-.3,1-.6,1.9-.9,2.9.8,1.8,1.4,3.6,1.8,5.5.9,3.9,1.1,8.2.1,12.3-.5,2.1-1.3,4.1-2.7,6-.7,1-1.6,1.9-2.9,2.6-.8.5-1.7.7-2.5.8-.6,0-1.2,0-1.7,0-1.3-.2-2.5-.7-3.6-1.3-.6-.3-1.2-.8-1.7-1.2-3.2,5-6.6,6-9,5.8-2.4-.1-4.8-1.4-7-3.8-1.4-2.6-2.8-5-4.3-7.2,1.5-.2,3-.4,4.5-.6,1.7,3.1,3.2,4.8,4.4,5.7,1.2.9,2.1,1.1,2.6,1.1,1.8,0,3.7-1.6,5.4-4.7-.6-.8-1.1-1.6-1.6-2.4-.2-.3-.4-.7-.5-1,2-.2,3.8-.4,5.4-.6.3.4.6.9.8,1.3.5.7,1,1.3,1.6,1.9,0,0,0,0,0,0,0,0,.1.1.2.2.3.3.6.6,1,.8.1,0,.2.2.3.2h0c.1,0,.2.2.4.2.3.2.6.3.9.4h0c.2,0,.4.1.7.2.5,0,1,0,1.3-.2.4-.2.9-.7,1.3-1.2h0Z"/>
    <path d="M2362.8,45.8c.1.2.7,0,1.2-.5,0,.3-.1.7-.2,1l-.4.6c-.2-.3-.4-.7-.6-1h0Z"/>
    <path class="st16" d="M2348.2,54.8c0-.5-.1-.9-.2-1.3,0,.5,0,.9.2,1.3Z"/>
    <path d="M2355,37.2c3,2.4,5.6,5.3,7.8,8.6.2.3.4.7.6,1l.4-.6c-.4,2.2-.9,4.5-1.3,6.8-.3-1.1-.7-2.2-1-3.2h-.2c0,0,0-.2,0-.2-.3-.8-.6-1.7-1-2.5-1.5-3.4-3.3-6.7-5.4-9.9h0Z"/>
    <path class="st16" d="M2323.5,63.1c.7-1,2.4-.1,4.5,2.1.7,2.3,1.6,4.2,2.7,5.8-.4,0-.8.1-1.2.2-3.5-4.3-5.4-8.1-6.1-8.1h0Z"/>
    <path class="st30" d="M2323.2,63.3c0-.2.1-.2.2-.2-.2.3-.3.8-.3,1.6,0-.7,0-1.1.1-1.3Z"/>
    <path class="st30" d="M2321.3,67.9c.6-1.6,1.1-3.2,1.4-4.8h.5c0,.4-.1.8-.1,1.5v.2c0,2.8,0,5.2-.2,7.3-1.3.2-2.4.4-3.1.6,0-.8-.2-1.6-.4-2.3.8-.6,1.5-1.5,1.9-2.5h0Z"/>
    <path d="M2327.4,63.1l1.2-.2h0c.7,2.2,1.5,4.2,2.3,5.9-1.1-1.4-2.1-2.7-3-3.6-.2-.7-.4-1.4-.5-2.1h0Z"/>
    <path class="st30" d="M2323.1,64.7v.2-.2Z"/>
    <path class="st16" d="M2322.9,72.2c.2-2.1.3-4.6.2-7.3v-.2c0-.7.1-1.2.3-1.6.7,0,2.5,3.8,6.1,8.1-2.5.4-4.8.7-6.6,1Z"/>
    <path class="st16" d="M2348.7,57.5c-.2-.9-.3-1.8-.4-2.7.1.9.3,1.8.4,2.7,0,.5.2.9.3,1.4-.1-.5-.2-.9-.3-1.4Z"/>
    <path d="M2330.7,71.1c-1.1-1.7-2.1-3.6-2.7-5.8.9,1,1.9,2.2,3,3.6.3.7.7,1.4,1,2.1-.4,0-.8.1-1.2.2h0Z"/>
    <path d="M2295.8,77.3c0,0-.2,0-.2,0,0,0,.2,0,.3,0,0,0,0,0,0,0h0Z"/>
    <path d="M2317.6,71.4c.6-.2,1.2-.5,1.8-.9.2.8.3,1.5.4,2.3-.3,0-.6.2-.7.2-1,.4-2.1.9-3.1,1.4,1.4-1.6,1.8-2.4,1.7-3h0Z"/>
    <path d="M2331.9,70.9c-.3-.7-.7-1.3-1-2.1.5.6.9,1.3,1.4,2-.1,0-.3,0-.4,0Z"/>
    <path d="M2329.5,71.2c.4,0,.8-.1,1.2-.2,1.9,3,4.3,5.1,6,6.9-2.9-2-5.2-4.5-7.1-6.8Z"/>
    <path d="M2330.7,71.1c.4,0,.8-.1,1.2-.2,1.5,3,3.1,5.3,4.7,7.1-1.7-1.8-4-4-6-6.9h0Z"/>
    <path d="M2331.9,70.9c.1,0,.3,0,.4,0,1.4,2.1,2.9,4.6,4.3,7.2-1.7-1.8-3.2-4.1-4.7-7.1h0Z"/>
    <path class="st16" d="M2336.9,70.2c1.6-.2,3.2-.4,4.8-.6.1,2.6,0,4.8-.4,6.3-1.2-.9-2.8-2.6-4.4-5.7h0Z"/>
    <path d="M2360.6,62.8h0c0,3.8-.7,7.1-1.9,9.3,1.1-2.3,1.8-5.6,1.9-9.3h0Z"/>
    <path class="st16" d="M2352.1,67.5c-.2-.3-.4-.7-.6-1.1.2.4.4.7.6,1.1.2.3.3.6.5.9-.2-.3-.3-.6-.5-.9h0Z"/>
    <path class="st16" d="M2352.6,68.4h0c.3.4.6.9.8,1.3-.3-.4-.6-.8-.8-1.3Z"/>
    <path class="st16" d="M2353.5,69.6c-.3-.4-.6-.8-.8-1.3,3-.3,5.2-.5,5.8-.4.7,0,1.4-2,2.2-5.1,0,3.8-.7,7.1-1.9,9.3-.2.5-.5.9-.8,1.2h0c-.3,0-.6-.2-.9-.4-.1,0-.2-.1-.4-.2h0c-.1,0-.2-.2-.3-.2-.3-.2-.7-.5-1-.8,0,0-.1-.1-.2-.2,0,0,0,0,0,0-.6-.6-1.1-1.2-1.6-1.9h0Z"/>
    <path class="st16" d="M2341.3,75.9c.4-1.5.5-3.7.4-6.3,1.9-.2,3.8-.5,5.6-.7.2.3.3.7.5,1,.5.8,1,1.6,1.6,2.4-1.7,3.1-3.7,4.8-5.4,4.7-.5,0-1.4-.2-2.6-1.1h0Z"/>
    <path class="st16" d="M2355.1,71.6c0,0,.1.1.2.2,0,0-.1-.1-.2-.2Z"/>
    <path class="st16" d="M2356.3,72.5c.1,0,.2.2.3.2-.1,0-.2-.2-.3-.2Z"/>
    <path class="st16" d="M2357,73c-.1,0-.2-.1-.4-.2.1,0,.2.2.4.2Z"/>
    <path class="st16" d="M2357.9,73.4c.3-.4.5-.8.8-1.2,1.2-2.3,1.8-5.6,1.9-9.3.6-2.7,1.3-6.2,2-9.8.4,1.5.7,3,.9,4.5.5,3.5.5,7.1-.4,10.4-.4,1.6-1.1,3.2-1.9,4.3-.4.6-.9,1-1.3,1.2-.3.2-.8.2-1.3.2-.2,0-.4,0-.7-.2h0Z"/>
    <path class="st16" d="M2379.8,66.8c0,0,.1,0,.2,0,0,.5-.2.9-.2,1.4,0-.5,0-.9,0-1.4Z"/>
  </g>
  <g>
    <path class="st16" d="M2310.4,33.2s0,0,0,0c0,0,0,.1,0,.2,0,0,0-.2,0-.3h0Z"/>
    <path class="st16" d="M2318.7,31.7c.3-.2.7-.3,1.1-.5,1.3-.5,2.8-.6,4.4-.4.3,0,.7,0,1.1.2,0,0,0,.1-.1.2-.6.4-1.1.9-1.5,1.6-1.3-.5-2.8-.9-4.9-1h0Z"/>
    <path class="st16" d="M2309.8,34.9c-.2.5-.3.9-.5,1.4-1.2,4.1-1.5,8.1-1.5,12,0,4,.3,7.9,1.1,11.8.8,3.9,2.1,7.8,4.1,11.5,0,0,0,0,0,0-1.4-1.6-2.9-3.4-4.2-5.4-2.5-8-5.1-17.8-2.8-26.1.3-1.2.7-2.3,1.1-3.4,1.2-.3,2.1-1,2.6-2h0Z"/>
    <path class="st16" d="M2313.9,59.2c-.7-3.5-.9-7.2-.9-10.8,0-3.6.4-7.3,1.4-10.5.5-1.6,1.2-3.1,2.1-4.2.7-.8,1.4-1.5,2.2-2,2,.1,3.6.5,4.9,1-.2.4-.4.8-.5,1.2-.5,1.7-1,3.3-1.5,5-2.1-.9-4-.9-4-.9,1.2,1.2,2.2,2.8,3.2,4.4-.2,1.3-.4,2.7-.4,4,0,2.3,1.3,3.8,3,4.5l.9-.2c.2.9.4,1.8.6,2.7h0c1.8,8.7,1.3,17.9-1.6,21.7-.9-.3-2-1-2.9-1.9-1.1-1.1-2.1-2.5-3-4-1.7-3-2.8-6.5-3.4-10h0Z"/>
    <path class="st16" d="M2317.6,38s1.8,0,4,.9c-.3,1.2-.6,2.3-.8,3.5-.9-1.7-2-3.2-3.2-4.4h0Z"/>
    <path d="M2319.3,78.7c-.5-.3-1-.7-1.4-1,0,0,0,0,0,.1-.6-1.4-2.6-3.5-4.8-6,0,0,0,0,0,0-2.1-3.6-3.3-7.5-4.1-11.5-.8-3.9-1.1-7.9-1.1-11.8,0-4,.3-8,1.5-12,.1-.5.3-.9.5-1.4.3-.4.5-.9.6-1.4h0c0,0,0-.2,0-.2,0,0,0,0,0,0,0-.5.1-1,0-1.5,1-.7,1.6-1.7,1.9-2.9.3,0,.5-.1.7-.2,0,.1.2.2.3.4,1.2-1.2,2.8-2.3,4.5-2.9,2.3-.9,4.7-1,6.9-.8.2,0,.3,0,.5,0,0,.3,0,.6,0,.9.2,1.3.5,2.5.9,3.7-.4.3-.7.7-1,1-.4,0-.7-.1-1.1-.2-1.6-.2-3.1,0-4.4.4-.4.1-.7.3-1.1.5-.8.5-1.6,1.1-2.2,2-.9,1.2-1.6,2.6-2.1,4.2-1,3.2-1.3,6.9-1.4,10.5,0,3.7.2,7.3.9,10.8s1.8,7,3.4,10c.8,1.5,1.8,2.9,3,4,.9.9,1.9,1.6,2.9,1.9.2,0,.4.1.7.2.5,0,1,0,1.3-.2.4-.2.9-.7,1.3-1.2.9-1.2,1.5-2.7,1.9-4.3.2-.9.4-1.8.5-2.8h.2c.7,1.6,1.5,3.2,2.4,4.9.3.4.6.7.9,1-.5,1.4-1.1,2.7-2.1,4-.7,1-1.6,1.9-2.9,2.6-.8.4-1.7.7-2.5.8-.6,0-1.2,0-1.7,0-1.3-.2-2.5-.7-3.6-1.3,0,0-.2-.1-.3-.2h0Z"/>
    <path class="st16" d="M2323.2,75.2c2.9-3.8,3.4-13,1.6-21.7h0c1.1,4.7,2.4,9,4.2,13.3h-.2c-.1,1-.3,1.9-.5,2.8-.4,1.6-1.1,3.2-1.9,4.3-.4.6-.9,1-1.3,1.2-.3.2-.8.2-1.3.2-.2,0-.4,0-.7-.2h0Z"/>
  </g>
  <path d="M2329.3,28.2c0,1.7-1.3,3-3,3s-3-1.3-3-3,1.9-2.6,3.6-2.6,2.4,1,2.4,2.6Z"/>
  <path class="st16" d="M2373.5,41.1h-9.7c0,0,1.5-8.2,2.7-8.4s7,8.4,7,8.4Z"/>
  <g>
    <line class="st13" x1="2368.1" y1="29.2" x2="2376" y2="41.8"/>
    <polygon points="2373 43.7 2365.1 31 2371.1 27.3 2382.3 44 2373 43.7"/>
  </g>
  <g>
    <path d="M2328,203.3c.6.2,1.3.3,1.9.5,3.3.8,5.7,1.8,7.6,2.9,1.8.9,1.5,1.4,1.6,2.5,0,.8-.4,1.7-1.1,2.7-1.8,2.4-5.9,5.5-10.6,7.2.4.8.4,1.8,0,2.9-.3,1-.9,2.1-1.7,3.2-2.4,1.1-4.9,2.3-7.3,3.5,0,0,0,0,.1-.1l.2-.2.2-.2c.6-.6,1.1-1.2,1.6-1.8.9-1.2,1.6-2.2,1.9-3.2,0-.3.1-.5.1-.8,0-.6-.1-1.1-.4-1.6-.5-.7-1.3-1.3-2.3-1.8-2-1-4.8-1.8-7.6-2.4-2.9-.8-5.9-1.4-9-1.8-3.1-.5-6.4-.7-9.6-.3-.3,0-.6,0-.9.1.7-1.4,1.4-2.9,2.2-4.6,3.5-.2,6.9.2,10.1.8,3.5.5,6.8,1.3,9.9,2.2,3.1.8,6.2,1.6,8.8,2.8.7.3,1.3.6,1.8,1,3.9-.7,7.3-3.4,8.5-5.1.9-1.2.9-2.1.2-2.9,0,0-.1-.1-.2-.2-2.7-2.6-12.1-4.6-26-6.1,0,0,0,0-.1,0-3.6-.5-6.5-.8-8.8-.8.6-1.2,1.2-2.3,1.8-3.4.8,0,1.6,0,2.3,0,1.8.2,3.7.5,5.7.9h.1s.4-.8.4-.8c-.7-.2-1.3-.4-1.9-.5,2.8-.4,4.4-1,3.9-1.8,0,0,0-.1,0-.2l.3-.2c4.7,3.6,10.4,5.8,16.3,7.6h0Z"/>
    <path class="st16" d="M2334.2,209.1c.7.8.7,1.7-.2,2.9-1.2,1.7-4.6,4.3-8.5,5.1-.6-.4-1.2-.7-1.8-1-2.6-1.3-5.7-2.1-8.8-2.8-3.1-.9-6.4-1.6-9.9-2.2-3.2-.6-6.6-.9-10.1-.8.7-1.5,1.5-3,2.3-4.5,8.7,3.3,24.5,5,27.3,5.9,3.6,1,10.3-.2,9.7-2.6h0Z"/>
    <path class="st16" d="M2334.2,209.1c.6,2.3-6.2,3.5-9.7,2.6-2.8-.9-18.7-2.6-27.3-5.9.6-1.3,1.3-2.5,1.9-3.8,2.3,0,5.2.3,8.8.8,0,0,0,0,.1,0,13.9,1.5,23.3,3.5,26,6.1,0,0,.1.1.2.2h0Z"/>
    <path class="st16" d="M2322.5,223.3c-.3.9-.9,2-1.9,3.2-.5.6-1,1.2-1.6,1.8l-.2.2-.2.2s0,0-.1.1c-2.1,1.1-4.2,2.3-6.3,3.5-.5-.3-1.2-.5-2-.8.2,0,.3-.2.5-.2-.3,0-.5.1-.8.2-1.5-.6-3.4-1.3-5.4-2.1,0-.1-.2-.2-.3-.4.4-.1.7-.3,1.1-.4,3.7-1.4,7.3-3.2,10.7-5.2l.2.2c-.5.5-1.2,1-1.9,1.6h0c-.1,0-.2.2-.4.3h0c-.1,0-.3.2-.4.3q0,0,0,0c-.1,0-.3.2-.4.3-.1,0-.3.2-.4.3-.2.1-.4.3-.7.4-.3.2-.6.3-1,.5-.2.1-.5.2-.8.3h0c-.2,0-.3.1-.5.2,0,0-.2,0-.3,0-.2,0-.4.1-.6.2-.2,0-.4.1-.6.2h0c.2.1,5.3,3.4,11.3-2.4.2-.2.4-.3.6-.5.7-.7,1.5-1.6,2.2-2.5,0,.2,0,.5-.1.8h0Z"/>
    <path class="st16" d="M2322.2,221c.3.5.5,1,.4,1.6-.8,1-1.5,1.8-2.2,2.5-.2.2-.4.4-.6.5-6,5.8-11.1,2.5-11.3,2.4h0c.2,0,.4-.1.6-.2.2,0,.4-.1.6-.2,0,0,.2,0,.3,0,.2,0,.3-.1.5-.2h0c.3-.1.5-.2.8-.3.3-.2.7-.3,1-.5.2-.1.5-.3.7-.4.2,0,.3-.2.4-.3s.3-.2.4-.3q0,0,0,0c.1,0,.3-.2.4-.3h0c.1,0,.2-.2.4-.3h0c2.3-1.8,3.6-3.5,3.7-3.6h0c-7.6,3.6-18.1,4.1-25.1,1.8h0c-2.1-1.5-3.3-2.8-3-3.4.3-.5,1.3-2.5,2.6-5.1.3,0,.6,0,.9-.1,3.2-.4,6.5-.2,9.6.3,3.1.4,6.2,1,9,1.8,2.8.7,5.6,1.4,7.6,2.4,1,.5,1.8,1.1,2.3,1.8h0Z"/>
    <path class="st16" d="M2320.4,225.1c-.2.2-.4.4-.6.5.2-.2.4-.3.6-.5Z"/>
    <polygon class="st16" points="2318.1 221.5 2318.1 221.5 2318.1 221.5 2318.1 221.5"/>
    <path d="M2318.1,221.5h0c0,0-1.3,1.8-3.7,3.6.7-.6,1.4-1.1,1.9-1.6,1.1-1.1,1.7-1.9,1.8-2Z"/>
    <path class="st16" d="M2293.1,223.3c7,2.3,17.5,1.8,25.1-1.8,0,0-17.3,5.7-18.3,5.7h0c-2.6-1.3-5-2.7-6.8-3.9h0Z"/>
    <path d="M2314.5,225c-.1,0-.2.2-.4.3.1,0,.2-.2.4-.3Z"/>
    <path d="M2314.1,225.3c-.1,0-.3.2-.4.3.1,0,.3-.2.4-.3Z"/>
    <path d="M2313.7,225.6c-.1,0-.3.2-.4.3.1,0,.3-.2.4-.3Z"/>
    <path d="M2312.9,226.2"/>
    <path d="M2310.8,231.2c-.2,0-.3.2-.5.2,0,0-.2,0-.2,0,.2,0,.5,0,.8-.2Z"/>
    <path d="M2310,231.4c0,0,.2,0,.2,0-.9.4-1.9.8-2.9.9-1.1.2-2.2.2-3.2,0-1-.2-1.8-.6-2.7-1-.6-.3-1.2-.7-1.8-1.2-1.8.4-3.6.6-5.3.7-3.6,0-7-.8-9.8-2.8-1.4-1.1-2.6-2.5-3.4-4.5-.4-1-.7-2.2-.6-3.7,0-.9.3-1.8.7-2.6.2-.6.6-1.1.9-1.6.8-1.2,1.8-2,2.8-2.7.6-.4,1.2-.7,1.8-1-2.3-4.8-1.4-8.2,0-10.1,1.3-1.9,3.5-3.1,6.5-3.6,2.7.2,5.4.3,7.8.2-.6,1.1-1.2,2.2-1.8,3.4-3.3,0-5.4.3-6.7.8-1.3.5-1.9,1.2-2.2,1.5-1,1.4-.6,3.7,1,6.3.9-.2,1.8-.3,2.7-.3.3,0,.7,0,1,0-.8,1.6-1.6,3.2-2.2,4.6-1.3.2-2.5.5-3.7,1-1.2.5-2.2,1.1-3,1.8-.2.2-.3.3-.5.5-.3.5-.5.9-.5,1.2,0,.4,0,1,.3,1.6.5,1.2,1.4,2.3,2.5,3.1,2.2,1.7,5,2.6,8,3,1.3.1,2.7.1,4,0h0c1.6.7,3.2,1.4,4.7,2.1.3.5.7.9,1.2,1.2.6.5,1.3.8,2.1.9.6,0,1.4,0,2.2,0h0Z"/>
    <path d="M2305.4,228.5c-.4.1-.7.3-1.1.4,0,.1.2.2.3.4-1.5-.7-3.2-1.3-4.7-2.1,1,0,3.2-.5,3.2-.5,0,0,6,.4,2.3,1.8h0Z"/>
    <path d="M2310.5,227.4c.3-.1.5-.2.8-.3-.2.1-.5.2-.8.3Z"/>
    <path d="M2309.1,227.9c.2,0,.4-.1.6-.2-.2,0-.4.1-.6.2Z"/>
    <path class="st16" d="M2310,231.4c-.8.1-1.5.2-2.2,0-.8-.1-1.5-.5-2.1-.9-.4-.3-.8-.8-1.2-1.2,2,.8,3.9,1.5,5.4,2.1h0Z"/>
    <path d="M2308.5,228.1h0Z"/>
    <path class="st30" d="M2311.7,195.8l-.3.2c-.2-.2-.5-.3-1-.6,0,0-.1,0-.2,0-2.2-1.2-4.1-2.3-5.7-3.5.5-.9.9-1.7,1.1-2.2.7.3,1.3.7,2,.9,0,.8.4,1.6,1,2.3,1,1,2,2,3,2.9h0Z"/>
    <path class="st16" d="M2311.5,196.2c.5.8-1.1,1.4-3.9,1.8-2.1-.5-4.1-.7-6-.7.2-.3.3-.6.4-.8,5.2-.3,9.1.2,9.5-.3h0Z"/>
    <path class="st30" d="M2311.4,196c0,0,.1.2,0,.2-.2-.3-.5-.5-1.1-.8.5.3.9.5,1,.6h0Z"/>
    <path class="st16" d="M2310.4,195.4c.6.3.9.6,1.1.8-.3.4-4.3,0-9.5.3,1-1.8,1.9-3.4,2.5-4.7,1.6,1.2,3.4,2.3,5.7,3.5,0,0,.1,0,.2,0h0Z"/>
    <path d="M2309.5,198.6l-.4.8h-.1c-2-.4-3.9-.7-5.7-.9,1.6,0,3.1-.2,4.4-.4.6.2,1.3.3,1.9.5Z"/>
    <path class="st30" d="M2310.4,195.4c0,0-.1,0-.2,0,0,0,.1,0,.2,0Z"/>
    <path class="st16" d="M2293.1,223.3c1.8,1.2,4.2,2.6,6.8,3.9-1.4,0-2.7,0-4,0-3-.3-5.8-1.3-8-3-1.1-.9-2-2-2.5-3.1-.2-.6-.3-1.2-.3-1.6,0-.3.2-.8.5-1.2.1-.2.3-.4.5-.5.9,2.2,3.5,4.2,7,5.6h0Z"/>
    <path d="M2301.5,197.3c1.9,0,3.9.2,6,.7-1.2.2-2.7.3-4.4.4-.7,0-1.4-.2-2.1-.2.2-.3.3-.6.5-.9Z"/>
    <path d="M2314.1,175.2c0,0,.1,0,.2,0,0,0-.1,0-.2,0h0Z"/>
    <path d="M2307.8,189.2c-.2.5-.2.9-.2,1.5-.7-.3-1.4-.6-2-.9,0-.2.2-.4.2-.5.2-.8.3-1.7.5-2.5.5,1.6,1,2.2,1.6,2.5h0Z"/>
    <path d="M2301.1,198.2c.7,0,1.4.1,2.1.2-.7,0-1.5,0-2.3,0,0-.1.1-.2.2-.3Z"/>
    <path d="M2302,196.5c-.2.3-.3.5-.4.8-3.3,0-6.2.6-8.4,1,3.1-1.1,6.2-1.6,8.9-1.8h0Z"/>
    <path d="M2301.5,197.3c-.2.3-.3.6-.5.9-3.1-.3-5.8-.3-8,0,2.3-.4,5.1-1,8.4-1Z"/>
    <path d="M2301.1,198.2c0,.1-.1.2-.2.3-2.4,0-5.1,0-7.8-.2,2.2-.4,4.9-.4,8,0h0Z"/>
    <path class="st16" d="M2299.1,202c-.6,1.2-1.3,2.5-1.9,3.8-2.1-1-3.8-1.9-4.8-2.9,1.3-.5,3.5-.9,6.7-.8h0Z"/>
    <path d="M2293.1,223.3h0Z"/>
    <path class="st16" d="M2293.1,223.3c-3.5-1.4-6.1-3.4-7-5.6.7-.7,1.8-1.4,3-1.8,1.2-.5,2.4-.8,3.7-1-1.3,2.7-2.2,4.6-2.6,5.1-.4.6.9,1.8,3,3.4h0Z"/>
    <path class="st16" d="M2297.2,205.7c-.8,1.5-1.5,3.1-2.3,4.5-.3,0-.7,0-1,0-.9,0-1.8.2-2.7.3-1.6-2.7-2-5-1-6.3.2-.4.9-1,2.2-1.5,1,1,2.7,2,4.8,2.9h0Z"/>
  </g>
  <g>
    <path d="M2302.3,183.9c.5-.2,1-.3,1.5-.4,0,0,0,0,0-.1,1.4.5,4,.4,7.2.5,0,0,0,0,0,0,3.9.8,7.6,2.2,11.1,3.8,3.5,1.5,6.8,3,9.9,4.6,3.1,1.4,6.2,2.8,8.8,4.5.3.2.6.4.9.5.2.2.5.4.8.6h0s0,0,.1,0h0c.3.1.7.3,1.1.3,0,.5.6,1,1.3,1.3,0,.1-.2.2-.2.3-.1,0-.3,0-.4,0,.4.7.4,1.5,0,2.4-.5,1.2-1.6,2.4-2.8,3.5,0,0-.2.2-.3.2-.2,0-.5,0-.7,0-1.1,0-2.2,0-3.4.2,0-.2-.2-.5-.3-.7.2-.2.4-.4.7-.6.9-.8,1.6-1.6,1.9-2.4,0-.2.1-.4.1-.6,0-.5-.1-1-.4-1.5-.5-.7-1.3-1.3-2.3-2-2-1.3-4.8-2.6-7.6-3.8-2.9-1.4-5.9-2.7-9-3.9-3.1-1.3-6.4-2.3-9.6-2.9-1.6-.3-3.2-.4-4.7-.2-1.2.1-2.2.5-2.9,1-.2.1-.3.3-.5.4-.3.3-.5.8-.5,1.1,0,.4,0,1,.3,1.7.5,1.3,1.4,2.6,2.5,3.7.6.6,1.2,1.2,1.9,1.7v.2c-1.7-.2-3.4-.4-5.2-.6-.4,0-.8,0-1.2.2-.8-1.1-1.6-2.4-2.1-3.8-.4-1.1-.7-2.4-.6-3.8,0-.9.3-1.7.7-2.5.2-.5.6-1,.9-1.3.8-.9,1.8-1.5,2.8-1.9,0,0,.2,0,.3,0h0Z"/>
    <path class="st16" d="M2342.7,198h0s0,0-.1,0c0,0,.1,0,.2,0Z"/>
    <path class="st16" d="M2339.6,202.7c-.3.7-1,1.5-1.9,2.4-.2.2-.4.4-.7.6,0,0,0,0,0,0,0-.4-.2-.7-.5-1.1,1.1-.6,2.2-1.4,3.3-2.4,0,.2,0,.4-.1.6h0Z"/>
    <path class="st16" d="M2341.7,197.3c-.3-.2-.6-.4-.9-.5-2.6-1.7-5.7-3.1-8.8-4.5-3.1-1.6-6.4-3.2-9.9-4.6-3.5-1.6-7.2-3-11.1-3.8,0,0,0,0,0,0,2,0,4.2.2,6.4.6,7.5,2.8,16.6,6,22,9.8.8.5,1.5,1,2.1,1.4-.3.6-.2,1.1.2,1.6h0Z"/>
    <path class="st16" d="M2322.2,200l-.3.6c-.8-.2-1.6-.4-2.4-.5h0c-7.8-2.2-14.8-6.9-16.3-11.2.7-.5,1.8-.9,2.9-1,1.4-.2,3,0,4.7.2,3.2.5,6.5,1.6,9.6,2.9,3.1,1.2,6.2,2.5,9,3.9,2.8,1.2,5.6,2.5,7.6,3.8,1,.6,1.8,1.3,2.3,2,.3.5.5,1,.4,1.5-1.1,1-2.2,1.8-3.3,2.4-.2-.2-.4-.3-.7-.5-1.1-.6-2.1-1.2-3.2-1.8,1.8-1,2.7-1.9,2.7-1.9-1.6.3-3.3.5-5.1.6-.9-.5-1.9-1-3-1.4-1.8-.8-3.6-.5-5,.4h0Z"/>
    <path class="st16" d="M2335.3,200.3s-.9,1-2.7,1.9c-.8-.4-1.5-.9-2.3-1.3,1.8,0,3.5-.3,5.1-.6h0Z"/>
    <path class="st16" d="M2319.5,200h0c-4.3-1-8.3-1.8-12.7-2.3v-.2c-.7-.5-1.3-1.1-1.9-1.7-1.1-1.1-2-2.5-2.5-3.7-.2-.6-.3-1.3-.3-1.7,0-.3.2-.7.5-1.1.1-.1.3-.3.5-.4,1.6,4.3,8.6,9,16.3,11.1h0Z"/>
  </g>
  <g>
    <path class="st11" d="M968.8,717.7l44,53.1c6.3,7.6,6.2,19.7-.3,27.1h0c-6.4,7.4-16.7,7.3-23-.3l-44-53.1c-6.3-7.6-6.2-19.7.3-27.1h0c6.4-7.4,16.7-7.3,23,.3Z"/>
    <path class="st12" d="M941.6,712.6l49.7,37.5c7.1,6.5,8.3,18.5,2.8,26.9h0c-5.5,8.3-15.7,9.8-22.8,3.3l-49.7-45.7c-7.1-6.5-8.3-18.5-2.8-26.9h0c5.5-8.3,15.7-1.7,22.8,4.8Z"/>
    <path class="st11" d="M968,758.8l-49.1-38.4c-7-6.6-17.2-13.5-22.8-5.2s-4.5,20.3,2.5,26.9l2.4,2.3c3.7-1.2,7.5-2.1,11.4-2,8.9.1,13.8,6.1,14.6,14.6.6,6.4-9.4,6.4-10,0-.1-1.4-.6-2.4-1.2-3.1-.2,1.1-.8,2.2-1.7,3l33.6,31.8c7,6.6,17.2,5.3,22.8-2.9,5.6-8.2,4.5-20.3-2.5-26.9Z"/>
  </g>
  <path class="st6" d="M881.2,794.5c-23.7-23.9-4.4-62.4,33.3-67,4.8-.6,9.1-1,12.3-.9l177.5-18.2c22-.7,72-12,38.8,23.4-11.7,12.4,11.1,38.2,4.9,52.8-6.4,15.1-212.2,34.1-247.1,22.9-7.1-2.3-13.7-7-19.8-13.1h0Z"/>
  <polygon class="st16" points="1134.2 734.7 1134.2 734.7 1134.2 734.7 1134.2 734.7"/>
  <g>
    <path class="st16" d="M1225.2,746.2c.9-2.2,1.5-4.7,1.5-7.3,0-1.2-.1-2.5-.4-3.7-.1-7.4-1.6-12.7,0-18,.2.4.3.7.4,1.1.8,2.3,1.3,5,1.5,7.6.5,5.3,0,10.8-1,15.9-.6,2.5-1.3,5-2.4,7.2-.2.4-.4.7-.6,1.1.4-1.3.7-2.7,1-3.9h0Z"/>
    <path class="st16" d="M1212,728.6c.5-.1,1-.2,1.5-.4,1,.3,1.9.7,2.8,1.2,1.1.6,2.1,1.4,2.8,2.3.8.9,1.3,1.9,1.7,3,.4,1.1.5,2.3.4,3.5-.1,2.5-1,5-2.3,7.1-1.3,2.1-3.1,3.9-5.2,5.1-.5.3-1,.6-1.6.8-.3.1-.6.2-.8.3l-.8.2c-1,.3-2.2.3-3.5.3-2.5-.1-5.1-.8-7.8-1.5-3.6-1-7.3-2.1-11-2.9,24.7,3.8,33.1-10.2,23.7-19h0Z"/>
    <path class="st16" d="M1135.7,737.4c1.5-3.4,8.8-17.4,9.7-18.8,3.7-5.7,8.4-10.6,13.6-14.3,5.3-3.7,11.2-6.3,17.4-7.8,3.1-.8,6.3-1.3,9.5-1.6,3.2-.3,6.5-.4,9.7-.2.5,0,.9,0,1.4,0-33.4,4.1-39.9,16-61.3,42.7h0Z"/>
    <path class="st16" d="M1225.5,732.9c-.7-1.9-1.9-3.7-3.3-5.1-.9-.9-1.8-1.6-2.8-2.1,1.2-.7,2.3-1.6,3.3-2.7,1.4-1.5,2.5-3.3,3.2-5.5,0-.2.1-.4.2-.6,0,0,0,.2.1.2-1.6,5.3,0,10.7,0,18-.2-.8-.4-1.5-.7-2.3h0Z"/>
    <path class="st16" d="M1220.8,754.4c-1.1.8-2.2,1.3-3.5,1.5,2.5-1.6,4.7-3.8,6.3-6.5.6-1,1.1-2,1.5-3.1-.3,1.2-.6,2.5-1,3.9-.9,1.7-2.1,3.2-3.4,4.2h0Z"/>
    <g>
      <path class="st16" d="M1135.6,737.4h0c21.4-26.7,27.9-38.6,61.3-42.7.4,0,.7,0,1.1,0,.8,0,1.7,0,2.4.2,1.6.2,3.1.4,4.7.8,2.9.7,5.8,1.9,8.3,3.6,7.4,10.3,7.4,27.2-25.8,25.7,0,0-.1,0-.2,0,6.5,2.8,13.4,4.5,20.4,4.2,1.4,0,2.8-.3,4.1-.5,9.4,8.8,1,22.9-23.7,19-1.8-.4-3.7-.8-5.6-1.1,0,0,0,0-.1,0h0s0,0,0,0c2.5,2,5,3.7,7.6,5.3,2.6,1.5,5.3,2.9,8.1,4.1,2.3.9,4.7,1.7,7.3,2.2,5.3,4.5,6.3,12-1.3,15.7-9.7,4.7-31.5-5.8-32.6-6.3,0,0,0,0,0,0,1,1.2,2.1,2.5,3.2,3.6l1.7,1.7,1.7,1.6c2.3,2.1,4.8,4.1,7.4,5.9,2.6,1.7,5.4,3.2,8.5,4.2,0,0,.2,0,.2,0-.7,7.8-13.3,10.3-25.7,4.7-27.6-12.5-34.4-28.8-33.5-47.9,0,.2-.9,1.5-1.6,4.1,0,0,0,.2-.1.3.6-2.8,1.4-5.7,2.3-8.7,0,0,0,.2,0,.3h0s0,0,0,0Z"/>
      <path class="st16" d="M1168.6,789.3c12.3,5.6,25,3.1,25.7-4.7.9.3,1.9.6,2.9.8.3,1.5.5,3,.4,4.4,0,2.1-.7,3.8-1.8,5.2-1.1,1.4-2.7,2.4-4.6,3-1.8.7-3.9,1-6,1.1-4.2.2-8.6-.5-12.9-1.6-4.3-1.2-8.6-2.8-12.7-5-4.1-2.1-8.1-4.7-11.7-7.8-3.6-3.1-6.8-6.7-9.2-10.8-1.2-2.1-2.2-4.2-2.9-6.5-.3-1.1-.6-2.3-.8-3.4-.1-.6-.1-1.2-.3-1.7s-.2-1.2-.3-1.8c-.4-2.5-.5-5.1-.7-7.7-.1-2.6-.3-5.2,0-7.8-.1.2-.2.4-.3.6.8-2.7,1.5-4,1.6-4.1-.9,19,5.8,35.4,33.5,47.9h0Z"/>
      <path class="st16" d="M1204.2,773.7c7.6-3.6,6.6-11.2,1.3-15.7.5,0,1.1.2,1.6.3.2,0,.3,0,.5,0,.8.5,1.6,1.1,2.5,1.5.1,0,.2.2.3.3.7.8,1.3,1.7,1.7,2.8.7,2.1.8,4.7,0,7.1-.6,2.4-1.9,4.6-3.6,6.1-1.7,1.6-3.8,2.6-6.1,3-4.8.9-10-1-15.2-3.3-2.6-1.2-5.2-2.6-7.8-4-2.6-1.4-5.2-2.9-7.9-4.3,1.1.5,22.9,11,32.6,6.3h0Z"/>
      <path class="st16" d="M1182.6,746.5s0,0,0,0h0s0,0,.1,0Z"/>
      <path class="st16" d="M1213.5,699.3c.1,0,.3.2.4.2,2.6,1.8,5,4.2,6.4,7,1.4,2.8,1.9,5.9,1.1,8.7-.8,2.8-2.8,5.1-5.4,6.6-2.6,1.6-5.6,2.5-8.7,3-6.2,1-12.9.6-19.6,0,33.2,1.5,33.3-15.4,25.8-25.7h0Z"/>
      <path d="M1191.1,804.6c9.2-4.2,1.5-.4,2.3-.7,2.4-.9,4.8-2.4,6.7-4.8.9-1.2,1.7-2.6,2.1-4.1.5-1.5.7-3.1.8-4.7,0-1.6-.1-3.1-.4-4.6.3,0,.6,0,1,0,3.3-.4,6.5-1.7,9-4,2.6-2.3,4.5-5.5,5.5-9.2.5-1.8.7-3.8.6-5.8,0-1.6-.3-3.3-.9-4.9.7,0,1.4-.2,2-.3,1.5-.4,2.9-1.1,4.1-2.1,2.4-1.9,4.1-4.5,5.4-7.2,1.3-2.7,2.2-5.5,2.8-8.4,1.3-5.8,1.7-11.8,1.2-17.9-.3-3.1-.8-6.2-1.8-9.3-.5-1.6-1.2-3.2-2.3-4.7-.5-.8-1.2-1.5-1.9-2.1-.3-.2-.6-.4-.9-.6-.3-1.8-.9-3.5-1.7-5-.2-.3-.4-.7-.5-1,0,0-2.7-17.7-33.2-14.3-30.5,3.4-4,.1-5.9.3-3.4.3-6.8.9-10.2,1.7-3.3.8-6.6,1.9-9.8,3.4-3.1,1.5-6.2,3.3-9,5.4-2.8,2.1-5.4,4.6-7.8,7.3-2.4,2.7-4.5,5.8-6.3,9-.9,1.6-1.7,3.3-2.4,5-.4.9-.7,1.7-1,2.6-.3.9-.6,1.8-.9,2.7-1,3.5-7.4,28.6-7.6,32.3,0,0,4-1.4,4.1-1.4.3,0,6.6-30.7,6.6-30.7.2-.4,1.5-2.7,1.9-3.5.9-1.5,1.8-3,2.7-4.4,3.7-5.7,8.4-10.6,13.6-14.3,5.3-3.7,11.2-6.3,17.4-7.8,3.1-.8,6.3-1.3,9.5-1.6,3.2-.3,6.5-.4,9.7-.2.5,0,.9,0,1.4,0,.4,0,.7,0,1.1,0,.8,0,1.7,0,2.4.2,1.6.2,3.1.4,4.7.8,2.9.7,5.8,1.9,8.3,3.6.1,0,.3.2.4.2,2.6,1.8,5,4.2,6.4,7,1.4,2.8,1.9,5.9,1.1,8.7-.8,2.8-2.8,5.1-5.4,6.6-2.6,1.6-5.6,2.5-8.7,3-6.2,1-12.9.6-19.6,0,0,0-.1,0-.2,0,6.5,2.8,13.4,4.5,20.4,4.2,1.4,0,2.8-.3,4.1-.5.5-.1,1-.2,1.5-.4,1,.3,1.9.7,2.8,1.2,1.1.6,2.1,1.4,2.8,2.3.8.9,1.3,1.9,1.7,3,.4,1.1.5,2.3.4,3.5-.1,2.5-1,5-2.3,7.1-1.3,2.1-3.1,3.9-5.2,5.1-.5.3-1,.6-1.6.8-.3.1-.6.2-.8.3l-.8.2c-1,.3-2.2.3-3.5.3-2.5-.1-5.1-.8-7.8-1.5-3.6-1-7.3-2.1-11-2.9-1.8-.4-3.7-.8-5.6-1.1,0,0,0,0,0,0,0,0,0,0,0,0,2.5,2,5,3.7,7.6,5.3,2.6,1.5,5.3,2.9,8.1,4.1,2.3.9,4.7,1.7,7.3,2.2.5,0,1.1.2,1.6.3.2,0,.3,0,.5,0,.8.5,1.6,1.1,2.5,1.5.1,0,.2.2.3.3.7.8,1.3,1.7,1.7,2.8.7,2.1.8,4.7,0,7.1-.6,2.4-1.9,4.6-3.6,6.1-1.7,1.6-3.8,2.6-6.1,3-4.8.9-10-1-15.2-3.3-2.6-1.2-5.2-2.6-7.8-4-2.6-1.4-5.2-2.9-7.9-4.3,0,0,0,0,0,0,1,1.2,2.1,2.5,3.2,3.6l1.7,1.7,1.7,1.6c2.3,2.1,4.8,4.1,7.4,5.9,2.6,1.7,5.4,3.2,8.5,4.2,0,0,.2,0,.2,0,.9.3,1.9.6,2.9.8.3,1.5.5,3,.4,4.4,0,2.1-.7,3.8-1.8,5.2-1.1,1.4-2.7,2.4-4.6,3-1.8.7-3.9,1-6,1.1-4.2.2-8.6-.5-12.9-1.6-4.3-1.2-8.6-2.8-12.7-5-4.1-2.1-8.1-4.7-11.7-7.8-3.6-3.1-6.8-6.7-9.2-10.8-1.2-2.1-2.2-4.2-2.9-6.5-.3-1.1-.6-2.3-.8-3.4-.1-.6-.1-1.2-.3-1.7s-.2-1.2-.3-1.8c-.4-2.5-.5-5.1-.7-7.7-.1-2.6-.3-5.2,0-7.8-.1.2-.2.4-.3.6,0,0,0,.2-.1.3-.4.9-.8,1.8-1.1,2.7-.4,1.2-.7,2.5-1,3.8-.6,2.6-1,5.2-1.2,8,0,.7,0,1.4-.1,2.1,0,.4,0,.7,0,1.1,0,.4,0,.7.1,1.1.2,1.5.5,2.9.9,4.3.8,2.8,2,5.5,3.4,8,2.8,5,6.5,9.1,10.5,12.6,4,3.5,8.3,6.3,12.7,8.7,1.1.6,2.2,1.1,3.2,1.6,0,0,21,9.1,30.1,4.9h0ZM1224.7,749c-.2.4-.4.7-.6,1.1-.9,1.7-2.1,3.2-3.4,4.2-1.1.8-2.2,1.3-3.5,1.5,2.5-1.6,4.7-3.8,6.3-6.5.6-1,1.1-2,1.5-3.1.9-2.2,1.5-4.7,1.5-7.3,0-1.2-.1-2.5-.4-3.7-.2-.8-.4-1.5-.7-2.3-.7-1.9-1.9-3.7-3.3-5.1-.9-.9-1.8-1.6-2.8-2.1,1.2-.7,2.3-1.6,3.3-2.7,1.4-1.5,2.5-3.3,3.2-5.5,0-.2.1-.4.2-.6,0,0,0,.2.1.2.2.4.3.7.4,1.1.8,2.3,1.3,5,1.5,7.6.5,5.3,0,10.8-1,15.9-.6,2.5-1.3,5-2.4,7.2h0Z"/>
    </g>
  </g>
  <polygon class="st8" points="876.1 735.5 910.4 735.1 929.3 801.1 885.1 801.8 864.8 773.9 872.7 734.7 876.1 735.5"/>
</svg>