<?xml version="1.0" encoding="UTF-8"?>
<svg id="Layer_1" xmlns="http://www.w3.org/2000/svg" version="1.1" viewBox="0 0 1920 1080">
  <!-- Generator: Adobe Illustrator 29.1.0, SVG Export Plug-In . SVG Version: 2.1.0 Build 142)  -->
  <defs>
    <style>
      .st0 {
        fill: #0a0908;
      }

      .st1, .st2 {
        fill: #fcfcfc;
      }

      .st3 {
        fill: #f6f6f6;
      }

      .st2, .st4, .st5, .st6, .st7 {
        stroke-miterlimit: 10;
      }

      .st2, .st6 {
        stroke-width: 8px;
      }

      .st2, .st7 {
        stroke: #0a0908;
      }

      .st8 {
        fill: #272727;
      }

      .st9 {
        fill: #f867c3;
      }

      .st4 {
        stroke-width: 16px;
      }

      .st4, .st5, .st7 {
        fill: none;
      }

      .st4, .st6 {
        stroke: #000;
      }

      .st10 {
        fill: #0c0d0a;
      }

      .st11 {
        fill: #0b0d09;
      }

      .st12 {
        fill: #cab459;
      }

      .st13 {
        fill: #171210;
      }

      .st14 {
        fill: #feaab4;
      }

      .st15 {
        fill: #fbfbfb;
      }

      .st16 {
        fill: #0a0806;
      }

      .st17 {
        fill: #fb68c5;
      }

      .st18 {
        fill: #00f400;
      }

      .st19 {
        fill: #d1ba5c;
      }

      .st20 {
        fill: #f6bba7;
      }

      .st21 {
        fill: #c5b057;
      }

      .st5 {
        stroke: #070707;
      }

      .st6 {
        fill: #fff;
      }

      .st22 {
        fill: #828282;
      }

      .st23 {
        fill: #fcbfaa;
      }

      .st24 {
        fill: #fdd6b7;
      }

      .st25 {
        fill: #000700;
      }

      .st26 {
        fill: #fafafa;
      }

      .st27 {
        fill: #070707;
      }

      .st28 {
        fill: #fbbb98;
      }

      .st29 {
        fill: #f6f5f5;
      }

      .st30 {
        fill: #161616;
      }
    </style>
  </defs>
  <g>
    <path class="st6" d="M709.38,581.61l17.25,21.09c12.01,14.67,29.56,23.71,48.48,24.95l112.35,7.35c21.91.48,32.77,9.1,38.59,25.33s3.19,27.66-3.04,41.87-31.34,16.34-53.47,14.3c0,0-85.84,3.26-120.5-9.66s-90.34-74.93-90.34-74.93c-5.04-5.03-5.03-13.18.03-18.19l32.37-32.14c5.05-5.02,13.23-5,18.27.03Z"/>
    <g>
      <path class="st23" d="M684.44,558.5c-2.79-.82-5.54-1.63-8.26-2.5-.89-4.23-1.44-11.71,3.37-18.24,1.01.15,1.91.41,2.65.7,5.06,1.94,7.95,6.39,7.76,8.66-.81,4.98-1.75,9.16-2.83,12.18-.9-.27-1.8-.53-2.69-.8Z"/>
      <path class="st23" d="M653.98,543.28c2.01-.54,3.68-.39,5.08.49,1.96,1.22,3.59,3.97,4.68,7.79-1.39-.21-2.85.09-4,.86-.36.24-.69.51-.99.82l-.11.11-.07.08-.13.15-.26.31c-.35.41-.66.86-.97,1.3-1.19,1.81-1.96,3.87-2.28,5.95-.66,4.18.28,8.32,2.14,11.85,1.71,3.23,4.27,6.02,7.4,7.95.24,2.16.29,5.05-.18,7.53h-.02s0,.08,0,.11c-.48,2.38-1.45,4.38-3.22,4.96-.77.25-1.45.4-2.06.45,1.86-17.41-14.7-36.01-5.02-50.71Z"/>
      <path class="st23" d="M710.67,614.11c.15-.29.31-.57.46-.86,1.47-2.94,2.64-6.01,3.47-9.15.81-3.14,1.25-6.36,1.21-9.53-.04-3.17-.57-6.29-1.71-9.11-.57-1.41-1.29-2.74-2.15-3.96-.41-.59-.95-1.23-1.46-1.87-.53-.62-1.06-1.24-1.62-1.82-2.22-2.36-4.71-4.43-7.46-6.13-5.49-3.45-12.01-5.43-18.67-7.48-3.34-1.02-6.72-2.06-10.08-3.22-1.68-.59-3.36-1.19-5.03-1.85-.84-.32-1.66-.67-2.49-1l-1.91-.82c-4.09,20.49,25.44,19.21,34.12,26.82,0,0,0,0,0,0,0,0,0,0,0,0,0,0,0,0,0,0-7.36,5.48-26.76,30.07-17.11,37.85,5.48,4.42,17.02,5.73,30.44-7.87ZM703.51,582.79c-5.65-4.89-15.79-6.96-22.76-8.62-6.97-1.66-12.2-9.67-5.93-8.57,6.27,1.11,14.68,4.16,22.51,6.49,5.12,1.52,11.82,15.58,6.17,10.69ZM697.34,599.81c3.28-5.33,6.17-6.86,6.17-6.86,4.17-1.87,10.71,1.19,6,10.51-4.71,9.32-10.7,13.38-14.24,12.14-3.54-1.25-1.21-10.45,2.07-15.78Z"/>
      <path class="st24" d="M620.84,585.08c-.06-.39-.12-.77-.17-1.16.64,2.94,1.33,5.73,2.09,8.38-.77-2.47-1.4-4.88-1.92-7.22Z"/>
      <path class="st23" d="M635.3,558.66c.67.18,1.32.44,1.92.75.55.28,1.03.63,1.39.95,1.31,1.92,11.17,16.79,11.29,28.28,0,.7.07,1.79.33,3.01-.21,1.83-.57,3.6-1.2,5.1-.57,1.32-1.33,2.4-2.17,3-6.88-2.43-13.13-27.79-14.38-34.14,0,0-4.1,4.21-4.01,12.53.05,5.2-4.36-.32-7.24-6.57.35-1.5.8-2.96,1.36-4.38.59-1.5,1.28-2.87,2.12-4.11,1.65-2.49,3.92-4.23,6.55-4.66,1.31-.22,2.71-.13,4.05.24Z"/>
      <path class="st23" d="M714.29,495.03c.04-5.82-1.22-9.79-2.9-11.75-7.34,12.06-15.66,68.66,3.01,86.21-.6-11.27-.5-23.87-.24-57.25.04-5.21.09-10.92.13-17.21ZM711.14,547.22c-2.16-1.89-3.2-38.5-2.16-42.16,1.05-3.66,3.34-5.8,3.66-2.88.83,7.65.65,46.93-1.5,45.03Z"/>
      <path class="st23" d="M676.18,556c-.56-.18-1.11-.35-1.67-.54-1.62-.55-3.24-1.1-4.84-1.71-.06-.02-.12-.05-.18-.07-.59-3.16-1.6-6.64-3.31-9.54,4.93-6.05,9.86-6.9,13.38-6.38-4.81,6.53-4.26,14.01-3.37,18.24Z"/>
      <path class="st28" d="M669.41,589c.32-1.83.43-3.72.39-5.52.26.1.51.2.78.29,1.8.62,3.68,1.09,5.58,1.35.77.11,1.54.18,2.31.23-1.3,1.32-2.53,2.73-3.68,4.23-.65.82-1.2,1.73-1.8,2.59-.26.41-.51.84-.76,1.26-1.74-1.14-2.7-3.01-2.82-4.43Z"/>
      <path class="st23" d="M653.38,543.45c.2-.07.4-.12.59-.17-9.68,14.7,6.88,33.3,5.02,50.71-.91.07-1.65-.09-2.2-.48-1.29-.92-1.77-3.23-1.79-4.92-.12-12.3-9.4-26.97-11.81-30.58.37-2.79,2.19-11.95,10.18-14.57Z"/>
      <path class="st23" d="M622.8,592.45c-.01-.05-.03-.1-.04-.15-.76-2.64-1.45-5.44-2.09-8.38-.1-.84-.18-1.69-.23-2.54-.06-1.12-.08-2.23-.04-3.35.06.17.12.35.18.52l.52,1.49c.2.48.44.96.66,1.45.12.24.22.49.35.72l.41.69c.28.46.53.95.87,1.37,1.24,1.8,2.85,3.41,4.73,4.67.94.62,1.93,1.2,2.92,1.66.49.24,1.01.46,1.45.67h0c.11.47.21.94.33,1.41.55,2.16,1.18,4.32,2.18,6.52.51,1.1,1.1,2.2,1.92,3.3.82,1.08,1.9,2.17,3.34,2.94,1.43.77,3.12,1.08,4.58,1.02,1.37-.02,3.05-.35,4.43-1.12,1.39-.75,2.51-1.82,3.35-2.97.85-1.14,1.42-2.38,1.85-3.6.07-.2.13-.41.2-.61,1.17.63,2.48.96,3.92.96,1.27,0,2.64-.24,4.11-.73,1.77-.59,3.13-1.65,4.17-3.01.86,1.04,1.91,1.97,3.16,2.69-.32.94-.67,1.87-.9,2.83-1.11,4.15-1.23,8.5-.47,12.56.74,4.08,2.24,7.88,4.22,11.35-.73-3.93-1.27-7.82-1.19-11.61.01-.47-.01-.94.03-1.41l.14-1.4c.05-.46.04-.93.14-1.38l.25-1.36c.34-1.81.87-3.55,1.52-5.23,1.35-3.36,3.3-6.44,5.61-9.32,2.22-2.81,4.76-5.45,7.33-8.15.11-.01.23-.02.34-.04,1.69-.21,3.34-.4,5.03-.53,1.69-.14,3.42-.17,5.28-.26-7.36,5.48-26.76,30.07-17.11,37.85,5.48,4.42,17.02,5.73,30.44-7.87-.61,1.17-1.25,2.32-1.95,3.44-.42.71-.89,1.38-1.35,2.07-.48.68-.95,1.36-1.43,1.96-3.86,4.98-9.4,8.54-15.54,10.64-3.07,1.06-6.29,1.78-9.56,2.21-1.63.22-3.28.35-4.92.42l-1.23.03h-1.31s-1.24,0-1.24,0c-.4,0-.8-.03-1.19-.03-6.38-.26-12.71-2.41-18.46-5.6-5.76-3.22-10.98-7.51-15.5-12.43-4.52-4.92-8.39-10.48-11.3-16.48-.45-.93-.87-1.88-1.28-2.84-.56-1.63-1.09-3.31-1.6-5.06Z"/>
      <path class="st28" d="M628.46,578.14c-.09-8.32,4.01-12.53,4.01-12.53,1.25,6.35,7.5,31.71,14.38,34.14-.15.1-.3.2-.45.27-.52.26-.98.39-1.75.42-.68.03-1.16-.09-1.63-.31-.94-.42-2.03-1.76-2.89-3.42-.45-.82-.86-1.71-1.23-2.64-.39-.92-.75-1.88-1.09-2.85-.68-1.95-1.32-3.95-2.01-5.96-1.37-4.02-2.77-8.1-4.69-12.09-.34,4.39-.11,8.69.46,12.99-.55-.16-1.09-.34-1.62-.55-1.69-.67-3.26-1.67-4.64-2.97-.37-.3-.67-.67-1-1.02l-.49-.53c-.16-.18-.29-.38-.44-.58-.29-.39-.59-.78-.87-1.18l-.77-1.27c-.13-.21-.26-.42-.38-.64l-.33-.67-.49-1.02c.13-1.33.33-2.65.63-3.95.01-.06.03-.13.05-.19,2.88,6.25,7.29,11.77,7.24,6.57Z"/>
      <path class="st23" d="M714.39,569.49c.1,1.87.22,3.7.36,5.59-.45-.52-.91-1.04-1.39-1.53-2.58-2.71-5.54-5.13-8.75-7.08-3.2-1.97-6.61-3.47-10.01-4.73-.86-.32-1.73-.62-2.59-.91,4-11.39,5.84-34.84,7.49-59.96.87-13.18,6.07-19.16,9.36-19.02.87.03,1.74.52,2.51,1.43"/>
      <path class="st28" d="M697.34,584.12s0,0,0,0c-2.95-2.26-6.76-3.25-10.37-3.55-3.64-.33-6.96-.08-10.07-.57-3.11-.46-6.12-1.6-8.94-3.17-2.58-1.43-4.7-3.71-6.06-6.36-1.36-2.64-1.95-5.69-1.47-8.44.23-1.37.74-2.65,1.48-3.75.19-.27.38-.55.61-.79l.29-.34s.02,0,.02-.01c.03-.01.03,0,.03,0l.37.16c-4.09,20.49,25.44,19.21,34.12,26.82Z"/>
      <path class="st23" d="M703.51,592.95c4.17-1.87,10.71,1.19,6,10.51-4.71,9.32-10.7,13.38-14.24,12.14-3.54-1.25-1.21-10.45,2.07-15.78,3.28-5.33,6.17-6.86,6.17-6.86Z"/>
      <path class="st23" d="M711.14,547.22c-2.16-1.89-3.2-38.5-2.16-42.16,1.05-3.66,3.34-5.8,3.66-2.88.83,7.65.65,46.93-1.5,45.03Z"/>
      <path class="st23" d="M703.51,582.79c-5.65-4.89-15.79-6.96-22.76-8.62-6.97-1.66-12.2-9.67-5.93-8.57,6.27,1.11,14.68,4.16,22.51,6.49,5.12,1.52,11.82,15.58,6.17,10.69Z"/>
      <g>
        <path class="st27" d="M615.63,570.48c-.89,3.69-1.16,7.47-1,11.2.35,7.47,2.46,14.67,5.56,21.28,3.12,6.62,7.23,12.72,12.12,18.13,4.91,5.39,10.59,10.12,17.03,13.76,6.42,3.6,13.67,6.15,21.3,6.51,7.34.29,14.79-.57,21.87-3,3.53-1.24,6.97-2.85,10.13-5,1.58-1.06,3.09-2.24,4.49-3.56.72-.63,1.37-1.34,2.04-2.03.62-.73,1.28-1.43,1.85-2.21.61-.76,1.14-1.52,1.66-2.27.51-.76,1.04-1.53,1.51-2.32.98-1.56,1.88-3.18,2.7-4.84,1.66-3.31,2.96-6.82,3.89-10.44.91-3.63,1.41-7.4,1.34-11.22-.05-2.88-.45-5.81-1.29-8.64-1.99-20.59-1.96-24.93-1.57-73.53.04-5.21.08-10.92.13-17.21.1-13.25-5.51-18.16-10.35-18.34-6.3-.23-13.55,7.12-14.65,23.8-.86,12.99-1.84,26.62-3.23,37.95-1.9-2.02-4.37-3.74-7.14-4.8-3.66-1.4-12.69-3.37-21.22,6.49-.34-.27-.69-.53-1.07-.76-2.87-1.78-6.22-2.06-9.97-.83-8.71,2.85-11.93,10.8-13.12,15.77-.62-.28-1.26-.52-1.91-.72-2.01-.61-4.18-.81-6.33-.5-2.14.32-4.23,1.15-5.97,2.38-1.77,1.21-3.18,2.77-4.34,4.4-1.15,1.64-2.04,3.41-2.76,5.15-.72,1.76-1.3,3.57-1.74,5.42ZM620.44,581.38c-.06-1.12-.07-2.23-.04-3.34.06.17.12.35.18.52l.51,1.49c.2.49.44.96.66,1.45.12.24.22.49.35.72l.41.69c.28.46.53.95.87,1.37,1.24,1.79,2.85,3.41,4.73,4.67.93.62,1.93,1.2,2.92,1.67.49.24,1.01.46,1.45.67h.01c.1.47.21.94.33,1.41.54,2.16,1.18,4.33,2.18,6.52.5,1.1,1.1,2.2,1.92,3.3.82,1.08,1.9,2.17,3.33,2.94,1.44.77,3.12,1.08,4.58,1.02,1.37-.02,3.06-.35,4.43-1.12,1.39-.75,2.51-1.82,3.35-2.97.85-1.14,1.42-2.38,1.85-3.6.07-.2.13-.41.19-.61,1.17.63,2.48.96,3.93.96,1.27,0,2.64-.24,4.11-.73,1.77-.59,3.13-1.65,4.17-3.01.86,1.05,1.92,1.97,3.16,2.69-.32.94-.67,1.87-.91,2.83-1.11,4.14-1.23,8.5-.47,12.56.74,4.08,2.24,7.88,4.22,11.35-.73-3.94-1.27-7.82-1.19-11.61.01-.47-.01-.94.03-1.41l.14-1.4c.05-.46.04-.93.15-1.38l.25-1.36c.34-1.8.87-3.55,1.52-5.23,1.35-3.35,3.3-6.44,5.61-9.32,2.22-2.81,4.76-5.45,7.33-8.15.11-.01.23-.02.34-.04,1.69-.21,3.34-.4,5.03-.53,1.69-.14,3.42-.18,5.28-.26h0,0c-2.95-2.26-6.76-3.26-10.37-3.55-3.64-.32-6.96-.08-10.07-.57-3.11-.46-6.12-1.59-8.95-3.17-2.58-1.44-4.7-3.71-6.07-6.36-1.36-2.64-1.95-5.69-1.47-8.44.23-1.37.74-2.64,1.48-3.75.19-.27.38-.54.61-.79l.29-.34s.02-.01.02-.01c.03-.01.03,0,.03,0l.37.16,1.91.82c.83.33,1.66.68,2.49,1,1.67.66,3.34,1.26,5.03,1.84,3.36,1.16,6.75,2.2,10.08,3.23,6.66,2.06,13.18,4.04,18.67,7.48,2.76,1.7,5.24,3.76,7.46,6.13.56.59,1.09,1.2,1.62,1.82.51.63,1.05,1.28,1.46,1.87.86,1.22,1.58,2.55,2.15,3.96,1.14,2.82,1.67,5.94,1.71,9.11s-.4,6.39-1.22,9.53c-.82,3.14-2,6.21-3.47,9.15-.14.29-.3.58-.45.86-.61,1.17-1.25,2.33-1.95,3.44-.43.7-.9,1.38-1.35,2.07-.47.68-.95,1.35-1.44,1.96-3.86,4.98-9.4,8.54-15.54,10.64-3.07,1.06-6.3,1.78-9.56,2.21-1.63.22-3.28.35-4.92.42l-1.23.03h-1.31s-1.24,0-1.24,0c-.4.01-.8-.02-1.19-.03-6.38-.26-12.71-2.4-18.46-5.6-5.76-3.22-10.98-7.51-15.5-12.43-4.52-4.92-8.39-10.48-11.3-16.48-.45-.93-.87-1.88-1.28-2.84-1.7-4.01-2.93-8.19-3.56-12.43-.05-.39-.12-.77-.17-1.16-.1-.85-.18-1.69-.23-2.54ZM621.03,576.72l-.49-1.02c.13-1.33.33-2.65.63-3.95.01-.06.03-.13.05-.19.35-1.49.8-2.96,1.36-4.38.59-1.5,1.28-2.87,2.12-4.11,1.66-2.49,3.92-4.23,6.55-4.66,1.31-.22,2.71-.13,4.05.24.67.19,1.32.44,1.92.75.54.28,1.03.63,1.39.95,1.31,1.92,11.17,16.79,11.29,28.28,0,.7.07,1.79.33,3.01-.21,1.83-.57,3.6-1.2,5.1-.57,1.32-1.33,2.4-2.17,3-.15.1-.3.2-.45.27-.51.26-.97.39-1.74.42-.68.03-1.16-.09-1.63-.31-.94-.42-2.03-1.76-2.89-3.43-.45-.82-.86-1.71-1.23-2.64-.39-.92-.75-1.88-1.09-2.85-.68-1.95-1.32-3.95-2.01-5.96-1.37-4.02-2.77-8.1-4.69-12.09-.34,4.39-.1,8.7.46,12.99-.55-.16-1.09-.34-1.62-.55-1.69-.67-3.26-1.67-4.64-2.97-.37-.3-.66-.67-1-1.02l-.49-.53c-.16-.18-.29-.38-.44-.58-.29-.39-.59-.78-.87-1.18l-.76-1.27c-.13-.21-.26-.42-.38-.64l-.32-.67ZM643.2,558.01c.37-2.79,2.19-11.95,10.18-14.57.2-.06.4-.12.59-.17,2.01-.54,3.68-.39,5.08.49,1.97,1.22,3.59,3.97,4.68,7.78-1.39-.21-2.85.09-4,.86-.36.24-.69.51-.99.82l-.11.11-.06.08-.13.15-.26.31c-.35.41-.66.85-.97,1.3-1.18,1.81-1.96,3.87-2.28,5.95-.66,4.18.28,8.32,2.14,11.85,1.71,3.23,4.26,6.02,7.41,7.95.24,2.16.29,5.04-.18,7.53h-.02s0,.07,0,.11c-.48,2.39-1.45,4.38-3.22,4.96-.77.25-1.46.4-2.06.45-.91.07-1.65-.09-2.2-.48-1.29-.92-1.77-3.23-1.79-4.92-.12-12.3-9.4-26.97-11.81-30.58ZM669.49,553.68c-.59-3.16-1.6-6.64-3.31-9.54,4.93-6.06,9.86-6.9,13.37-6.38,1.02.15,1.91.41,2.65.7,5.06,1.94,7.95,6.39,7.76,8.66-.81,4.97-1.75,9.16-2.83,12.18-.9-.27-1.8-.53-2.69-.8-2.79-.82-5.54-1.63-8.26-2.5-.56-.18-1.11-.36-1.67-.54-1.62-.55-3.24-1.1-4.84-1.71l-.18-.07ZM669.41,589c.32-1.83.43-3.72.39-5.52.26.1.51.2.78.29,1.8.62,3.69,1.09,5.58,1.35.77.11,1.54.18,2.31.23-1.3,1.32-2.54,2.73-3.68,4.23-.65.82-1.2,1.73-1.8,2.59-.26.41-.51.84-.75,1.26-1.74-1.13-2.69-3.01-2.82-4.43ZM694.61,561.74c-.86-.31-1.73-.62-2.59-.91,4-11.39,5.84-34.84,7.49-59.96.87-13.18,6.07-19.16,9.36-19.02.87.03,1.74.51,2.51,1.42,1.68,1.97,2.94,5.93,2.9,11.76-.05,6.29-.09,12.01-.14,17.21-.26,33.37-.36,45.98.24,57.25.1,1.87.22,3.7.36,5.58-.45-.52-.91-1.04-1.39-1.53-2.58-2.71-5.54-5.13-8.75-7.08-3.2-1.97-6.61-3.47-10.01-4.73Z"/>
        <g>
          <path class="st5" d="M614.62,581.68c.35,7.47,2.46,14.67,5.56,21.28,3.12,6.62,7.23,12.72,12.12,18.13,4.91,5.39,10.59,10.12,17.03,13.76,6.42,3.6,13.67,6.15,21.3,6.51,7.34.29,14.79-.57,21.87-3,3.53-1.24,6.97-2.85,10.13-5,1.58-1.06,3.09-2.24,4.49-3.56.72-.63,1.37-1.34,2.04-2.03.62-.73,1.28-1.43,1.85-2.21.61-.76,1.14-1.52,1.66-2.27.51-.76,1.04-1.53,1.51-2.32.98-1.56,1.88-3.18,2.7-4.84,1.66-3.31,2.96-6.82,3.89-10.44.91-3.63,1.41-7.4,1.34-11.22-.05-2.88-.45-5.81-1.29-8.64-1.99-20.59-1.96-24.93-1.57-73.53.04-5.21.08-10.92.13-17.21.1-13.25-5.51-18.16-10.35-18.34-6.3-.23-13.55,7.12-14.65,23.8-.86,12.99-1.84,26.62-3.23,37.95-1.9-2.02-4.37-3.74-7.14-4.8-3.66-1.4-12.69-3.37-21.22,6.49-.34-.27-.69-.53-1.07-.76-2.87-1.78-6.22-2.06-9.97-.83-8.71,2.85-11.93,10.8-13.12,15.77-.62-.28-1.26-.52-1.91-.72-2.01-.61-4.18-.81-6.33-.5-2.14.32-4.23,1.15-5.97,2.38-1.77,1.21-3.18,2.77-4.34,4.4-1.15,1.64-2.04,3.41-2.76,5.15-.72,1.76-1.3,3.57-1.74,5.42-.89,3.69-1.16,7.47-1,11.2Z"/>
          <path class="st5" d="M624.4,597.51c-1.7-4.01-2.93-8.19-3.56-12.43-.05-.39-.12-.77-.17-1.16-.1-.85-.18-1.69-.23-2.54-.06-1.12-.07-2.23-.04-3.34.06.17.12.35.18.52l.51,1.49c.2.49.44.96.66,1.45.12.24.22.49.35.72l.41.69c.28.46.53.95.87,1.37,1.24,1.79,2.85,3.41,4.73,4.67.93.62,1.93,1.2,2.92,1.67.49.24,1.01.46,1.45.67h.01c.1.47.21.94.33,1.41.54,2.16,1.18,4.33,2.18,6.52.5,1.1,1.1,2.2,1.92,3.3.82,1.08,1.9,2.17,3.33,2.94,1.44.77,3.12,1.08,4.58,1.02,1.37-.02,3.06-.35,4.43-1.12,1.39-.75,2.51-1.82,3.35-2.97.85-1.14,1.42-2.38,1.85-3.6.07-.2.13-.41.19-.61,1.17.63,2.48.96,3.93.96,1.27,0,2.64-.24,4.11-.73,1.77-.59,3.13-1.65,4.17-3.01.86,1.05,1.92,1.97,3.16,2.69-.32.94-.67,1.87-.91,2.83-1.11,4.14-1.23,8.5-.47,12.56.74,4.08,2.24,7.88,4.22,11.35-.73-3.94-1.27-7.82-1.19-11.61.01-.47-.01-.94.03-1.41l.14-1.4c.05-.46.04-.93.15-1.38l.25-1.36c.34-1.8.87-3.55,1.52-5.23,1.35-3.35,3.3-6.44,5.61-9.32,2.22-2.81,4.76-5.45,7.33-8.15.11-.01.23-.02.34-.04,1.69-.21,3.34-.4,5.03-.53,1.69-.14,3.42-.18,5.28-.26h0,0c-2.95-2.26-6.76-3.26-10.37-3.55-3.64-.32-6.96-.08-10.07-.57-3.11-.46-6.12-1.59-8.95-3.17-2.58-1.44-4.7-3.71-6.07-6.36-1.36-2.64-1.95-5.69-1.47-8.44.23-1.37.74-2.64,1.48-3.75.19-.27.38-.54.61-.79l.29-.34s.02-.01.02-.01c.03-.01.03,0,.03,0l.37.16,1.91.82c.83.33,1.66.68,2.49,1,1.67.66,3.34,1.26,5.03,1.84,3.36,1.16,6.75,2.2,10.08,3.23,6.66,2.06,13.18,4.04,18.67,7.48,2.76,1.7,5.24,3.76,7.46,6.13.56.59,1.09,1.2,1.62,1.82.51.63,1.05,1.28,1.46,1.87.86,1.22,1.58,2.55,2.15,3.96,1.14,2.82,1.67,5.94,1.71,9.11s-.4,6.39-1.22,9.53c-.82,3.14-2,6.21-3.47,9.15-.14.29-.3.58-.45.86-.61,1.17-1.25,2.33-1.95,3.44-.43.7-.9,1.38-1.35,2.07-.47.68-.95,1.35-1.44,1.96-3.86,4.98-9.4,8.54-15.54,10.64-3.07,1.06-6.3,1.78-9.56,2.21-1.63.22-3.28.35-4.92.42l-1.23.03h-1.31s-1.24,0-1.24,0c-.4.01-.8-.02-1.19-.03-6.38-.26-12.71-2.4-18.46-5.6-5.76-3.22-10.98-7.51-15.5-12.43-4.52-4.92-8.39-10.48-11.3-16.48-.45-.93-.87-1.88-1.28-2.84Z"/>
          <path class="st5" d="M714.29,495.03c-.05,6.29-.09,12.01-.14,17.21-.26,33.37-.36,45.98.24,57.25.1,1.87.22,3.7.36,5.58-.45-.52-.91-1.04-1.39-1.53-2.58-2.71-5.54-5.13-8.75-7.08-3.2-1.97-6.61-3.47-10.01-4.73-.86-.31-1.73-.62-2.59-.91,4-11.39,5.84-34.84,7.49-59.96.87-13.18,6.07-19.16,9.36-19.02.87.03,1.74.51,2.51,1.42,1.68,1.97,2.94,5.93,2.9,11.76Z"/>
          <path class="st5" d="M689.96,547.12c-.81,4.97-1.75,9.16-2.83,12.18-.9-.27-1.8-.53-2.69-.8-2.79-.82-5.54-1.63-8.26-2.5-.56-.18-1.11-.36-1.67-.54-1.62-.55-3.24-1.1-4.84-1.71l-.18-.07c-.59-3.16-1.6-6.64-3.31-9.54,4.93-6.06,9.86-6.9,13.37-6.38,1.02.15,1.91.41,2.65.7,5.06,1.94,7.95,6.39,7.76,8.66Z"/>
          <path class="st5" d="M631.25,558.42c1.31-.22,2.71-.13,4.05.24.67.19,1.32.44,1.92.75.54.28,1.03.63,1.39.95,1.31,1.92,11.17,16.79,11.29,28.28,0,.7.07,1.79.33,3.01-.21,1.83-.57,3.6-1.2,5.1-.57,1.32-1.33,2.4-2.17,3-.15.1-.3.2-.45.27-.51.26-.97.39-1.74.42-.68.03-1.16-.09-1.63-.31-.94-.42-2.03-1.76-2.89-3.43-.45-.82-.86-1.71-1.23-2.64-.39-.92-.75-1.88-1.09-2.85-.68-1.95-1.32-3.95-2.01-5.96-1.37-4.02-2.77-8.1-4.69-12.09-.34,4.39-.1,8.7.46,12.99-.55-.16-1.09-.34-1.62-.55-1.69-.67-3.26-1.67-4.64-2.97-.37-.3-.66-.67-1-1.02l-.49-.53c-.16-.18-.29-.38-.44-.58-.29-.39-.59-.78-.87-1.18l-.76-1.27c-.13-.21-.26-.42-.38-.64l-.32-.67-.49-1.02c.13-1.33.33-2.65.63-3.95.01-.06.03-.13.05-.19.35-1.49.8-2.96,1.36-4.38.59-1.5,1.28-2.87,2.12-4.11,1.66-2.49,3.92-4.23,6.55-4.66Z"/>
          <path class="st5" d="M672.23,593.43c-1.74-1.13-2.69-3.01-2.82-4.43.32-1.83.43-3.72.39-5.52.26.1.51.2.78.29,1.8.62,3.69,1.09,5.58,1.35.77.11,1.54.18,2.31.23-1.3,1.32-2.54,2.73-3.68,4.23-.65.82-1.2,1.73-1.8,2.59-.26.41-.51.84-.75,1.26Z"/>
          <path class="st5" d="M643.2,558.01c.37-2.79,2.19-11.95,10.18-14.57.2-.06.4-.12.59-.17,2.01-.54,3.68-.39,5.08.49,1.97,1.22,3.59,3.97,4.68,7.78-1.39-.21-2.85.09-4,.86-.36.24-.69.51-.99.82l-.11.11-.06.08-.13.15-.26.31c-.35.41-.66.85-.97,1.3-1.18,1.81-1.96,3.87-2.28,5.95-.66,4.18.28,8.32,2.14,11.85,1.71,3.23,4.26,6.02,7.41,7.95.24,2.16.29,5.04-.18,7.53h-.02s0,.07,0,.11c-.48,2.39-1.45,4.38-3.22,4.96-.77.25-1.46.4-2.06.45-.91.07-1.65-.09-2.2-.48-1.29-.92-1.77-3.23-1.79-4.92-.12-12.3-9.4-26.97-11.81-30.58Z"/>
        </g>
      </g>
    </g>
  </g>
  <g>
    <path class="st1" d="M933.23,1054.67l-18.41-419.51,66.09-26.14-43.29,46.51c-1.51,3.63-.27,5.16,2.72,6.95,10.59,6.35,28,9.91,39.32,16.08.84.46,1.64.85,2.21,1.66-3.13,4.31-20.87,14.5-21.42,18.47-.16,1.15,0,2.26.56,3.28l91.49,115.28c1.92,76.54,1.58,153.19,3.34,229.68h12.66c-.2-11.14.24-22.32.04-33.47-1.16-62.51-3.64-125.02-2.72-187.68,1.67-5.39,6.8-6.45,10.04-9.38,2.39-2.17,5.28-7.17,7.71-9.76,31.69-33.74,62.25-68.56,92.83-103.3l-32.67-26.78c-1.21-1.47-1.72-3.81-.83-5.54,1.94-3.77,50.3-14.44,56.95-18.94,1.3-5.86-38.02-42.03-43.76-48.39l5.42.41,43.24,28.85.95,421.73h-272.45ZM1043.59,865.83c-9.19-10.59-23.34,6.56-13.69,16.06,9.08,8.93,22.8-5.56,13.69-16.06ZM1037.09,958.55c13.29,2.55,15.08-18.04,5.4-20.91-15.13-4.49-17.51,18.58-5.4,20.91ZM1002.31,969.41c-18.66.21-44.23-2.16-61.83-.05-1.07.13-2.17-.05-2.93.95-.88,1.26-.54,22.2-.46,25.78.05,2.29,1.01,4.41,1.05,6.7.2,9.59-1.19,22.05-.1,31.1.51,4.21,7.4,5.87,11.23,7.23,15.2,5.36,32.52,6.64,48.19,2.41,1.24-.33,11.08-3.2,8.75-5.33-20.96,5.46-44.86,7.17-64.22-4.37v-60.55c20.04.61,40.3-.82,60.33,0,.58.02,2.23,1.35,3.89,0,0,21.3,0,42.64,0,63.94l1.98-12.07c-1.22-16.6,1.48-35.09.02-51.44-.23-2.62.24-2.76-2-4.3-3-2.06-3.14,0-3.89,0ZM1129.78,970.38c-1.95.17-4-.45-5.9.42l-.96,2.92,1.02,62.05c.51,3.25,3.53,2.85,5.84,3.39.18.76-.34,1.93.1,2.79,18.83,6.49,38,6.78,56.84.13,3.83-1.35,10.72-3.01,11.23-7.23,1.09-9.05-.29-21.51-.1-31.1.05-2.29,1-4.41,1.05-6.7.08-3.57.42-24.52-.46-25.78-.76-1-1.86-.83-2.93-.95-16.96-2.04-43.83-.13-61.83.05-1.36.01-1.54-.2-3.89,0ZM1040.66,1042.05c10.84-1.72,11.33-18.9,1.83-21.08-16.52-3.8-16.03,23.33-1.83,21.08Z"/>
    <path class="st0" d="M1242.57,69.92c-128.43-78.49-316.22-85.29-399.03,59.82-45.92,80.48-60.62,194.74-1.97,272.63-2.18,24.56-2.25,46.03,4.8,69.79,21.29,71.82,85.97,117.34,159.84,122.31v2.9c-6.53,1.29-13.43.14-19.73,2.16-23.72,7.62-55.87,27.19-80.19,34.88l8.53,150.86,8.68,269.4h9.73l-18.41-415.51,66.09-30.14-43.29,46.51c-1.51,3.63-.27,5.16,2.72,6.95,10.59,6.35,28,9.91,39.32,16.08.84.46,1.64.85,2.21,1.66-3.13,4.31-20.87,14.5-21.42,18.47-.16,1.15,0,2.26.56,3.28l91.49,115.28c1.92,76.54,1.58,153.19,3.34,229.68h12.66c-.2-11.14.24-22.32.04-33.47-1.16-62.51-3.64-125.02-2.72-187.68,1.67-5.39,6.8-6.45,10.04-9.38,2.39-2.17,5.28-7.17,7.71-9.76,31.69-33.74,62.25-68.56,92.83-103.3l-32.67-26.78c-1.21-1.47-1.72-3.81-.83-5.54,1.94-3.77,50.3-14.44,56.95-18.94,1.3-5.86-38.02-42.03-43.76-48.39l-1.58.41,67.39,40.83-16.2,409.75h9.73v-284.84s1.56,1.64,1.56,1.64c-1.46-10.19-2.48-20.43-2.54-30.75,0-1.14.36-2.07.94-2.82-.23-22.47.37-44.96.08-67.42-.03-2.29-2.74-5.15-1.05-6.7,3.07-2.82,63.76,7.8,25.1-18.87-6.3-4.18-25.91-15.7-33.81-20.24-16.82-9.67-36.93-25.21-57.34-25.53-5.46-.09-14.7-.84-20.26-.03l-2.05-1.41-.1-8.05c22.64-5.17,45.5-9.73,67.34-17.72,10.33-3.78,21.95-8.79,31.55-14.12,3.78-2.1,20.9-14.5,22.21-14.73,1.88-.33,1.24.49,1.7,1.27,1.57,2.64,3.55,6.86,4.79,9.74,1.67,3.88,6.64,17.05,6.64,20.51v20.35c0,4.33,12.25-2.04,14.11-3.39,17.91-13.08,21.33-46.02,19.98-66.4-.33-4.98-2.72-9.74-1.85-14.86,4.82-1.1,8.53-4.6,12.42-7.49,18.67-13.89,39.9-34.25,43.77-58.15.54-3.35-.32-6.54.58-10.08,1.58-6.23,10.47-20.55,13.62-28.1,55.42-132.96-1.88-264.24-120.22-336.56ZM1055.83,805.68l-83.6-104.29c-.43-2.41,19.92-16.59,22.97-19.03l.81-6.52-45.27-19.86,41.83-43.1c8.32,23.55,19.71,46.23,28.98,69.49,1.39,3.5,1.93,7.5,3.38,11.16,7.67,19.42,29.24,65.62,30.89,83.57v28.58ZM1010.1,629.36c12.78,2.55,25.05,6.94,37.92,9.22,23.47,4.16,45.74,4.68,69.1-.5l-55.95,121.1-51.08-129.81ZM1142.93,611.93c.67-1.18,1.51-1.14,2.69-.83,2.3.6,10.91,7.95,13.36,10,9.61,8.05,18.2,17.48,27.21,26.17l-57.26,21.92.79,5.26,31.69,27.55.32,3.19-93.24,105.82c-3.69,1.18-5.44,1-5.91-2.88-.79-6.52-.79-26.53.14-32.93.73-4.98,2.76-2.94,4.53-4.65l75.67-158.64ZM1126.38,609.96c1.55-.11,1.65-.16,1.44,1.44-.37,2.92-5.35,16.49-7.47,17.77-3.31,2-16.02,4.33-20.37,4.91-31.49,4.18-64-3.84-93.52-14.11l-7.06-14.83c11.24.61,22.35,3.57,33.58,4.83,23.48,2.62,50.28,2.76,73.98,1.99,6.04-.2,13.32-1.56,19.42-1.99ZM1012.05,595.45l44.31,1,59.29-5.89,2.32,1.63.14,11.01c-34.78,1.95-69.96,1.85-104.37-3.89l-1.69-3.86ZM1226.03,542.56c-55.88,35.65-174.31,49.16-238.49,37.08-75.76-14.27-133.79-71.41-134.06-150.31-.17-49.42,4.86-101.52,6.81-151.14.26-6.61-.28-13.29-.04-19.9,2.95-.48,1.55.75,1.96,2.36,2.45,9.45,5.17,27.78,9,35.65.65,1.33,1.44,2.38,2.69,3.19.7.49,1.45.44,2.26.44,2.37-.02,26.33-7.82,28.76-9.25,4.6-2.71,5.43-8.13,6.58-12.82,4.09-16.7,3.47-35.02,6.28-51.88.19-1.13.3-4.51,1.8-4.48,2.71,11.38,3.86,23.9,7.1,35.08,1.67,5.77,2.93,11.02,9.4,12.92,7.79,2.3,25.48,5.06,33.6,5.34,10.93.37,14.22-10.04,17.31-18.69,7.88-22.04,10.55-46.65,17.33-68.97.34-1.1.36-3.6,1.85-3.46l17.2,109.54c3.42,1.85,6.3.72,7.85-2.75l9.01-44.79c1.78,14.07,2.09,32.79,8.01,45.8,1.7,3.73,5.19,7.02,9.04,3.62,2.12-1.88,10.09-22.33,11.45-26.38,4.73-14.03,7.78-28.84,10.44-43.39l1.98,13.03c1.66,17.11-2.34,38.76-.09,55.31.32,2.37.48,2.96,2.69,4.1,2.42,1.25,18.56,2.35,22.21,2.19,7.74-.33,9.02-2.48,12.63-8.74,7.63-13.26,10.63-30.96,15.08-45.55l9.71,59.58c2.23.94,5.19,1.01,6.86-.94l23.31-36.37c-3.4,18.8-8.84,37.93,4.38,54.27,19.69,24.33,48.96,32.69,65.52,64.59,18.75,36.14-5.26,47.33-14.14,77.61-4.56,15.56-2.31,30.93,2.89,45.98,1.58,4.56,7.92,15.77,8.38,18.89.5,3.46-11.39,11.23-14.54,13.24ZM1268.45,570.28c-.21,1.04-.06,3.13-1.47,2.87-5.57-35.02-36-61.46-30.9-99.05.47-3.46,6.4-19.79,9.01-21.07,1.76-.87,1.49.77,1.07,2.04-14.24,43.73,31.36,70.53,22.28,115.21ZM1335.83,446.49c-2.55,16.24-26.8,38.1-39.76,47.61-1.25.92-6.49,5.31-7.67,4.46-1.48-1.06-7.89-31.66-7.87-35.36.03-8.04,6.53-18.86,8.02-26.97,8.85-6.51,32.05-20.16,42.64-13.7,4.62,2.82,5.43,19,4.65,23.97ZM1360.14,394.16c-2.92,7.87-8.58,23.17-12.89,29.79-.26.4-1.15,1.28-1.44.97-3.82-18.85-24.16-18.45-39.2-13.35-7.84,2.66-14.06,8.08-21.14,11.41-1.88,3.78-3.51,3.37-4.87,7.75-2.16,7-5.42,16.72-6.94,23.61-4.51,20.44,8.24,44.11,11.52,64.36,3.38,20.79,2.16,47.37-11.88,64.14-.75.14-.59-.89-.49-1.45.62-3.72,5.18-11.55,6.55-16.74,12.22-46.46-27.84-73.69-6.54-122.28h-1.95c-18.2,39.39-2.2,57.46,4.9,96.36l-1,8.27c-5.77-32.04-29.93-51.2-27.29-85.78,2.01-26.25,18.91-38.63,9.07-68.05-12.13-36.26-42.45-47.76-66.45-71.41-21.23-20.91-5.91-39.81-5.79-64.01.03-6.05-2.27-18.28-9.75-10.59l-25.3,40.19-8.01-66.15c-.92-2.53-4.65-4.45-6.95-2.55l-25.92,72.57h-17.03l-2.89-109.5c-3.69-2.12-6.5-1.49-8.34,2.4-2.67,5.62-4.71,16.38-6.29,22.8-5.12,20.75-7.93,42.1-15.31,62.26-1.08,2.94-2.23,7.45-4.61,9.45-3.82-17.34-3.66-35.25-5.86-52.79-.81-6.47-1.73-24.99-11.1-14.95l-5.42,24.14.95-76.53c-1.89.4-1.71,1.94-1.94,3.39-4.07,25.04-5.49,51.68-5.84,77.02-1.42-.61-1.53-4.86-1.78-6.45-3.42-21.49-5-48.72-10.31-69.18-.9-3.48-2.74-5.82-6.68-4.62-3.55,1.07-7.74,16.27-8.95,20.19-3.35,10.84-19.11,84.92-24.49,86.26l-14.5-1.91c-1.76-30.74,1.42-61.54,7.36-91.64l-1.94-1.44c-4.11,15.88-8.37,31.77-10.57,48.1-.77,5.71-1.79,12.59-2.13,18.23-.41,6.92,1.18,17.06.04,23.29-.77,4.19-12.08,1.19-13.45-1.13-3.93-6.63-6.31-29.78-8.61-38.9-4.08-16.17-12.3-37.13-18.49-6.16-3.09,15.44-3.18,31.48-5.29,47.05-.6,4.43-2.07,17.06-3.95,20.29-1.7,2.92-17.99,7.13-22.2,8.42l-17.19-71.48c-1.46-3.4-7.98-2.43-9.37,1.01l-7.01,176.06c-52.17-71.06-40.17-172.13-3.27-247.4C912.13,4.19,1079.22-3.79,1209.92,59.81c128.18,62.38,202.27,193.96,150.22,334.35Z"/>
    <path class="st30" d="M1002.31,969.41c-18.66.21-44.23-2.16-61.83-.05-1.07.13-2.17-.05-2.93.95-.88,1.26-.54,22.2-.46,25.78.05,2.29,1.01,4.41,1.05,6.7.2,9.59-1.19,22.05-.1,31.1.51,4.21,7.4,5.87,11.23,7.23,15.2,5.36,32.52,6.64,48.19,2.41,1.24-.33,11.08-3.2,8.75-5.33-20.96,5.46-44.86,7.17-64.22-4.37v-60.55c20.04.61,40.3-.82,60.33,0v-3.88Z"/>
    <path class="st30" d="M1133.67,970.38v3.88c20.03-.82,40.28.61,60.33,0v60.55c-3.89,3.02-9.6,4.8-14.39,6.02-18.26,4.66-31.94,2.54-49.83-1.66-2.88-12.02-3.67-48.94-2-61.6.39-2.95,1.9-3.04,2-3.32.31-.84-.22-2.78,0-3.88-1.95.17-4-.45-5.9.42l-.96,2.92,1.02,62.05c.51,3.25,3.53,2.85,5.84,3.39.18.76-.34,1.93.1,2.79,18.83,6.49,38,6.78,56.84.13,3.83-1.35,10.72-3.01,11.23-7.23,1.09-9.05-.29-21.51-.1-31.1.05-2.29,1-4.41,1.05-6.7.08-3.57.42-24.52-.46-25.78-.76-1-1.86-.83-2.93-.95-16.96-2.04-43.83-.13-61.83.05Z"/>
    <path class="st8" d="M1043.59,865.83c9.1,10.5-4.62,24.99-13.69,16.06-9.65-9.49,4.51-26.65,13.69-16.06ZM1036.88,881.32c7.95-.09,8.52-15.09-.2-15.33-7.47-.21-9.23,15.44.2,15.33Z"/>
    <path class="st8" d="M1037.09,958.55c-12.11-2.32-9.73-25.39,5.4-20.91,9.68,2.87,7.89,23.46-5.4,20.91ZM1038.97,955.6c6.8.3,9.13-13.49,1.55-15.08-9.47-1.99-11.24,14.66-1.55,15.08Z"/>
    <path class="st8" d="M1040.66,1042.05c-14.2,2.25-14.69-24.88,1.83-21.08,9.5,2.18,9.01,19.36-1.83,21.08ZM1037,1038.07c9.21,4.76,13.08-12.39,3.51-14.26-6.64-1.3-10.63,10.58-3.51,14.26Z"/>
    <path class="st8" d="M1006.2,973.29c0,21.3,0,42.64,0,63.94l1.98-12.07c-1.22-16.6,1.48-35.09.02-51.44-.23-2.62.24-2.76-2-4.3v3.88Z"/>
    <path class="st22" d="M1002.31,969.41v3.88c.58.02,2.23,1.35,3.89,0v-3.88c-3-2.06-3.14,0-3.89,0Z"/>
    <path class="st22" d="M1129.78,970.38c-.22,1.09.31,3.04,0,3.88,1.66,1.35,3.31.02,3.89,0v-3.88c-1.36.01-1.54-.2-3.89,0Z"/>
    <path class="st19" d="M1282.3,423.19c-4.35,1.62-9.42,14.83-11.43,19.18-18.19,39.39-2.2,57.46,4.9,96.36l-1,8.27c-5.77-32.04-29.93-51.2-27.29-85.78,2.01-26.25,18.91-38.63,9.07-68.05-12.13-36.26-42.45-47.76-66.45-71.41-21.23-20.91-5.91-39.81-5.79-64.01.03-6.05-2.27-18.28-9.75-10.59l-25.3,40.19-8.01-66.15c-.92-2.53-4.65-4.45-6.95-2.55l-25.92,72.57h-17.03l-2.89-109.5c-3.69-2.12-6.5-1.49-8.34,2.4-2.67,5.62-4.71,16.38-6.29,22.8-5.12,20.75-7.93,42.1-15.31,62.26-1.08,2.94-2.23,7.45-4.61,9.45-3.82-17.34-3.66-35.25-5.86-52.79-.81-6.47-1.73-24.99-11.1-14.95l-5.42,24.14.95-76.53c-1.89.4-1.71,1.94-1.94,3.39-4.07,25.04-5.49,51.68-5.84,77.02-1.42-.61-1.53-4.86-1.78-6.45-3.42-21.49-5-48.72-10.31-69.18-.9-3.48-2.74-5.82-6.68-4.62-3.55,1.07-7.74,16.27-8.95,20.19-3.35,10.84-19.11,84.92-24.49,86.26l-14.5-1.91c-1.76-30.74,1.42-61.54,7.36-91.64l-1.94-1.44c-4.11,15.88-8.37,31.77-10.57,48.1-.77,5.71-1.79,12.59-2.13,18.23-.41,6.92,1.18,17.06.04,23.29-.77,4.19-12.08,1.19-13.45-1.13-3.93-6.63-6.31-29.78-8.61-38.9-4.08-16.17-12.3-37.13-18.49-6.16-3.09,15.44-3.18,31.48-5.29,47.05-.6,4.43-2.07,17.06-3.95,20.29-1.7,2.92-17.99,7.13-22.2,8.42l-17.19-71.48c-1.46-3.4-7.98-2.43-9.37,1.01l-7.01,176.06c-52.17-71.06-40.17-172.13-3.27-247.4C912.13,4.19,1079.22-3.79,1209.92,59.81c128.18,62.38,202.27,193.96,150.22,334.35-2.92,7.86-8.58,23.17-12.89,29.79-.26.4-1.15,1.28-1.44.97-3.82-18.85-24.16-18.45-39.2-13.35-7.84,2.66-14.06,8.08-21.14,11.41-.43.2-2.05-.21-3.17.2ZM1270.36,230.21c-2.42-2.03-14.69-12.47-11.68-2.91,1.45,4.62,5.71,10.62,7.78,15.51,4.62,10.9,8.36,22.15,12.28,33.31.89,1.75,3.38,2.01,5.13,1.43,4.31-1.45-2.54-16.02-3.79-19.23-1.51-3.89-5.31-9.86-6.28-13.13-.36-1.23.23-1.95,1.43-1.43,3.37,1.47,17.43,25.88,19.82,30.65,6.5,12.95,15.22,33.52,17.65,45.88.34,1.75,1.64,12.45,2.44,12.6l2.44-.5c-.83-4.01-2.14-8.11-2.93-12.1-6.38-31.87-18.47-68.43-44.3-90.08Z"/>
    <path class="st23" d="M926.69,256.55c1.67,5.77,2.93,11.02,9.4,12.92,7.79,2.3,25.48,5.06,33.6,5.34,10.93.37,14.22-10.04,17.31-18.69,7.88-22.04,10.55-46.65,17.33-68.97.34-1.1.36-3.6,1.85-3.46l17.2,109.54c3.42,1.85,6.3.72,7.85-2.75l9.01-44.79c1.78,14.07,2.09,32.79,8.01,45.8,1.7,3.73,5.19,7.02,9.04,3.62,2.12-1.88,10.09-22.33,11.45-26.38,4.73-14.03,7.78-28.84,10.44-43.39l1.98,13.03c1.66,17.11-2.34,38.76-.09,55.31.32,2.37.48,2.96,2.69,4.1,2.42,1.25,18.56,2.35,22.21,2.19,7.74-.33,9.02-2.48,12.63-8.74,7.63-13.26,10.63-30.96,15.08-45.55l9.71,59.58c2.23.94,5.19,1.01,6.86-.94l23.31-36.37c-3.4,18.8-8.84,37.93,4.38,54.27,19.69,24.33,48.96,32.69,65.52,64.59,18.75,36.14-5.26,47.33-14.14,77.61-4.56,15.56-2.31,30.93,2.89,45.98,1.58,4.56,7.92,15.77,8.38,18.89.5,3.46-11.39,11.23-14.54,13.24-55.88,35.65-174.31,49.16-238.49,37.08-75.76-14.27-133.79-71.41-134.06-150.31-.17-49.42,4.86-101.52,6.81-151.14.26-6.61-.28-13.29-.04-19.9,2.95-.48,1.55.75,1.96,2.36,2.45,9.45,5.17,27.78,9,35.65.65,1.33,1.44,2.38,2.69,3.19.7.49,1.45.44,2.26.44,2.37-.02,26.33-7.82,28.76-9.25,4.6-2.71,5.43-8.13,6.58-12.82,4.09-16.7,3.47-35.02,6.28-51.88.19-1.13.3-4.51,1.8-4.48,2.71,11.38,3.86,23.9,7.1,35.08ZM894.29,303.32c-15.66,15.37,24.65,8.89,31.68,10.15l27.98,1.77c2.19-1.02,3.55-3.15,4.38-5.32.69-1.82,3.1-11.75,2.74-12.9-1.14-3.72-13.07-6.06-16.92-6.49-16.4-1.84-37.63.79-49.86,12.79ZM1103.08,322.29c-7.54,10.68.03,16.3,10.75,18.24,15.19,2.75,32.29,2.17,47.62,5.01,9.18-2.22,4.3-8.91-.04-13.63-8.75-9.51-26.25-17.95-39.25-18.17-7.67-.13-14.59,2.19-19.08,8.55ZM969.72,380.36c-3.61-12.86-8.56-18.92-20.27-25.35-18.51-10.17-39.61-11.61-57.79-.06-3.76,2.39-23.32,17.92-19.72,22.5l2.9-.97c-3,8.56-1.52,16.09,2.74,23.97.68,1.26,1.85,1.74,2.14,2.19,4.2,6.56,4.05,5.92,9.73,10.66,11.58,9.66,19.48,13.69,35.03,14.53,30.97,1.68,54.64-14.02,45.25-47.47ZM1203.73,394.89c1.73-1.6-10.64-13.22-12.19-14.5-27.67-22.81-62.56-19.78-92.57-3.1-8.02,4.46-12.04,7.19-12.08,17.12-.06,17.56,7.84,39.34,24.71,47.17,21.89,10.17,67.11,6.87,79.66-16.97,5.64-10.71,3.88-22.99,3.72-34.56,3.77.14,4.56,5.64,8.75,4.83ZM1006.2,439.46c-2.24-18.67,18.05-16.94,29.13-9.15,3.01,2.12,4.81,6.64,8.81,6.23,2.84-2.9-10.55-13.66-13.33-15.3-16.4-9.72-31.6-.51-27.46,18.15l2.84.07ZM868.27,461.49c-6.7,39.33,61.01,57.83,84.4,27.84,18.34-23.51-9.21-49.54-32.82-52.53-18.1-2.29-47.89,3.05-51.58,24.69ZM1124.2,490.07c4.75,38.25,78.68,41.67,89.31,4.17,6.18-21.78-16.32-38.62-35.84-40.95-22.75-2.72-56.92,9.02-53.48,36.78ZM1016.26,518.09c17.35,10.05,52.09,9.25,57.08-14.69-.64-.68-12.89,8.91-14.9,9.86-14.37,6.75-32.6,2.97-47.36-.17-1.53,1.33,4.48,4.59,5.19,5Z"/>
    <path class="st15" d="M1067.26,770.56c-1.76,1.71-3.8-.33-4.53,4.65-.93,6.4-.93,26.41-.14,32.93.47,3.88,2.22,4.06,5.91,2.88l93.24-105.82-.32-3.19-31.69-27.55-.79-5.26,57.26-21.92c-9.01-8.69-17.6-18.13-27.21-26.17-2.45-2.06-11.06-9.4-13.36-10-1.18-.31-2.03-.35-2.69.83l-75.67,158.64Z"/>
    <path class="st26" d="M1055.83,777.1c-1.65-17.94-23.22-64.15-30.89-83.57-1.45-3.67-1.99-7.67-3.38-11.16-9.27-23.26-20.66-45.94-28.98-69.49l-41.83,43.1,45.27,19.86-.81,6.52c-3.05,2.44-23.41,16.62-22.97,19.03l83.6,104.29v-28.58Z"/>
    <path class="st17" d="M1010.1,629.36l51.08,129.81,55.95-121.1c-23.36,5.18-45.63,4.66-69.1.5-12.87-2.28-25.14-6.67-37.92-9.22Z"/>
    <path class="st9" d="M999.4,605.13l7.06,14.83c29.52,10.27,62.03,18.29,93.52,14.11,4.35-.58,17.06-2.9,20.37-4.91,2.12-1.28,7.1-14.85,7.47-17.77.2-1.6.11-1.55-1.44-1.44-6.1.43-13.38,1.8-19.42,1.99-23.7.77-50.5.63-73.98-1.99-11.23-1.25-22.34-4.22-33.58-4.83Z"/>
    <path class="st12" d="M1266.99,573.15c1.41.25,1.26-1.83,1.47-2.87,9.07-44.68-36.53-71.48-22.28-115.21.41-1.27.68-2.91-1.07-2.04-2.6,1.28-8.53,17.61-9,21.07-5.11,37.6,25.32,64.03,30.9,99.05Z"/>
    <path class="st20" d="M1012.05,595.45l1.69,3.86c34.4,5.73,69.58,5.83,104.37,3.89l-.14-11.01-2.32-1.63-59.29,5.89-44.31-1Z"/>
    <path class="st21" d="M1280.6,430.74c-2.36-.52-2.01,1.2-2.74,2.55-1.44,2.66-3.98,6.65-5.04,9.08-21.3,48.6,18.76,75.82,6.54,122.28-1.36,5.19-5.92,13.02-6.55,16.74-.09.56-.25,1.6.49,1.45,14.04-16.77,15.26-43.35,11.88-64.14-3.29-20.25-16.03-43.92-11.52-64.36,1.52-6.88,4.78-16.61,6.94-23.61Z"/>
    <path class="st8" d="M1270.87,442.36h1.95c1.06-2.43,3.6-6.41,5.04-9.08.73-1.35.38-3.07,2.74-2.55,1.35-4.39,2.99-3.97,4.87-7.75-.43.2-2.05-.21-3.17.2-4.35,1.62-9.42,14.83-11.43,19.18Z"/>
    <path class="st15" d="M1133.67,974.26c-.58.02-2.23,1.35-3.89,0-.1.28-1.61.36-2,3.32-1.67,12.66-.87,49.58,2,61.6,17.9,4.2,31.57,6.32,49.83,1.66,4.78-1.22,10.49-3,14.39-6.02v-60.55c-20.05.61-40.3-.82-60.33,0Z"/>
    <path class="st29" d="M1036.68,866c-7.47-.21-9.23,15.44.2,15.33,7.95-.09,8.52-15.09-.2-15.33Z"/>
    <path class="st29" d="M1040.52,940.52c-9.47-1.99-11.24,14.66-1.55,15.08,6.8.3,9.13-13.49,1.55-15.08Z"/>
    <path class="st29" d="M1040.51,1023.81c-6.64-1.3-10.63,10.58-3.51,14.26,9.21,4.76,13.08-12.39,3.51-14.26Z"/>
    <path class="st10" d="M1312.71,320.29c-2.43-12.36-11.15-32.93-17.65-45.88-2.39-4.76-16.45-29.18-19.82-30.65-1.2-.52-1.8.2-1.43,1.43.97,3.27,4.77,9.24,6.28,13.13,1.25,3.21,8.1,17.78,3.79,19.23-1.75.59-4.25.32-5.13-1.43-3.92-11.16-7.66-22.41-12.28-33.31-2.07-4.89-6.32-10.89-7.78-15.51-3.01-9.57,9.25.88,11.68,2.91,25.83,21.64,37.92,58.21,44.3,90.08h-1.95ZM1273.3,242.78v-.97c-.63.32-.63.65,0,.97Z"/>
    <path class="st8" d="M1312.71,320.29c.34,1.75,1.64,12.45,2.44,12.6l2.44-.5c-.83-4.01-2.14-8.11-2.93-12.1h-1.95Z"/>
    <path class="st14" d="M919.84,436.8c-18.1-2.29-47.89,3.05-51.58,24.69-6.7,39.33,61.01,57.83,84.4,27.84,18.34-23.51-9.21-49.54-32.82-52.53Z"/>
    <path class="st14" d="M1177.67,453.29c-22.75-2.72-56.92,9.02-53.48,36.78,4.75,38.25,78.68,41.67,89.31,4.17,6.18-21.78-16.32-38.62-35.84-40.95Z"/>
    <path class="st10" d="M1191.26,424.61c-12.55,23.83-57.78,27.14-79.66,16.97-16.86-7.84-24.77-29.61-24.71-47.17.04-9.92,4.06-12.66,12.08-17.12,30.01-16.69,64.9-19.71,92.57,3.1,1.55,1.27,13.92,12.9,12.19,14.5-4.19.81-4.98-4.69-8.75-4.83.16,11.57,1.92,23.85-3.72,34.56ZM1094.85,400.37c1.71,34.12,22.92,44.54,54.75,41.87,28.63-2.4,42.43-17.88,38.47-46.78-2.22-16.26-25.07-20.22-38.36-21.86l9.22,8.24c11.14,12.53,12.42,35.81,1.5,48.91-17.2,20.64-41.75,1.88-44.16-19.99-1.19-10.84,1.06-18.89,5.71-28.45-1.64-1.68-24.81,15.37-27.14,18.07ZM1119.97,405.06c-.01,15.2,13.38,36.73,30.57,28.42,20.49-9.91,15.32-52.22-5.91-55.79-15.86-2.67-24.65,13.66-24.66,27.37Z"/>
    <path class="st11" d="M924.47,425.89c22.85,1.06,42.81-9.79,39.79-35.26-1.69-14.24-14.47-22.69-27.14-26.74,5.92,12.41,9.74,22.92,6.35,36.84-5.47,22.47-29.28,31.1-42.55,9.36-10.34-16.94-8.22-39.89,6.03-53.95-20.16,3.89-38.43,25.09-26.27,45.53l-.97.97c-.29-.45-1.45-.93-2.14-2.19-4.25-7.87-5.74-15.41-2.74-23.97l-2.9.97c-3.6-4.58,15.96-20.11,19.72-22.5,18.18-11.55,39.28-10.11,57.79.06,11.71,6.43,16.66,12.49,20.27,25.35,9.39,33.45-14.28,49.16-45.25,47.47v-1.94ZM901.13,391.49c1.25,12.5,12.62,31.92,27.17,22.23,16.69-11.12,11.29-50.43-9.42-53.49-14.6-2.16-18.8,20.7-17.75,31.27Z"/>
    <path class="st16" d="M961.06,297.02c.36,1.15-2.05,11.08-2.74,12.9-.83,2.17-2.18,4.3-4.38,5.32l-27.98-1.77c-7.03-1.26-47.35,5.22-31.68-10.15,12.23-12.01,33.46-14.64,49.86-12.79,3.85.43,15.77,2.78,16.92,6.49ZM949.79,305.29l.94-2.92c-10.29-4.67-25-4.28-35.64-.62-1.27.44-2.97.27-3.28,2.06l37.97,1.49Z"/>
    <path class="st16" d="M1161.41,331.91c4.34,4.72,9.23,11.41.04,13.63-15.33-2.84-32.44-2.26-47.62-5.01-10.72-1.94-18.29-7.56-10.75-18.24,4.49-6.36,11.41-8.68,19.08-8.55,13,.22,30.5,8.66,39.25,18.17ZM1150.21,334.81c-8.23-8.46-24.4-14.16-36.03-11.16-2.61.67-6.54,3.17-5.81,6.32l41.84,4.84Z"/>
    <path class="st10" d="M1011.07,513.09c-1.53,1.33,4.48,4.59,5.19,5,17.35,10.05,52.09,9.25,57.08-14.69-.64-.68-12.89,8.91-14.9,9.86-14.37,6.75-32.6,2.97-47.36-.17Z"/>
    <path class="st13" d="M1003.36,439.39l2.84.07c-2.24-18.67,18.05-16.94,29.13-9.15,3.01,2.12,4.81,6.64,8.81,6.23,2.84-2.9-10.55-13.66-13.33-15.3-16.4-9.72-31.6-.51-27.46,18.15Z"/>
    <path class="st22" d="M890.41,413.3h-.97c11.58,9.66,19.48,13.69,35.03,14.53v-1.94c-13.86-.64-22.7-5.51-34.06-12.59Z"/>
    <path class="st8" d="M879.71,402.64c4.2,6.56,4.05,5.92,9.73,10.66h.97c.02-1.9-1.32-2.69-2.41-3.89-1.6-1.75-6.4-6.19-7.32-7.73l-.97.97Z"/>
    <path class="st13" d="M1312.71,431.71c.23,4.17,7.63,3.43,9.24,6.77,4.8,9.92-13.01,29.31-21.42,33.9,1.06-4.42.47-12.2-2.32-15.85-.93-1.22-3.69-.82-4.55.33s2.23,9.13,1.48,13.08c-.56,2.99-9.14,9.81-4.21,11.12,3.55.94,15.8-6.52,18.86-9.12,11.77-9.99,31.16-39.32,2.91-40.21Z"/>
    <path class="st19" d="M1273.3,241.81c-.63.32-.63.65,0,.97v-.97Z"/>
    <path class="st3" d="M1121.99,382.3c-1.64-1.68-24.81,15.37-27.14,18.07,1.71,34.12,22.92,44.54,54.75,41.87,28.63-2.4,42.43-17.88,38.47-46.78-2.22-16.26-25.07-20.22-38.36-21.86l9.22,8.24c11.14,12.53,12.42,35.81,1.5,48.91-17.2,20.64-41.75,1.88-44.16-19.99-1.19-10.84,1.06-18.89,5.71-28.45Z"/>
    <path class="st18" d="M1150.54,433.48c-17.19,8.31-30.58-13.22-30.57-28.42.01-13.71,8.8-30.04,24.66-27.37,21.23,3.57,26.4,45.89,5.91,55.79ZM1145.41,422.57c13.71-3.25,11.74-30.31.18-33.26-23.1-5.89-20.53,38.08-.18,33.26Z"/>
    <path class="st29" d="M880.68,401.67c.92,1.54,5.72,5.98,7.32,7.73,1.1,1.2,2.44,1.99,2.41,3.89,11.35,7.08,20.19,11.95,34.06,12.59,22.85,1.06,42.81-9.79,39.79-35.26-1.69-14.24-14.47-22.69-27.14-26.74,5.92,12.41,9.74,22.92,6.35,36.84-5.47,22.47-29.28,31.1-42.55,9.36-10.34-16.94-8.22-39.89,6.03-53.95-20.16,3.89-38.43,25.09-26.27,45.53Z"/>
    <path class="st18" d="M928.29,413.72c-14.55,9.69-25.92-9.72-27.17-22.23-1.06-10.57,3.15-33.42,17.75-31.27,20.71,3.06,26.11,42.37,9.42,53.49ZM916.41,404.38c14.72,3.32,16.19-18.13,7.73-26.6-15.57-15.59-24.41,22.83-7.73,26.6Z"/>
    <path class="st21" d="M911.82,303.81l37.97,1.49.94-2.92c-10.29-4.67-25-4.28-35.64-.62-1.27.44-2.97.27-3.28,2.06Z"/>
    <path class="st21" d="M1108.37,329.97l41.84,4.84c-8.23-8.46-24.4-14.16-36.03-11.16-2.61.67-6.54,3.17-5.81,6.32Z"/>
    <path class="st20" d="M1280.52,463.2c.03-8.04,6.53-18.86,8.02-26.97,8.85-6.51,32.05-20.16,42.64-13.7,4.62,2.82,5.43,19,4.65,23.97-2.55,16.24-26.8,38.1-39.76,47.61-1.25.92-6.49,5.31-7.67,4.46-1.48-1.06-7.89-31.66-7.87-35.36ZM1321.96,438.48c4.8,9.92-13.01,29.31-21.42,33.9,1.06-4.42.47-12.2-2.32-15.85-.93-1.22-3.69-.82-4.55.33s2.23,9.13,1.48,13.08c-.56,2.99-9.14,9.81-4.21,11.12,3.55.94,15.8-6.52,18.86-9.12,11.77-9.99,31.16-39.32,2.91-40.21.23,4.17,7.63,3.43,9.24,6.77Z"/>
    <path class="st25" d="M1145.6,389.32c-23.1-5.89-20.53,38.08-.18,33.26,13.71-3.25,11.74-30.31.18-33.26Z"/>
    <path class="st25" d="M924.14,377.78c-15.57-15.59-24.41,22.83-7.73,26.6,14.72,3.32,16.19-18.13,7.73-26.6Z"/>
  </g>
  <path class="st2" d="M1318.66,874.09l-49.58-55.44s-5.14-113.03-8.26-143.67-57.5-37.03-64.65,3.51,8.76,155.28,8.76,155.28c-3.29,5.11,67.96,91.5,67.96,91.5,4.56,5.1,11.96,5.1,16.53,0l29.24-32.7c4.56-5.1,4.56-13.38,0-18.48Z"/>
  <path class="st7" d="M-471.15,945.11"/>
  <g>
    <path d="M1375.21,928.29c-.83,1.68-2.16,3.03-3.56,3.99-1.41.97-2.89,1.59-4.35,2.04-1.46.46-2.92.74-4.35.94-2.88.37-5.7.38-8.47.24-1.39-.07-2.77-.21-4.14-.38-.85-.11-1.67-.22-2.51-.36-.69,1.63-1.76,3.09-3.2,4.34-3.41,2.96-8.76,4.5-13.51,2.78-.33,1.73-1.01,3.44-2.06,4.9-1.41,2-3.31,3.45-5.25,4.48-.98.52-1.97.95-2.97,1.31l-.38.14-.44.14c-.31.1-.6.17-.89.23-.58.13-1.15.21-1.7.28-2.22.23-4.3.13-6.33-.12s-4.01-.65-5.96-1.14c-3.89-1-7.63-2.41-11.22-4.17-3.58-1.76-7-3.89-10.16-6.41-3.14-2.52-6.03-5.45-8.4-8.81-2.38-3.35-4.23-7.13-5.33-11.14-1.12-4-1.48-8.2-1.18-12.29.27-4.09,1.28-8.1,2.47-11.83.6-1.89,1.28-3.76,2.07-5.6.77-1.84,1.65-3.65,2.64-5.41,1.96-3.53,4.38-6.85,7.25-9.76,2.86-2.92,6.15-5.4,9.63-7.42,6.98-4.08,14.5-6.39,21.62-8.84,7.13-2.43,14.01-5.11,19.84-9.28,2.91-2.07,5.54-4.49,7.84-7.22.57-.69,1.13-1.38,1.66-2.1l.4-.54.15-.2.19-.24c.13-.16.27-.31.42-.46.59-.59,1.3-1.07,2.07-1.39,1.54-.65,3.25-.69,4.77-.19,1.53.49,2.9,1.57,3.72,2.95.23.4.3.56.44.83.13.24.24.49.35.74.23.49.43.99.62,1.49.38,1.01.69,2.03.93,3.08.24,1.04.42,2.11.51,3.19.1,1.08.12,2.18.05,3.27-.12,2.19-.66,4.4-1.56,6.46-.92,2.04-2.23,3.9-3.76,5.47-1.53,1.57-3.29,2.84-5.12,3.88-1.83,1.04-3.74,1.84-5.66,2.5-.96.34-1.93.61-2.91.88-.91.25-1.72.47-2.54.76-1.63.56-3.16,1.28-4.35,2.18-1.2.91-1.93,1.94-2.11,3.03-.21,1.09.15,2.45.93,3.79.78,1.34,1.9,2.62,3.17,3.78.73.66,1.51,1.28,2.33,1.87.32-.57.65-1.13,1.02-1.66l.31-.46c.03-.06.13-.19.23-.31l.29-.34c.2-.23.45-.44.69-.65.26-.2.54-.38.82-.54,1.19-.63,2.48-.73,3.5-.62,2.06.25,3.49,1.02,4.83,1.78,1.32.78,2.49,1.64,3.61,2.54,2.22,1.8,4.2,3.75,6.1,5.75.42.44.82.89,1.23,1.34,3.67-.14,7.01-.92,9.95-2.34,0-.76.07-1.53.19-2.29.18-1.06.46-2.11.84-3.11.74-2.02,1.86-3.87,3.16-5.51,1.3-1.65,2.82-3.07,4.42-4.32,1.61-1.25,3.27-2.34,5.04-3.32.97-.5,1.95-1,3.21-1.31.59-.18,1.33-.26,2.06-.29.4.02.81.06,1.22.11.43.1.86.24,1.28.4.41.21.82.45,1.19.72.33.29.67.6.94.93.24.32.47.66.68,1,.16.32.31.65.46.98.48,1.27.65,2.43.76,3.54.17,2.19,0,4.21-.24,6.18-.25,1.97-.6,3.88-1.01,5.76-.8,3.77-1.88,7.43-3.03,11.05l-.44,1.35-.23.67-.11.34-.15.41c-.41,1.09-.96,2.13-1.62,3.08-1.34,1.91-3.14,3.47-5.2,4.51-.51.26-1.06.48-1.58.68l-1.32.46-2.64.92c-1.02.35-2.04.69-3.06,1.04.13.28.26.54.38.83.56,1.35,1.09,2.72,1.41,4.41.08.43.13.89.16,1.39,0,.26,0,.54-.01.82l-.05.46-.03.23-.04.17c-.11.44-.22.88-.35,1.32-.17.43-.34.86-.54,1.28ZM1368.43,927.71c.78-.57,1.34-1.22,1.69-1.95.08-.19.15-.38.23-.57l.16-.62.02-.07v-.02s0-.02,0-.03v-.18c-.02-.16-.04-.37-.08-.59-.18-.93-.6-2.07-1.08-3.18-.49-1.12-1.06-2.24-1.67-3.35-1.23-2.22-2.58-4.43-4.03-6.58-2.89-4.31-6.13-8.42-9.59-12.24-1.73-1.9-3.55-3.72-5.45-5.31-.95-.79-1.92-1.52-2.89-2.11-.13-.08-.26-.16-.4-.23-.83-.47-1.66-.8-2.18-.85-.29-.04-.38,0-.39,0t-.02,0s-.02,0-.04.03c0,.02-.02.03-.03.04-.01.01-.02.01-.08.09l-.26.36c-.71.96-1.27,1.97-1.75,3-.93,2.06-1.32,4.25-1.04,6.42.29,2.17,1.19,4.33,2.55,6.31.66,1,1.43,1.94,2.26,2.87.41.47.84.91,1.27,1.37.44.44.89.89,1.35,1.33,1.84,1.75,3.81,3.43,5.87,5.07,2.05,1.65,4.17,3.27,6.3,5.01-2.69-.56-5.28-1.46-7.78-2.59-2.09-.95-4.11-2.09-6.02-3.42-.85.14-1.69.31-2.47.49,3.67,4.82,5.68,9.39,5.83,13.48,0,.13,0,.26,0,.4.69.07,1.4.14,2.09.19,1.28.09,2.57.14,3.84.17,2.55.04,5.09-.08,7.5-.47.71-.12,1.41-.26,2.09-.43,1.61-.41,3.09-.98,4.19-1.79ZM1380.5,909.44c1.2-.69,2.23-1.65,2.97-2.8.38-.59.68-1.23.92-1.89l.09-.25.1-.32.21-.66.41-1.32c1.06-3.51,2.01-7.06,2.8-10.58.39-1.76.72-3.53.94-5.26.22-1.73.34-3.46.26-4.99-.06-.74-.18-1.45-.35-1.93-.05-.1-.09-.19-.13-.29-.04-.06-.08-.1-.1-.17-.03-.02-.05-.02-.04-.06-.02.01-.01.02,0-.01-.03.02-.03,0-.05-.02-.04,0-.07,0-.1-.01-.02,0-.05,0-.07,0-.19.03-.39,0-.7.1-.56.11-1.28.42-1.97.76-3.06,1.59-5.97,3.56-8.11,6.03-1.07,1.23-1.98,2.58-2.59,4.04-.32.72-.54,1.48-.75,2.25-.17.77-.33,1.56-.42,2.36-.36,3.24.12,6.71,1.1,10.5-1.6-1.18-2.87-2.78-3.79-4.59-.34-.66-.63-1.35-.87-2.07-2.18.91-4.52,1.55-7,1.91,1.85,2.32,3.59,4.7,5.26,7.16,1.25,1.85,2.46,3.75,3.57,5.72,1.15-.49,2.31-.98,3.47-1.46l2.59-1.06,1.3-.53c.34-.14.65-.3.97-.47.03-.02.07-.05.1-.07ZM1341.53,935.55c1.62-1.4,2.42-3.1,2.48-5.17,0-.18.01-.37,0-.55-.24-6.6-7.4-15.6-19.62-24.69-.03-.03-.07-.05-.1-.08-7.67-5.69-12.29-7.16-14.92-7.31-1.51-.08-2.37.27-2.77.51-1.53.93-2.17,3.43-1.84,6.97.91.33,1.79.7,2.64,1.11,3.74,1.84,6.97,4.36,9.84,7.15,2.87,2.8,5.37,5.91,7.59,9.17,2.21,3.28,4.25,6.76,5.54,10.81.32,1.01.58,2.08.75,3.18,3.52,2.38,8.1.88,10.39-1.11ZM1321.2,946.4c1.41-.74,2.6-1.68,3.41-2.79.23-.31.43-.65.59-.99.43-.87.67-1.84.74-2.9.07-1.48-.16-3.08-.66-4.69-.98-3.23-2.76-6.43-4.77-9.46-2.02-3.04-4.29-5.91-6.84-8.46-2.54-2.54-5.38-4.77-8.46-6.32-1.53-.77-3.14-1.36-4.7-1.64-1.25-.23-2.5-.23-3.46.04-.23.06-.45.14-.64.23-.48.23-.83.56-.98.86-.21.38-.36,1.03-.39,1.75-.07,1.44.27,3.1.84,4.67,1.14,3.18,3.13,6.16,5.53,8.77,1.78,1.94,3.8,3.69,6,5.27l.17-.02s0,.09,0,.14c.73.52,1.47,1.01,2.23,1.49,3.12,1.99,6.52,3.63,10.06,5.15-3.84-.32-7.66-1.23-11.3-2.73-.37-.15-.73-.31-1.09-.47.02,1.07.1,2.12.3,3.15.21,1.07.56,2.12,1.14,3.08.56.97,1.36,1.84,2.32,2.56-1.14-.37-2.24-.96-3.21-1.79-.97-.82-1.79-1.87-2.44-2.99-.65-1.12-1.15-2.31-1.58-3.51-.34-.95-.62-1.9-.89-2.85-1.63-1.03-3.19-2.21-4.63-3.53-2.97-2.75-5.49-6.12-7.01-10.09-.73-1.99-1.26-4.12-1.19-6.49.05-1.18.23-2.44.89-3.76.42-.82.99-1.5,1.64-2.04.46-.38.95-.7,1.45-.95,1.22-.61,2.47-.87,3.66-.95.7-.05,1.38-.03,2.05.02-.19-5.86,2.06-8.62,4.18-9.91,2.09-1.28,4.75-1.54,7.93-.83,4.17.94,9.23,3.57,15.02,7.86l.11.08c4.9,3.64,9.02,7.28,12.31,10.83.38-.11.8-.23,1.26-.34-.42-.43-.82-.88-1.23-1.32-.45-.57-.92-1.12-1.34-1.73-1.73-2.37-3.09-5.2-3.6-8.32-.39-2.35-.2-4.79.42-7.06-1.27-.82-2.49-1.73-3.66-2.75-1.56-1.37-3.03-2.94-4.21-4.87-.58-.97-1.09-2.04-1.41-3.23-.32-1.19-.45-2.52-.25-3.85.19-1.33.73-2.61,1.44-3.67.72-1.06,1.6-1.92,2.51-2.63,1.84-1.42,3.81-2.31,5.76-3.02.96-.35,1.99-.65,2.91-.9.86-.25,1.72-.5,2.54-.8,3.33-1.17,6.43-2.83,8.66-5.17,1.11-1.16,2.01-2.48,2.64-3.91.6-1.44.97-2.98,1.05-4.59.05-.8.02-1.61-.06-2.43-.08-.81-.22-1.63-.42-2.43-.19-.81-.44-1.6-.74-2.37-.15-.38-.31-.76-.49-1.13-.09-.19-.17-.37-.27-.55-.08-.16-.22-.42-.23-.44-.16-.25-.38-.41-.66-.5-.04-.01-.09-.02-.13-.03-.24-.05-.5-.02-.68.06-.11.05-.2.11-.28.2-.02.02-.04.05-.06.07l-.09.12-.45.61c-.59.82-1.22,1.61-1.85,2.39-2.58,3.12-5.59,5.89-8.87,8.24-3.28,2.36-6.81,4.29-10.41,5.91-3.6,1.63-7.26,2.96-10.88,4.22-7.23,2.51-14.35,4.78-20.55,8.4-3.09,1.8-5.93,3.94-8.4,6.46-2.48,2.5-4.58,5.37-6.32,8.5-.87,1.55-1.66,3.17-2.36,4.84-.13.31-.26.63-.39.94-.12.28-.23.57-.34.86-.42,1.09-.81,2.19-1.16,3.3-.01.03-.02.07-.03.1-1.11,3.48-1.96,6.87-2.19,10.35-.25,3.49.03,6.98.94,10.32.9,3.33,2.42,6.5,4.43,9.36,4.03,5.74,9.89,10.26,16.34,13.47,3.23,1.61,6.64,2.91,10.11,3.82,1.74.45,3.49.81,5.23,1.03,1.74.22,3.48.3,5.05.14.39-.04.77-.1,1.11-.18.17-.04.34-.08.49-.13l.24-.07.3-.1c.79-.28,1.55-.61,2.25-.98Z"/>
    <path class="st23" d="M1370.13,925.76c-.35.73-.91,1.38-1.69,1.95-1.11.81-2.59,1.38-4.19,1.79-12.37,1.58-20.73-12.83-13.99-8.11,7,4.9,12.11.43,12.11.43-14.69-10.54-22.51-24.06-17.01-31.15.14.07.27.15.4.23.97.6,1.94,1.32,2.89,2.11,1.9,1.59,3.71,3.41,5.45,5.31,3.45,3.83,6.7,7.94,9.59,12.24,1.45,2.15,2.8,4.36,4.03,6.58.61,1.11,1.18,2.24,1.67,3.35.48,1.1.9,2.24,1.08,3.18.04.22.07.43.08.59v.18s0,.02,0,.03v.02s-.02.07-.02.07l-.16.62c-.08.19-.15.38-.23.57Z"/>
    <path class="st23" d="M1383.47,906.64c-.75,1.15-1.77,2.11-2.97,2.8-11.47,3.57-12.66-8.25-10.49-6.22,1.51,1.41,3.57,2,4.8,2.24.64.12,1.07.15,1.07.15-1.78-11.61,7.85-24.42,12.55-26.75.03,0,.07.02.1.01.02.03.02.04.05.02,0,.03-.01.02,0,.01,0,.04.01.04.04.06.02.07.06.11.1.17.04.1.08.2.13.29.17.48.28,1.18.35,1.93.08,1.54-.04,3.26-.26,4.99-.23,1.74-.56,3.5-.94,5.26-.79,3.52-1.74,7.07-2.8,10.58l-.41,1.32-.21.66-.1.32-.09.25c-.23.66-.53,1.3-.92,1.89Z"/>
    <path class="st28" d="M1380.5,909.44s-.07.05-.1.07c-.32.17-.63.33-.97.47l-1.3.53-2.59,1.06c-1.16.48-2.31.97-3.47,1.46-1.11-1.97-2.32-3.87-3.57-5.72-1.67-2.45-3.42-4.84-5.26-7.16,2.48-.36,4.82-1,7-1.91.24.72.53,1.41.87,2.07.92,1.81,2.19,3.42,3.79,4.59l-.09.56c-1.23-.24-3.29-.83-4.8-2.24-2.17-2.03-.98,9.79,10.49,6.22Z"/>
    <path class="st23" d="M1364.24,929.49c-.68.17-1.38.32-2.09.43-2.41.39-4.95.51-7.5.47-1.28-.03-2.56-.07-3.84-.17-.69-.05-1.4-.12-2.09-.19,0-.13,0-.26,0-.4-.15-4.09-2.15-8.66-5.83-13.48.77-.18,1.61-.36,2.47-.49,1.92,1.33,3.93,2.48,6.02,3.42,2.5,1.13,5.09,2.03,7.78,2.59-2.12-1.75-4.25-3.36-6.3-5.01-2.05-1.64-4.03-3.32-5.87-5.07-.46-.44-.9-.88-1.35-1.33-.43-.46-.86-.9-1.27-1.37-.82-.92-1.59-1.87-2.26-2.87-1.36-1.97-2.26-4.13-2.55-6.31-.29-2.17.11-4.36,1.04-6.42.48-1.03,1.04-2.04,1.75-3l.26-.36c.05-.08.06-.08.08-.09.01-.01.03-.02.03-.04.02-.03.04-.01.04-.03t.02,0s.1-.03.39,0c.52.05,1.35.39,2.18.85-5.49,7.09,2.33,20.61,17.01,31.15,0,0-5.11,4.47-12.11-.43-6.74-4.72,1.62,9.69,13.99,8.11Z"/>
    <path class="st28" d="M1375.87,905.62s-.42-.03-1.07-.15l.09-.56c-.98-3.8-1.46-7.26-1.1-10.5.09-.81.25-1.59.42-2.36.21-.77.43-1.53.75-2.25.62-1.46,1.52-2.81,2.59-4.04,2.15-2.47,5.06-4.44,8.11-6.03.69-.33,1.41-.65,1.97-.76.31-.1.51-.07.7-.1.02,0,.05,0,.07,0-4.7,2.32-14.33,15.14-12.55,26.75Z"/>
    <path class="st23" d="M1344,930.38c-.05,2.07-.86,3.77-2.48,5.17-2.29,1.99-6.87,3.49-10.39,1.11-.17-1.1-.43-2.17-.75-3.18-1.29-4.05-3.34-7.53-5.54-10.81-2.22-3.26-4.72-6.37-7.59-9.17-2.87-2.79-6.1-5.31-9.84-7.15-.85-.41-1.73-.79-2.64-1.11-.33-3.53.31-6.03,1.84-6.97.4-.25,1.26-.6,2.77-.51,2.45,7.36,22.38,25.2,24.63,29.56,2.27,4.38,8.53,7.94,10,3.07Z"/>
    <path class="st23" d="M1344,930.38c-1.47,4.87-7.72,1.31-10-3.07-2.25-4.36-22.18-22.2-24.63-29.56,2.63.15,7.25,1.62,14.92,7.31.04.03.07.05.1.08,12.22,9.09,19.37,18.09,19.62,24.69,0,.19,0,.37,0,.55Z"/>
    <path class="st23" d="M1324.61,943.61c-.8,1.11-2,2.05-3.41,2.79-.7.37-1.46.69-2.25.98l-.3.1-.24.07c-.15.05-.32.09-.49.13-.34.08-.72.13-1.11.18-1.57.16-3.31.08-5.05-.14-1.74-.22-3.5-.58-5.23-1.03-3.47-.92-6.88-2.21-10.11-3.82-6.45-3.22-12.31-7.73-16.34-13.47-2.01-2.86-3.53-6.03-4.43-9.36-.91-3.33-1.19-6.83-.94-10.32.23-3.48,1.07-6.87,2.19-10.35-2.85,10.93,1.81,25.09,15.24,7.08.23-.3.45-.41.69-.4-.65.54-1.23,1.22-1.64,2.04-.66,1.32-.85,2.58-.89,3.76-.06,2.37.46,4.5,1.19,6.49,1.52,3.97,4.04,7.34,7.01,10.09,1.44,1.33,3,2.5,4.63,3.53.27.95.55,1.9.89,2.85.43,1.19.93,2.38,1.58,3.51.65,1.12,1.46,2.17,2.44,2.99.97.83,2.08,1.42,3.21,1.79-.96-.72-1.76-1.59-2.32-2.56-.57-.96-.92-2.01-1.14-3.08-.2-1.03-.28-2.08-.3-3.15.36.16.72.32,1.09.47,3.64,1.5,7.46,2.41,11.3,2.73l.11.43c-2.16.68-5.4,1.06-8.7-.96,0,0,2.58,12.48,13.92,5.66-.17.35-.36.68-.59.99Z"/>
    <path class="st23" d="M1322.53,936.78c-12.11-2.67-25.84-19.48-25.47-27.6.96-.26,2.21-.27,3.46-.04,1.56.28,3.17.88,4.7,1.64,3.08,1.55,5.92,3.79,8.46,6.32,2.55,2.55,4.82,5.41,6.84,8.46,2.01,3.04,3.79,6.23,4.77,9.46.5,1.61.73,3.22.66,4.69-.07,1.06-.32,2.02-.74,2.9-11.34,6.83-13.92-5.66-13.92-5.66,3.3,2.02,6.55,1.64,8.7.96,1.51-.48,2.48-1.1,2.55-1.15Z"/>
    <path class="st28" d="M1340.77,911.84c-.45.12-.87.23-1.26.34-3.29-3.55-7.41-7.18-12.31-10.83l-.11-.08c-5.79-4.29-10.84-6.93-15.02-7.86,12.72.22,22.27,8.41,18.52,3.21-14.23-19.73-4.04-24.98,9.49-32.71,11.51-6.59,11.43-14.11,9.91-19.77.05,0,.09.01.13.03.29.09.51.25.66.5.02.01.15.28.23.44.1.18.18.36.27.55.18.37.34.75.49,1.13.3.77.55,1.57.74,2.37.2.8.34,1.62.42,2.43.09.82.11,1.63.06,2.43-.07,1.61-.44,3.15-1.05,4.59-.63,1.43-1.52,2.74-2.64,3.91-2.23,2.34-5.33,4-8.66,5.17-.83.31-1.69.55-2.54.8-.92.26-1.94.56-2.91.9-1.95.7-3.92,1.6-5.76,3.02-.91.71-1.79,1.57-2.51,2.63-.72,1.06-1.25,2.34-1.44,3.67-.2,1.33-.07,2.66.25,3.85.32,1.2.83,2.26,1.41,3.23,1.18,1.93,2.65,3.5,4.21,4.87,1.16,1.02,2.39,1.93,3.66,2.75-.62,2.27-.82,4.71-.42,7.06.51,3.12,1.87,5.95,3.6,8.32.42.61.89,1.16,1.34,1.73.4.45.81.9,1.23,1.32Z"/>
    <path class="st23" d="M1322.53,936.78c-.07.05-1.04.67-2.55,1.15l-.11-.43c-3.54-1.52-6.93-3.16-10.06-5.15-.76-.48-1.5-.98-2.23-1.49,0-.05,0-.09,0-.14l-.17.02c-2.2-1.58-4.22-3.33-6-5.27-2.4-2.61-4.39-5.6-5.53-8.77-.57-1.57-.91-3.22-.84-4.67.03-.71.18-1.37.39-1.75.15-.31.5-.64.98-.86.19-.1.41-.17.64-.23-.36,8.12,13.36,24.93,25.47,27.6Z"/>
    <path class="st23" d="M1330.61,896.63c3.75,5.19-5.8-2.99-18.52-3.21-3.18-.71-5.84-.45-7.93.83-2.12,1.29-4.37,4.05-4.18,9.91-.67-.05-1.35-.07-2.05-.02-1.19.09-2.44.35-3.66.95-.5.25-.99.57-1.45.95-.24,0-.46.1-.69.4-13.43,18.02-18.09,3.85-15.24-7.08,0-.03.02-.07.03-.1.35-1.11.74-2.21,1.16-3.3.16-.35.33-.69.51-1.02-.06.05-.11.11-.17.16.12-.31.25-.63.39-.94.7-1.66,1.48-3.28,2.36-4.84,1.73-3.12,3.84-5.99,6.32-8.5,2.47-2.51,5.31-4.66,8.4-6.46,6.2-3.62,13.33-5.89,20.55-8.4,3.62-1.26,7.28-2.59,10.88-4.22,3.6-1.62,7.13-3.55,10.41-5.91,3.28-2.35,6.29-5.12,8.87-8.24.64-.78,1.27-1.57,1.85-2.39l.45-.61.09-.12s.04-.05.06-.07c.08-.09.17-.15.28-.2.18-.08.43-.11.68-.06,1.52,5.66,1.61,13.18-9.91,19.77-13.53,7.74-23.72,12.98-9.49,32.71Z"/>
    <path class="st28" d="M1278.59,894.94c-.18.33-.35.67-.51,1.02.11-.29.22-.57.34-.86.06-.06.11-.11.17-.16Z"/>
  </g>
  <path class="st4" d="M841.57,402.38s-138.54-284.73,121.84-364.05c287.02-87.43,402.29,143.89,408.31,196.8,8.06,70.85,19.79,178.87-32.82,200.62"/>
  <path class="st19" d="M1345.8,424.92l-7.3-11.63c18.22-7.84,11.54-16.47,14.18-56.81,2.48-37.78-2.39-82.31-5.94-114.82-1.54-14.15-11.45-41.92-30.08-72.08-15.92-25.76-43.96-62.38-87.14-90.51-71.1-46.32-157.1-53.97-255.6-22.73-62.23,19.74-104.72,54.68-126.28,103.85-45.69,104.2-2.84,226.66-2.21,228.01l-4.32,2.85c-.68-1.46-9.58-18.82-19.93-67.65-9.63-45.43-15.71-111.88,9.97-170.44,23.73-54.13,69.94-92.41,137.33-113.78,55.32-17.54,107.83-23.33,156.07-17.18,41.55,5.29,80.17,19.42,114.8,41.98,80.71,52.58,123.42,140.4,127.29,175.73,7.91,72.38,12.16,144.11-20.84,185.21Z"/>
  <path d="M924.62,432.36c-17.91,0-33.19-8.79-40.76-17.99-12.45-15.15-11.1-40.68-11.04-41.76l6.99.41c-.02.37-1.21,23.92,9.46,36.9,6.7,8.15,21.59,16.42,38.43,15.33,10.8-.7,26.26-5.67,38.58-25.39l3.94,3.71c-8.01,25.27-29.63,27.86-42.07,28.67-1.19.08-2.37.11-3.53.11ZM879.81,373.03l-3.49-.21,3.49.2h0Z"/>
</svg>