<?xml version="1.0" encoding="UTF-8"?>
<svg id="Layer_1" xmlns="http://www.w3.org/2000/svg" version="1.1" viewBox="0 0 1920 1080">
  <!-- Generator: Adobe Illustrator 29.1.0, SVG Export Plug-In . SVG Version: 2.1.0 Build 142)  -->
  <defs>
    <style>
      .st0 {
        fill: #010101;
      }

      .st1 {
        fill: #fcfcfc;
      }

      .st2 {
        fill: #050402;
      }

      .st3 {
        fill: #080808;
      }

      .st4 {
        fill: #1b1412;
      }

      .st5 {
        fill: #020202;
      }

      .st6 {
        fill: #a57a47;
      }

      .st7 {
        fill: #fdc0ab;
      }

      .st8 {
        fill: #090909;
      }

      .st9 {
        fill: #050505;
      }

      .st10 {
        fill: #f2f2f2;
      }

      .st11 {
        fill: #404040;
      }

      .st12 {
        fill: #fbfbfa;
      }

      .st13 {
        fill: #0b0a09;
      }

      .st14 {
        fill: #030303;
      }

      .st15 {
        fill: #a47947;
      }

      .st16 {
        fill: #f9bda8;
      }

      .st17 {
        fill: #251c19;
      }

      .st18 {
        fill: #382f2c;
      }

      .st19 {
        fill: #515151;
      }

      .st20 {
        fill: #1b1814;
      }

      .st21 {
        fill: #fec0ab;
      }

      .st22 {
        fill: #c7c7c7;
      }

      .st23 {
        fill: #2f2624;
      }

      .st24 {
        fill: #040302;
      }

      .st25 {
        fill: #f4f4f4;
      }

      .st26 {
        fill: #c1c1c1;
      }

      .st27 {
        fill: #0000fe;
      }

      .st28 {
        fill: #f5f5f5;
      }

      .st29 {
        fill: #c6c6c6;
      }

      .st30 {
        fill: #9c766a;
      }

      .st31 {
        fill: none;
        stroke: #0a0908;
        stroke-miterlimit: 10;
      }

      .st32 {
        fill: #151515;
      }

      .st33 {
        fill: #fefefe;
      }

      .st34 {
        fill: #bebebe;
      }

      .st35 {
        fill: #2e2e2e;
      }

      .st36 {
        fill: #f3f3f3;
      }
    </style>
  </defs>
  <path class="st31" d="M-471.1,945.1"/>
  <path d="M641.7,1043.1c.7-8.7-1.1-18.3.2-26.9s8.7-16.5,9.8-23.9c8.5-55.6-2.2-141-2.7-199.3-.3-33.3-1.7-120.1,26.3-144.1,5.6-4.8,14.2-3.4,13.3-14.4-.3-3.1-11.1-12.9-14.2-17.6-37.9-57.5-15.5-214.6-10.4-283.4s-.5-84.5,15.6-133.7c38.3-117.7,97.5-174.5,241-189.9,101.3-10.9,223.8,28.2,286.6,99.6,17.9,20.4,46.5,61.2,42.9,87-6.1,43.9-33.6,96-40.8,139.7-2.6,15.5.6,33.1-.9,49-7.6,82.4-78.4,142.6-170.3,155.4l-2.8,26.9c16.1,1,31.5-2.1,48-.8,90.6,7,146.7,60.6,157.5,137.3,12.9,91.5,17.6,189.9,17.2,281.8,12.1,18.3,14.5,34,12.5,55.2l-2.5-.3-2.5-21.3-5.6-1.9c-6-35.2-60.9-43.3-87.8-19.9s-19.9,17.9-10.6,21c.3,9.7-2,19.8-6.9,30.2,14.6,24.5,28.2-8,26.5-22.1,1.3-9.3,7-16.7,14.7-7l-7.8,40.6c16.9,9.6,27.4-14.1,27.8-26.8.3-10.2,1-18.4,11.6-6.3,6.8,7.8,2.1,36.5-11.3,35.4,4.3,3.8,3.1,5.3-2.5,6.5-1.1-.2-3.7-.2-5,0l-5,2.2c-3.4.6-5,2.8-10.5,1.8-9.1-1.7-15.8-16.5-24.3-.7,3,26.8,4.5,57.5,2.7,84.5-1.9,28.8-4.2,53.4-34.4,69.6l-5.3,110.1,12.3,5.5c1.5,13.9.5,26.9-2.9,39h-50c7.6,7,14.1,14.3,19.4,22.1-7.1,9.3-16.3,17.7-27.5,25.1,5.2,8.5,13.6,16.1,25.2,23,3.7,3.5,4,7.5.3,11.1l-26.7,26.2c16.2,2.9,31.8,6.9,46.8,12-2.4,7.5-6.1,14.8-11.1,21.9l3.2,2.7c21.6-5.5,43.4-9.5,65.4-11.9,15.7,3.5,16.9,1.3,25.2,15.8,9,15.7,3.1,29.8,4.5,47,2.8,6.4-.9,5.7-10.9-2.1-20.8-9.8-43,3.2-41.4,23.7-32,3.2-58.4-8.5-79.7-28-6.3-4.5-14.1-6.4-22.1-6.6-20.4,2.3-36.5.2-55.2-7.6-7.9-3.3-22.4-9.4-23.4-16.2-.4-35.9,7-61.7,9.9-96.4,4.4-53.8,9.7-122.8,4.9-175.5-.4-4.7-2.7-9.2-2.6-14l-16.2-2.1-15.9-24-9.9,22.8-27.3,1.1c.9,5.6-2,10.9-2.5,16.3-4.5,53.9,0,123,4.9,177.6,3.1,34.5,10,61.1,9.9,96.4-1.2,7-16,13.4-24.2,16.8-18.7,7.7-34.1,8.9-54.4,7-8.4.3-16.5,2.4-23,7.3-20.9,19.4-47.4,30.7-78.8,27.4-2.7-28.4-24.2-32.7-49.2-18.3-1.9,1.1-3.2-.6-3.1-3.4.5-17.4-4.7-48.2,14.9-59.5,6.7-3.9,9.4-2.1,14.8-3.3,22.2,3,44.3,7,66.5,12.2.3-6.5-2.5-13.5-8.5-20.9-2.1-3.2.1-5,3.7-6.7l42.3-8.6c-11.4-10.6-21.1-21.7-28.8-33.2,9.3-8.8,18.7-17.7,28.3-26.5-10-8-19.3-16.5-27.9-25.3,5.1-8.1,11.1-15.8,18.2-23.1h-50.6c-3.4-10.6-4.6-22.1-3.5-34.7l16.2-10.7-6.2-104.8c-14.6-5.6-29.9-10.3-37.2-24.2l-14.9-139.7c-4.4.7-6.1,0-5-2.2-7.9.8-10.7-15.2-11.6-21.5-5-31.6,15.3-41.8,14.6-5.3.9,12.5,7.7,26.9,23.8,18.2l-6.4-35.8c2.1-3,5.1-3.6,8.6-1.7-20.1-43.2-90.5-48.8-104.9-1.6l-5.7,2.2c0,8.7-1.7,15.9-5,21.7Z"/>
  <path class="st0" d="M980.8,1533.7l3.5-.5c21.7,15.2,48.1,23.8,75.8,19.8,8.7,0,17.2,1.9,24,6.7,20.4,18.1,50.5,34.4,79.7,25.8.5-35.5,61.6-30.7,54.8,2.2-26.2,40-103.3,31.4-138.4,5.2-12.6-9.3-3.9-14.7-11.8-24.9-12.8-5-22.5,2.9-36.8,2.5-20.6-.7-41.3-6-48.2-23.9l-2.5-6.5c-.2-2.1.1-4.3,0-6.5Z"/>
  <path class="st0" d="M941.2,1542.3l-2.5,6.5c-7,18-27.7,23.3-48.2,23.9-14.3.5-23.9-7.4-36.8-2.5-7.9,10.2.8,15.5-11.8,24.9-34.4,25.6-113.6,35.3-138.4-5.2-8.2-32.2,54.6-37.1,54.6-2.4,14.2,16.6,74.8-17.9,88.4-30l12.5-2.2c29.5,3.3,56-3.3,78.9-20.1l3.2.7c-.1,2.1.2,4.4,0,6.5Z"/>
  <path class="st29" d="M775.3,1338.9l2.5,30.3h64.3s-27,26.8-27,26.8l27.2,21.8c10.2,10.1-28.4,26.5-27.2,32.3l34.5,33.8-53.3,10.8,13.7,26-74.3-15.1c3.2-.7,6.7-1.5,9.9-2.2q22.8,1.8,0,0c-.9-.5-1.5-1.6-2.5-2.2,9.4-7.4,21.6-11.6,36.8-12.6-2.8-4.4-5.1-8.8-7.1-13.3,2.2-3.5,2.2-5.8,2.6-9.6,3.9-40.5-3.1-85.7-.1-126.7Z"/>
  <path class="st22" d="M1144.2,1451.5l-5-21-17,17.1c9.6,6.3,16.9,13.4,22,21.3,2.2,1.6,3.7,3.5,5,4.3-2.1,4.4-4.3,8.9-6.7,13.3l36.4,8.3c2.2,1.4,9.1.4,7.4,6.5-5.8-2.5-6.6-.8-9.9,0q-27.6.7,0,0c3.2.7,6.7,1.4,9.9,2.2l-74.3,15.1,13.7-26-53.3-10.8,34.5-33.8c1.2-5.8-37.4-22.2-27.2-32.3l27.2-21.8-27-26.7h64.3s0-34.6,0-34.6v119Z"/>
  <path class="st26" d="M941.2,1535.9c-12.7,9.2-30.6,18.1-46.9,20.7-14.8,2.3-31.2-1.1-44.8,2s-23.1,16.7-33.8,22.4c-19.2,10.3-37.9,12.5-60.2,11.2,4.8-35.5-51.5-34.4-52-2.2-2.7-4.5-4-8.7-4.2-13.8,1.5-3.1,3.8-5.8,6.7-7.9.1,0,1.3,1.4,2.5.8,4.1-2.3,6.1-5.7,11.7-6.8,22.6-4.7,39.5,5.3,40.4,25.4,17.5,1.5,33.1-.9,48.6-8.2,23.7-11.1,23.5-26.2,56.6-26.5,4.3,0,8.5,1.9,12.3,1.8,19.7-.4,46.5-11.4,60.7-23.4,0,1.1,2.5,3.4,2.5,4.3Z"/>
  <path class="st34" d="M983.3,1529.4c14.1,11.6,41.2,22.9,60.7,23.4,3.7,0,8-1.9,12.3-1.8,33.1.3,32.9,15.3,56.6,26.5,15.5,7.3,31.1,9.7,48.6,8.2-.1-20.4,18.5-30,40.4-25.4,5.6,1.2,7.6,4.6,11.7,6.8s2.4-.9,2.5-.8c8.7,6.3,7.9,13.3,2.5,21.6,3.2-11.7-15.5-25.4-28-25.3-15.8.2-26.9,14.2-23.9,27.4-21.1,1.3-40.2-1.2-58.7-10.4-11.4-5.7-24.7-20.8-35.3-23.2s-24.2,0-35.9-1c-19.8-1.7-40.7-10.4-55.7-21.6,0-1,2.5-3.3,2.5-4.3Z"/>
  <path class="st23" d="M646.6,1012.1l3.4.7c0,10.8,1.6,21.3,4.7,31.7-1.7-9.6,8.2-40.9,18.4-22.6-2.5,12.5-5.4,32,14,34.1-5.3-8.8-9.4-25.8-3-34.6,9-12.5,12.1-7.5,12.4,5,.3,13.1,8.1,34.7,27.3,28.5l4.6,2.7,5,2.2c-7.2,1.2-10.5,6.4-18.6,6.7s-28.5-5.9-41.5-2.8c-12.8-11.2-31.7-9.9-31.4-29.9,0-4.1,3.6-16.7,5-21.6Z"/>
  <path class="st9" d="M1144.2,1451.5v17.3c-.7-.5-4-.4-6.2-2.1-8-6-14.1-13.8-23.5-18.6l29.7-29.1c0,10.8,0,21.7,0,32.5Z"/>
  <path class="st18" d="M1270.5,1031.6c0,5.4-3.6,16.3-8.9,19.3s-9.4,1.7-13.2,3.6c-10.1,5.1-8.6,11.6-25.6,9.1-4.3-.6-7.4-3.5-9.2-3.9-1-3.3.9-4.3,2.5-6.5l5-2c17.6,9.6,22.2-20.4,17.9-31.4,13.1-14.6,19,14.3,16.8,24.1,4.6,1.6,6.4-26.8,4.8-30.1l5-3.9c1.3,5,4.9,17.5,5,21.6Z"/>
  <path class="st8" d="M772.9,1475.3c7.2-1.4,14.3,15.3,12.4,17.3-14.3,1.8-28.3,4.7-42.1,8.7s-1.8-.2-2.5,0c-2.7,1.9-3.8.8-2.5-2.2,8-5.1,30.4-17.1,34.7-23.8Z"/>
  <path class="st3" d="M1149.2,1473.1c9.9,7.2,19.3,15,29.7,21.6-12.4,5.3-28.8-4.7-42.1-4.3-1.9-1.9,5.1-18.7,12.4-17.3Z"/>
  <polygon class="st32" points="1315 490.6 1327.4 493.9 1323.7 501.4 1315 490.6"/>
  <polygon class="st19" points="532.7 540.4 527.8 539.3 525.3 533.9 530.3 535 532.7 540.4"/>
  <path class="st34" d="M983.3,1546.7c-.9-2.2-2.1-2.4-2.5-6.5l2.5,6.5Z"/>
  <path class="st29" d="M740.7,1501.2c-.3.1.1,3.3-4.9,2.2l2.5-4.3,2.5,2.2Z"/>
  <path class="st26" d="M938.7,1548.8l2.5-6.5c-.4,4.1-1.6,4.2-2.5,6.5Z"/>
  <path class="st18" d="M1208.6,1059.8c-.3,0-1.9,1.6-5,2.2l5-2.2Z"/>
  <path class="st21" d="M1193.7,334.8c6.1,91.5-38.3,161.1-144,182.5-113.7,23-259.2-5.5-274.4-124-12.6,4.4-11.4,11.2-27.9,8.1-34.7-6.3-45.4-62.9-30.4-86.2,18.9-29.4,40.1,14,59.1,8.5,23.3-22.5,40.1-50.2,70.2-66.5l200.1-84.6,125,52.8,14.7,72.4c-22.7,9.3-26.7-9-48.1-10.8-56.8-4.9-79.9,32.6-59.4,75.8,22.3,18.8,50.8,27.2,77.7,9.6,21.9-14.4,14.7-27.2,27.4-42,6.2-7.4,9.5-5.9,9.9,4.3Z"/>
  <path class="st27" d="M913.7,1241.8l-4.7,86.3c-35.4-6.9-70.3-8.6-106.4-4.3l-4.9-97.4,116.1,15.4Z"/>
  <path class="st27" d="M1124.4,1222.1l-4.9,99.5c-35.9-4.5-71.2-2.7-106.4,4.3l-4.7-82c39.5-4.1,79.2-8.2,116.1-21.9Z"/>
  <path class="st21" d="M1265.5,1010c-.9,13.8,5.3,36.5-14.8,41.1-2-1.9,4.2-29-7.4-32.4,4.8,15.4,2.2,37-19,40.5l-8.2-5.8c8.8-12,15-26.7,2.5-39,7.9,15.8-6.7,48.9-30.4,42.9l-5.6-3.9,8.8-45.5c-7.9,6.3-4.4,18.4-8.1,28.6-6.8,18.6-26.3,23.4-33.3,3.2l9.3-30.7-8.7,11.9c-6.2-16.9,25.1-46.4,42.7-49.3s40.8,1.3,53.5,8.5c13.3,7.5,15.8,17.5,19,29.9Z"/>
  <path class="st21" d="M646.6,1012.1c5.3-19,11.8-30.3,34.6-35.8,25.9-6.2,46.3-5.2,64.4,13.1s20.2,23.3,17.4,35.7l-9.9-13,7,37.4c-2.3,6.8-13.6,7.1-20.1,5.4-15.3-4-14.9-34-14.2-45-11.5,10.6-2.1,34.1,2.5,47.6-25.7,14-43.1-22.9-34.7-41.1-12.6,11.7-8.4,31.7,2.5,43.3-29.5,4.8-33.7-19.2-27.2-38.9-6.7-1-4.3,1.1-5.6,4.7-3.2,8.6-4.5,16.8-1.8,25.6-21.6-.8-13.4-25.8-14.8-38.9Z"/>
  <path class="st33" d="M1013,614l-39.8,105.8-8.1.3-50.8-105.1,17.9-9.5c10,12.7,37.4,12,43.7-2.4,11.9,9.8,19.9,15.9,37.1,10.8Z"/>
  <path class="st7" d="M1025.4,533.9l-2.8,26.7c-2,5.4-30.7,7.6-37.9,8-23,1.3-47.5-1.1-70.7,0l-4.9-36.8c38.6,4.2,77.6,6.5,116.4,2.1Z"/>
  <path class="st1" d="M1027.8,572.9c-4.2,12.8-4.8,33.1-23.5,34.7-23.6,1.9-20-17.2-29.7-17.4-3.7,8.9-3.3,16.5-16.1,18.7-16.6,2.8-21.5-16.6-28.5-16.6s-8.4,14-17.4,15.2l-6.1-10.7,9.9-3.2-12.5-2.2c-2.9-1.4-9.1-15.2-1.2-14.1l125.1-4.3Z"/>
  <path class="st28" d="M1112,315.3l1.6,4.5c-11.1,10.3-9.4,35.2,7.2,40.1,37.7,11.1,36.5-57.7-3.5-42.4l-5.3-2.3c3.4-1.8,5.5-6.1,12.3-7.6,24.8-5.6,49,8,43.5,31.6-10.3,44.4-102.3,38.6-79.1-6.4,5.2-10.1,13.6-12.4,23.2-17.5Z"/>
  <path class="st10" d="M1002.5,1103.6c2.1,1.8,3.2,6.6,3.2,9.2l-6.7,11.7-8.3-.8-4.9-6.6,1.2-11.8,5.4-4c2.8-.6,8.1.7,10,2.4Z"/>
  <path class="st36" d="M992.4,845.8c16.6-4.9,21.9,17.4,6,20.4s-17.3-17.1-6-20.4Z"/>
  <path class="st25" d="M992.5,941c21.7-5.5,12.8,31.1-4.1,18-7.3-5.7-4-16,4.1-18Z"/>
  <path class="st30" d="M1183.8,330.5c1.2-1.3,4.5-1.7,5-3.5l-7.5-8.4,5-7.5-9.9-1.1,12.4-7.6c1.2,10.9,4.2,21.4,5,32.5l-2.5-6.5-7.4,2.2Z"/>
  <polygon class="st0" points="811.2 1397.4 839.7 1422.2 813.4 1444.8 782.8 1420.1 811.2 1397.4"/>
  <polygon class="st5" points="842.2 1481.7 791.8 1490.6 782.6 1474.3 811.2 1451.5 842.2 1481.7"/>
  <polygon class="st14" points="777.8 1473.1 777.8 1421.2 807.5 1450.3 777.8 1473.1"/>
  <path class="st14" d="M777.8,1416.8v-45.4c4.8,3.2,27.8,21.1,27.1,24.6l-27.1,20.9Z"/>
  <path class="st3" d="M745.6,1503.4c14.3-2.9,29-4.5,43.1-8.3l13.8,21.3c-15.6-5.3-43.5-5.4-56.9-13Z"/>
  <path class="st8" d="M832.3,1371.4c3.2,2.5-16.9,18.9-21.5,19.2l-4.6-1.7-18.5-17.5h44.6Z"/>
  <polygon class="st0" points="1110.8 1395.6 1139.2 1417.9 1108.7 1442.6 1082.4 1420.1 1110.8 1395.6"/>
  <polygon class="st5" points="1131.6 1488.1 1079.9 1478.5 1110.8 1449.3 1139.1 1472.2 1131.6 1488.1"/>
  <path class="st14" d="M1144.2,1414.7l-27.1-20.9c-.7-3.5,22.2-21.4,27.1-24.6v45.4Z"/>
  <path class="st3" d="M1176.4,1501.2c-18.9,4.4-37.7,9.6-56.9,13l13.8-21.3c14.2,3.5,28.8,5.4,43.1,8.3Z"/>
  <path class="st8" d="M1134.3,1369.2l-18.5,17.5-4.6,1.7c-6.3-.5-19.7-14.3-24-19.2h47Z"/>
  <path class="st0" d="M839.7,339.1c-4.7,1.8-6.5,3.3-9.8-1.1l5-6.5-5-5.4h7.4s-2.5-8.6-2.5-8.6c15.6,3,16.6-7.6,24.7-14.2,32.5-26.4,77.8-9.1,99.1,19.6,4.2,35.2-13,64.2-55.9,67.8s-62.5-17.8-62.8-51.7Z"/>
  <path class="st24" d="M837.2,287.2c14.5-19.5,42.9-23.9,67.8-21.4,11,1.1,73,23,75.4,29.3s1.2,9.9-3.7,11.3c-11.6,3.4-44.9-19.2-58.6-24-30.8-10.6-51.2-4.6-80.9,4.7Z"/>
  <path d="M1173.9,269.9c-28-8.3-61.1,2.3-85.8,14.8-12.6,6.4-49.2,38.9-47.5,10.5,34-22.5,93.9-52.8,133.3-25.3Z"/>
  <path class="st4" d="M767.9,371.6l-8.7-10.8c-2.4,1.9-5.4,5.1-5.7,7.9-.6,5.1,7.8,7.7.7,11.5-14.4-6.6-22.5-19.2-23.6-33.4-.7-8.4-2.2-19.5,10-20.7l-4.9-10.8c21.9,12.9,29.2,34.3,32.1,56.3Z"/>
  <path class="st4" d="M1057.6,471.2c-2.1,3.2-12.7,5-16.8,5.8-37.2,7.1-70.5,3.7-107-4.8,15.2-7,32.2.6,48.2,1.2,25.1.9,50.9.4,75.6-2.2Z"/>
  <path class="st17" d="M988.3,399.7l35.7,10.8c3.8-.5,7.3-1.9,10.2-4.2,4.6-3.7,3.9-9.3,8.6-10.9-2.1,26.8-29,27.2-48.8,11.3s-6.9-2.2-5.7-6.9Z"/>
  <path class="st11" d="M1001.9,588c6.7-1.3,8.5,9.6,2.4,10.8-6.7,1.3-8.5-9.6-2.4-10.8Z"/>
  <path class="st35" d="M954.8,590.2c4.7,0,4.7,10.7,0,10.7s-4.7-10.7,0-10.7Z"/>
  <path class="st13" d="M1112,315.3c2.4-1.6,6.3-2.7,9.2-3.8,44.1-7.5,42.1,64.7-1.9,52.6-21.1-5.8-23-38-7.3-48.8Z"/>
  <path class="st12" d="M886.1,318c20.9-2.6,39,1.5,55.2,13.3,11.4,30.2-11.6,50-46,49-49.5-1.5-58.9-56.1-9.2-62.3Z"/>
  <path class="st16" d="M745.6,328.3l11.7,24.9-9.3,14c-6.1,4.2-24.1-39-2.5-38.9Z"/>
  <path class="st15" d="M1123.7,317.9c4.3-.8,8.3-1,12,1.6l10.9,16.6-5.2,16.8-11.1,5.6c-22.5,3.6-27.9-28.8-13.3-37.8,2-1.2,4.3-2.5,6.7-2.9Z"/>
  <path class="st20" d="M893.5,320.1c26.2-4.2,39.3,17.9,31,37.9-35.3,40.6-78.9-17.4-31-37.9Z"/>
  <path class="st2" d="M1126.1,326.4l13.1,7.3c4.9,22.4-20.5,24.5-22.3,8.4l9.1-15.7Z"/>
  <path class="st6" d="M896,324.3c33-5.2,35.1,49-2.5,42.5-15.7-3.8-16.9-19.9-12.3-31.5,1.9-4,9.9-10.3,14.8-11Z"/>
  <path class="st24" d="M898.5,330.7c1.3-.2,2.6-.4,3.9,0l11.8,15.9c-14.3,38.5-45.3-12.3-15.6-15.9Z"/>
</svg>